<svg width="193" height="154" viewBox="0 0 193 154" fill="none" xmlns="http://www.w3.org/2000/svg">
<rect y="42.1318" width="193" height="111.792" rx="9.52582" fill="white"/>
<path d="M40.2366 88.3636V60.05H42.0504V88.3636H40.2366ZM45.9104 68.8316C45.7924 67.7846 45.3058 66.9735 44.4505 66.3984C43.5952 65.8159 42.5187 65.5247 41.2209 65.5247C40.2919 65.5247 39.4882 65.6721 38.8099 65.9671C38.1315 66.2546 37.6043 66.6528 37.2283 67.1616C36.8596 67.6629 36.6753 68.2344 36.6753 68.8759C36.6753 69.4141 36.8006 69.8786 37.0513 70.2694C37.3094 70.6602 37.6449 70.9883 38.0578 71.2538C38.4781 71.5118 38.9278 71.7293 39.4071 71.9063C39.8864 72.0759 40.3472 72.216 40.7896 72.3266L43.0016 72.9017C43.7242 73.0787 44.4652 73.3183 45.2247 73.6206C45.9841 73.9229 46.6883 74.3211 47.3371 74.8151C47.986 75.3091 48.5095 75.9211 48.9076 76.651C49.3132 77.381 49.5159 78.2547 49.5159 79.2723C49.5159 80.5552 49.1841 81.6944 48.5205 82.6898C47.8643 83.6852 46.9095 84.4705 45.656 85.0456C44.4099 85.6207 42.9021 85.9083 41.1325 85.9083C39.4366 85.9083 37.9693 85.6391 36.7306 85.1009C35.4919 84.5626 34.5223 83.7995 33.8218 82.8115C33.1213 81.8161 32.7342 80.6363 32.6605 79.2723H36.0891C36.1555 80.0907 36.4209 80.7727 36.8854 81.3184C37.3573 81.8566 37.9582 82.2585 38.6882 82.5239C39.4255 82.782 40.2329 82.911 41.1103 82.911C42.0762 82.911 42.9352 82.7599 43.6873 82.4575C44.4468 82.1479 45.044 81.7202 45.479 81.1746C45.9141 80.6216 46.1316 79.9764 46.1316 79.2391C46.1316 78.5681 45.9399 78.0188 45.5565 77.5911C45.1804 77.1635 44.668 76.8096 44.0191 76.5294C43.3776 76.2492 42.6514 76.0022 41.8403 75.7884L39.1638 75.0584C37.3499 74.5644 35.9121 73.8381 34.8504 72.8796C33.796 71.921 33.2688 70.6528 33.2688 69.0749C33.2688 67.7699 33.6227 66.6307 34.3306 65.6574C35.0384 64.6841 35.9969 63.9283 37.2062 63.3901C38.4154 62.8445 39.7795 62.5717 41.2984 62.5717C42.832 62.5717 44.185 62.8408 45.3574 63.379C46.5371 63.9173 47.4662 64.6583 48.1445 65.6021C48.8229 66.5385 49.1768 67.615 49.2063 68.8316H45.9104ZM64.7389 62.8813V85.5322H61.3103V66.3099H61.1776L55.7581 69.8491V66.5754L61.4098 62.8813H64.7389ZM81.6872 85.9083C79.9397 85.9009 78.4466 85.4401 77.2079 84.5258C75.9691 83.6115 75.0217 82.2806 74.3654 80.5331C73.7092 78.7856 73.3811 76.6805 73.3811 74.2178C73.3811 71.7625 73.7092 69.6648 74.3654 67.9247C75.029 66.1846 75.9802 64.8574 77.2189 63.9431C78.465 63.0288 79.9544 62.5717 81.6872 62.5717C83.4199 62.5717 84.9056 63.0325 86.1443 63.9542C87.3831 64.8684 88.3305 66.1956 88.9868 67.9358C89.6504 69.6685 89.9822 71.7625 89.9822 74.2178C89.9822 76.6879 89.6541 78.7967 88.9978 80.5442C88.3416 82.2843 87.3941 83.6152 86.1554 84.5368C84.9167 85.4511 83.4273 85.9083 81.6872 85.9083ZM81.6872 82.9552C83.2208 82.9552 84.419 82.2069 85.2817 80.7101C86.1517 79.2133 86.5867 77.0492 86.5867 74.2178C86.5867 72.3376 86.3877 70.7487 85.9895 69.451C85.5987 68.1459 85.0347 67.1579 84.2973 66.4869C83.5674 65.8085 82.6973 65.4694 81.6872 65.4694C80.1609 65.4694 78.9627 66.2215 78.0927 67.7256C77.2226 69.2298 76.7839 71.3939 76.7765 74.2178C76.7765 76.1054 76.9719 77.7017 77.3627 79.0068C77.7609 80.3045 78.3249 81.2889 79.0549 81.9598C79.7848 82.6234 80.6623 82.9552 81.6872 82.9552ZM98.2705 82.4354L98.1046 83.641C97.994 84.5258 97.806 85.4474 97.5405 86.406C97.2824 87.3719 97.0133 88.2677 96.7331 89.0935C96.4603 89.9194 96.2354 90.5756 96.0585 91.0622H93.7137C93.8096 90.6051 93.9423 89.9857 94.1119 89.2041C94.2815 88.4299 94.4474 87.5636 94.6096 86.605C94.7718 85.6465 94.8935 84.6695 94.9746 83.6741L95.0852 82.4354H98.2705ZM110.82 85.9083C109.072 85.9009 107.579 85.4401 106.34 84.5258C105.102 83.6115 104.154 82.2806 103.498 80.5331C102.842 78.7856 102.514 76.6805 102.514 74.2178C102.514 71.7625 102.842 69.6648 103.498 67.9247C104.162 66.1846 105.113 64.8574 106.351 63.9431C107.597 63.0288 109.087 62.5717 110.82 62.5717C112.552 62.5717 114.038 63.0325 115.277 63.9542C116.516 64.8684 117.463 66.1956 118.119 67.9358C118.783 69.6685 119.115 71.7625 119.115 74.2178C119.115 76.6879 118.787 78.7967 118.13 80.5442C117.474 82.2843 116.527 83.6152 115.288 84.5368C114.049 85.4511 112.56 85.9083 110.82 85.9083ZM110.82 82.9552C112.353 82.9552 113.551 82.2069 114.414 80.7101C115.284 79.2133 115.719 77.0492 115.719 74.2178C115.719 72.3376 115.52 70.7487 115.122 69.451C114.731 68.1459 114.167 67.1579 113.43 66.4869C112.7 65.8085 111.83 65.4694 110.82 65.4694C109.293 65.4694 108.095 66.2215 107.225 67.7256C106.355 69.2298 105.916 71.3939 105.909 74.2178C105.909 76.1054 106.104 77.7017 106.495 79.0068C106.893 80.3045 107.457 81.2889 108.187 81.9598C108.917 82.6234 109.795 82.9552 110.82 82.9552ZM131.241 85.9083C129.493 85.9009 128 85.4401 126.761 84.5258C125.523 83.6115 124.575 82.2806 123.919 80.5331C123.263 78.7856 122.935 76.6805 122.935 74.2178C122.935 71.7625 123.263 69.6648 123.919 67.9247C124.583 66.1846 125.534 64.8574 126.773 63.9431C128.019 63.0288 129.508 62.5717 131.241 62.5717C132.974 62.5717 134.459 63.0325 135.698 63.9542C136.937 64.8684 137.884 66.1956 138.54 67.9358C139.204 69.6685 139.536 71.7625 139.536 74.2178C139.536 76.6879 139.208 78.7967 138.551 80.5442C137.895 82.2843 136.948 83.6152 135.709 84.5368C134.47 85.4511 132.981 85.9083 131.241 85.9083ZM131.241 82.9552C132.774 82.9552 133.973 82.2069 134.835 80.7101C135.705 79.2133 136.14 77.0492 136.14 74.2178C136.14 72.3376 135.941 70.7487 135.543 69.451C135.152 68.1459 134.588 67.1579 133.851 66.4869C133.121 65.8085 132.251 65.4694 131.241 65.4694C129.714 65.4694 128.516 66.2215 127.646 67.7256C126.776 69.2298 126.338 71.3939 126.33 74.2178C126.33 76.1054 126.526 77.7017 126.916 79.0068C127.314 80.3045 127.879 81.2889 128.608 81.9598C129.338 82.6234 130.216 82.9552 131.241 82.9552ZM151.662 85.9083C149.914 85.9009 148.421 85.4401 147.183 84.5258C145.944 83.6115 144.996 82.2806 144.34 80.5331C143.684 78.7856 143.356 76.6805 143.356 74.2178C143.356 71.7625 143.684 69.6648 144.34 67.9247C145.004 66.1846 145.955 64.8574 147.194 63.9431C148.44 63.0288 149.929 62.5717 151.662 62.5717C153.395 62.5717 154.88 63.0325 156.119 63.9542C157.358 64.8684 158.305 66.1956 158.962 67.9358C159.625 69.6685 159.957 71.7625 159.957 74.2178C159.957 76.6879 159.629 78.7967 158.973 80.5442C158.316 82.2843 157.369 83.6152 156.13 84.5368C154.891 85.4511 153.402 85.9083 151.662 85.9083ZM151.662 82.9552C153.196 82.9552 154.394 82.2069 155.256 80.7101C156.126 79.2133 156.561 77.0492 156.561 74.2178C156.561 72.3376 156.362 70.7487 155.964 69.451C155.573 68.1459 155.009 67.1579 154.272 66.4869C153.542 65.8085 152.672 65.4694 151.662 65.4694C150.136 65.4694 148.937 66.2215 148.067 67.7256C147.197 69.2298 146.759 71.3939 146.751 74.2178C146.751 76.1054 146.947 77.7017 147.337 79.0068C147.736 80.3045 148.3 81.2889 149.03 81.9598C149.76 82.6234 150.637 82.9552 151.662 82.9552Z" fill="#0D0D0D"/>
<path d="M25.3105 108.063C25.3105 103.148 29.2946 99.1641 34.2091 99.1641H158.789C163.704 99.1641 167.688 103.148 167.688 108.063V130.309C167.688 135.224 163.704 139.208 158.789 139.208H34.2091C29.2946 139.208 25.3105 135.224 25.3105 130.309V108.063Z" fill="#F0F2F4"/>
<g clip-path="url(#clip0_67_23460)">
<path d="M56.2125 125.998C59.9749 125.998 63.025 122.948 63.025 119.186C63.025 115.423 59.9749 112.373 56.2125 112.373C52.45 112.373 49.3999 115.423 49.3999 119.186C49.3999 122.948 52.45 125.998 56.2125 125.998Z" stroke="#3737FF" stroke-width="1.36251" stroke-linecap="round" stroke-linejoin="round"/>
<path d="M53.4878 119.186L56.2128 121.911L58.9378 119.186" stroke="#3737FF" stroke-width="1.36251" stroke-linecap="round" stroke-linejoin="round"/>
<path d="M56.2129 116.461V121.911" stroke="#3737FF" stroke-width="1.36251" stroke-linecap="round" stroke-linejoin="round"/>
</g>
<path d="M74.8826 123.686V113.169H78.6311C79.4459 113.169 80.122 113.309 80.6594 113.59C81.2003 113.871 81.6043 114.259 81.8713 114.756C82.1383 115.249 82.2718 115.819 82.2718 116.466C82.2718 117.109 82.1366 117.676 81.8662 118.165C81.5991 118.652 81.1952 119.03 80.6543 119.3C80.1168 119.571 79.4407 119.706 78.626 119.706H75.7863V118.34H78.4822C78.9957 118.34 79.4133 118.266 79.7351 118.119C80.0604 117.972 80.2983 117.758 80.4489 117.477C80.5995 117.197 80.6748 116.859 80.6748 116.466C80.6748 116.069 80.5978 115.725 80.4438 115.434C80.2931 115.143 80.0552 114.92 79.73 114.766C79.4082 114.609 78.9854 114.53 78.4617 114.53H76.4693V123.686H74.8826ZM80.0741 118.941L82.6724 123.686H80.8648L78.3179 118.941H80.0741ZM87.4739 123.845C86.6968 123.845 86.0275 123.679 85.4661 123.347C84.9081 123.011 84.4767 122.54 84.1721 121.935C83.8708 121.325 83.7202 120.611 83.7202 119.793C83.7202 118.985 83.8708 118.273 84.1721 117.657C84.4767 117.041 84.9012 116.56 85.4455 116.214C85.9933 115.868 86.6334 115.695 87.366 115.695C87.8111 115.695 88.2424 115.769 88.6601 115.916C89.0777 116.063 89.4526 116.295 89.7846 116.61C90.1167 116.924 90.3786 117.334 90.5703 117.837C90.762 118.337 90.8578 118.944 90.8578 119.66V120.204H84.588V119.054H89.3533C89.3533 118.65 89.2711 118.292 89.1068 117.981C88.9425 117.666 88.7114 117.417 88.4136 117.236C88.1192 117.055 87.7734 116.964 87.3763 116.964C86.945 116.964 86.5684 117.07 86.2466 117.282C85.9282 117.491 85.6818 117.765 85.5072 118.104C85.336 118.439 85.2504 118.804 85.2504 119.198V120.096C85.2504 120.623 85.3428 121.072 85.5277 121.442C85.716 121.811 85.9779 122.094 86.3134 122.289C86.6488 122.481 87.0408 122.576 87.4893 122.576C87.7803 122.576 88.0456 122.535 88.2852 122.453C88.5248 122.368 88.7319 122.241 88.9065 122.073C89.0811 121.905 89.2146 121.698 89.3071 121.452L90.7603 121.714C90.6439 122.142 90.4351 122.516 90.1338 122.838C89.836 123.157 89.4611 123.405 89.0092 123.583C88.5608 123.757 88.049 123.845 87.4739 123.845ZM95.9777 123.845C95.2143 123.845 94.557 123.672 94.0059 123.326C93.4581 122.977 93.0371 122.496 92.7427 121.883C92.4482 121.27 92.301 120.569 92.301 119.778C92.301 118.977 92.4517 118.27 92.7529 117.657C93.0542 117.041 93.4787 116.56 94.0264 116.214C94.5741 115.868 95.2194 115.695 95.9623 115.695C96.5614 115.695 97.0954 115.807 97.5644 116.029C98.0334 116.248 98.4117 116.556 98.6993 116.954C98.9902 117.351 99.1631 117.815 99.2179 118.345H97.7236C97.6414 117.975 97.4532 117.657 97.1588 117.39C96.8678 117.123 96.4775 116.99 95.988 116.99C95.5601 116.99 95.1852 117.102 94.8634 117.328C94.545 117.551 94.2969 117.869 94.1188 118.284C93.9408 118.694 93.8518 119.18 93.8518 119.742C93.8518 120.317 93.9391 120.813 94.1137 121.231C94.2883 121.649 94.5348 121.972 94.8531 122.202C95.1749 122.431 95.5532 122.546 95.988 122.546C96.279 122.546 96.5426 122.493 96.7788 122.386C97.0184 122.277 97.2187 122.121 97.3796 121.919C97.5439 121.717 97.6586 121.474 97.7236 121.19H99.2179C99.1631 121.7 98.9971 122.155 98.7198 122.556C98.4425 122.956 98.0711 123.271 97.6055 123.501C97.1434 123.73 96.6008 123.845 95.9777 123.845ZM104.353 123.845C103.576 123.845 102.907 123.679 102.345 123.347C101.787 123.011 101.356 122.54 101.051 121.935C100.75 121.325 100.599 120.611 100.599 119.793C100.599 118.985 100.75 118.273 101.051 117.657C101.356 117.041 101.781 116.56 102.325 116.214C102.873 115.868 103.513 115.695 104.245 115.695C104.69 115.695 105.122 115.769 105.539 115.916C105.957 116.063 106.332 116.295 106.664 116.61C106.996 116.924 107.258 117.334 107.45 117.837C107.641 118.337 107.737 118.944 107.737 119.66V120.204H101.467V119.054H106.233C106.233 118.65 106.15 118.292 105.986 117.981C105.822 117.666 105.591 117.417 105.293 117.236C104.998 117.055 104.653 116.964 104.256 116.964C103.824 116.964 103.448 117.07 103.126 117.282C102.808 117.491 102.561 117.765 102.386 118.104C102.215 118.439 102.13 118.804 102.13 119.198V120.096C102.13 120.623 102.222 121.072 102.407 121.442C102.595 121.811 102.857 122.094 103.193 122.289C103.528 122.481 103.92 122.576 104.369 122.576C104.66 122.576 104.925 122.535 105.165 122.453C105.404 122.368 105.611 122.241 105.786 122.073C105.96 121.905 106.094 121.698 106.186 121.452L107.64 121.714C107.523 122.142 107.314 122.516 107.013 122.838C106.715 123.157 106.34 123.405 105.889 123.583C105.44 123.757 104.928 123.845 104.353 123.845ZM109.535 123.686V115.798H111.07V123.686H109.535ZM110.31 114.581C110.043 114.581 109.814 114.492 109.622 114.314C109.434 114.133 109.34 113.917 109.34 113.667C109.34 113.414 109.434 113.198 109.622 113.02C109.814 112.839 110.043 112.748 110.31 112.748C110.577 112.748 110.805 112.839 110.993 113.02C111.185 113.198 111.281 113.414 111.281 113.667C111.281 113.917 111.185 114.133 110.993 114.314C110.805 114.492 110.577 114.581 110.31 114.581ZM119.977 115.798L117.117 123.686H115.474L112.608 115.798H114.257L116.254 121.868H116.336L118.329 115.798H119.977ZM124.645 123.845C123.868 123.845 123.199 123.679 122.637 123.347C122.079 123.011 121.648 122.54 121.343 121.935C121.042 121.325 120.891 120.611 120.891 119.793C120.891 118.985 121.042 118.273 121.343 117.657C121.648 117.041 122.072 116.56 122.617 116.214C123.164 115.868 123.805 115.695 124.537 115.695C124.982 115.695 125.414 115.769 125.831 115.916C126.249 116.063 126.624 116.295 126.956 116.61C127.288 116.924 127.55 117.334 127.741 117.837C127.933 118.337 128.029 118.944 128.029 119.66V120.204H121.759V119.054H126.524C126.524 118.65 126.442 118.292 126.278 117.981C126.114 117.666 125.883 117.417 125.585 117.236C125.29 117.055 124.945 116.964 124.547 116.964C124.116 116.964 123.739 117.07 123.418 117.282C123.099 117.491 122.853 117.765 122.678 118.104C122.507 118.439 122.422 118.804 122.422 119.198V120.096C122.422 120.623 122.514 121.072 122.699 121.442C122.887 121.811 123.149 122.094 123.484 122.289C123.82 122.481 124.212 122.576 124.66 122.576C124.951 122.576 125.217 122.535 125.456 122.453C125.696 122.368 125.903 122.241 126.078 122.073C126.252 121.905 126.386 121.698 126.478 121.452L127.931 121.714C127.815 122.142 127.606 122.516 127.305 122.838C127.007 123.157 126.632 123.405 126.18 123.583C125.732 123.757 125.22 123.845 124.645 123.845ZM132.779 123.84C132.142 123.84 131.574 123.677 131.074 123.352C130.578 123.023 130.188 122.556 129.903 121.95C129.623 121.341 129.482 120.61 129.482 119.757C129.482 118.905 129.624 118.176 129.909 117.57C130.196 116.964 130.59 116.5 131.09 116.178C131.589 115.856 132.156 115.695 132.789 115.695C133.279 115.695 133.673 115.778 133.97 115.942C134.272 116.103 134.504 116.291 134.669 116.507C134.837 116.722 134.967 116.912 135.059 117.077H135.151V113.169H136.687V123.686H135.187V122.458H135.059C134.967 122.626 134.833 122.818 134.659 123.033C134.487 123.249 134.251 123.437 133.95 123.598C133.649 123.759 133.258 123.84 132.779 123.84ZM133.118 122.53C133.56 122.53 133.933 122.414 134.237 122.181C134.546 121.945 134.778 121.618 134.936 121.2C135.097 120.783 135.177 120.296 135.177 119.742C135.177 119.194 135.098 118.715 134.941 118.304C134.783 117.893 134.552 117.573 134.248 117.344C133.943 117.114 133.566 117 133.118 117C132.656 117 132.271 117.12 131.963 117.359C131.655 117.599 131.422 117.926 131.264 118.34C131.11 118.754 131.033 119.222 131.033 119.742C131.033 120.269 131.112 120.743 131.269 121.164C131.427 121.585 131.66 121.919 131.968 122.166C132.279 122.409 132.663 122.53 133.118 122.53Z" fill="#3737FF"/>
<rect x="26.3657" y="1" width="141.322" height="33.7486" rx="9.50061" fill="white"/>
<g opacity="0.1">
<rect x="27.8546" y="1.43317" width="138.359" height="34.9897" rx="4.96189" fill="white" stroke="white" stroke-width="1.24107"/>
</g>
<path d="M69.0797 11.9891V22.8203H67.7681V11.9891H69.0797ZM72.8107 17.9336V22.8203H71.5626V14.6969H72.7684V15.9662H72.8742C73.0646 15.5537 73.3537 15.2223 73.7415 14.9719C74.1294 14.7181 74.63 14.5912 75.2435 14.5912C75.7935 14.5912 76.2748 14.704 76.6873 14.9296C77.0998 15.1518 77.4207 15.4902 77.6499 15.9451C77.879 16.3964 77.9936 16.9675 77.9936 17.6586V22.8203H76.7455V17.7432C76.7455 17.105 76.5798 16.6079 76.2484 16.2518C75.9169 15.8922 75.4621 15.7124 74.8839 15.7124C74.4855 15.7124 74.1294 15.7987 73.8156 15.9715C73.5053 16.1443 73.2603 16.3964 73.0805 16.7278C72.9006 17.0592 72.8107 17.4611 72.8107 17.9336ZM86.6484 14.6969L83.6444 22.8203H82.3751L79.3712 14.6969H80.7251L82.9675 21.1703H83.0521L85.2945 14.6969H86.6484ZM91.3274 22.9895C90.594 22.9895 89.9506 22.815 89.397 22.466C88.847 22.1169 88.4168 21.6286 88.1066 21.001C87.7998 20.3734 87.6465 19.6401 87.6465 18.8009C87.6465 17.9547 87.7998 17.2161 88.1066 16.585C88.4168 15.9539 88.847 15.4638 89.397 15.1147C89.9506 14.7657 90.594 14.5912 91.3274 14.5912C92.0607 14.5912 92.7024 14.7657 93.2524 15.1147C93.806 15.4638 94.2361 15.9539 94.5429 16.585C94.8531 17.2161 95.0083 17.9547 95.0083 18.8009C95.0083 19.6401 94.8531 20.3734 94.5429 21.001C94.2361 21.6286 93.806 22.1169 93.2524 22.466C92.7024 22.815 92.0607 22.9895 91.3274 22.9895ZM91.3274 21.8684C91.8844 21.8684 92.3428 21.7256 92.7024 21.44C93.0621 21.1544 93.3282 20.7789 93.501 20.3135C93.6738 19.8481 93.7602 19.3439 93.7602 18.8009C93.7602 18.258 93.6738 17.752 93.501 17.2831C93.3282 16.8142 93.0621 16.4351 92.7024 16.146C92.3428 15.8569 91.8844 15.7124 91.3274 15.7124C90.7703 15.7124 90.312 15.8569 89.9523 16.146C89.5927 16.4351 89.3265 16.8142 89.1537 17.2831C88.981 17.752 88.8946 18.258 88.8946 18.8009C88.8946 19.3439 88.981 19.8481 89.1537 20.3135C89.3265 20.7789 89.5927 21.1544 89.9523 21.44C90.312 21.7256 90.7703 21.8684 91.3274 21.8684ZM96.9359 22.8203V14.6969H98.184V22.8203H96.9359ZM97.5705 13.343C97.3272 13.343 97.1174 13.2602 96.9411 13.0945C96.7684 12.9288 96.682 12.7296 96.682 12.4968C96.682 12.2641 96.7684 12.0649 96.9411 11.8992C97.1174 11.7335 97.3272 11.6507 97.5705 11.6507C97.8138 11.6507 98.0218 11.7335 98.1946 11.8992C98.3708 12.0649 98.459 12.2641 98.459 12.4968C98.459 12.7296 98.3708 12.9288 98.1946 13.0945C98.0218 13.2602 97.8138 13.343 97.5705 13.343ZM103.792 22.9895C103.031 22.9895 102.375 22.8097 101.825 22.4501C101.275 22.0905 100.852 21.5951 100.556 20.964C100.26 20.3329 100.112 19.6119 100.112 18.8009C100.112 17.9759 100.263 17.2478 100.566 16.6167C100.873 15.9821 101.3 15.4867 101.846 15.1306C102.396 14.771 103.038 14.5912 103.771 14.5912C104.342 14.5912 104.857 14.6969 105.316 14.9085C105.774 15.12 106.149 15.4162 106.442 15.797C106.735 16.1778 106.916 16.622 106.987 17.1297H105.739C105.643 16.7595 105.432 16.4316 105.104 16.146C104.78 15.8569 104.342 15.7124 103.792 15.7124C103.306 15.7124 102.879 15.8393 102.513 16.0931C102.149 16.3435 101.866 16.6978 101.661 17.1562C101.46 17.611 101.36 18.1451 101.36 18.7586C101.36 19.3862 101.458 19.9327 101.656 20.3981C101.857 20.8635 102.139 21.2249 102.502 21.4823C102.869 21.7397 103.299 21.8684 103.792 21.8684C104.117 21.8684 104.411 21.8119 104.676 21.6991C104.94 21.5863 105.164 21.4241 105.347 21.2126C105.531 21.001 105.661 20.7472 105.739 20.451H106.987C106.916 20.9305 106.742 21.3624 106.463 21.7467C106.188 22.1275 105.823 22.4307 105.368 22.6564C104.917 22.8785 104.392 22.9895 103.792 22.9895ZM112.24 22.9895C111.457 22.9895 110.782 22.8168 110.214 22.4713C109.65 22.1222 109.215 21.6357 108.908 21.0116C108.605 20.384 108.453 19.6542 108.453 18.8221C108.453 17.99 108.605 17.2566 108.908 16.622C109.215 15.9838 109.641 15.4867 110.188 15.1306C110.738 14.771 111.379 14.5912 112.113 14.5912C112.536 14.5912 112.954 14.6617 113.366 14.8027C113.779 14.9437 114.154 15.1729 114.493 15.4902C114.831 15.804 115.101 16.2201 115.302 16.7384C115.503 17.2566 115.603 17.8948 115.603 18.6528V19.1817H109.341V18.1028H114.334C114.334 17.6445 114.242 17.2355 114.059 16.8759C113.879 16.5162 113.622 16.2324 113.287 16.0244C112.955 15.8164 112.564 15.7124 112.113 15.7124C111.616 15.7124 111.185 15.8358 110.822 16.0826C110.463 16.3258 110.186 16.6432 109.992 17.0345C109.798 17.4259 109.701 17.8454 109.701 18.2932V19.0125C109.701 19.626 109.807 20.146 110.018 20.5726C110.233 20.9957 110.531 21.3183 110.912 21.5405C111.293 21.7591 111.735 21.8684 112.24 21.8684C112.568 21.8684 112.864 21.8225 113.128 21.7308C113.396 21.6357 113.627 21.4946 113.821 21.3078C114.015 21.1174 114.165 20.8811 114.27 20.5991L115.476 20.9375C115.349 21.3465 115.136 21.7062 114.836 22.0164C114.537 22.3232 114.166 22.5629 113.726 22.7357C113.285 22.9049 112.79 22.9895 112.24 22.9895ZM127.828 14.6969C127.764 14.161 127.507 13.745 127.056 13.4488C126.604 13.1526 126.051 13.0046 125.395 13.0046C124.915 13.0046 124.496 13.0821 124.136 13.2373C123.78 13.3924 123.502 13.6057 123.301 13.8772C123.103 14.1487 123.004 14.4572 123.004 14.8027C123.004 15.0918 123.073 15.3404 123.211 15.5484C123.352 15.7529 123.532 15.9239 123.75 16.0614C123.969 16.1954 124.198 16.3064 124.438 16.3946C124.677 16.4792 124.898 16.548 125.099 16.6008L126.199 16.897C126.481 16.9711 126.795 17.0733 127.14 17.2038C127.489 17.3342 127.822 17.5123 128.14 17.7379C128.461 17.96 128.725 18.2456 128.933 18.5947C129.141 18.9437 129.245 19.3721 129.245 19.8798C129.245 20.4651 129.092 20.994 128.785 21.4664C128.482 21.9389 128.037 22.3144 127.452 22.5929C126.87 22.8714 126.164 23.0107 125.331 23.0107C124.556 23.0107 123.884 22.8855 123.316 22.6352C122.752 22.3849 122.308 22.0358 121.984 21.5881C121.663 21.1403 121.481 20.6202 121.439 20.0279H122.793C122.828 20.4369 122.966 20.7754 123.205 21.0433C123.449 21.3078 123.755 21.5052 124.126 21.6357C124.499 21.7626 124.901 21.826 125.331 21.826C125.832 21.826 126.282 21.745 126.68 21.5828C127.078 21.4171 127.394 21.1879 127.627 20.8952C127.859 20.5991 127.976 20.2535 127.976 19.8587C127.976 19.499 127.875 19.2064 127.674 18.9807C127.473 18.7551 127.209 18.5718 126.881 18.4307C126.553 18.2897 126.199 18.1663 125.818 18.0605L124.485 17.6797C123.639 17.4365 122.969 17.0892 122.476 16.6379C121.982 16.1866 121.735 15.596 121.735 14.8662C121.735 14.2597 121.899 13.7309 122.227 13.2796C122.558 12.8247 123.003 12.4722 123.56 12.2218C124.12 11.968 124.746 11.8411 125.437 11.8411C126.135 11.8411 126.756 11.9662 127.299 12.2166C127.842 12.4634 128.272 12.8018 128.589 13.232C128.91 13.6621 129.079 14.1504 129.097 14.6969H127.828ZM134.66 22.9895C133.878 22.9895 133.203 22.8168 132.635 22.4713C132.071 22.1222 131.635 21.6357 131.329 21.0116C131.025 20.384 130.874 19.6542 130.874 18.8221C130.874 17.99 131.025 17.2566 131.329 16.622C131.635 15.9838 132.062 15.4867 132.608 15.1306C133.159 14.771 133.8 14.5912 134.534 14.5912C134.957 14.5912 135.374 14.6617 135.787 14.8027C136.199 14.9437 136.575 15.1729 136.913 15.4902C137.252 15.804 137.522 16.2201 137.723 16.7384C137.924 17.2566 138.024 17.8948 138.024 18.6528V19.1817H131.762V18.1028H136.755C136.755 17.6445 136.663 17.2355 136.48 16.8759C136.3 16.5162 136.043 16.2324 135.708 16.0244C135.376 15.8164 134.985 15.7124 134.534 15.7124C134.036 15.7124 133.606 15.8358 133.243 16.0826C132.884 16.3258 132.607 16.6432 132.413 17.0345C132.219 17.4259 132.122 17.8454 132.122 18.2932V19.0125C132.122 19.626 132.228 20.146 132.439 20.5726C132.654 20.9957 132.952 21.3183 133.333 21.5405C133.714 21.7591 134.156 21.8684 134.66 21.8684C134.988 21.8684 135.285 21.8225 135.549 21.7308C135.817 21.6357 136.048 21.4946 136.242 21.3078C136.436 21.1174 136.586 20.8811 136.691 20.5991L137.897 20.9375C137.77 21.3465 137.557 21.7062 137.257 22.0164C136.958 22.3232 136.587 22.5629 136.147 22.7357C135.706 22.9049 135.211 22.9895 134.66 22.9895ZM141.193 17.9336V22.8203H139.945V14.6969H141.151V15.9662H141.257C141.447 15.5537 141.736 15.2223 142.124 14.9719C142.512 14.7181 143.012 14.5912 143.626 14.5912C144.176 14.5912 144.657 14.704 145.07 14.9296C145.482 15.1518 145.803 15.4902 146.032 15.9451C146.261 16.3964 146.376 16.9675 146.376 17.6586V22.8203H145.128V17.7432C145.128 17.105 144.962 16.6079 144.631 16.2518C144.299 15.8922 143.845 15.7124 143.266 15.7124C142.868 15.7124 142.512 15.7987 142.198 15.9715C141.888 16.1443 141.643 16.3964 141.463 16.7278C141.283 17.0592 141.193 17.4611 141.193 17.9336ZM152.212 14.6969V15.7547H148.002V14.6969H152.212ZM149.229 12.7507H150.477V20.4933C150.477 20.8459 150.528 21.1103 150.631 21.2866C150.736 21.4594 150.87 21.5757 151.033 21.6357C151.198 21.6921 151.373 21.7203 151.556 21.7203C151.694 21.7203 151.807 21.7132 151.895 21.6991C151.983 21.6815 152.053 21.6674 152.106 21.6568L152.36 22.778C152.275 22.8097 152.157 22.8415 152.006 22.8732C151.854 22.9085 151.662 22.9261 151.429 22.9261C151.077 22.9261 150.731 22.8503 150.393 22.6987C150.058 22.5471 149.779 22.3161 149.557 22.0059C149.338 21.6956 149.229 21.3042 149.229 20.8318V12.7507Z" fill="#0D0D0D"/>
<g clip-path="url(#clip1_67_23460)">
<path d="M56.2164 11.6035L49.2012 19.2856" stroke="#0FD25D" stroke-width="1.27549" stroke-linecap="round" stroke-linejoin="round"/>
<path d="M56.2163 11.6035L51.7521 25.5709L49.2011 19.2856L43.4614 16.4921L56.2163 11.6035Z" stroke="#0FD25D" stroke-width="1.27549" stroke-linecap="round" stroke-linejoin="round"/>
</g>
<defs>
<clipPath id="clip0_67_23460">
<rect width="16.3501" height="16.3501" fill="white" transform="translate(48.0376 111.011)"/>
</clipPath>
<clipPath id="clip1_67_23460">
<rect width="15.3059" height="16.7609" fill="white" transform="translate(42.1855 10.207)"/>
</clipPath>
</defs>
</svg>
