<svg width="1005" height="605" viewBox="0 0 1005 605" fill="none" xmlns="http://www.w3.org/2000/svg">
  <path d="M931 136C932.651 246.44 1127.54 600.209 874 604C765.343 605.624 209.035 540.31 130 514C24.6158 478.918 48.9435 384.11 48 321C46.3489 210.56 191.408 50.7153 444.947 46.9247C698.487 43.1341 929.349 25.56 931 136Z" fill="url(#paint0_diamond_339_82163)"/>
  <path d="M330 123C330 118.582 333.582 115 338 115H568C572.418 115 576 118.582 576 123V155C576 159.418 572.418 163 568 163H338C333.582 163 330 159.418 330 155V123Z" fill="#3737FF"/>
  <path d="M358.106 145.5H355.802V132.342H360.824C363.812 132.342 365.558 133.854 365.558 136.446C365.558 138.21 364.73 139.47 363.182 140.1L365.684 145.5H363.164L360.932 140.586H358.106V145.5ZM358.106 134.394V138.552H360.824C362.282 138.552 363.146 137.778 363.146 136.446C363.146 135.132 362.282 134.394 360.824 134.394H358.106ZM370.882 145.734C368.236 145.734 366.382 143.808 366.382 141.054C366.382 138.264 368.2 136.338 370.81 136.338C373.474 136.338 375.166 138.12 375.166 140.892V141.558L368.47 141.576C368.632 143.142 369.46 143.934 370.918 143.934C372.124 143.934 372.916 143.466 373.168 142.62H375.202C374.824 144.564 373.204 145.734 370.882 145.734ZM370.828 138.138C369.532 138.138 368.74 138.84 368.524 140.172H372.988C372.988 138.948 372.142 138.138 370.828 138.138ZM379.481 145.734C377.591 145.734 376.439 144.636 376.439 142.962C376.439 141.324 377.627 140.298 379.733 140.136L382.397 139.938V139.74C382.397 138.534 381.677 138.048 380.561 138.048C379.265 138.048 378.545 138.588 378.545 139.524H376.673C376.673 137.598 378.257 136.338 380.669 136.338C383.063 136.338 384.539 137.634 384.539 140.1V145.5H382.613L382.451 144.186C382.073 145.104 380.867 145.734 379.481 145.734ZM380.201 144.078C381.551 144.078 382.415 143.268 382.415 141.9V141.432L380.561 141.576C379.193 141.702 378.671 142.152 378.671 142.872C378.671 143.682 379.211 144.078 380.201 144.078ZM390.351 145.734C387.777 145.734 386.175 143.844 386.175 141.09C386.175 138.318 387.795 136.338 390.477 136.338C391.719 136.338 392.817 136.86 393.375 137.742V132.108H395.553V145.5H393.537L393.393 144.114C392.853 145.14 391.701 145.734 390.351 145.734ZM390.837 143.718C392.367 143.718 393.357 142.62 393.357 141.018C393.357 139.416 392.367 138.3 390.837 138.3C389.307 138.3 388.371 139.434 388.371 141.018C388.371 142.602 389.307 143.718 390.837 143.718ZM405.717 145.5H403.521V138.444H401.811V136.608H403.521V133.836H405.717V136.608H407.445V138.444H405.717V145.5ZM411.006 145.5H408.81V132.108H411.024V137.76C411.582 136.896 412.626 136.338 413.904 136.338C416.1 136.338 417.252 137.724 417.252 140.028V145.5H415.056V140.55C415.056 139.056 414.318 138.336 413.202 138.336C411.816 138.336 411.006 139.308 411.006 140.64V145.5ZM423.387 145.734C420.741 145.734 418.887 143.808 418.887 141.054C418.887 138.264 420.705 136.338 423.315 136.338C425.979 136.338 427.671 138.12 427.671 140.892V141.558L420.975 141.576C421.137 143.142 421.965 143.934 423.423 143.934C424.629 143.934 425.421 143.466 425.673 142.62H427.707C427.329 144.564 425.709 145.734 423.387 145.734ZM423.333 138.138C422.037 138.138 421.245 138.84 421.029 140.172H425.493C425.493 138.948 424.647 138.138 423.333 138.138ZM437.934 145.734C435.36 145.734 433.758 143.844 433.758 141.09C433.758 138.318 435.378 136.338 438.06 136.338C439.302 136.338 440.4 136.86 440.958 137.742V132.108H443.136V145.5H441.12L440.976 144.114C440.436 145.14 439.284 145.734 437.934 145.734ZM438.42 143.718C439.95 143.718 440.94 142.62 440.94 141.018C440.94 139.416 439.95 138.3 438.42 138.3C436.89 138.3 435.954 139.434 435.954 141.018C435.954 142.602 436.89 143.718 438.42 143.718ZM444.903 141.036C444.903 138.264 446.901 136.356 449.655 136.356C452.409 136.356 454.407 138.264 454.407 141.036C454.407 143.808 452.409 145.716 449.655 145.716C446.901 145.716 444.903 143.808 444.903 141.036ZM447.099 141.036C447.099 142.656 448.143 143.754 449.655 143.754C451.167 143.754 452.211 142.656 452.211 141.036C452.211 139.416 451.167 138.318 449.655 138.318C448.143 138.318 447.099 139.416 447.099 141.036ZM455.626 141.036C455.626 138.282 457.444 136.338 460.072 136.338C462.502 136.338 464.158 137.688 464.392 139.83H462.196C461.944 138.822 461.206 138.3 460.162 138.3C458.758 138.3 457.822 139.362 457.822 141.036C457.822 142.71 458.686 143.754 460.09 143.754C461.188 143.754 461.962 143.214 462.196 142.242H464.41C464.14 144.312 462.412 145.734 460.09 145.734C457.39 145.734 455.626 143.862 455.626 141.036ZM472.074 136.608H474.27V145.5H472.236L472.074 144.312C471.534 145.158 470.382 145.734 469.194 145.734C467.142 145.734 465.936 144.348 465.936 142.17V136.608H468.132V141.396C468.132 143.088 468.798 143.772 470.022 143.772C471.408 143.772 472.074 142.962 472.074 141.27V136.608ZM478.734 145.5H476.538V136.608H478.554L478.734 137.652C479.184 136.914 480.084 136.338 481.362 136.338C482.712 136.338 483.648 137.004 484.116 138.03C484.566 137.004 485.61 136.338 486.96 136.338C489.12 136.338 490.308 137.634 490.308 139.686V145.5H488.13V140.262C488.13 138.984 487.446 138.318 486.402 138.318C485.34 138.318 484.53 139.002 484.53 140.46V145.5H482.334V140.244C482.334 139.002 481.668 138.336 480.624 138.336C479.58 138.336 478.734 139.02 478.734 140.46V145.5ZM496.442 145.734C493.796 145.734 491.942 143.808 491.942 141.054C491.942 138.264 493.76 136.338 496.37 136.338C499.034 136.338 500.726 138.12 500.726 140.892V141.558L494.03 141.576C494.192 143.142 495.02 143.934 496.478 143.934C497.684 143.934 498.476 143.466 498.728 142.62H500.762C500.384 144.564 498.764 145.734 496.442 145.734ZM496.388 138.138C495.092 138.138 494.3 138.84 494.084 140.172H498.548C498.548 138.948 497.702 138.138 496.388 138.138ZM504.68 145.5H502.484V136.608H504.518L504.698 137.76C505.256 136.86 506.336 136.338 507.542 136.338C509.774 136.338 510.926 137.724 510.926 140.028V145.5H508.73V140.55C508.73 139.056 507.992 138.336 506.858 138.336C505.508 138.336 504.68 139.272 504.68 140.712V145.5ZM516.107 145.5H513.911V138.444H512.201V136.608H513.911V133.836H516.107V136.608H517.835V138.444H516.107V145.5ZM521.794 145.734C519.904 145.734 518.752 144.636 518.752 142.962C518.752 141.324 519.94 140.298 522.046 140.136L524.71 139.938V139.74C524.71 138.534 523.99 138.048 522.874 138.048C521.578 138.048 520.858 138.588 520.858 139.524H518.986C518.986 137.598 520.57 136.338 522.982 136.338C525.376 136.338 526.852 137.634 526.852 140.1V145.5H524.926L524.764 144.186C524.386 145.104 523.18 145.734 521.794 145.734ZM522.514 144.078C523.864 144.078 524.728 143.268 524.728 141.9V141.432L522.874 141.576C521.506 141.702 520.984 142.152 520.984 142.872C520.984 143.682 521.524 144.078 522.514 144.078ZM531.91 145.5H529.714V138.444H528.004V136.608H529.714V133.836H531.91V136.608H533.638V138.444H531.91V145.5ZM536.101 134.826C535.345 134.826 534.751 134.232 534.751 133.494C534.751 132.756 535.345 132.18 536.101 132.18C536.821 132.18 537.415 132.756 537.415 133.494C537.415 134.232 536.821 134.826 536.101 134.826ZM535.003 145.5V136.608H537.199V145.5H535.003ZM538.946 141.036C538.946 138.264 540.944 136.356 543.698 136.356C546.452 136.356 548.45 138.264 548.45 141.036C548.45 143.808 546.452 145.716 543.698 145.716C540.944 145.716 538.946 143.808 538.946 141.036ZM541.142 141.036C541.142 142.656 542.186 143.754 543.698 143.754C545.21 143.754 546.254 142.656 546.254 141.036C546.254 139.416 545.21 138.318 543.698 138.318C542.186 138.318 541.142 139.416 541.142 141.036ZM552.387 145.5H550.191V136.608H552.225L552.405 137.76C552.963 136.86 554.043 136.338 555.249 136.338C557.481 136.338 558.633 137.724 558.633 140.028V145.5H556.437V140.55C556.437 139.056 555.699 138.336 554.565 138.336C553.215 138.336 552.387 139.272 552.387 140.712V145.5Z" fill="white"/>
  <path d="M273.864 20.48C277.928 20.48 280.008 18.72 280.712 14.272L284.936 15.168C283.912 21.088 279.528 24.32 273.864 24.32C267.464 24.32 262.28 19.616 262.28 12.8C262.28 5.92 267.464 1.28 273.864 1.28C279.528 1.28 283.912 4.512 284.936 10.432L280.712 11.328C280.008 6.88 277.928 5.12 273.864 5.12C269.096 5.12 266.664 7.68 266.664 12.768C266.664 17.888 269.096 20.48 273.864 20.48ZM296.944 8.064C297.52 8.064 298.256 8.064 298.832 8.288V12.128C298.256 11.904 297.744 11.808 296.72 11.808C294.16 11.808 292.368 13.536 292.368 17.504V24H288.304V8.32H292.368V12.768C292.784 10.4 293.936 8.064 296.944 8.064ZM315.607 15.936C315.607 16.448 315.607 16.8 315.575 17.44H304.439C304.695 20.064 305.847 21.152 308.311 21.152C310.167 21.152 310.967 20.608 311.735 18.944L315.255 20.224C314.199 22.944 311.735 24.32 308.215 24.32C303.415 24.32 300.215 21.12 300.215 16.256C300.215 11.328 303.447 8 308.087 8C312.567 8 315.607 11.104 315.607 15.936ZM308.119 11.072C305.847 11.072 304.727 12.128 304.439 14.656H311.575C311.511 12 310.423 11.072 308.119 11.072ZM330.509 8.32H334.573V24H330.509V20.576C329.549 22.976 327.661 24.32 325.069 24.32C320.589 24.32 317.933 21.056 317.933 16.192C317.933 11.264 320.493 8 324.877 8C327.565 8 329.517 9.376 330.509 11.84V8.32ZM326.285 20.64C329.261 20.64 330.637 19.2 330.637 16.192C330.637 13.12 329.261 11.68 326.285 11.68C323.405 11.68 322.029 13.12 322.029 16.192C322.029 19.2 323.405 20.64 326.285 20.64ZM349.036 11.904H344.492V20.416H348.652V24H345.292C342.38 24 340.428 22.048 340.428 19.136V11.904H337.42V8.32H340.428V3.648H344.492V8.32H349.036V11.904ZM366.419 15.936C366.419 16.448 366.419 16.8 366.387 17.44H355.251C355.507 20.064 356.659 21.152 359.123 21.152C360.979 21.152 361.779 20.608 362.547 18.944L366.067 20.224C365.011 22.944 362.547 24.32 359.027 24.32C354.227 24.32 351.027 21.12 351.027 16.256C351.027 11.328 354.259 8 358.899 8C363.379 8 366.419 11.104 366.419 15.936ZM358.931 11.072C356.659 11.072 355.539 12.128 355.251 14.656H362.387C362.323 12 361.235 11.072 358.931 11.072ZM388.049 8.32H392.465L385.809 25.728C384.849 28.224 383.409 29.44 380.017 29.44H376.753V25.856H382.193L375.633 8.32H380.049L383.057 17.6L383.985 21.088L385.009 17.6L388.049 8.32ZM401.849 8C406.425 8 410.233 11.168 410.233 16.192C410.233 21.184 406.425 24.32 401.849 24.32C397.241 24.32 393.433 21.184 393.433 16.192C393.433 11.168 397.241 8 401.849 8ZM401.849 20.64C404.761 20.64 406.137 19.2 406.137 16.192C406.137 13.12 404.761 11.68 401.849 11.68C398.905 11.68 397.529 13.12 397.529 16.192C397.529 19.2 398.905 20.64 401.849 20.64ZM424.303 8.32H428.367V24H424.303V20.32C423.535 22.88 421.903 24.32 419.087 24.32C415.375 24.32 413.519 22.112 413.519 17.696V8.32H417.583V17.472C417.583 19.584 418.671 20.64 420.591 20.64C422.863 20.64 424.303 19.04 424.303 15.808V8.32ZM441.6 8.064C442.176 8.064 442.912 8.064 443.488 8.288V12.128C442.912 11.904 442.4 11.808 441.376 11.808C438.816 11.808 437.024 13.536 437.024 17.504V24H432.96V8.32H437.024V12.768C437.44 10.4 438.592 8.064 441.6 8.064ZM461.381 8C465.957 8 469.765 11.168 469.765 16.192C469.765 21.184 465.957 24.32 461.381 24.32C456.773 24.32 452.965 21.184 452.965 16.192C452.965 11.168 456.773 8 461.381 8ZM461.381 20.64C464.293 20.64 465.669 19.2 465.669 16.192C465.669 13.12 464.293 11.68 461.381 11.68C458.437 11.68 457.061 13.12 457.061 16.192C457.061 19.2 458.437 20.64 461.381 20.64ZM491.812 8.32H496.164L491.62 24H487.236L484.388 15.904L483.556 12.96L482.692 15.936L479.844 24H475.556L470.916 8.32H475.332L477.444 17.344L477.956 20.032L478.66 17.312L481.54 8.32H485.54L488.388 17.312L489.156 20.192L489.7 17.312L491.812 8.32ZM508.146 8C511.858 8 513.746 10.208 513.746 14.624V24H509.682V14.848C509.682 12.736 508.594 11.68 506.642 11.68C504.37 11.68 502.962 13.28 502.962 16.512V24H498.898V8.32H502.962V11.968C503.73 9.44 505.33 8 508.146 8ZM531.243 24.32C527.211 24.32 524.779 22.24 524.363 19.68L528.171 18.624C528.427 20.672 529.515 21.216 531.499 21.216C533.067 21.216 534.059 20.672 534.059 19.616C534.059 18.656 533.611 18.176 531.755 17.888L529.131 17.472C526.379 17.024 524.683 15.456 524.683 12.768C524.683 9.76 527.019 8 530.955 8C535.211 8 537.131 9.76 537.643 12.544L534.059 13.408C533.835 11.424 533.067 10.944 531.083 10.944C529.547 10.944 528.779 11.52 528.779 12.576C528.779 13.44 529.195 13.984 530.731 14.208L533.931 14.688C536.523 15.04 538.123 16.608 538.123 19.168C538.123 22.4 535.563 24.32 531.243 24.32ZM555.638 15.936C555.638 16.448 555.638 16.8 555.606 17.44H544.47C544.726 20.064 545.878 21.152 548.342 21.152C550.198 21.152 550.998 20.608 551.766 18.944L555.286 20.224C554.23 22.944 551.766 24.32 548.246 24.32C543.446 24.32 540.246 21.12 540.246 16.256C540.246 11.328 543.478 8 548.118 8C552.598 8 555.638 11.104 555.638 15.936ZM548.15 11.072C545.878 11.072 544.758 12.128 544.47 14.656H551.606C551.542 12 550.454 11.072 548.15 11.072ZM569.005 11.904H564.461V20.416H568.621V24H565.26C562.349 24 560.397 22.048 560.397 19.136V11.904H557.389V8.32H560.397V3.648H564.461V8.32H569.005V11.904ZM582.13 11.904H577.586V20.416H581.746V24H578.385C575.474 24 573.522 22.048 573.522 19.136V11.904H570.514V8.32H573.522V3.648H577.586V8.32H582.13V11.904ZM587.383 5.696C585.687 5.696 584.727 4.768 584.727 3.104C584.727 1.504 585.655 0.608 587.383 0.608C589.079 0.608 590.039 1.504 590.039 3.104C590.039 4.768 589.079 5.696 587.383 5.696ZM585.367 24V8.32H589.431V24H585.367ZM603.24 8C606.952 8 608.84 10.208 608.84 14.624V24H604.776V14.848C604.776 12.736 603.688 11.68 601.736 11.68C599.464 11.68 598.056 13.28 598.056 16.512V24H593.992V8.32H598.056V11.968C598.824 9.44 600.424 8 603.24 8ZM624.058 8.32H628.122V22.08C628.122 26.88 625.082 29.76 619.962 29.76C615.962 29.76 613.018 28.288 612.218 25.536L616.122 23.904C616.698 26.016 617.914 26.464 620.154 26.464C622.778 26.464 624.058 25.376 624.058 22.816V19.84C623.034 21.92 621.178 23.104 618.714 23.104C614.682 23.104 612.09 20.032 612.09 15.52C612.09 11.04 614.618 8.032 618.586 8.032C621.146 8.032 623.034 9.28 624.058 11.392V8.32ZM620.154 19.52C622.906 19.52 624.218 18.24 624.218 15.552C624.218 12.864 622.906 11.584 620.186 11.584C617.498 11.584 616.218 12.864 616.218 15.552C616.218 18.24 617.498 19.52 620.154 19.52ZM638.118 24.32C634.086 24.32 631.654 22.24 631.238 19.68L635.046 18.624C635.302 20.672 636.39 21.216 638.374 21.216C639.942 21.216 640.934 20.672 640.934 19.616C640.934 18.656 640.486 18.176 638.63 17.888L636.006 17.472C633.254 17.024 631.558 15.456 631.558 12.768C631.558 9.76 633.894 8 637.83 8C642.086 8 644.006 9.76 644.518 12.544L640.934 13.408C640.71 11.424 639.942 10.944 637.958 10.944C636.422 10.944 635.654 11.52 635.654 12.576C635.654 13.44 636.07 13.984 637.606 14.208L640.806 14.688C643.398 15.04 644.998 16.608 644.998 19.168C644.998 22.4 642.438 24.32 638.118 24.32Z" fill="#3737FF"/>
  <path d="M143.491 56.8V58.336H140.003V68H138.307V58.336H134.819V56.8H143.491ZM149.318 60.16C151.126 60.16 152.07 61.248 152.07 63.28V68H150.438V63.392C150.438 62.24 149.798 61.648 148.758 61.648C147.462 61.648 146.63 62.608 146.63 64.384V68H144.998V56.8H146.63V62.176C146.998 60.944 147.814 60.16 149.318 60.16ZM161.314 64C161.314 64.24 161.314 64.368 161.298 64.672H155.57C155.682 66.224 156.338 66.832 157.778 66.832C158.85 66.832 159.314 66.56 159.666 65.632L161.138 66.176C160.594 67.52 159.33 68.16 157.762 68.16C155.426 68.16 153.906 66.592 153.906 64.176C153.906 61.776 155.474 60.16 157.682 60.16C159.826 60.16 161.314 61.648 161.314 64ZM157.698 61.44C156.418 61.44 155.73 62.08 155.586 63.472H159.682C159.618 62 159.026 61.44 157.698 61.44ZM169.825 68.16C168.001 68.16 166.785 67.248 166.497 65.84L168.065 65.376C168.241 66.496 168.801 66.848 169.937 66.848C170.897 66.848 171.409 66.544 171.409 65.936C171.409 65.36 171.185 65.136 170.273 64.976L168.881 64.72C167.633 64.512 166.721 63.856 166.721 62.48C166.721 61.056 167.857 60.16 169.665 60.16C171.441 60.16 172.561 60.88 172.849 62.48L171.345 62.864C171.217 61.664 170.721 61.44 169.729 61.44C168.801 61.44 168.353 61.744 168.353 62.384C168.353 62.912 168.577 63.184 169.313 63.296L171.041 63.6C172.241 63.808 173.025 64.48 173.025 65.712C173.025 67.216 171.809 68.16 169.825 68.16ZM181.673 64C181.673 64.24 181.673 64.368 181.657 64.672H175.929C176.041 66.224 176.697 66.832 178.137 66.832C179.209 66.832 179.673 66.56 180.025 65.632L181.497 66.176C180.953 67.52 179.689 68.16 178.121 68.16C175.785 68.16 174.265 66.592 174.265 64.176C174.265 61.776 175.833 60.16 178.041 60.16C180.185 60.16 181.673 61.648 181.673 64ZM178.057 61.44C176.777 61.44 176.089 62.08 175.945 63.472H180.041C179.977 62 179.385 61.44 178.057 61.44ZM188.153 61.776H185.817V66.544H187.913V68H186.312C185.033 68 184.185 67.152 184.185 65.872V61.776H182.569V60.32H184.185V57.968H185.817V60.32H188.153V61.776ZM194.371 61.776H192.035V66.544H194.131V68H192.531C191.251 68 190.403 67.152 190.403 65.872V61.776H188.787V60.32H190.403V57.968H192.035V60.32H194.371V61.776ZM196.83 58.736C196.126 58.736 195.726 58.336 195.71 57.632C195.694 56.944 196.11 56.576 196.83 56.576C197.534 56.576 197.934 56.944 197.95 57.632C197.966 58.336 197.566 58.736 196.83 58.736ZM195.998 68V60.32H197.63V68H195.998ZM204.459 60.16C206.267 60.16 207.211 61.248 207.211 63.28V68H205.579V63.392C205.579 62.24 204.939 61.648 203.899 61.648C202.603 61.648 201.771 62.608 201.771 64.384V68H200.139V56.8H201.771V62.176C202.139 60.944 202.955 60.16 204.459 60.16ZM215.127 60.32H216.743V67.344C216.743 69.504 215.287 70.88 212.871 70.88C210.919 70.88 209.591 70.176 209.111 68.752L210.679 68.08C211.047 69.232 211.591 69.52 212.919 69.52C214.439 69.52 215.127 68.896 215.127 67.536V65.984C214.615 67.008 213.687 67.616 212.423 67.616C210.407 67.616 209.047 66.096 209.047 63.888C209.047 61.68 210.391 60.16 212.407 60.16C213.671 60.16 214.615 60.784 215.127 61.84V60.32ZM212.935 66.16C214.471 66.16 215.207 65.44 215.207 63.904C215.207 62.352 214.487 61.616 212.951 61.616C211.415 61.616 210.695 62.352 210.695 63.904C210.695 65.44 211.415 66.16 212.935 66.16ZM221.872 68.16C220.048 68.16 218.832 67.248 218.544 65.84L220.112 65.376C220.288 66.496 220.848 66.848 221.984 66.848C222.944 66.848 223.456 66.544 223.456 65.936C223.456 65.36 223.232 65.136 222.32 64.976L220.928 64.72C219.68 64.512 218.768 63.856 218.768 62.48C218.768 61.056 219.904 60.16 221.712 60.16C223.488 60.16 224.608 60.88 224.896 62.48L223.392 62.864C223.264 61.664 222.768 61.44 221.776 61.44C220.848 61.44 220.4 61.744 220.4 62.384C220.4 62.912 220.624 63.184 221.36 63.296L223.088 63.6C224.288 63.808 225.072 64.48 225.072 65.712C225.072 67.216 223.856 68.16 221.872 68.16ZM240.152 60.32H241.928L239.72 68H237.88L236.344 63.6L235.928 62.16L235.496 63.616L233.944 68H232.12L229.896 60.32H231.688L232.824 64.992L233.128 66.56L233.576 64.992L235.08 60.32H236.744L238.248 64.976L238.696 66.592L239.016 64.992L240.152 60.32ZM244.252 58.736C243.548 58.736 243.148 58.336 243.132 57.632C243.116 56.944 243.532 56.576 244.252 56.576C244.956 56.576 245.356 56.944 245.372 57.632C245.388 58.336 244.988 58.736 244.252 58.736ZM243.42 68V60.32H245.052V68H243.42ZM247.561 68V56.8H249.193V68H247.561ZM251.701 68V56.8H253.333V68H251.701ZM264.162 60.16C265.97 60.16 266.914 61.248 266.914 63.28V68H265.282V63.392C265.282 62.24 264.642 61.648 263.602 61.648C262.306 61.648 261.474 62.608 261.474 64.384V68H259.842V56.8H261.474V62.176C261.842 60.944 262.658 60.16 264.162 60.16ZM276.158 64C276.158 64.24 276.158 64.368 276.142 64.672H270.414C270.526 66.224 271.182 66.832 272.622 66.832C273.694 66.832 274.158 66.56 274.51 65.632L275.982 66.176C275.438 67.52 274.174 68.16 272.606 68.16C270.27 68.16 268.75 66.592 268.75 64.176C268.75 61.776 270.318 60.16 272.526 60.16C274.67 60.16 276.158 61.648 276.158 64ZM272.542 61.44C271.262 61.44 270.574 62.08 270.43 63.472H274.526C274.462 62 273.87 61.44 272.542 61.44ZM278.045 68V56.8H279.677V68H278.045ZM286.65 60.16C288.826 60.16 290.186 61.76 290.186 64.16C290.186 66.56 288.81 68.16 286.602 68.16C285.306 68.16 284.346 67.504 283.818 66.384V70.72H282.186V60.32H283.818V61.952C284.346 60.816 285.338 60.16 286.65 60.16ZM286.154 66.672C287.77 66.672 288.538 65.872 288.538 64.16C288.538 62.448 287.77 61.648 286.154 61.648C284.522 61.648 283.754 62.448 283.754 64.16C283.754 65.872 284.522 66.672 286.154 66.672ZM301.324 60.32H303.132L299.676 69.088C299.212 70.256 298.604 70.72 297.196 70.72H295.548V69.264H298.332L298.428 68.944L298.396 68.976L295.052 60.32H296.86L298.524 65.168L299.068 66.96L299.644 65.152L301.324 60.32ZM307.829 60.16C310.069 60.16 311.877 61.728 311.877 64.16C311.877 66.592 310.069 68.16 307.829 68.16C305.605 68.16 303.797 66.592 303.797 64.16C303.797 61.728 305.605 60.16 307.829 60.16ZM307.829 66.672C309.461 66.672 310.229 65.872 310.229 64.16C310.229 62.448 309.461 61.648 307.829 61.648C306.213 61.648 305.445 62.448 305.445 64.16C305.445 65.872 306.213 66.672 307.829 66.672ZM319.155 60.32H320.787V68H319.155V66.144C318.787 67.376 317.971 68.16 316.467 68.16C314.659 68.16 313.715 67.072 313.715 65.04V60.32H315.347V64.928C315.347 66.08 315.987 66.672 317.027 66.672C318.323 66.672 319.155 65.712 319.155 63.936V60.32ZM337.039 60.16C338.847 60.16 339.791 61.28 339.791 63.36V68H338.159V63.456C338.159 62.256 337.535 61.648 336.495 61.648C335.039 61.648 334.351 62.736 334.351 64.784V68H332.719V63.392C332.719 62.24 332.079 61.648 331.039 61.648C329.743 61.648 328.911 62.608 328.911 64.384V68H327.279V60.32H328.911V62.176C329.279 60.944 330.095 60.16 331.599 60.16C333.071 60.16 333.967 60.88 334.255 62.224C334.703 60.88 335.631 60.16 337.039 60.16ZM347.977 60.32H349.609V68H347.977V66.416C347.449 67.52 346.489 68.16 345.209 68.16C343.001 68.16 341.625 66.56 341.625 64.16C341.625 61.76 342.985 60.16 345.145 60.16C346.457 60.16 347.449 60.8 347.977 61.936V60.32ZM345.657 66.672C347.289 66.672 348.057 65.872 348.057 64.16C348.057 62.448 347.289 61.648 345.657 61.648C344.025 61.648 343.273 62.448 343.273 64.16C343.273 65.872 344.025 66.672 345.657 66.672ZM356.443 60.16C358.251 60.16 359.195 61.248 359.195 63.28V68H357.563V63.392C357.563 62.24 356.923 61.648 355.883 61.648C354.587 61.648 353.755 62.608 353.755 64.384V68H352.123V60.32H353.755V62.176C354.123 60.944 354.939 60.16 356.443 60.16ZM367.383 60.32H369.015V68H367.383V66.416C366.855 67.52 365.895 68.16 364.615 68.16C362.407 68.16 361.031 66.56 361.031 64.16C361.031 61.76 362.391 60.16 364.551 60.16C365.863 60.16 366.855 60.8 367.383 61.936V60.32ZM365.063 66.672C366.695 66.672 367.463 65.872 367.463 64.16C367.463 62.448 366.695 61.648 365.063 61.648C363.431 61.648 362.679 62.448 362.679 64.16C362.679 65.872 363.431 66.672 365.063 66.672ZM377.017 60.32H378.633V67.344C378.633 69.504 377.177 70.88 374.761 70.88C372.809 70.88 371.481 70.176 371.001 68.752L372.569 68.08C372.937 69.232 373.481 69.52 374.809 69.52C376.329 69.52 377.017 68.896 377.017 67.536V65.984C376.505 67.008 375.577 67.616 374.313 67.616C372.297 67.616 370.937 66.096 370.937 63.888C370.937 61.68 372.281 60.16 374.297 60.16C375.561 60.16 376.505 60.784 377.017 61.84V60.32ZM374.825 66.16C376.361 66.16 377.097 65.44 377.097 63.904C377.097 62.352 376.377 61.616 374.841 61.616C373.305 61.616 372.585 62.352 372.585 63.904C372.585 65.44 373.305 66.16 374.825 66.16ZM387.955 64C387.955 64.24 387.955 64.368 387.939 64.672H382.211C382.323 66.224 382.979 66.832 384.419 66.832C385.491 66.832 385.955 66.56 386.307 65.632L387.779 66.176C387.235 67.52 385.971 68.16 384.403 68.16C382.067 68.16 380.547 66.592 380.547 64.176C380.547 61.776 382.115 60.16 384.323 60.16C386.467 60.16 387.955 61.648 387.955 64ZM384.339 61.44C383.059 61.44 382.371 62.08 382.227 63.472H386.323C386.259 62 385.667 61.44 384.339 61.44ZM399.074 60.32H400.882L397.426 69.088C396.962 70.256 396.354 70.72 394.946 70.72H393.298V69.264H396.082L396.178 68.944L396.146 68.976L392.802 60.32H394.61L396.274 65.168L396.818 66.96L397.394 65.152L399.074 60.32ZM405.579 60.16C407.819 60.16 409.627 61.728 409.627 64.16C409.627 66.592 407.819 68.16 405.579 68.16C403.355 68.16 401.547 66.592 401.547 64.16C401.547 61.728 403.355 60.16 405.579 60.16ZM405.579 66.672C407.211 66.672 407.979 65.872 407.979 64.16C407.979 62.448 407.211 61.648 405.579 61.648C403.963 61.648 403.195 62.448 403.195 64.16C403.195 65.872 403.963 66.672 405.579 66.672ZM416.905 60.32H418.537V68H416.905V66.144C416.537 67.376 415.721 68.16 414.217 68.16C412.409 68.16 411.465 67.072 411.465 65.04V60.32H413.097V64.928C413.097 66.08 413.737 66.672 414.777 66.672C416.073 66.672 416.905 65.712 416.905 63.936V60.32ZM425.045 60.176C425.381 60.176 425.717 60.192 425.957 60.304V61.888C425.733 61.792 425.493 61.696 424.917 61.696C423.461 61.696 422.661 62.864 422.661 64.672V68H421.029V60.32H422.661V62.56C422.901 61.328 423.509 60.176 425.045 60.176ZM435.978 60.16C438.154 60.16 439.514 61.76 439.514 64.16C439.514 66.56 438.138 68.16 435.93 68.16C434.634 68.16 433.674 67.504 433.146 66.384V70.72H431.514V60.32H433.146V61.952C433.674 60.816 434.666 60.16 435.978 60.16ZM435.482 66.672C437.098 66.672 437.866 65.872 437.866 64.16C437.866 62.448 437.098 61.648 435.482 61.648C433.85 61.648 433.082 62.448 433.082 64.16C433.082 65.872 433.85 66.672 435.482 66.672ZM448.236 64C448.236 64.24 448.236 64.368 448.22 64.672H442.492C442.604 66.224 443.26 66.832 444.7 66.832C445.772 66.832 446.236 66.56 446.588 65.632L448.06 66.176C447.516 67.52 446.252 68.16 444.684 68.16C442.348 68.16 440.828 66.592 440.828 64.176C440.828 61.776 442.396 60.16 444.604 60.16C446.748 60.16 448.236 61.648 448.236 64ZM444.62 61.44C443.34 61.44 442.652 62.08 442.508 63.472H446.604C446.54 62 445.948 61.44 444.62 61.44ZM454.139 60.176C454.475 60.176 454.811 60.192 455.051 60.304V61.888C454.827 61.792 454.587 61.696 454.011 61.696C452.555 61.696 451.755 62.864 451.755 64.672V68H450.123V60.32H451.755V62.56C451.995 61.328 452.603 60.176 454.139 60.176ZM459.122 68.16C457.298 68.16 456.082 67.248 455.794 65.84L457.362 65.376C457.538 66.496 458.098 66.848 459.234 66.848C460.194 66.848 460.706 66.544 460.706 65.936C460.706 65.36 460.482 65.136 459.57 64.976L458.178 64.72C456.93 64.512 456.018 63.856 456.018 62.48C456.018 61.056 457.154 60.16 458.962 60.16C460.738 60.16 461.858 60.88 462.146 62.48L460.642 62.864C460.514 61.664 460.018 61.44 459.026 61.44C458.098 61.44 457.65 61.744 457.65 62.384C457.65 62.912 457.874 63.184 458.61 63.296L460.338 63.6C461.538 63.808 462.322 64.48 462.322 65.712C462.322 67.216 461.106 68.16 459.122 68.16ZM467.594 60.16C469.834 60.16 471.642 61.728 471.642 64.16C471.642 66.592 469.834 68.16 467.594 68.16C465.37 68.16 463.562 66.592 463.562 64.16C463.562 61.728 465.37 60.16 467.594 60.16ZM467.594 66.672C469.226 66.672 469.994 65.872 469.994 64.16C469.994 62.448 469.226 61.648 467.594 61.648C465.978 61.648 465.21 62.448 465.21 64.16C465.21 65.872 465.978 66.672 467.594 66.672ZM477.865 60.16C479.673 60.16 480.617 61.248 480.617 63.28V68H478.985V63.392C478.985 62.24 478.345 61.648 477.305 61.648C476.009 61.648 475.177 62.608 475.177 64.384V68H473.545V60.32H475.177V62.176C475.545 60.944 476.361 60.16 477.865 60.16ZM488.805 60.32H490.437V68H488.805V66.416C488.277 67.52 487.317 68.16 486.037 68.16C483.829 68.16 482.453 66.56 482.453 64.16C482.453 61.76 483.813 60.16 485.973 60.16C487.285 60.16 488.277 60.8 488.805 61.936V60.32ZM486.485 66.672C488.117 66.672 488.885 65.872 488.885 64.16C488.885 62.448 488.117 61.648 486.485 61.648C484.853 61.648 484.101 62.448 484.101 64.16C484.101 65.872 484.853 66.672 486.485 66.672ZM492.951 68V56.8H494.583V68H492.951ZM506.868 56.8H508.5V68H506.868V66.384C506.34 67.504 505.38 68.16 504.084 68.16C501.876 68.16 500.5 66.56 500.5 64.16C500.5 61.76 501.86 60.16 504.036 60.16C505.348 60.16 506.34 60.816 506.868 61.952V56.8ZM504.532 66.672C506.164 66.672 506.932 65.872 506.932 64.16C506.932 62.448 506.164 61.648 504.532 61.648C502.916 61.648 502.148 62.448 502.148 64.16C502.148 65.872 502.916 66.672 504.532 66.672ZM516.758 60.32H518.39V68H516.758V66.416C516.23 67.52 515.27 68.16 513.99 68.16C511.782 68.16 510.406 66.56 510.406 64.16C510.406 61.76 511.766 60.16 513.926 60.16C515.238 60.16 516.23 60.8 516.758 61.936V60.32ZM514.438 66.672C516.07 66.672 516.838 65.872 516.838 64.16C516.838 62.448 516.07 61.648 514.438 61.648C512.806 61.648 512.054 62.448 512.054 64.16C512.054 65.872 512.806 66.672 514.438 66.672ZM525.496 61.776H523.16V66.544H525.256V68H523.656C522.376 68 521.528 67.152 521.528 65.872V61.776H519.912V60.32H521.528V57.968H523.16V60.32H525.496V61.776ZM532.774 60.32H534.406V68H532.774V66.416C532.246 67.52 531.286 68.16 530.006 68.16C527.798 68.16 526.422 66.56 526.422 64.16C526.422 61.76 527.782 60.16 529.942 60.16C531.254 60.16 532.246 60.8 532.774 61.936V60.32ZM530.454 66.672C532.086 66.672 532.854 65.872 532.854 64.16C532.854 62.448 532.086 61.648 530.454 61.648C528.822 61.648 528.07 62.448 528.07 64.16C528.07 65.872 528.822 66.672 530.454 66.672ZM546.68 60.32H548.312V68H546.68V66.416C546.152 67.52 545.192 68.16 543.912 68.16C541.704 68.16 540.328 66.56 540.328 64.16C540.328 61.76 541.688 60.16 543.848 60.16C545.16 60.16 546.152 60.8 546.68 61.936V60.32ZM544.36 66.672C545.992 66.672 546.76 65.872 546.76 64.16C546.76 62.448 545.992 61.648 544.36 61.648C542.728 61.648 541.976 62.448 541.976 64.16C541.976 65.872 542.728 66.672 544.36 66.672ZM555.146 60.16C556.954 60.16 557.898 61.248 557.898 63.28V68H556.266V63.392C556.266 62.24 555.626 61.648 554.586 61.648C553.29 61.648 552.458 62.608 552.458 64.384V68H550.826V60.32H552.458V62.176C552.826 60.944 553.642 60.16 555.146 60.16ZM566.102 56.8H567.734V68H566.102V66.384C565.574 67.504 564.614 68.16 563.318 68.16C561.11 68.16 559.734 66.56 559.734 64.16C559.734 61.76 561.094 60.16 563.27 60.16C564.582 60.16 565.574 60.816 566.102 61.952V56.8ZM563.766 66.672C565.398 66.672 566.166 65.872 566.166 64.16C566.166 62.448 565.398 61.648 563.766 61.648C562.15 61.648 561.382 62.448 561.382 64.16C561.382 65.872 562.15 66.672 563.766 66.672ZM575.064 58.736C574.36 58.736 573.96 58.336 573.944 57.632C573.928 56.944 574.344 56.576 575.064 56.576C575.768 56.576 576.168 56.944 576.184 57.632C576.2 58.336 575.8 58.736 575.064 58.736ZM574.232 68V60.32H575.864V68H574.232ZM582.693 60.16C584.501 60.16 585.445 61.248 585.445 63.28V68H583.813V63.392C583.813 62.24 583.173 61.648 582.133 61.648C580.837 61.648 580.005 62.608 580.005 64.384V68H578.373V60.32H580.005V62.176C580.373 60.944 581.189 60.16 582.693 60.16ZM592.262 61.776H589.926V66.544H592.022V68H590.422C589.142 68 588.294 67.152 588.294 65.872V61.776H586.678V60.32H588.294V57.968H589.926V60.32H592.262V61.776ZM600.595 64C600.595 64.24 600.595 64.368 600.579 64.672H594.851C594.963 66.224 595.619 66.832 597.059 66.832C598.131 66.832 598.595 66.56 598.947 65.632L600.419 66.176C599.875 67.52 598.611 68.16 597.043 68.16C594.707 68.16 593.187 66.592 593.187 64.176C593.187 61.776 594.755 60.16 596.963 60.16C599.107 60.16 600.595 61.648 600.595 64ZM596.979 61.44C595.699 61.44 595.011 62.08 594.867 63.472H598.963C598.899 62 598.307 61.44 596.979 61.44ZM606.498 60.176C606.834 60.176 607.17 60.192 607.41 60.304V61.888C607.186 61.792 606.946 61.696 606.37 61.696C604.914 61.696 604.114 62.864 604.114 64.672V68H602.482V60.32H604.114V62.56C604.354 61.328 604.962 60.176 606.498 60.176ZM614.461 60.32H616.093V68H614.461V66.416C613.933 67.52 612.973 68.16 611.693 68.16C609.485 68.16 608.109 66.56 608.109 64.16C608.109 61.76 609.469 60.16 611.629 60.16C612.941 60.16 613.933 60.8 614.461 61.936V60.32ZM612.141 66.672C613.773 66.672 614.541 65.872 614.541 64.16C614.541 62.448 613.773 61.648 612.141 61.648C610.509 61.648 609.757 62.448 609.757 64.16C609.757 65.872 610.509 66.672 612.141 66.672ZM623.199 61.776H620.863V66.544H622.959V68H621.359C620.079 68 619.231 67.152 619.231 65.872V61.776H617.615V60.32H619.231V57.968H620.863V60.32H623.199V61.776ZM625.658 58.736C624.954 58.736 624.554 58.336 624.538 57.632C624.522 56.944 624.938 56.576 625.658 56.576C626.362 56.576 626.762 56.944 626.778 57.632C626.794 58.336 626.394 58.736 625.658 58.736ZM624.826 68V60.32H626.458V68H624.826ZM632.407 60.16C634.647 60.16 636.455 61.728 636.455 64.16C636.455 66.592 634.647 68.16 632.407 68.16C630.183 68.16 628.375 66.592 628.375 64.16C628.375 61.728 630.183 60.16 632.407 60.16ZM632.407 66.672C634.039 66.672 634.807 65.872 634.807 64.16C634.807 62.448 634.039 61.648 632.407 61.648C630.791 61.648 630.023 62.448 630.023 64.16C630.023 65.872 630.791 66.672 632.407 66.672ZM642.677 60.16C644.485 60.16 645.429 61.248 645.429 63.28V68H643.797V63.392C643.797 62.24 643.157 61.648 642.117 61.648C640.821 61.648 639.989 62.608 639.989 64.384V68H638.357V60.32H639.989V62.176C640.357 60.944 641.173 60.16 642.677 60.16ZM661.105 60.32H662.881L660.673 68H658.833L657.297 63.6L656.881 62.16L656.449 63.616L654.897 68H653.073L650.849 60.32H652.641L653.777 64.992L654.081 66.56L654.529 64.992L656.033 60.32H657.697L659.201 64.976L659.649 66.592L659.969 64.992L661.105 60.32ZM665.205 58.736C664.501 58.736 664.101 58.336 664.085 57.632C664.069 56.944 664.485 56.576 665.205 56.576C665.909 56.576 666.309 56.944 666.325 57.632C666.341 58.336 665.941 58.736 665.205 58.736ZM664.373 68V60.32H666.005V68H664.373ZM673.106 61.776H670.77V66.544H672.866V68H671.266C669.986 68 669.138 67.152 669.138 65.872V61.776H667.522V60.32H669.138V57.968H670.77V60.32H673.106V61.776ZM679.052 60.16C680.86 60.16 681.804 61.248 681.804 63.28V68H680.172V63.392C680.172 62.24 679.532 61.648 678.492 61.648C677.196 61.648 676.364 62.608 676.364 64.384V68H674.732V56.8H676.364V62.176C676.732 60.944 677.548 60.16 679.052 60.16ZM691.672 60.16C693.912 60.16 695.72 61.728 695.72 64.16C695.72 66.592 693.912 68.16 691.672 68.16C689.448 68.16 687.64 66.592 687.64 64.16C687.64 61.728 689.448 60.16 691.672 60.16ZM691.672 66.672C693.304 66.672 694.072 65.872 694.072 64.16C694.072 62.448 693.304 61.648 691.672 61.648C690.056 61.648 689.288 62.448 689.288 64.16C689.288 65.872 690.056 66.672 691.672 66.672ZM702.215 61.776H699.879V66.544H701.975V68H700.375C699.095 68 698.247 67.152 698.247 65.872V61.776H696.631V60.32H698.247V57.968H699.879V60.32H702.215V61.776ZM708.162 60.16C709.97 60.16 710.914 61.248 710.914 63.28V68H709.282V63.392C709.282 62.24 708.642 61.648 707.602 61.648C706.306 61.648 705.474 62.608 705.474 64.384V68H703.842V56.8H705.474V62.176C705.842 60.944 706.658 60.16 708.162 60.16ZM720.158 64C720.158 64.24 720.158 64.368 720.142 64.672H714.414C714.526 66.224 715.182 66.832 716.622 66.832C717.694 66.832 718.158 66.56 718.51 65.632L719.982 66.176C719.438 67.52 718.174 68.16 716.606 68.16C714.27 68.16 712.75 66.592 712.75 64.176C712.75 61.776 714.318 60.16 716.526 60.16C718.67 60.16 720.158 61.648 720.158 64ZM716.542 61.44C715.262 61.44 714.574 62.08 714.43 63.472H718.526C718.462 62 717.87 61.44 716.542 61.44ZM726.061 60.176C726.397 60.176 726.733 60.192 726.973 60.304V61.888C726.749 61.792 726.509 61.696 725.933 61.696C724.477 61.696 723.677 62.864 723.677 64.672V68H722.045V60.32H723.677V62.56C723.917 61.328 724.525 60.176 726.061 60.176ZM736.993 60.16C739.169 60.16 740.529 61.76 740.529 64.16C740.529 66.56 739.153 68.16 736.945 68.16C735.649 68.16 734.689 67.504 734.161 66.384V70.72H732.529V60.32H734.161V61.952C734.689 60.816 735.681 60.16 736.993 60.16ZM736.497 66.672C738.113 66.672 738.881 65.872 738.881 64.16C738.881 62.448 738.113 61.648 736.497 61.648C734.865 61.648 734.097 62.448 734.097 64.16C734.097 65.872 734.865 66.672 736.497 66.672ZM748.196 60.32H749.828V68H748.196V66.416C747.668 67.52 746.708 68.16 745.428 68.16C743.22 68.16 741.844 66.56 741.844 64.16C741.844 61.76 743.204 60.16 745.364 60.16C746.676 60.16 747.668 60.8 748.196 61.936V60.32ZM745.876 66.672C747.508 66.672 748.276 65.872 748.276 64.16C748.276 62.448 747.508 61.648 745.876 61.648C744.244 61.648 743.492 62.448 743.492 64.16C743.492 65.872 744.244 66.672 745.876 66.672ZM756.358 60.176C756.694 60.176 757.03 60.192 757.27 60.304V61.888C757.046 61.792 756.806 61.696 756.23 61.696C754.774 61.696 753.974 62.864 753.974 64.672V68H752.342V60.32H753.974V62.56C754.214 61.328 754.822 60.176 756.358 60.176ZM763.418 61.776H761.082V66.544H763.178V68H761.578C760.298 68 759.45 67.152 759.45 65.872V61.776H757.834V60.32H759.45V57.968H761.082V60.32H763.418V61.776ZM767.669 68.16C765.845 68.16 764.629 67.248 764.341 65.84L765.909 65.376C766.085 66.496 766.645 66.848 767.781 66.848C768.741 66.848 769.253 66.544 769.253 65.936C769.253 65.36 769.029 65.136 768.117 64.976L766.725 64.72C765.477 64.512 764.565 63.856 764.565 62.48C764.565 61.056 765.701 60.16 767.509 60.16C769.285 60.16 770.405 60.88 770.693 62.48L769.189 62.864C769.061 61.664 768.565 61.44 767.573 61.44C766.645 61.44 766.197 61.744 766.197 62.384C766.197 62.912 766.421 63.184 767.157 63.296L768.885 63.6C770.085 63.808 770.869 64.48 770.869 65.712C770.869 67.216 769.653 68.16 767.669 68.16ZM403.68 84.16C405.92 84.16 407.728 85.728 407.728 88.16C407.728 90.592 405.92 92.16 403.68 92.16C401.456 92.16 399.648 90.592 399.648 88.16C399.648 85.728 401.456 84.16 403.68 84.16ZM403.68 90.672C405.312 90.672 406.08 89.872 406.08 88.16C406.08 86.448 405.312 85.648 403.68 85.648C402.064 85.648 401.296 86.448 401.296 88.16C401.296 89.872 402.064 90.672 403.68 90.672ZM414.287 84.32V85.776H411.919V92H410.287V85.776H408.655V84.32H410.287V82.72C410.287 81.44 411.135 80.592 412.415 80.592H414.191V82.048H411.919V84.32H414.287ZM424.207 85.776H421.871V90.544H423.967V92H422.367C421.087 92 420.239 91.152 420.239 89.872V85.776H418.623V84.32H420.239V81.968H421.871V84.32H424.207V85.776ZM430.154 84.16C431.962 84.16 432.906 85.248 432.906 87.28V92H431.274V87.392C431.274 86.24 430.634 85.648 429.594 85.648C428.298 85.648 427.466 86.608 427.466 88.384V92H425.834V80.8H427.466V86.176C427.834 84.944 428.65 84.16 430.154 84.16ZM442.15 88C442.15 88.24 442.15 88.368 442.134 88.672H436.406C436.518 90.224 437.174 90.832 438.614 90.832C439.686 90.832 440.15 90.56 440.502 89.632L441.974 90.176C441.43 91.52 440.166 92.16 438.598 92.16C436.262 92.16 434.742 90.592 434.742 88.176C434.742 85.776 436.31 84.16 438.518 84.16C440.662 84.16 442.15 85.648 442.15 88ZM438.534 85.44C437.254 85.44 436.566 86.08 436.422 87.472H440.518C440.454 86 439.862 85.44 438.534 85.44ZM452.501 84.16C454.677 84.16 456.037 85.76 456.037 88.16C456.037 90.56 454.661 92.16 452.453 92.16C451.157 92.16 450.197 91.504 449.669 90.384V94.72H448.037V84.32H449.669V85.952C450.197 84.816 451.189 84.16 452.501 84.16ZM452.005 90.672C453.621 90.672 454.389 89.872 454.389 88.16C454.389 86.448 453.621 85.648 452.005 85.648C450.373 85.648 449.605 86.448 449.605 88.16C449.605 89.872 450.373 90.672 452.005 90.672ZM461.959 84.176C462.295 84.176 462.631 84.192 462.871 84.304V85.888C462.647 85.792 462.407 85.696 461.831 85.696C460.375 85.696 459.575 86.864 459.575 88.672V92H457.943V84.32H459.575V86.56C459.815 85.328 460.423 84.176 461.959 84.176ZM467.602 84.16C469.842 84.16 471.65 85.728 471.65 88.16C471.65 90.592 469.842 92.16 467.602 92.16C465.378 92.16 463.57 90.592 463.57 88.16C463.57 85.728 465.378 84.16 467.602 84.16ZM467.602 90.672C469.234 90.672 470.002 89.872 470.002 88.16C470.002 86.448 469.234 85.648 467.602 85.648C465.986 85.648 465.218 86.448 465.218 88.16C465.218 89.872 465.986 90.672 467.602 90.672ZM479.329 80.8H480.961V92H479.329V90.384C478.801 91.504 477.841 92.16 476.545 92.16C474.337 92.16 472.961 90.56 472.961 88.16C472.961 85.76 474.321 84.16 476.497 84.16C477.809 84.16 478.801 84.816 479.329 85.952V80.8ZM476.993 90.672C478.625 90.672 479.393 89.872 479.393 88.16C479.393 86.448 478.625 85.648 476.993 85.648C475.377 85.648 474.609 86.448 474.609 88.16C474.609 89.872 475.377 90.672 476.993 90.672ZM488.835 84.32H490.467V92H488.835V90.144C488.467 91.376 487.651 92.16 486.147 92.16C484.339 92.16 483.395 91.072 483.395 89.04V84.32H485.027V88.928C485.027 90.08 485.667 90.672 486.707 90.672C488.003 90.672 488.835 89.712 488.835 87.936V84.32ZM496.351 90.688C497.583 90.688 498.223 90.224 498.511 88.736L500.127 89.136C499.631 91.248 498.175 92.16 496.367 92.16C493.983 92.16 492.367 90.56 492.367 88.16C492.367 85.76 493.983 84.16 496.367 84.16C498.223 84.16 499.647 85.12 500.127 87.184L498.511 87.584C498.223 86.096 497.583 85.632 496.351 85.632C494.767 85.632 494.015 86.432 494.015 88.16C494.015 89.888 494.767 90.688 496.351 90.688ZM506.629 85.776H504.293V90.544H506.389V92H504.789C503.509 92 502.661 91.152 502.661 89.872V85.776H501.045V84.32H502.661V81.968H504.293V84.32H506.629V85.776Z" fill="#292929"/>
  <rect y="203" width="281" height="104" rx="32" fill="#FAFAFA"/>
  <path d="M52.7286 236H57.2886V250H54.6886V237.72L54.0286 240.56L50.7886 250H47.5086L44.2686 240.56L43.6086 237.78V250H41.0086V236H45.5686L48.2286 244.26L49.1486 247.62L50.0686 244.26L52.7286 236ZM67.5761 240.2H70.1161V250H67.5761V247.86C66.9761 249.36 65.7961 250.2 64.1761 250.2C61.3761 250.2 59.7161 248.16 59.7161 245.12C59.7161 242.04 61.3161 240 64.0561 240C65.7361 240 66.9561 240.86 67.5761 242.4V240.2ZM64.9361 247.9C66.7961 247.9 67.6561 247 67.6561 245.12C67.6561 243.2 66.7961 242.3 64.9361 242.3C63.1361 242.3 62.2761 243.2 62.2761 245.12C62.2761 247 63.1361 247.9 64.9361 247.9ZM78.7552 240C81.0752 240 82.2552 241.38 82.2552 244.14V250H79.7152V244.28C79.7152 242.96 79.0352 242.3 77.8152 242.3C76.3952 242.3 75.5152 243.3 75.5152 245.32V250H72.9752V240.2H75.5152V242.48C75.9952 240.9 76.9952 240 78.7552 240ZM92.1464 240.2H94.6864V250H92.1464V247.86C91.5464 249.36 90.3664 250.2 88.7464 250.2C85.9464 250.2 84.2864 248.16 84.2864 245.12C84.2864 242.04 85.8864 240 88.6264 240C90.3064 240 91.5264 240.86 92.1464 242.4V240.2ZM89.5064 247.9C91.3664 247.9 92.2264 247 92.2264 245.12C92.2264 243.2 91.3664 242.3 89.5064 242.3C87.7064 242.3 86.8464 243.2 86.8464 245.12C86.8464 247 87.7064 247.9 89.5064 247.9ZM104.305 240.2H106.845V248.8C106.845 251.8 104.945 253.6 101.745 253.6C99.2455 253.6 97.4055 252.68 96.9055 250.96L99.3455 249.94C99.7055 251.26 100.465 251.54 101.865 251.54C103.505 251.54 104.305 250.86 104.305 249.26V247.4C103.665 248.7 102.505 249.44 100.965 249.44C98.4455 249.44 96.8255 247.52 96.8255 244.7C96.8255 241.9 98.4055 240.02 100.885 240.02C102.485 240.02 103.665 240.8 104.305 242.12V240.2ZM101.865 247.2C103.585 247.2 104.405 246.4 104.405 244.72C104.405 243.04 103.585 242.24 101.885 242.24C100.205 242.24 99.4055 243.04 99.4055 244.72C99.4055 246.4 100.205 247.2 101.865 247.2ZM118.613 244.96C118.613 245.28 118.613 245.5 118.593 245.9H111.633C111.793 247.54 112.513 248.22 114.053 248.22C115.213 248.22 115.713 247.88 116.193 246.84L118.393 247.64C117.733 249.34 116.193 250.2 113.993 250.2C110.993 250.2 108.993 248.2 108.993 245.16C108.993 242.08 111.013 240 113.913 240C116.713 240 118.613 241.94 118.613 244.96ZM113.933 241.92C112.513 241.92 111.813 242.58 111.633 244.16H116.093C116.053 242.5 115.373 241.92 113.933 241.92ZM132.132 240.2H134.892L130.732 251.08C130.132 252.64 129.232 253.4 127.112 253.4H125.072V251.16H128.472L124.372 240.2H127.132L129.012 246L129.592 248.18L130.232 246L132.132 240.2ZM140.757 240C143.617 240 145.997 241.98 145.997 245.12C145.997 248.24 143.617 250.2 140.757 250.2C137.877 250.2 135.497 248.24 135.497 245.12C135.497 241.98 137.877 240 140.757 240ZM140.757 247.9C142.577 247.9 143.437 247 143.437 245.12C143.437 243.2 142.577 242.3 140.757 242.3C138.917 242.3 138.057 243.2 138.057 245.12C138.057 247 138.917 247.9 140.757 247.9ZM154.791 240.2H157.331V250H154.791V247.7C154.311 249.3 153.291 250.2 151.531 250.2C149.211 250.2 148.051 248.82 148.051 246.06V240.2H150.591V245.92C150.591 247.24 151.271 247.9 152.471 247.9C153.891 247.9 154.791 246.9 154.791 244.88V240.2ZM165.602 240.04C165.962 240.04 166.422 240.04 166.782 240.18V242.58C166.422 242.44 166.102 242.38 165.462 242.38C163.862 242.38 162.742 243.46 162.742 245.94V250H160.202V240.2H162.742V242.98C163.002 241.5 163.722 240.04 165.602 240.04ZM179.604 242.44H176.764V247.76H179.364V250H177.264C175.444 250 174.224 248.78 174.224 246.96V242.44H172.344V240.2H174.224V237.28H176.764V240.2H179.604V242.44ZM190.469 244.96C190.469 245.28 190.469 245.5 190.449 245.9H183.489C183.649 247.54 184.369 248.22 185.909 248.22C187.069 248.22 187.569 247.88 188.049 246.84L190.249 247.64C189.589 249.34 188.049 250.2 185.849 250.2C182.849 250.2 180.849 248.2 180.849 245.16C180.849 242.08 182.869 240 185.769 240C188.569 240 190.469 241.94 190.469 244.96ZM185.789 241.92C184.369 241.92 183.669 242.58 183.489 244.16H187.949C187.909 242.5 187.229 241.92 185.789 241.92ZM199.783 240.2H202.323V250H199.783V247.86C199.183 249.36 198.003 250.2 196.383 250.2C193.583 250.2 191.923 248.16 191.923 245.12C191.923 242.04 193.523 240 196.263 240C197.943 240 199.163 240.86 199.783 242.4V240.2ZM197.143 247.9C199.003 247.9 199.863 247 199.863 245.12C199.863 243.2 199.003 242.3 197.143 242.3C195.343 242.3 194.483 243.2 194.483 245.12C194.483 247 195.343 247.9 197.143 247.9ZM217.802 240C220.062 240 221.202 241.4 221.202 244.18V250H218.662V244.34C218.662 243.02 217.982 242.3 216.762 242.3C215.262 242.3 214.462 243.36 214.462 245.76V250H211.922V244.28C211.922 242.96 211.242 242.3 210.022 242.3C208.602 242.3 207.722 243.3 207.722 245.32V250H205.182V240.2H207.722V242.48C208.202 240.9 209.202 240 210.962 240C212.762 240 213.882 240.84 214.282 242.52C214.902 240.84 216.102 240 217.802 240ZM241.436 250H238.296L236.336 247.98C235.896 249.72 234.356 250.2 232.696 250.2C229.716 250.2 228.256 248.76 228.256 246.36C228.256 244.52 229.476 243.52 231.136 242.66C229.956 241.42 229.476 240.64 229.476 239.46C229.476 237.24 231.216 235.8 233.616 235.8C236.076 235.8 237.736 237.2 237.736 239.32C237.736 241.28 236.336 242.32 234.596 243.12L237.316 245.86C237.896 245.26 238.576 244.5 239.416 243.58L241.076 245.12L238.896 247.44L241.436 250ZM233.656 237.72C232.416 237.72 231.796 238.34 231.796 239.46C231.796 240.36 232.416 240.98 233.176 241.7C234.736 240.98 235.496 240.42 235.496 239.4C235.496 238.34 234.936 237.72 233.656 237.72ZM233.416 248.02C234.296 248.02 234.976 247.82 235.696 247.32L232.476 244.04C231.516 244.54 230.856 245.1 230.856 246.06C230.856 247.24 231.436 248.02 233.416 248.02ZM89.5831 271.9C90.9831 271.9 91.6631 271.36 91.9831 269.72L94.4831 270.32C93.8031 273.1 91.8631 274.2 89.5831 274.2C86.5231 274.2 84.4231 272.16 84.4231 269.12C84.4231 266.04 86.5231 264 89.5831 264C91.9631 264 93.8431 265.2 94.4831 267.88L91.9831 268.48C91.6831 266.84 91.0031 266.3 89.5831 266.3C87.8031 266.3 86.9831 267.2 86.9831 269.12C86.9831 271 87.8031 271.9 89.5831 271.9ZM102.047 264.04C102.407 264.04 102.867 264.04 103.227 264.18V266.58C102.867 266.44 102.547 266.38 101.907 266.38C100.307 266.38 99.187 267.46 99.187 269.94V274H96.647V264.2H99.187V266.98C99.447 265.5 100.167 264.04 102.047 264.04ZM113.711 268.96C113.711 269.28 113.711 269.5 113.691 269.9H106.731C106.891 271.54 107.611 272.22 109.151 272.22C110.311 272.22 110.811 271.88 111.291 270.84L113.491 271.64C112.831 273.34 111.291 274.2 109.091 274.2C106.091 274.2 104.091 272.2 104.091 269.16C104.091 266.08 106.111 264 109.011 264C111.811 264 113.711 265.94 113.711 268.96ZM109.031 265.92C107.611 265.92 106.911 266.58 106.731 268.16H111.191C111.151 266.5 110.471 265.92 109.031 265.92ZM123.025 264.2H125.565V274H123.025V271.86C122.425 273.36 121.245 274.2 119.625 274.2C116.825 274.2 115.165 272.16 115.165 269.12C115.165 266.04 116.765 264 119.505 264C121.185 264 122.405 264.86 123.025 266.4V264.2ZM120.385 271.9C122.245 271.9 123.105 271 123.105 269.12C123.105 267.2 122.245 266.3 120.385 266.3C118.585 266.3 117.725 267.2 117.725 269.12C117.725 271 118.585 271.9 120.385 271.9ZM134.604 266.44H131.764V271.76H134.364V274H132.264C130.444 274 129.224 272.78 129.224 270.96V266.44H127.344V264.2H129.224V261.28H131.764V264.2H134.604V266.44ZM145.469 268.96C145.469 269.28 145.469 269.5 145.449 269.9H138.489C138.649 271.54 139.369 272.22 140.909 272.22C142.069 272.22 142.569 271.88 143.049 270.84L145.249 271.64C144.589 273.34 143.049 274.2 140.849 274.2C137.849 274.2 135.849 272.2 135.849 269.16C135.849 266.08 137.869 264 140.769 264C143.569 264 145.469 265.94 145.469 268.96ZM140.789 265.92C139.369 265.92 138.669 266.58 138.489 268.16H142.949C142.909 266.5 142.229 265.92 140.789 265.92ZM157.848 264.04C158.208 264.04 158.668 264.04 159.028 264.18V266.58C158.668 266.44 158.348 266.38 157.708 266.38C156.108 266.38 154.988 267.46 154.988 269.94V274H152.448V264.2H154.988V266.98C155.248 265.5 155.968 264.04 157.848 264.04ZM165.152 264C168.012 264 170.392 265.98 170.392 269.12C170.392 272.24 168.012 274.2 165.152 274.2C162.272 274.2 159.892 272.24 159.892 269.12C159.892 265.98 162.272 264 165.152 264ZM165.152 271.9C166.972 271.9 167.832 271 167.832 269.12C167.832 267.2 166.972 266.3 165.152 266.3C163.312 266.3 162.452 267.2 162.452 269.12C162.452 271 163.312 271.9 165.152 271.9ZM172.545 274V260H175.085V274H172.545ZM186.836 268.96C186.836 269.28 186.836 269.5 186.816 269.9H179.856C180.016 271.54 180.736 272.22 182.276 272.22C183.436 272.22 183.936 271.88 184.416 270.84L186.616 271.64C185.956 273.34 184.416 274.2 182.216 274.2C179.216 274.2 177.216 272.2 177.216 269.16C177.216 266.08 179.236 264 182.136 264C184.936 264 186.836 265.94 186.836 268.96ZM182.156 265.92C180.736 265.92 180.036 266.58 179.856 268.16H184.316C184.276 266.5 183.596 265.92 182.156 265.92ZM192.39 274.2C189.87 274.2 188.35 272.9 188.09 271.3L190.47 270.64C190.63 271.92 191.31 272.26 192.55 272.26C193.53 272.26 194.15 271.92 194.15 271.26C194.15 270.66 193.87 270.36 192.71 270.18L191.07 269.92C189.35 269.64 188.29 268.66 188.29 266.98C188.29 265.1 189.75 264 192.21 264C194.87 264 196.07 265.1 196.39 266.84L194.15 267.38C194.01 266.14 193.53 265.84 192.29 265.84C191.33 265.84 190.85 266.2 190.85 266.86C190.85 267.4 191.11 267.74 192.07 267.88L194.07 268.18C195.69 268.4 196.69 269.38 196.69 270.98C196.69 273 195.09 274.2 192.39 274.2Z" fill="#292929"/>
  <rect x="359" y="275" width="281" height="104" rx="32" fill="#FAFAFA"/>
  <path d="M387.587 322V308H390.287V322H387.587ZM399.2 312C401.52 312 402.7 313.38 402.7 316.14V322H400.16V316.28C400.16 314.96 399.48 314.3 398.26 314.3C396.84 314.3 395.96 315.3 395.96 317.32V322H393.42V312.2H395.96V314.48C396.44 312.9 397.44 312 399.2 312ZM411.397 314.44H408.557V319.76H411.157V322H409.057C407.237 322 406.017 320.78 406.017 318.96V314.44H404.137V312.2H406.017V309.28H408.557V312.2H411.397V314.44ZM422.262 316.96C422.262 317.28 422.262 317.5 422.242 317.9H415.282C415.442 319.54 416.162 320.22 417.702 320.22C418.862 320.22 419.362 319.88 419.842 318.84L422.042 319.64C421.382 321.34 419.842 322.2 417.642 322.2C414.642 322.2 412.642 320.2 412.642 317.16C412.642 314.08 414.662 312 417.562 312C420.362 312 422.262 313.94 422.262 316.96ZM417.582 313.92C416.162 313.92 415.462 314.58 415.282 316.16H419.742C419.702 314.5 419.022 313.92 417.582 313.92ZM431.196 312.2H433.736V320.8C433.736 323.8 431.836 325.6 428.636 325.6C426.136 325.6 424.296 324.68 423.796 322.96L426.236 321.94C426.596 323.26 427.356 323.54 428.756 323.54C430.396 323.54 431.196 322.86 431.196 321.26V319.4C430.556 320.7 429.396 321.44 427.856 321.44C425.336 321.44 423.716 319.52 423.716 316.7C423.716 313.9 425.296 312.02 427.776 312.02C429.376 312.02 430.556 312.8 431.196 314.12V312.2ZM428.756 319.2C430.476 319.2 431.296 318.4 431.296 316.72C431.296 315.04 430.476 314.24 428.776 314.24C427.096 314.24 426.296 315.04 426.296 316.72C426.296 318.4 427.096 319.2 428.756 319.2ZM442.004 312.04C442.364 312.04 442.824 312.04 443.184 312.18V314.58C442.824 314.44 442.504 314.38 441.864 314.38C440.264 314.38 439.144 315.46 439.144 317.94V322H436.604V312.2H439.144V314.98C439.404 313.5 440.124 312.04 442.004 312.04ZM451.908 312.2H454.448V322H451.908V319.86C451.308 321.36 450.128 322.2 448.508 322.2C445.708 322.2 444.048 320.16 444.048 317.12C444.048 314.04 445.648 312 448.388 312C450.068 312 451.288 312.86 451.908 314.4V312.2ZM449.268 319.9C451.128 319.9 451.988 319 451.988 317.12C451.988 315.2 451.128 314.3 449.268 314.3C447.468 314.3 446.608 315.2 446.608 317.12C446.608 319 447.468 319.9 449.268 319.9ZM463.487 314.44H460.647V319.76H463.247V322H461.147C459.327 322 458.107 320.78 458.107 318.96V314.44H456.227V312.2H458.107V309.28H460.647V312.2H463.487V314.44ZM466.77 310.56C465.71 310.56 465.11 309.98 465.11 308.94C465.11 307.94 465.69 307.38 466.77 307.38C467.83 307.38 468.43 307.94 468.43 308.94C468.43 309.98 467.83 310.56 466.77 310.56ZM465.51 322V312.2H468.05V322H465.51ZM475.441 312C478.301 312 480.681 313.98 480.681 317.12C480.681 320.24 478.301 322.2 475.441 322.2C472.561 322.2 470.181 320.24 470.181 317.12C470.181 313.98 472.561 312 475.441 312ZM475.441 319.9C477.261 319.9 478.121 319 478.121 317.12C478.121 315.2 477.261 314.3 475.441 314.3C473.601 314.3 472.741 315.2 472.741 317.12C472.741 319 473.601 319.9 475.441 319.9ZM488.615 312C490.935 312 492.115 313.38 492.115 316.14V322H489.575V316.28C489.575 314.96 488.895 314.3 487.675 314.3C486.255 314.3 485.375 315.3 485.375 317.32V322H482.835V312.2H485.375V314.48C485.855 312.9 486.855 312 488.615 312ZM498.246 322.2C495.726 322.2 494.206 320.9 493.946 319.3L496.326 318.64C496.486 319.92 497.166 320.26 498.406 320.26C499.386 320.26 500.006 319.92 500.006 319.26C500.006 318.66 499.726 318.36 498.566 318.18L496.926 317.92C495.206 317.64 494.146 316.66 494.146 314.98C494.146 313.1 495.606 312 498.066 312C500.726 312 501.926 313.1 502.246 314.84L500.006 315.38C499.866 314.14 499.386 313.84 498.146 313.84C497.186 313.84 496.706 314.2 496.706 314.86C496.706 315.4 496.966 315.74 497.926 315.88L499.926 316.18C501.546 316.4 502.546 317.38 502.546 318.98C502.546 321 500.946 322.2 498.246 322.2ZM522.057 322H518.917L516.957 319.98C516.517 321.72 514.977 322.2 513.317 322.2C510.337 322.2 508.877 320.76 508.877 318.36C508.877 316.52 510.097 315.52 511.757 314.66C510.577 313.42 510.097 312.64 510.097 311.46C510.097 309.24 511.837 307.8 514.237 307.8C516.697 307.8 518.357 309.2 518.357 311.32C518.357 313.28 516.957 314.32 515.217 315.12L517.937 317.86C518.517 317.26 519.197 316.5 520.037 315.58L521.697 317.12L519.517 319.44L522.057 322ZM514.277 309.72C513.037 309.72 512.417 310.34 512.417 311.46C512.417 312.36 513.037 312.98 513.797 313.7C515.357 312.98 516.117 312.42 516.117 311.4C516.117 310.34 515.557 309.72 514.277 309.72ZM514.037 320.02C514.917 320.02 515.597 319.82 516.317 319.32L513.097 316.04C512.137 316.54 511.477 317.1 511.477 318.06C511.477 319.24 512.057 320.02 514.037 320.02ZM540.537 308H545.097V322H542.497V309.72L541.837 312.56L538.597 322H535.317L532.077 312.56L531.417 309.78V322H528.817V308H533.377L536.037 316.26L536.957 319.62L537.877 316.26L540.537 308ZM557.145 316.96C557.145 317.28 557.145 317.5 557.125 317.9H550.165C550.325 319.54 551.045 320.22 552.585 320.22C553.745 320.22 554.245 319.88 554.725 318.84L556.925 319.64C556.265 321.34 554.725 322.2 552.525 322.2C549.525 322.2 547.525 320.2 547.525 317.16C547.525 314.08 549.545 312 552.445 312C555.245 312 557.145 313.94 557.145 316.96ZM552.465 313.92C551.045 313.92 550.345 314.58 550.165 316.16H554.625C554.585 314.5 553.905 313.92 552.465 313.92ZM562.699 322.2C560.179 322.2 558.659 320.9 558.399 319.3L560.779 318.64C560.939 319.92 561.619 320.26 562.859 320.26C563.839 320.26 564.459 319.92 564.459 319.26C564.459 318.66 564.179 318.36 563.019 318.18L561.379 317.92C559.659 317.64 558.599 316.66 558.599 314.98C558.599 313.1 560.059 312 562.519 312C565.179 312 566.379 313.1 566.699 314.84L564.459 315.38C564.319 314.14 563.839 313.84 562.599 313.84C561.639 313.84 561.159 314.2 561.159 314.86C561.159 315.4 561.419 315.74 562.379 315.88L564.379 316.18C565.999 316.4 566.999 317.38 566.999 318.98C566.999 321 565.399 322.2 562.699 322.2ZM572.425 322.2C569.905 322.2 568.385 320.9 568.125 319.3L570.505 318.64C570.665 319.92 571.345 320.26 572.585 320.26C573.565 320.26 574.185 319.92 574.185 319.26C574.185 318.66 573.905 318.36 572.745 318.18L571.105 317.92C569.385 317.64 568.325 316.66 568.325 314.98C568.325 313.1 569.785 312 572.245 312C574.905 312 576.105 313.1 576.425 314.84L574.185 315.38C574.045 314.14 573.565 313.84 572.325 313.84C571.365 313.84 570.885 314.2 570.885 314.86C570.885 315.4 571.145 315.74 572.105 315.88L574.105 316.18C575.725 316.4 576.725 317.38 576.725 318.98C576.725 321 575.125 322.2 572.425 322.2ZM585.912 312.2H588.452V322H585.912V319.86C585.312 321.36 584.132 322.2 582.512 322.2C579.712 322.2 578.052 320.16 578.052 317.12C578.052 314.04 579.652 312 582.392 312C584.072 312 585.292 312.86 585.912 314.4V312.2ZM583.272 319.9C585.132 319.9 585.992 319 585.992 317.12C585.992 315.2 585.132 314.3 583.272 314.3C581.472 314.3 580.612 315.2 580.612 317.12C580.612 319 581.472 319.9 583.272 319.9ZM598.071 312.2H600.611V320.8C600.611 323.8 598.711 325.6 595.511 325.6C593.011 325.6 591.171 324.68 590.671 322.96L593.111 321.94C593.471 323.26 594.231 323.54 595.631 323.54C597.271 323.54 598.071 322.86 598.071 321.26V319.4C597.431 320.7 596.271 321.44 594.731 321.44C592.211 321.44 590.591 319.52 590.591 316.7C590.591 313.9 592.171 312.02 594.651 312.02C596.251 312.02 597.431 312.8 598.071 314.12V312.2ZM595.631 319.2C597.351 319.2 598.171 318.4 598.171 316.72C598.171 315.04 597.351 314.24 595.651 314.24C593.971 314.24 593.171 315.04 593.171 316.72C593.171 318.4 593.971 319.2 595.631 319.2ZM612.379 316.96C612.379 317.28 612.379 317.5 612.359 317.9H605.399C605.559 319.54 606.279 320.22 607.819 320.22C608.979 320.22 609.479 319.88 609.959 318.84L612.159 319.64C611.499 321.34 609.959 322.2 607.759 322.2C604.759 322.2 602.759 320.2 602.759 317.16C602.759 314.08 604.779 312 607.679 312C610.479 312 612.379 313.94 612.379 316.96ZM607.699 313.92C606.279 313.92 605.579 314.58 605.399 316.16H609.859C609.819 314.5 609.139 313.92 607.699 313.92ZM458.409 338.44H455.569V343.76H458.169V346H456.069C454.249 346 453.029 344.78 453.029 342.96V338.44H451.149V336.2H453.029V333.28H455.569V336.2H458.409V338.44ZM469.274 340.96C469.274 341.28 469.274 341.5 469.254 341.9H462.294C462.454 343.54 463.174 344.22 464.714 344.22C465.874 344.22 466.374 343.88 466.854 342.84L469.054 343.64C468.394 345.34 466.854 346.2 464.654 346.2C461.654 346.2 459.654 344.2 459.654 341.16C459.654 338.08 461.674 336 464.574 336C467.374 336 469.274 337.94 469.274 340.96ZM464.594 337.92C463.174 337.92 462.474 338.58 462.294 340.16H466.754C466.714 338.5 466.034 337.92 464.594 337.92ZM484.068 336C486.328 336 487.468 337.4 487.468 340.18V346H484.928V340.34C484.928 339.02 484.248 338.3 483.028 338.3C481.528 338.3 480.728 339.36 480.728 341.76V346H478.188V340.28C478.188 338.96 477.508 338.3 476.288 338.3C474.868 338.3 473.988 339.3 473.988 341.32V346H471.448V336.2H473.988V338.48C474.468 336.9 475.468 336 477.228 336C479.028 336 480.148 336.84 480.548 338.52C481.168 336.84 482.368 336 484.068 336ZM496.297 336C499.017 336 500.617 338.04 500.617 341.12C500.617 344.16 498.957 346.2 496.157 346.2C494.557 346.2 493.397 345.38 492.777 343.9V349.4H490.237V336.2H492.777V338.36C493.397 336.84 494.637 336 496.297 336ZM495.397 343.9C497.217 343.9 498.057 343 498.057 341.12C498.057 339.2 497.217 338.3 495.397 338.3C493.537 338.3 492.677 339.2 492.677 341.12C492.677 343 493.537 343.9 495.397 343.9ZM502.776 346V332H505.316V346H502.776ZM515.307 336.2H517.847V346H515.307V343.86C514.707 345.36 513.527 346.2 511.907 346.2C509.107 346.2 507.447 344.16 507.447 341.12C507.447 338.04 509.047 336 511.787 336C513.467 336 514.687 336.86 515.307 338.4V336.2ZM512.667 343.9C514.527 343.9 515.387 343 515.387 341.12C515.387 339.2 514.527 338.3 512.667 338.3C510.867 338.3 510.007 339.2 510.007 341.12C510.007 343 510.867 343.9 512.667 343.9ZM526.886 338.44H524.046V343.76H526.646V346H524.546C522.726 346 521.506 344.78 521.506 342.96V338.44H519.626V336.2H521.506V333.28H524.046V336.2H526.886V338.44ZM537.75 340.96C537.75 341.28 537.75 341.5 537.73 341.9H530.77C530.93 343.54 531.65 344.22 533.19 344.22C534.35 344.22 534.85 343.88 535.33 342.84L537.53 343.64C536.87 345.34 535.33 346.2 533.13 346.2C530.13 346.2 528.13 344.2 528.13 341.16C528.13 338.08 530.15 336 533.05 336C535.85 336 537.75 337.94 537.75 340.96ZM533.07 337.92C531.65 337.92 530.95 338.58 530.77 340.16H535.23C535.19 338.5 534.51 337.92 533.07 337.92ZM543.304 346.2C540.784 346.2 539.264 344.9 539.004 343.3L541.384 342.64C541.544 343.92 542.224 344.26 543.464 344.26C544.444 344.26 545.064 343.92 545.064 343.26C545.064 342.66 544.784 342.36 543.624 342.18L541.984 341.92C540.264 341.64 539.204 340.66 539.204 338.98C539.204 337.1 540.664 336 543.124 336C545.784 336 546.984 337.1 547.304 338.84L545.064 339.38C544.924 338.14 544.444 337.84 543.204 337.84C542.244 337.84 541.764 338.2 541.764 338.86C541.764 339.4 542.024 339.74 542.984 339.88L544.984 340.18C546.604 340.4 547.604 341.38 547.604 342.98C547.604 345 546.004 346.2 543.304 346.2Z" fill="#292929"/>
  <rect x="681" y="112" width="281" height="104" rx="32" fill="#FAFAFA"/>
  <path d="M717.445 145H720.505L715.485 153.42V159H712.845V153.46L707.765 145H710.825L714.145 150.96L717.445 145ZM724.267 149C727.127 149 729.507 150.98 729.507 154.12C729.507 157.24 727.127 159.2 724.267 159.2C721.387 159.2 719.007 157.24 719.007 154.12C719.007 150.98 721.387 149 724.267 149ZM724.267 156.9C726.087 156.9 726.947 156 726.947 154.12C726.947 152.2 726.087 151.3 724.267 151.3C722.427 151.3 721.567 152.2 721.567 154.12C721.567 156 722.427 156.9 724.267 156.9ZM738.301 149.2H740.841V159H738.301V156.7C737.821 158.3 736.801 159.2 735.041 159.2C732.721 159.2 731.561 157.82 731.561 155.06V149.2H734.101V154.92C734.101 156.24 734.781 156.9 735.981 156.9C737.401 156.9 738.301 155.9 738.301 153.88V149.2ZM749.111 149.04C749.471 149.04 749.931 149.04 750.291 149.18V151.58C749.931 151.44 749.611 151.38 748.971 151.38C747.371 151.38 746.251 152.46 746.251 154.94V159H743.711V149.2H746.251V151.98C746.511 150.5 747.231 149.04 749.111 149.04ZM762.994 149C765.714 149 767.314 151.04 767.314 154.12C767.314 157.16 765.654 159.2 762.854 159.2C761.254 159.2 760.094 158.38 759.474 156.9V162.4H756.934V149.2H759.474V151.36C760.094 149.84 761.334 149 762.994 149ZM762.094 156.9C763.914 156.9 764.754 156 764.754 154.12C764.754 152.2 763.914 151.3 762.094 151.3C760.234 151.3 759.374 152.2 759.374 154.12C759.374 156 760.234 156.9 762.094 156.9ZM774.873 149.04C775.233 149.04 775.693 149.04 776.053 149.18V151.58C775.693 151.44 775.373 151.38 774.733 151.38C773.133 151.38 772.013 152.46 772.013 154.94V159H769.473V149.2H772.013V151.98C772.273 150.5 772.993 149.04 774.873 149.04ZM782.177 149C785.037 149 787.417 150.98 787.417 154.12C787.417 157.24 785.037 159.2 782.177 159.2C779.297 159.2 776.917 157.24 776.917 154.12C776.917 150.98 779.297 149 782.177 149ZM782.177 156.9C783.997 156.9 784.857 156 784.857 154.12C784.857 152.2 783.997 151.3 782.177 151.3C780.337 151.3 779.477 152.2 779.477 154.12C779.477 156 780.337 156.9 782.177 156.9ZM795.891 149.2V151.44H792.991V159H790.451V151.44H788.391V149.2H790.451V147.5C790.451 145.68 791.671 144.46 793.491 144.46H795.831V146.7H792.991V149.2H795.891ZM798.936 147.56C797.876 147.56 797.276 146.98 797.276 145.94C797.276 144.94 797.856 144.38 798.936 144.38C799.996 144.38 800.596 144.94 800.596 145.94C800.596 146.98 799.996 147.56 798.936 147.56ZM797.676 159V149.2H800.216V159H797.676ZM803.067 159V145H805.607V159H803.067ZM817.358 153.96C817.358 154.28 817.358 154.5 817.338 154.9H810.378C810.538 156.54 811.258 157.22 812.798 157.22C813.958 157.22 814.458 156.88 814.938 155.84L817.138 156.64C816.478 158.34 814.938 159.2 812.738 159.2C809.738 159.2 807.738 157.2 807.738 154.16C807.738 151.08 809.758 149 812.658 149C815.458 149 817.358 150.94 817.358 153.96ZM812.678 150.92C811.258 150.92 810.558 151.58 810.378 153.16H814.838C814.798 151.5 814.118 150.92 812.678 150.92ZM836.996 159H833.856L831.896 156.98C831.456 158.72 829.916 159.2 828.256 159.2C825.276 159.2 823.816 157.76 823.816 155.36C823.816 153.52 825.036 152.52 826.696 151.66C825.516 150.42 825.036 149.64 825.036 148.46C825.036 146.24 826.776 144.8 829.176 144.8C831.636 144.8 833.296 146.2 833.296 148.32C833.296 150.28 831.896 151.32 830.156 152.12L832.876 154.86C833.456 154.26 834.136 153.5 834.976 152.58L836.636 154.12L834.456 156.44L836.996 159ZM829.216 146.72C827.976 146.72 827.356 147.34 827.356 148.46C827.356 149.36 827.976 149.98 828.736 150.7C830.296 149.98 831.056 149.42 831.056 148.4C831.056 147.34 830.496 146.72 829.216 146.72ZM828.976 157.02C829.856 157.02 830.536 156.82 831.256 156.32L828.036 153.04C827.076 153.54 826.416 154.1 826.416 155.06C826.416 156.24 826.996 157.02 828.976 157.02ZM850.097 156.8C852.637 156.8 853.937 155.7 854.377 152.92L857.017 153.48C856.377 157.18 853.637 159.2 850.097 159.2C846.097 159.2 842.857 156.26 842.857 152C842.857 147.7 846.097 144.8 850.097 144.8C853.637 144.8 856.377 146.82 857.017 150.52L854.377 151.08C853.937 148.3 852.637 147.2 850.097 147.2C847.117 147.2 845.597 148.8 845.597 151.98C845.597 155.18 847.117 156.8 850.097 156.8ZM863.662 149C866.522 149 868.902 150.98 868.902 154.12C868.902 157.24 866.522 159.2 863.662 159.2C860.782 159.2 858.402 157.24 858.402 154.12C858.402 150.98 860.782 149 863.662 149ZM863.662 156.9C865.482 156.9 866.342 156 866.342 154.12C866.342 152.2 865.482 151.3 863.662 151.3C861.822 151.3 860.962 152.2 860.962 154.12C860.962 156 861.822 156.9 863.662 156.9ZM883.675 149C885.935 149 887.075 150.4 887.075 153.18V159H884.535V153.34C884.535 152.02 883.855 151.3 882.635 151.3C881.135 151.3 880.335 152.36 880.335 154.76V159H877.795V153.28C877.795 151.96 877.115 151.3 875.895 151.3C874.475 151.3 873.595 152.3 873.595 154.32V159H871.055V149.2H873.595V151.48C874.075 149.9 875.075 149 876.835 149C878.635 149 879.755 149.84 880.155 151.52C880.775 149.84 881.975 149 883.675 149ZM895.904 149C898.624 149 900.224 151.04 900.224 154.12C900.224 157.16 898.564 159.2 895.764 159.2C894.164 159.2 893.004 158.38 892.384 156.9V162.4H889.844V149.2H892.384V151.36C893.004 149.84 894.244 149 895.904 149ZM895.004 156.9C896.824 156.9 897.664 156 897.664 154.12C897.664 152.2 896.824 151.3 895.004 151.3C893.144 151.3 892.284 152.2 892.284 154.12C892.284 156 893.144 156.9 895.004 156.9ZM909.523 149.2H912.063V159H909.523V156.86C908.923 158.36 907.743 159.2 906.123 159.2C903.323 159.2 901.663 157.16 901.663 154.12C901.663 151.04 903.263 149 906.003 149C907.683 149 908.903 149.86 909.523 151.4V149.2ZM906.883 156.9C908.743 156.9 909.603 156 909.603 154.12C909.603 152.2 908.743 151.3 906.883 151.3C905.083 151.3 904.223 152.2 904.223 154.12C904.223 156 905.083 156.9 906.883 156.9ZM920.702 149C923.022 149 924.202 150.38 924.202 153.14V159H921.662V153.28C921.662 151.96 920.982 151.3 919.762 151.3C918.342 151.3 917.462 152.3 917.462 154.32V159H914.922V149.2H917.462V151.48C917.942 149.9 918.942 149 920.702 149ZM933.103 149.2H935.863L931.703 160.08C931.103 161.64 930.203 162.4 928.083 162.4H926.043V160.16H929.443L925.343 149.2H928.103L929.983 155L930.563 157.18L931.203 155L933.103 149.2ZM766.944 171.56C765.884 171.56 765.284 170.98 765.284 169.94C765.284 168.94 765.864 168.38 766.944 168.38C768.004 168.38 768.604 168.94 768.604 169.94C768.604 170.98 768.004 171.56 766.944 171.56ZM765.684 183V173.2H768.224V183H765.684ZM776.855 173C779.175 173 780.355 174.38 780.355 177.14V183H777.815V177.28C777.815 175.96 777.135 175.3 775.915 175.3C774.495 175.3 773.615 176.3 773.615 178.32V183H771.075V173.2H773.615V175.48C774.095 173.9 775.095 173 776.855 173ZM789.426 173.2V175.44H786.526V183H783.986V175.44H781.926V173.2H783.986V171.5C783.986 169.68 785.206 168.46 787.026 168.46H789.366V170.7H786.526V173.2H789.426ZM795.498 173C798.358 173 800.738 174.98 800.738 178.12C800.738 181.24 798.358 183.2 795.498 183.2C792.618 183.2 790.238 181.24 790.238 178.12C790.238 174.98 792.618 173 795.498 173ZM795.498 180.9C797.318 180.9 798.178 180 798.178 178.12C798.178 176.2 797.318 175.3 795.498 175.3C793.658 175.3 792.798 176.2 792.798 178.12C792.798 180 793.658 180.9 795.498 180.9ZM808.291 173.04C808.651 173.04 809.111 173.04 809.471 173.18V175.58C809.111 175.44 808.791 175.38 808.151 175.38C806.551 175.38 805.431 176.46 805.431 178.94V183H802.891V173.2H805.431V175.98C805.691 174.5 806.411 173.04 808.291 173.04ZM823.929 173C826.189 173 827.329 174.4 827.329 177.18V183H824.789V177.34C824.789 176.02 824.109 175.3 822.889 175.3C821.389 175.3 820.589 176.36 820.589 178.76V183H818.049V177.28C818.049 175.96 817.369 175.3 816.149 175.3C814.729 175.3 813.849 176.3 813.849 178.32V183H811.309V173.2H813.849V175.48C814.329 173.9 815.329 173 817.089 173C818.889 173 820.009 173.84 820.409 175.52C821.029 173.84 822.229 173 823.929 173ZM837.238 173.2H839.778V183H837.238V180.86C836.638 182.36 835.458 183.2 833.838 183.2C831.038 183.2 829.378 181.16 829.378 178.12C829.378 175.04 830.978 173 833.718 173C835.398 173 836.618 173.86 837.238 175.4V173.2ZM834.598 180.9C836.458 180.9 837.318 180 837.318 178.12C837.318 176.2 836.458 175.3 834.598 175.3C832.798 175.3 831.938 176.2 831.938 178.12C831.938 180 832.798 180.9 834.598 180.9ZM848.817 175.44H845.977V180.76H848.577V183H846.477C844.657 183 843.437 181.78 843.437 179.96V175.44H841.557V173.2H843.437V170.28H845.977V173.2H848.817V175.44ZM852.1 171.56C851.04 171.56 850.44 170.98 850.44 169.94C850.44 168.94 851.02 168.38 852.1 168.38C853.16 168.38 853.76 168.94 853.76 169.94C853.76 170.98 853.16 171.56 852.1 171.56ZM850.84 183V173.2H853.38V183H850.84ZM860.771 173C863.631 173 866.011 174.98 866.011 178.12C866.011 181.24 863.631 183.2 860.771 183.2C857.891 183.2 855.511 181.24 855.511 178.12C855.511 174.98 857.891 173 860.771 173ZM860.771 180.9C862.591 180.9 863.451 180 863.451 178.12C863.451 176.2 862.591 175.3 860.771 175.3C858.931 175.3 858.071 176.2 858.071 178.12C858.071 180 858.931 180.9 860.771 180.9ZM873.945 173C876.265 173 877.445 174.38 877.445 177.14V183H874.905V177.28C874.905 175.96 874.225 175.3 873.005 175.3C871.585 175.3 870.705 176.3 870.705 178.32V183H868.165V173.2H870.705V175.48C871.185 173.9 872.185 173 873.945 173Z" fill="#292929"/>
  <defs>
    <radialGradient id="paint0_diamond_339_82163" cx="0" cy="0" r="1" gradientUnits="userSpaceOnUse" gradientTransform="translate(447.937 246.894) rotate(71.9813) scale(388.142 891.065)">
      <stop stop-color="#3737FF" stop-opacity="0.15"/>
      <stop offset="1" stop-color="white" stop-opacity="0"/>
    </radialGradient>
  </defs>
</svg>
