<svg width="25" height="24" viewBox="0 0 25 24" fill="none" xmlns="http://www.w3.org/2000/svg">
<path d="M4.5 3C4.5 2.44772 4.05228 2 3.5 2C2.94772 2 2.5 2.44772 2.5 3H4.5ZM22.5 3C22.5 2.44772 22.0523 2 21.5 2C20.9477 2 20.5 2.44772 20.5 3H22.5ZM8.5 5C8.5 4.44772 8.05228 4 7.5 4C6.94772 4 6.5 4.44772 6.5 5H8.5ZM6.5 9C6.5 9.55228 6.94772 10 7.5 10C8.05228 10 8.5 9.55228 8.5 9H6.5ZM8.5 13C8.5 12.4477 8.05228 12 7.5 12C6.94772 12 6.5 12.4477 6.5 13H8.5ZM6.5 17C6.5 17.5523 6.94772 18 7.5 18C8.05228 18 8.5 17.5523 8.5 17H6.5ZM16.5 5C16.5 4.44772 16.0523 4 15.5 4C14.9477 4 14.5 4.44772 14.5 5H16.5ZM14.5 9C14.5 9.55228 14.9477 10 15.5 10C16.0523 10 16.5 9.55228 16.5 9H14.5ZM18.5 13C18.5 12.4477 18.0523 12 17.5 12C16.9477 12 16.5 12.4477 16.5 13H18.5ZM16.5 17C16.5 17.5523 16.9477 18 17.5 18C18.0523 18 18.5 17.5523 18.5 17H16.5ZM12.5 5C12.5 4.44772 12.0523 4 11.5 4C10.9477 4 10.5 4.44772 10.5 5H12.5ZM10.5 9C10.5 9.55228 10.9477 10 11.5 10C12.0523 10 12.5 9.55228 12.5 9H10.5ZM12.5 13C12.5 12.4477 12.0523 12 11.5 12C10.9477 12 10.5 12.4477 10.5 13H12.5ZM10.5 17C10.5 17.5523 10.9477 18 11.5 18C12.0523 18 12.5 17.5523 12.5 17H10.5ZM5.5 22H19.5V20H5.5V22ZM2.5 3V7H4.5V3H2.5ZM22.5 7V3H20.5V7H22.5ZM3.5 8H21.5V6H3.5V8ZM2.5 7V15H4.5V7H2.5ZM2.5 15V19H4.5V15H2.5ZM22.5 19V15H20.5V19H22.5ZM22.5 15V7H20.5V15H22.5ZM3.5 16H21.5V14H3.5V16ZM19.5 22C21.1569 22 22.5 20.6569 22.5 19H20.5C20.5 19.5523 20.0523 20 19.5 20V22ZM5.5 20C4.94772 20 4.5 19.5523 4.5 19H2.5C2.5 20.6569 3.84315 22 5.5 22V20ZM6.5 5V9H8.5V5H6.5ZM6.5 13V17H8.5V13H6.5ZM14.5 5V9H16.5V5H14.5ZM16.5 13V17H18.5V13H16.5ZM10.5 5V9H12.5V5H10.5ZM10.5 13V17H12.5V13H10.5Z" fill="currentColor"/>
</svg>
