<svg width="25" height="24" viewBox="0 0 25 24" fill="none" xmlns="http://www.w3.org/2000/svg">
<path d="M9.5 16.25C9.08579 16.25 8.75 16.5858 8.75 17C8.75 17.4142 9.08579 17.75 9.5 17.75V16.25ZM14.5 17.75C14.9142 17.75 15.25 17.4142 15.25 17C15.25 16.5858 14.9142 16.25 14.5 16.25V17.75ZM14.5 21.75C14.9142 21.75 15.25 21.4142 15.25 21C15.25 20.5858 14.9142 20.25 14.5 20.25V21.75ZM13.5 3L14.0303 2.46967C13.8897 2.32902 13.6989 2.25 13.5 2.25V3ZM19.5 9H20.25C20.25 8.80109 20.171 8.61032 20.0303 8.46967L19.5 9ZM18.75 13C18.75 13.4142 19.0858 13.75 19.5 13.75C19.9142 13.75 20.25 13.4142 20.25 13H18.75ZM9.5 8.25C9.08579 8.25 8.75 8.58579 8.75 9C8.75 9.41421 9.08579 9.75 9.5 9.75V8.25ZM10.5 9.75C10.9142 9.75 11.25 9.41421 11.25 9C11.25 8.58579 10.9142 8.25 10.5 8.25V9.75ZM9.5 12.25C9.08579 12.25 8.75 12.5858 8.75 13C8.75 13.4142 9.08579 13.75 9.5 13.75V12.25ZM15.5 13.75C15.9142 13.75 16.25 13.4142 16.25 13C16.25 12.5858 15.9142 12.25 15.5 12.25V13.75ZM20.25 17C20.25 16.5858 19.9142 16.25 19.5 16.25C19.0858 16.25 18.75 16.5858 18.75 17H20.25ZM18.75 21C18.75 21.4142 19.0858 21.75 19.5 21.75C19.9142 21.75 20.25 21.4142 20.25 21H18.75ZM17.5 18.25C17.0858 18.25 16.75 18.5858 16.75 19C16.75 19.4142 17.0858 19.75 17.5 19.75V18.25ZM21.5 19.75C21.9142 19.75 22.25 19.4142 22.25 19C22.25 18.5858 21.9142 18.25 21.5 18.25V19.75ZM9.5 17.75H14.5V16.25H9.5V17.75ZM14.5 20.25H7.5V21.75H14.5V20.25ZM6.25 19V5H4.75V19H6.25ZM7.5 3.75H13.5V2.25H7.5V3.75ZM12.75 3V7H14.25V3H12.75ZM15.5 9.75H19.5V8.25H15.5V9.75ZM20.0303 8.46967L14.0303 2.46967L12.9697 3.53033L18.9697 9.53033L20.0303 8.46967ZM18.75 9V13H20.25V9H18.75ZM12.75 7C12.75 8.51878 13.9812 9.75 15.5 9.75V8.25C14.8096 8.25 14.25 7.69036 14.25 7H12.75ZM6.25 5C6.25 4.30964 6.80964 3.75 7.5 3.75V2.25C5.98122 2.25 4.75 3.48122 4.75 5H6.25ZM7.5 20.25C6.80964 20.25 6.25 19.6904 6.25 19H4.75C4.75 20.5188 5.98122 21.75 7.5 21.75V20.25ZM9.5 9.75H10.5V8.25H9.5V9.75ZM9.5 13.75H15.5V12.25H9.5V13.75ZM18.75 17V21H20.25V17H18.75ZM17.5 19.75H21.5V18.25H17.5V19.75Z" fill="currentColor"/>
</svg>
