<svg width="21" height="20" viewBox="0 0 21 20" fill="none" xmlns="http://www.w3.org/2000/svg">
<path d="M3.83325 13.3334H3.20825C3.20825 13.4991 3.2741 13.6581 3.39131 13.7753L3.83325 13.3334ZM3.83325 6.66671L3.39131 6.22477C3.2741 6.34198 3.20825 6.50095 3.20825 6.66671H3.83325ZM7.16659 3.33337V2.70837C7.00082 2.70837 6.84185 2.77422 6.72464 2.89143L7.16659 3.33337ZM13.8333 3.33337L14.2752 2.89143C14.158 2.77422 13.999 2.70837 13.8333 2.70837V3.33337ZM17.1666 6.66671H17.7916C17.7916 6.50095 17.7257 6.34198 17.6085 6.22477L17.1666 6.66671ZM17.1666 13.3298L17.6088 13.7715C17.7258 13.6543 17.7916 13.4954 17.7916 13.3298H17.1666ZM13.8333 16.6667V17.2917C13.9991 17.2917 14.1582 17.2258 14.2754 17.1084L13.8333 16.6667ZM7.16659 16.6667L6.72464 17.1086C6.84185 17.2259 7.00082 17.2917 7.16659 17.2917V16.6667ZM9.87492 10.3704C9.87492 10.7156 10.1547 10.9954 10.4999 10.9954C10.8451 10.9954 11.1249 10.7156 11.1249 10.3704H9.87492ZM11.1249 6.66671C11.1249 6.32153 10.8451 6.04171 10.4999 6.04171C10.1547 6.04171 9.87492 6.32153 9.87492 6.66671H11.1249ZM4.45825 13.3334V6.66671H3.20825V13.3334H4.45825ZM7.16659 3.95837H13.8333V2.70837H7.16659V3.95837ZM16.5416 6.66671V13.3298H17.7916V6.66671H16.5416ZM13.8333 16.0417H7.16659V17.2917H13.8333V16.0417ZM11.1249 10.3704V6.66671H9.87492V10.3704H11.1249ZM4.27519 7.10865L7.60853 3.77532L6.72464 2.89143L3.39131 6.22477L4.27519 7.10865ZM13.3913 3.77532L16.7246 7.10865L17.6085 6.22477L14.2752 2.89143L13.3913 3.77532ZM7.60853 16.2248L4.27519 12.8914L3.39131 13.7753L6.72464 17.1086L7.60853 16.2248ZM16.7244 12.8881L13.3911 16.225L14.2754 17.1084L17.6088 13.7715L16.7244 12.8881Z" fill="currentColor"/>
<path d="M10.497 12.5C10.083 12.5 9.74702 12.836 9.75002 13.25C9.75002 13.664 10.086 14 10.5 14C10.914 14 11.25 13.664 11.25 13.25C11.25 12.836 10.914 12.5 10.497 12.5Z" fill="currentColor"/>
</svg>
