<svg width="25" height="24" viewBox="0 0 25 24" fill="none" xmlns="http://www.w3.org/2000/svg">
<path d="M9.5 8C8.94772 8 8.5 8.44772 8.5 9C8.5 9.55228 8.94772 10 9.5 10V8ZM10.5 10C11.0523 10 11.5 9.55228 11.5 9C11.5 8.44772 11.0523 8 10.5 8V10ZM9.5 16C8.94772 16 8.5 16.4477 8.5 17C8.5 17.5523 8.94772 18 9.5 18L9.5 16ZM15.5 18C16.0523 18 16.5 17.5523 16.5 17C16.5 16.4477 16.0523 16 15.5 16V18ZM9.5 12C8.94772 12 8.5 12.4477 8.5 13C8.5 13.5523 8.94772 14 9.5 14L9.5 12ZM15.5 14C16.0523 14 16.5 13.5523 16.5 13C16.5 12.4477 16.0523 12 15.5 12V14ZM19.5 9H20.5C20.5 8.73478 20.3946 8.48043 20.2071 8.29289L19.5 9ZM13.5 3L14.2071 2.29289C14.0196 2.10536 13.7652 2 13.5 2V3ZM9.5 10H10.5V8H9.5V10ZM9.5 18L15.5 18V16L9.5 16L9.5 18ZM9.5 14L15.5 14V12L9.5 12L9.5 14ZM4.5 5V19H6.5V5H4.5ZM7.5 22H17.5V20H7.5V22ZM20.5 19V9H18.5V19H20.5ZM19.5 8H15.5V10H19.5V8ZM14.5 7V3H12.5V7H14.5ZM13.5 2H7.5V4H13.5V2ZM12.7929 3.70711L18.7929 9.70711L20.2071 8.29289L14.2071 2.29289L12.7929 3.70711ZM15.5 8C14.9477 8 14.5 7.55228 14.5 7H12.5C12.5 8.65685 13.8431 10 15.5 10V8ZM17.5 22C19.1569 22 20.5 20.6569 20.5 19H18.5C18.5 19.5523 18.0523 20 17.5 20V22ZM4.5 19C4.5 20.6569 5.84315 22 7.5 22V20C6.94772 20 6.5 19.5523 6.5 19H4.5ZM6.5 5C6.5 4.44772 6.94772 4 7.5 4V2C5.84315 2 4.5 3.34315 4.5 5H6.5Z" fill="currentColor"/>
</svg>
