<svg width="21" height="20" viewBox="0 0 21 20" fill="none" xmlns="http://www.w3.org/2000/svg">
<path d="M10.4412 15.7744L9.91083 16.3047L10.4412 15.7744ZM7.69708 11.9697C7.40418 11.6768 6.92931 11.6768 6.63642 11.9697C6.34352 12.2626 6.34352 12.7374 6.63642 13.0303L7.69708 11.9697ZM10.559 15.7744L11.0893 16.3047L10.559 15.7744ZM14.3637 13.0303C14.6566 12.7374 14.6566 12.2626 14.3637 11.9697C14.0709 11.6768 13.596 11.6768 13.3031 11.9697L14.3637 13.0303ZM10.559 4.22558L11.0893 3.69525L10.559 4.22558ZM13.3031 8.03032C13.596 8.32321 14.0709 8.32321 14.3637 8.03032C14.6566 7.73742 14.6566 7.26255 14.3637 6.96966L13.3031 8.03032ZM10.4412 4.22558L9.91083 3.69525L10.4412 4.22558ZM6.63642 6.96966C6.34352 7.26255 6.34352 7.73742 6.63642 8.03032C6.92931 8.32321 7.40418 8.32321 7.69708 8.03032L6.63642 6.96966ZM9.91083 16.3047C10.2363 16.6302 10.7639 16.6302 11.0893 16.3047L10.0287 15.2441C10.289 14.9837 10.7111 14.9837 10.9715 15.2441L9.91083 16.3047ZM11.0893 3.69525C10.7639 3.36981 10.2363 3.36981 9.91083 3.69525L10.9715 4.75591C10.7111 5.01626 10.289 5.01626 10.0287 4.75591L11.0893 3.69525ZM10.9715 15.2441L7.69708 11.9697L6.63642 13.0303L9.91083 16.3047L10.9715 15.2441ZM11.0893 16.3047L14.3637 13.0303L13.3031 11.9697L10.0287 15.2441L11.0893 16.3047ZM10.0287 4.75591L13.3031 8.03032L14.3637 6.96966L11.0893 3.69525L10.0287 4.75591ZM9.91083 3.69525L6.63642 6.96966L7.69708 8.03032L10.9715 4.75591L9.91083 3.69525Z" fill="currentColor"/>
</svg>
