<svg width="25" height="24" viewBox="0 0 25 24" fill="none" xmlns="http://www.w3.org/2000/svg">
<path d="M18.5 13C19.0523 13 19.5 12.5523 19.5 12C19.5 11.4477 19.0523 11 18.5 11V13ZM6.5 12L5.79289 11.2929C5.60536 11.4804 5.5 11.7348 5.5 12C5.5 12.2652 5.60536 12.5196 5.79289 12.7071L6.5 12ZM11.7929 18.7071C12.1834 19.0976 12.8166 19.0976 13.2071 18.7071C13.5976 18.3166 13.5976 17.6834 13.2071 17.2929L11.7929 18.7071ZM13.2071 6.70711C13.5976 6.31658 13.5976 5.68342 13.2071 5.29289C12.8166 4.90237 12.1834 4.90237 11.7929 5.29289L13.2071 6.70711ZM18.5 11L6.5 11L6.5 13L18.5 13V11ZM5.79289 12.7071L11.7929 18.7071L13.2071 17.2929L7.20711 11.2929L5.79289 12.7071ZM7.20711 12.7071L13.2071 6.70711L11.7929 5.29289L5.79289 11.2929L7.20711 12.7071Z" fill="currentColor"/>
</svg>
