<svg width="25" height="24" viewBox="0 0 25 24" fill="none" xmlns="http://www.w3.org/2000/svg">
<path d="M12.1838 3.10539L11.9466 2.39388L12.1838 3.10539ZM4.18377 5.77206L3.9466 5.06055L3.9466 5.06055L4.18377 5.77206ZM20.8162 5.77206L20.5791 6.48357L20.8162 5.77206ZM12.8162 3.10539L13.0534 2.39388V2.39388L12.8162 3.10539ZM5.5 18.75H19.5V17.25H5.5V18.75ZM20.75 20V21H22.25V20H20.75ZM20.5 21.25H4.5V22.75H20.5V21.25ZM4.25 21V20H2.75V21H4.25ZM4.5 21.25C4.36193 21.25 4.25 21.138 4.25 21H2.75C2.75 21.9665 3.5335 22.75 4.5 22.75V21.25ZM20.75 21C20.75 21.138 20.6381 21.25 20.5 21.25V22.75C21.4665 22.75 22.25 21.9665 22.25 21H20.75ZM19.5 18.75C20.1904 18.75 20.75 19.3096 20.75 20H22.25C22.25 18.4812 21.0188 17.25 19.5 17.25V18.75ZM5.5 17.25C3.98122 17.25 2.75 18.4812 2.75 20H4.25C4.25 19.3096 4.80964 18.75 5.5 18.75V17.25ZM11.9466 2.39388L3.9466 5.06055L4.42094 6.48357L12.4209 3.81691L11.9466 2.39388ZM2.75 6.72074V7.99998H4.25V6.72074H2.75ZM4.5 9.74998H20.5V8.24998H4.5V9.74998ZM22.25 7.99998V6.72074H20.75V7.99998H22.25ZM21.0534 5.06055L13.0534 2.39388L12.5791 3.81691L20.5791 6.48357L21.0534 5.06055ZM22.25 6.72074C22.25 5.96749 21.768 5.29875 21.0534 5.06055L20.5791 6.48357C20.6811 6.5176 20.75 6.61314 20.75 6.72074H22.25ZM20.5 9.74998C21.4665 9.74998 22.25 8.96648 22.25 7.99998H20.75C20.75 8.13806 20.6381 8.24998 20.5 8.24998V9.74998ZM2.75 7.99998C2.75 8.96648 3.5335 9.74998 4.5 9.74998V8.24998C4.36193 8.24998 4.25 8.13806 4.25 7.99998H2.75ZM3.9466 5.06055C3.232 5.29875 2.75 5.96749 2.75 6.72074H4.25C4.25 6.61314 4.31886 6.5176 4.42094 6.48357L3.9466 5.06055ZM12.4209 3.81691C12.4723 3.7998 12.5277 3.7998 12.5791 3.81691L13.0534 2.39388C12.6942 2.27414 12.3058 2.27414 11.9466 2.39388L12.4209 3.81691ZM6.25 18V8.99998H4.75V18H6.25ZM10.25 18V8.99998H8.75V18H10.25ZM16.25 18V8.99998H14.75V18H16.25ZM20.25 18V8.99998H18.75V18H20.25Z" fill="currentColor"/>
</svg>
