<svg width="20" height="20" viewBox="0 0 20 20" fill="none" xmlns="http://www.w3.org/2000/svg">
<path d="M8.33333 9.25004C7.91912 9.25004 7.58333 9.58583 7.58333 10C7.58333 10.4143 7.91912 10.75 8.33333 10.75V9.25004ZM11.6667 10.75C12.0809 10.75 12.4167 10.4143 12.4167 10C12.4167 9.58583 12.0809 9.25004 11.6667 9.25004V10.75ZM4.16667 15H4.91667H4.16667ZM4.16667 4.08337H15.8333V2.58337H4.16667V4.08337ZM15.8333 5.91671H4.16667V7.41671H15.8333V5.91671ZM4.16667 5.91671C3.66041 5.91671 3.25 5.5063 3.25 5.00004H1.75C1.75 6.33473 2.83198 7.41671 4.16667 7.41671V5.91671ZM16.75 5.00004C16.75 5.5063 16.3396 5.91671 15.8333 5.91671V7.41671C17.168 7.41671 18.25 6.33473 18.25 5.00004H16.75ZM15.8333 4.08337C16.3396 4.08337 16.75 4.49378 16.75 5.00004H18.25C18.25 3.66535 17.168 2.58337 15.8333 2.58337V4.08337ZM4.16667 2.58337C2.83198 2.58337 1.75 3.66535 1.75 5.00004H3.25C3.25 4.49378 3.66041 4.08337 4.16667 4.08337V2.58337ZM8.33333 10.75H11.6667V9.25004H8.33333V10.75ZM3.41667 6.66671L3.41667 15H4.91667V6.66671H3.41667ZM5.83333 17.4167H14.1667V15.9167H5.83333V17.4167ZM16.5833 15V6.66671H15.0833V15H16.5833ZM14.1667 17.4167C15.5014 17.4167 16.5833 16.3347 16.5833 15H15.0833C15.0833 15.5063 14.6729 15.9167 14.1667 15.9167V17.4167ZM3.41667 15C3.41667 16.3347 4.49865 17.4167 5.83333 17.4167V15.9167C5.32707 15.9167 4.91667 15.5063 4.91667 15H3.41667Z" fill="currentColor"/>
</svg>
