<svg width="25" height="24" viewBox="0 0 25 24" fill="none" xmlns="http://www.w3.org/2000/svg">
<path d="M6.13603 14.1213L5.42893 13.4142L6.13603 14.1213ZM9.67157 12C10.0621 11.6095 10.0621 10.9763 9.67157 10.5858C9.28105 10.1953 8.64788 10.1953 8.25736 10.5858L9.67157 12ZM11.0858 7.75737C10.6953 8.1479 10.6953 8.78106 11.0858 9.17159C11.4763 9.56211 12.1095 9.56211 12.5 9.17158L11.0858 7.75737ZM14.6213 5.63605L13.9142 4.92894L14.6213 5.63605ZM13.9142 16.2426C14.3047 15.8521 14.3047 15.219 13.9142 14.8284C13.5237 14.4379 12.8905 14.4379 12.5 14.8284L13.9142 16.2426ZM15.3284 12C14.9379 12.3905 14.9379 13.0237 15.3284 13.4142C15.7189 13.8047 16.3521 13.8047 16.7426 13.4142L15.3284 12ZM5.20711 3.29289C4.81658 2.90237 4.18342 2.90237 3.79289 3.29289C3.40237 3.68342 3.40237 4.31658 3.79289 4.70711L5.20711 3.29289ZM5.79289 6.70711C6.18342 7.09763 6.81658 7.09763 7.20711 6.70711C7.59763 6.31658 7.59763 5.68342 7.20711 5.29289L5.79289 6.70711ZM19.2071 17.2929C18.8166 16.9024 18.1834 16.9024 17.7929 17.2929C17.4024 17.6834 17.4024 18.3166 17.7929 18.7071L19.2071 17.2929ZM19.7929 20.7071C20.1834 21.0976 20.8166 21.0976 21.2071 20.7071C21.5976 20.3166 21.5976 19.6834 21.2071 19.2929L19.7929 20.7071ZM10.3944 2.55279C10.1474 2.05881 9.54676 1.85858 9.05279 2.10557C8.55881 2.35256 8.35858 2.95324 8.60557 3.44721L10.3944 2.55279ZM9.60557 5.44721C9.85256 5.94119 10.4532 6.14142 10.9472 5.89443C11.4412 5.64744 11.6414 5.04676 11.3944 4.55279L9.60557 5.44721ZM19.9463 13.1077C19.452 12.8613 18.8516 13.0621 18.6051 13.5564C18.3586 14.0506 18.5595 14.6511 19.0537 14.8975L19.9463 13.1077ZM21.0537 15.8949C21.548 16.1414 22.1484 15.9405 22.3949 15.4463C22.6414 14.952 22.4405 14.3516 21.9463 14.1051L21.0537 15.8949ZM3.94693 8.10542C3.45287 7.85859 2.85226 8.05901 2.60543 8.55306C2.3586 9.04712 2.55901 9.64773 3.05307 9.89456L3.94693 8.10542ZM5.05465 10.8946C5.54871 11.1414 6.14932 10.941 6.39615 10.4469C6.64298 9.95287 6.44257 9.35226 5.94851 9.10542L5.05465 10.8946ZM15.3942 18.5494C15.1469 18.0555 14.5462 17.8556 14.0523 18.1029C13.5585 18.3501 13.3586 18.9509 13.6058 19.4448L15.3942 18.5494ZM14.6058 21.4421C14.8531 21.936 15.4538 22.1359 15.9477 21.8886C16.4415 21.6414 16.6414 21.0406 16.3942 20.5467L14.6058 21.4421ZM6.84314 14.8284L9.67157 12L8.25736 10.5858L5.42893 13.4142L6.84314 14.8284ZM12.5 9.17158L15.3284 6.34315L13.9142 4.92894L11.0858 7.75737L12.5 9.17158ZM12.5 14.8284L9.67156 17.6569L11.0858 19.0711L13.9142 16.2426L12.5 14.8284ZM18.1568 9.17157L15.3284 12L16.7426 13.4142L19.5711 10.5858L18.1568 9.17157ZM6.84313 17.6569C6.06208 16.8758 6.06209 15.6095 6.84314 14.8284L5.42893 13.4142C3.86682 14.9763 3.86682 17.509 5.42892 19.0711L6.84313 17.6569ZM5.42892 19.0711C6.99102 20.6332 9.52367 20.6332 11.0858 19.0711L9.67156 17.6569C8.89051 18.4379 7.62418 18.4379 6.84313 17.6569L5.42892 19.0711ZM18.1568 6.34315C18.9379 7.1242 18.9379 8.39052 18.1568 9.17157L19.5711 10.5858C21.1332 9.02369 21.1332 6.49103 19.5711 4.92893L18.1568 6.34315ZM19.5711 4.92893C18.009 3.36684 15.4763 3.36684 13.9142 4.92894L15.3284 6.34315C16.1095 5.5621 17.3758 5.5621 18.1568 6.34315L19.5711 4.92893ZM3.79289 4.70711L5.79289 6.70711L7.20711 5.29289L5.20711 3.29289L3.79289 4.70711ZM17.7929 18.7071L19.7929 20.7071L21.2071 19.2929L19.2071 17.2929L17.7929 18.7071ZM8.60557 3.44721L9.60557 5.44721L11.3944 4.55279L10.3944 2.55279L8.60557 3.44721ZM19.0537 14.8975L21.0537 15.8949L21.9463 14.1051L19.9463 13.1077L19.0537 14.8975ZM3.05307 9.89456L5.05465 10.8946L5.94851 9.10542L3.94693 8.10542L3.05307 9.89456ZM13.6058 19.4448L14.6058 21.4421L16.3942 20.5467L15.3942 18.5494L13.6058 19.4448Z" fill="currentColor"/>
</svg>
