<svg width="18" height="20" viewBox="0 0 18 20" fill="none" xmlns="http://www.w3.org/2000/svg">
<path d="M8.9974 15.833C9.16221 15.833 9.32333 15.7841 9.46037 15.6926C9.59741 15.601 9.70422 15.4708 9.7673 15.3186C9.83037 15.1663 9.84687 14.9987 9.81472 14.8371C9.78256 14.6754 9.7032 14.527 9.58665 14.4104C9.47011 14.2939 9.32162 14.2145 9.15997 14.1824C8.99832 14.1502 8.83076 14.1667 8.67849 14.2298C8.52622 14.2928 8.39607 14.3997 8.3045 14.5367C8.21294 14.6737 8.16406 14.8349 8.16406 14.9997C8.16406 15.2207 8.25186 15.4326 8.40814 15.5889C8.56442 15.7452 8.77638 15.833 8.9974 15.833ZM13.1641 15.833C13.3289 15.833 13.49 15.7841 13.627 15.6926C13.7641 15.601 13.8709 15.4708 13.934 15.3186C13.997 15.1663 14.0135 14.9987 13.9814 14.8371C13.9492 14.6754 13.8699 14.527 13.7533 14.4104C13.6368 14.2939 13.4883 14.2145 13.3266 14.1824C13.165 14.1502 12.9974 14.1667 12.8452 14.2298C12.6929 14.2928 12.5627 14.3997 12.4712 14.5367C12.3796 14.6737 12.3307 14.8349 12.3307 14.9997C12.3307 15.2207 12.4185 15.4326 12.5748 15.5889C12.7311 15.7452 12.943 15.833 13.1641 15.833ZM13.1641 12.4997C13.3289 12.4997 13.49 12.4508 13.627 12.3592C13.7641 12.2677 13.8709 12.1375 13.934 11.9852C13.997 11.833 14.0135 11.6654 13.9814 11.5038C13.9492 11.3421 13.8699 11.1936 13.7533 11.0771C13.6368 10.9605 13.4883 10.8812 13.3266 10.849C13.165 10.8169 12.9974 10.8334 12.8452 10.8964C12.6929 10.9595 12.5627 11.0663 12.4712 11.2034C12.3796 11.3404 12.3307 11.5015 12.3307 11.6663C12.3307 11.8874 12.4185 12.0993 12.5748 12.2556C12.7311 12.4119 12.943 12.4997 13.1641 12.4997ZM8.9974 12.4997C9.16221 12.4997 9.32333 12.4508 9.46037 12.3592C9.59741 12.2677 9.70422 12.1375 9.7673 11.9852C9.83037 11.833 9.84687 11.6654 9.81472 11.5038C9.78256 11.3421 9.7032 11.1936 9.58665 11.0771C9.47011 10.9605 9.32162 10.8812 9.15997 10.849C8.99832 10.8169 8.83076 10.8334 8.67849 10.8964C8.52622 10.9595 8.39607 11.0663 8.3045 11.2034C8.21294 11.3404 8.16406 11.5015 8.16406 11.6663C8.16406 11.8874 8.25186 12.0993 8.40814 12.2556C8.56442 12.4119 8.77638 12.4997 8.9974 12.4997ZM14.8307 2.49967H13.9974V1.66634C13.9974 1.44533 13.9096 1.23337 13.7533 1.07709C13.597 0.920805 13.3851 0.833008 13.1641 0.833008C12.943 0.833008 12.7311 0.920805 12.5748 1.07709C12.4185 1.23337 12.3307 1.44533 12.3307 1.66634V2.49967H5.66406V1.66634C5.66406 1.44533 5.57627 1.23337 5.41998 1.07709C5.2637 0.920805 5.05174 0.833008 4.83073 0.833008C4.60972 0.833008 4.39775 0.920805 4.24147 1.07709C4.08519 1.23337 3.9974 1.44533 3.9974 1.66634V2.49967H3.16406C2.50102 2.49967 1.86514 2.76307 1.3963 3.23191C0.927455 3.70075 0.664063 4.33663 0.664062 4.99967V16.6663C0.664063 17.3294 0.927455 17.9653 1.3963 18.4341C1.86514 18.9029 2.50102 19.1663 3.16406 19.1663H14.8307C15.4938 19.1663 16.1297 18.9029 16.5985 18.4341C17.0673 17.9653 17.3307 17.3294 17.3307 16.6663V4.99967C17.3307 4.33663 17.0673 3.70075 16.5985 3.23191C16.1297 2.76307 15.4938 2.49967 14.8307 2.49967ZM15.6641 16.6663C15.6641 16.8874 15.5763 17.0993 15.42 17.2556C15.2637 17.4119 15.0517 17.4997 14.8307 17.4997H3.16406C2.94305 17.4997 2.73109 17.4119 2.57481 17.2556C2.41853 17.0993 2.33073 16.8874 2.33073 16.6663V9.16634H15.6641V16.6663ZM15.6641 7.49967H2.33073V4.99967C2.33073 4.77866 2.41853 4.5667 2.57481 4.41042C2.73109 4.25414 2.94305 4.16634 3.16406 4.16634H3.9974V4.99967C3.9974 5.22069 4.08519 5.43265 4.24147 5.58893C4.39775 5.74521 4.60972 5.83301 4.83073 5.83301C5.05174 5.83301 5.2637 5.74521 5.41998 5.58893C5.57627 5.43265 5.66406 5.22069 5.66406 4.99967V4.16634H12.3307V4.99967C12.3307 5.22069 12.4185 5.43265 12.5748 5.58893C12.7311 5.74521 12.943 5.83301 13.1641 5.83301C13.3851 5.83301 13.597 5.74521 13.7533 5.58893C13.9096 5.43265 13.9974 5.22069 13.9974 4.99967V4.16634H14.8307C15.0517 4.16634 15.2637 4.25414 15.42 4.41042C15.5763 4.5667 15.6641 4.77866 15.6641 4.99967V7.49967ZM4.83073 12.4997C4.99555 12.4997 5.15666 12.4508 5.2937 12.3592C5.43075 12.2677 5.53756 12.1375 5.60063 11.9852C5.6637 11.833 5.6802 11.6654 5.64805 11.5038C5.6159 11.3421 5.53653 11.1936 5.41998 11.0771C5.30344 10.9605 5.15496 10.8812 4.9933 10.849C4.83165 10.8169 4.6641 10.8334 4.51183 10.8964C4.35955 10.9595 4.22941 11.0663 4.13784 11.2034C4.04627 11.3404 3.9974 11.5015 3.9974 11.6663C3.9974 11.8874 4.08519 12.0993 4.24147 12.2556C4.39775 12.4119 4.60972 12.4997 4.83073 12.4997ZM4.83073 15.833C4.99555 15.833 5.15666 15.7841 5.2937 15.6926C5.43075 15.601 5.53756 15.4708 5.60063 15.3186C5.6637 15.1663 5.6802 14.9987 5.64805 14.8371C5.6159 14.6754 5.53653 14.527 5.41998 14.4104C5.30344 14.2939 5.15496 14.2145 4.9933 14.1824C4.83165 14.1502 4.6641 14.1667 4.51183 14.2298C4.35955 14.2928 4.22941 14.3997 4.13784 14.5367C4.04627 14.6737 3.9974 14.8349 3.9974 14.9997C3.9974 15.2207 4.08519 15.4326 4.24147 15.5889C4.39775 15.7452 4.60972 15.833 4.83073 15.833Z" fill="currentColor"/>
</svg>
