<svg width="18" height="18" viewBox="0 0 18 18" fill="none" xmlns="http://www.w3.org/2000/svg">
  <path
    d="M15.2 9.83331C15.0167 9.83331 14.825 9.77497 14.6417 9.73331C14.2704 9.65149 13.9056 9.54287 13.55 9.40831C13.1634 9.26766 12.7385 9.27497 12.3569 9.42881C11.9754 9.58265 11.6643 9.87217 11.4834 10.2416L11.3 10.6166C10.4884 10.1651 9.74251 9.60433 9.08336 8.94997C8.429 8.29082 7.86821 7.54497 7.41669 6.7333L7.76669 6.49997C8.13616 6.31907 8.42567 6.00791 8.57952 5.62638C8.73336 5.24485 8.74067 4.8199 8.60002 4.4333C8.46771 4.07699 8.35914 3.7123 8.27502 3.34164C8.23336 3.1583 8.20002 2.96664 8.17502 2.77497C8.07383 2.18799 7.76638 1.65642 7.30804 1.276C6.8497 0.895585 6.2706 0.691312 5.67502 0.699971H3.17502C2.81588 0.696599 2.46023 0.770649 2.13228 0.91708C1.80433 1.06351 1.51178 1.27888 1.27455 1.54854C1.03732 1.81819 0.860968 2.1358 0.757513 2.47973C0.654058 2.82367 0.625922 3.18585 0.675023 3.54164C1.11897 7.03279 2.71338 10.2765 5.2064 12.7605C7.69942 15.2445 10.9489 16.8271 14.4417 17.2583H14.7584C15.3729 17.2592 15.9662 17.0337 16.425 16.625C16.6887 16.3892 16.8993 16.1001 17.0429 15.7769C17.1866 15.4537 17.26 15.1037 17.2584 14.75V12.25C17.2481 11.6711 17.0374 11.1138 16.662 10.673C16.2866 10.2323 15.7699 9.93549 15.2 9.83331ZM15.6167 14.8333C15.6165 14.9516 15.5912 15.0686 15.5423 15.1763C15.4935 15.2841 15.4222 15.3802 15.3334 15.4583C15.2402 15.5387 15.1314 15.5988 15.0137 15.6346C14.896 15.6705 14.7722 15.6814 14.65 15.6666C11.5291 15.2665 8.63022 13.8387 6.41062 11.6085C4.19102 9.37838 2.77703 6.47275 2.39169 3.34997C2.37843 3.2279 2.39005 3.10441 2.42586 2.98696C2.46167 2.86951 2.52091 2.76054 2.60002 2.66664C2.67811 2.57775 2.77424 2.50651 2.88201 2.45765C2.98977 2.4088 3.1067 2.38345 3.22502 2.3833H5.72502C5.91881 2.37899 6.10804 2.44237 6.26014 2.56253C6.41224 2.68269 6.5177 2.85211 6.55836 3.04164C6.59169 3.26942 6.63336 3.49442 6.68336 3.71664C6.77962 4.15593 6.90774 4.58762 7.06669 5.00831L5.90002 5.54997C5.80027 5.59574 5.71054 5.66076 5.63599 5.7413C5.56143 5.82184 5.50352 5.91632 5.46558 6.0193C5.42764 6.12228 5.41042 6.23175 5.4149 6.34141C5.41938 6.45107 5.44547 6.55876 5.49169 6.6583C6.69102 9.22727 8.75606 11.2923 11.325 12.4916C11.5279 12.575 11.7555 12.575 11.9584 12.4916C12.0623 12.4545 12.1578 12.397 12.2393 12.3226C12.3209 12.2482 12.3868 12.1584 12.4334 12.0583L12.95 10.8916C13.3808 11.0457 13.8205 11.1737 14.2667 11.275C14.4889 11.325 14.7139 11.3666 14.9417 11.4C15.1312 11.4406 15.3006 11.5461 15.4208 11.6982C15.541 11.8503 15.6043 12.0395 15.6 12.2333L15.6167 14.8333Z"
    fill="currentColor"/>
</svg>
