<svg width="25" height="24" viewBox="0 0 25 24" fill="none" xmlns="http://www.w3.org/2000/svg">
<path d="M18.958 8C18.958 8.55228 18.5103 9 17.958 9C17.4057 9 16.958 8.55228 16.958 8C16.958 7.44772 17.4057 7 17.958 7C18.5103 7 18.958 7.44772 18.958 8Z" fill="currentColor"/>
<path d="M8.04175 8C8.04175 8.55228 7.59403 9 7.04175 9C6.48946 9 6.04175 8.55228 6.04175 8C6.04175 7.44772 6.48946 7 7.04175 7C7.59403 7 8.04175 7.44772 8.04175 8Z" fill="#333333"/>
<path d="M3.5 16C2.94772 16 2.5 16.4477 2.5 17C2.5 17.5523 2.94772 18 3.5 18L3.5 16ZM21.5 18C22.0523 18 22.5 17.5523 22.5 17C22.5 16.4477 22.0523 16 21.5 16V18ZM3.5 20C2.94772 20 2.5 20.4477 2.5 21C2.5 21.5523 2.94772 22 3.5 22L3.5 20ZM21.5 22C22.0523 22 22.5 21.5523 22.5 21C22.5 20.4477 22.0523 20 21.5 20V22ZM13.5 8C13.5 8.55228 13.0523 9 12.5 9V11C14.1569 11 15.5 9.65685 15.5 8H13.5ZM12.5 9C11.9477 9 11.5 8.55228 11.5 8H9.5C9.5 9.65685 10.8431 11 12.5 11V9ZM11.5 8C11.5 7.44772 11.9477 7 12.5 7V5C10.8431 5 9.5 6.34315 9.5 8H11.5ZM12.5 7C13.0523 7 13.5 7.44772 13.5 8H15.5C15.5 6.34315 14.1569 5 12.5 5V7ZM5.5 4H19.5V2H5.5V4ZM20.5 5V11H22.5V5H20.5ZM19.5 12H5.5V14H19.5V12ZM4.5 11V5H2.5V11H4.5ZM5.5 12C4.94772 12 4.5 11.5523 4.5 11H2.5C2.5 12.6569 3.84315 14 5.5 14V12ZM20.5 11C20.5 11.5523 20.0523 12 19.5 12V14C21.1569 14 22.5 12.6569 22.5 11H20.5ZM19.5 4C20.0523 4 20.5 4.44772 20.5 5H22.5C22.5 3.34315 21.1569 2 19.5 2V4ZM5.5 2C3.84315 2 2.5 3.34315 2.5 5H4.5C4.5 4.44772 4.94772 4 5.5 4V2ZM3.5 18L21.5 18V16L3.5 16L3.5 18ZM3.5 22L21.5 22V20L3.5 20L3.5 22Z" fill="currentColor"/>
</svg>
