<svg width="25" height="24" viewBox="0 0 25 24" fill="none" xmlns="http://www.w3.org/2000/svg">
<circle cx="7.04175" cy="12" r="1" fill="currentColor"/>
<circle cx="17.958" cy="12" r="1" fill="currentColor"/>
<path d="M13.5 12C13.5 12.5523 13.0523 13 12.5 13V15C14.1569 15 15.5 13.6569 15.5 12H13.5ZM12.5 13C11.9477 13 11.5 12.5523 11.5 12H9.5C9.5 13.6569 10.8431 15 12.5 15V13ZM11.5 12C11.5 11.4477 11.9477 11 12.5 11V9C10.8431 9 9.5 10.3431 9.5 12H11.5ZM12.5 11C13.0523 11 13.5 11.4477 13.5 12H15.5C15.5 10.3431 14.1569 9 12.5 9V11ZM5.5 8H19.5V6H5.5V8ZM20.5 9V15H22.5V9H20.5ZM19.5 16H5.5V18H19.5V16ZM4.5 15V9H2.5V15H4.5ZM5.5 16C4.94772 16 4.5 15.5523 4.5 15H2.5C2.5 16.6569 3.84315 18 5.5 18V16ZM20.5 15C20.5 15.5523 20.0523 16 19.5 16V18C21.1569 18 22.5 16.6569 22.5 15H20.5ZM19.5 8C20.0523 8 20.5 8.44772 20.5 9H22.5C22.5 7.34315 21.1569 6 19.5 6V8ZM5.5 6C3.84315 6 2.5 7.34315 2.5 9H4.5C4.5 8.44772 4.94772 8 5.5 8V6Z" fill="currentColor"/>
</svg>
