<svg width="12" height="10" viewBox="0 0 12 8" fill="none" xmlns="http://www.w3.org/2000/svg">
<path d="M2.20955 3.3162C1.82038 2.92433 1.18722 2.92213 0.795347 3.3113C0.403472 3.70047 0.401279 4.33363 0.790448 4.72551L2.20955 3.3162ZM4.42929 6.97051L3.71974 7.67516L3.71974 7.67516L4.42929 6.97051ZM11.2096 1.70465C11.5987 1.31278 11.5965 0.679618 11.2047 0.290448C10.8128 -0.098721 10.1796 -0.0965279 9.79045 0.295347L11.2096 1.70465ZM4.57071 6.97051L5.28026 7.67516L5.28026 7.67516L4.57071 6.97051ZM0.790448 4.72551L3.71974 7.67516L5.13884 6.26585L2.20955 3.3162L0.790448 4.72551ZM9.79045 0.295347L3.86116 6.26585L5.28026 7.67516L11.2096 1.70465L9.79045 0.295347ZM3.71974 7.67516C4.14987 8.10828 4.85013 8.10828 5.28026 7.67516L3.86116 6.26585C4.21318 5.91138 4.78682 5.91138 5.13884 6.26585L3.71974 7.67516Z" fill="#111111"/>
</svg>
