<svg width="21" height="20" viewBox="0 0 21 20" fill="none" xmlns="http://www.w3.org/2000/svg">
<path d="M17.5781 12.1373C17.838 11.9101 17.8646 11.5153 17.6375 11.2554C17.4104 10.9954 17.0155 10.9688 16.7556 11.196L17.5781 12.1373ZM11.2097 16.8717L10.7985 16.4011L10.7954 16.4038L11.2097 16.8717ZM9.55252 17.4999L9.55252 18.1249L9.55252 17.4999ZM7.16683 17.4999L7.16683 16.8749H7.16683L7.16683 17.4999ZM3.8335 14.1666H3.2085H3.8335ZM3.8335 11.8688H4.4585H3.8335ZM4.56573 10.101L4.12379 9.6591L4.56573 10.101ZM11.2208 3.44602L11.6627 3.88796L11.2208 3.44602ZM13.4788 2.76233L13.6014 2.14947L13.6014 2.14947L13.4788 2.76233ZM14.6992 3.00641L14.5766 3.61927L14.5766 3.61927L14.6992 3.00641ZM16.6604 4.96757L16.0475 5.09015V5.09015L16.6604 4.96757ZM16.8856 6.09381L17.4985 5.97123V5.97123L16.8856 6.09381ZM16.0951 8.45262L15.6798 7.98549H15.6798L16.0951 8.45262ZM10.3772 13.5351L10.7925 14.0023L10.3772 13.5351ZM7.16683 13.3333L7.79183 13.3333V13.3333H7.16683ZM7.16683 12.7021H6.54183V12.7021L7.16683 12.7021ZM12.6088 7.10855C12.8528 6.86447 12.8528 6.46874 12.6088 6.22466C12.3647 5.98059 11.969 5.98059 11.7249 6.22466L12.6088 7.10855ZM16.7556 11.196L10.7985 16.4011L11.6209 17.3424L17.5781 12.1373L16.7556 11.196ZM9.55252 16.8749L7.16683 16.8749L7.16683 18.1249L9.55252 18.1249L9.55252 16.8749ZM4.4585 14.1666L4.4585 11.8688H3.2085L3.2085 14.1666H4.4585ZM5.00767 10.543L11.6627 3.88796L10.7788 3.00408L4.12379 9.6591L5.00767 10.543ZM13.3562 3.3752L14.5766 3.61927L14.8218 2.39355L13.6014 2.14947L13.3562 3.3752ZM16.0475 5.09015L16.2727 6.21638L17.4985 5.97123L17.2732 4.845L16.0475 5.09015ZM15.6798 7.98549L9.96201 13.068L10.7925 14.0023L16.5103 8.91975L15.6798 7.98549ZM8.71633 13.5416H8.00016V14.7916H8.71633V13.5416ZM7.79183 13.3333L7.79183 12.7021L6.54183 12.7021L6.54183 13.3333L7.79183 13.3333ZM8.341 11.3763L12.6088 7.10855L11.7249 6.22466L7.45712 10.4924L8.341 11.3763ZM7.79183 12.7021C7.79183 12.2049 7.98937 11.7279 8.341 11.3763L7.45712 10.4924C6.87107 11.0785 6.54183 11.8733 6.54183 12.7021L7.79183 12.7021ZM8.00016 13.5416C7.8851 13.5416 7.79183 13.4483 7.79183 13.3333L6.54183 13.3333C6.54183 14.1387 7.19475 14.7916 8.00016 14.7916V13.5416ZM9.96201 13.068C9.61879 13.3731 9.17555 13.5416 8.71633 13.5416V14.7916C9.48169 14.7916 10.2204 14.5107 10.7925 14.0023L9.96201 13.068ZM16.2727 6.21638C16.4034 6.86954 16.1777 7.54296 15.6798 7.98549L16.5103 8.91975C17.34 8.18221 17.7162 7.05983 17.4985 5.97123L16.2727 6.21638ZM14.5766 3.61927C15.3189 3.76772 15.899 4.34791 16.0475 5.09015L17.2732 4.845C17.0258 3.60793 16.0588 2.64096 14.8218 2.39355L14.5766 3.61927ZM11.6627 3.88796C12.106 3.44467 12.7415 3.25225 13.3562 3.3752L13.6014 2.14947C12.5768 1.94456 11.5176 2.26525 10.7788 3.00408L11.6627 3.88796ZM4.4585 11.8688C4.4585 11.3715 4.65604 10.8946 5.00767 10.543L4.12379 9.6591C3.53774 10.2451 3.2085 11.04 3.2085 11.8688H4.4585ZM7.16683 16.8749C5.67106 16.8749 4.4585 15.6624 4.4585 14.1666H3.2085C3.2085 16.3527 4.9807 18.1249 7.16683 18.1249L7.16683 16.8749ZM10.7954 16.4038C10.4525 16.7073 10.0104 16.8749 9.55252 16.8749L9.55252 18.1249C10.3157 18.1249 11.0526 17.8456 11.624 17.3397L10.7954 16.4038Z" fill="currentColor"/>
</svg>
