<svg width="21" height="20" viewBox="0 0 21 20" fill="none" xmlns="http://www.w3.org/2000/svg">
<path d="M3.93753 11.8741L4.56156 11.8394C4.56101 11.8293 4.5602 11.8193 4.55916 11.8093L3.93753 11.8741ZM4.17045 14.3885L3.55051 14.4679H3.55051L4.17045 14.3885ZM6.11539 16.3811L6.19864 15.7617H6.19864L6.11539 16.3811ZM10.5275 16.6629L10.5388 16.038C10.5313 16.0379 10.5239 16.0379 10.5164 16.038L10.5275 16.6629ZM14.943 16.3812L15.0263 17.0006L14.943 16.3812ZM16.888 14.3886L16.268 14.3092L16.888 14.3886ZM17.0694 8.19952L16.4453 8.23342C16.4458 8.24288 16.4466 8.25233 16.4475 8.26175L17.0694 8.19952ZM16.8343 5.64574L16.2144 5.72512L16.8343 5.64574ZM14.8894 3.65316L14.9726 3.03373L14.8894 3.65316ZM10.4983 3.33743L10.4884 3.96243H10.4983L10.4983 3.33743ZM6.0568 3.62291L5.97355 3.00348L6.0568 3.62291ZM4.11186 5.61549L3.49192 5.5361L3.49192 5.5361L4.11186 5.61549ZM11.1233 8.09785C11.1233 7.75267 10.8435 7.47285 10.4983 7.47285C10.1531 7.47285 9.87327 7.75267 9.87327 8.09785H11.1233ZM10.4983 10.9541H9.87327C9.87327 11.2993 10.1531 11.5791 10.4983 11.5791V10.9541ZM13.3571 11.5791C13.7023 11.5791 13.9821 11.2993 13.9821 10.9541C13.9821 10.6089 13.7023 10.3291 13.3571 10.3291V11.5791ZM3.31349 11.9088C3.36705 12.8724 3.45932 13.7558 3.55051 14.4679L4.79038 14.3091C4.70212 13.6199 4.61312 12.767 4.56156 11.8394L3.31349 11.9088ZM3.55051 14.4679C3.7195 15.7876 4.71904 16.824 6.03213 17.0005L6.19864 15.7617C5.46523 15.6631 4.88988 15.0861 4.79038 14.3091L3.55051 14.4679ZM6.03213 17.0005C7.19832 17.1573 8.84129 17.3181 10.5387 17.2878L10.5164 16.038C8.90453 16.0668 7.32929 15.9136 6.19864 15.7617L6.03213 17.0005ZM10.5163 17.2878C12.2149 17.3184 13.8593 17.1574 15.0263 17.0006L14.8598 15.7617C13.7284 15.9138 12.1518 16.067 10.5388 16.038L10.5163 17.2878ZM15.0263 17.0006C16.3394 16.8241 17.3389 15.7876 17.5079 14.468L16.268 14.3092C16.1685 15.0861 15.5932 15.6631 14.8598 15.7617L15.0263 17.0006ZM17.5079 14.468C17.7103 12.8878 17.9216 10.4381 17.6913 8.13728L16.4475 8.26175C16.6638 10.4234 16.4659 12.7641 16.268 14.3092L17.5079 14.468ZM17.6935 8.16561C17.6403 7.18631 17.5467 6.28832 17.4543 5.56635L16.2144 5.72512C16.3039 6.42396 16.3941 7.2909 16.4453 8.23342L17.6935 8.16561ZM17.4543 5.56635C17.2853 4.24667 16.2857 3.21022 14.9726 3.03373L14.8061 4.27259C15.5395 4.37117 16.1149 4.94818 16.2144 5.72512L17.4543 5.56635ZM14.9726 3.03373C13.9918 2.9019 11.8929 2.71244 10.4983 2.71243L10.4983 3.96243C11.8207 3.96244 13.8612 4.1456 14.8061 4.27259L14.9726 3.03373ZM10.5082 2.71251C8.56218 2.68167 7.32428 2.82194 5.97355 3.00348L6.14005 4.24234C7.45777 4.06524 8.62814 3.93287 10.4884 3.96235L10.5082 2.71251ZM5.97355 3.00348C4.66045 3.17997 3.66091 4.21642 3.49192 5.5361L4.7318 5.69487C4.83129 4.91793 5.40665 4.34092 6.14005 4.24234L5.97355 3.00348ZM3.49192 5.5361C3.28751 7.13241 3.07385 9.61693 3.3159 11.9389L4.55916 11.8093C4.33192 9.62942 4.53185 7.2563 4.7318 5.69487L3.49192 5.5361ZM9.87327 8.09785V10.9541H11.1233V8.09785H9.87327ZM10.4983 11.5791H13.3571V10.3291H10.4983V11.5791Z" fill="currentColor"/>
</svg>
