<svg width="10" height="10" viewBox="0 0 10 10" fill="none" xmlns="http://www.w3.org/2000/svg">
<path d="M0.303167 8.63638C0.0102741 8.92927 0.0102741 9.40414 0.303167 9.69704C0.59606 9.98993 1.07093 9.98993 1.36383 9.69704L0.303167 8.63638ZM9.69716 1.3637C9.99005 1.07081 9.99005 0.595937 9.69716 0.303044C9.40427 0.0101507 8.92939 0.0101507 8.6365 0.303044L9.69716 1.3637ZM8.6365 9.69704C8.92939 9.98993 9.40427 9.98993 9.69716 9.69704C9.99005 9.40414 9.99005 8.92927 9.69716 8.63638L8.6365 9.69704ZM1.36383 0.303045C1.07093 0.0101514 0.596059 0.0101514 0.303166 0.303045C0.0102728 0.595938 0.0102728 1.07081 0.303166 1.3637L1.36383 0.303045ZM1.36383 9.69704L9.69716 1.3637L8.6365 0.303044L0.303167 8.63638L1.36383 9.69704ZM9.69716 8.63638L1.36383 0.303045L0.303166 1.3637L8.6365 9.69704L9.69716 8.63638Z" fill="currentColor"/>
</svg>
