<svg width="25" height="24" viewBox="0 0 25 24" fill="none" xmlns="http://www.w3.org/2000/svg">
<path d="M8.5 7C8.5 7.55228 8.94772 8 9.5 8C10.0523 8 10.5 7.55228 10.5 7H8.5ZM14.5 7C14.5 7.55228 14.9477 8 15.5 8C16.0523 8 16.5 7.55228 16.5 7H14.5ZM3.81623 10.0513C3.29228 9.87667 2.72596 10.1598 2.55132 10.6838C2.37667 11.2077 2.65983 11.774 3.18377 11.9487L3.81623 10.0513ZM9.5 13L9.18377 13.9487L9.33772 14H9.5V13ZM15.5 13V14H15.6623L15.8162 13.9487L15.5 13ZM21.8162 11.9487C22.3402 11.774 22.6233 11.2077 22.4487 10.6838C22.274 10.1598 21.7077 9.87667 21.1838 10.0513L21.8162 11.9487ZM5.5 8.00002H19.5V6.00002H5.5V8.00002ZM19.5 19.0001H5.5V21.0001H19.5V19.0001ZM5.5 19.0001C4.94772 19.0001 4.5 18.5524 4.5 18.0001H2.5C2.5 19.6569 3.84315 21.0001 5.5 21.0001V19.0001ZM19.5 21.0001C21.1569 21.0001 22.5 19.6569 22.5 18.0001H20.5C20.5 18.5524 20.0523 19.0001 19.5 19.0001V21.0001ZM19.5 8.00002C20.0523 8.00002 20.5 8.44774 20.5 9.00002H22.5C22.5 7.34317 21.1569 6.00002 19.5 6.00002V8.00002ZM5.5 6.00002C3.84314 6.00002 2.5 7.34317 2.5 9.00002H4.5C4.5 8.44774 4.94772 8.00002 5.5 8.00002V6.00002ZM10.5 7V5H8.5V7H10.5ZM10.5 5H14.5V3H10.5V5ZM14.5 5V7H16.5V5H14.5ZM14.5 5H16.5C16.5 3.89543 15.6046 3 14.5 3V5ZM10.5 5V5V3C9.39543 3 8.5 3.89543 8.5 5H10.5ZM3.18377 11.9487L9.18377 13.9487L9.81623 12.0513L3.81623 10.0513L3.18377 11.9487ZM9.5 14H15.5V12H9.5V14ZM15.8162 13.9487L21.8162 11.9487L21.1838 10.0513L15.1838 12.0513L15.8162 13.9487ZM4.5 18.0001V9.00002H2.5V18.0001H4.5ZM20.5 9.00002V18.0001H22.5V9.00002H20.5Z" fill="currentColor"/>
</svg>
