<svg width="25" height="24" viewBox="0 0 25 24" fill="none" xmlns="http://www.w3.org/2000/svg">
<path d="M14.5 6C14.5 7.10457 13.6046 8 12.5 8C11.3954 8 10.5 7.10457 10.5 6C10.5 4.89543 11.3954 4 12.5 4C13.6046 4 14.5 4.89543 14.5 6Z" fill="currentColor"/>
<path d="M14.5 12C14.5 13.1046 13.6046 14 12.5 14C11.3954 14 10.5 13.1046 10.5 12C10.5 10.8954 11.3954 10 12.5 10C13.6046 10 14.5 10.8954 14.5 12Z" fill="currentColor"/>
<path d="M14.5 18C14.5 19.1046 13.6046 20 12.5 20C11.3954 20 10.5 19.1046 10.5 18C10.5 16.8954 11.3954 16 12.5 16C13.6046 16 14.5 16.8954 14.5 18Z" fill="currentColor"/>
</svg>
