<svg width="25" height="24" viewBox="0 0 25 24" fill="none" xmlns="http://www.w3.org/2000/svg">
<path d="M13.5 6C13.5 5.44771 13.0523 5 12.5 5C11.9477 5 11.5 5.44772 11.5 6H13.5ZM12.5 18L11.7929 18.7071C11.9804 18.8946 12.2348 19 12.5 19C12.7652 19 13.0196 18.8946 13.2071 18.7071L12.5 18ZM19.2071 12.7071C19.5976 12.3166 19.5976 11.6834 19.2071 11.2929C18.8166 10.9024 18.1834 10.9024 17.7929 11.2929L19.2071 12.7071ZM7.20711 11.2929C6.81658 10.9024 6.18342 10.9024 5.79289 11.2929C5.40237 11.6834 5.40237 12.3166 5.79289 12.7071L7.20711 11.2929ZM11.5 6L11.5 18L13.5 18L13.5 6H11.5ZM13.2071 18.7071L19.2071 12.7071L17.7929 11.2929L11.7929 17.2929L13.2071 18.7071ZM13.2071 17.2929L7.20711 11.2929L5.79289 12.7071L11.7929 18.7071L13.2071 17.2929Z" fill="currentColor"/>
</svg>
