<svg width="25" height="24" viewBox="0 0 25 24" fill="none" xmlns="http://www.w3.org/2000/svg">
<path d="M13.5 3L14.0303 2.46967C13.8897 2.32902 13.6989 2.25 13.5 2.25V3ZM19.5 9H20.25C20.25 8.80109 20.171 8.61032 20.0303 8.46967L19.5 9ZM13.2499 12C13.2499 11.5858 12.9141 11.25 12.4999 11.25C12.0857 11.25 11.7499 11.5858 11.7499 12L13.2499 12ZM12.5 17L11.9697 17.5303C12.2626 17.8232 12.7374 17.8232 13.0303 17.5303L12.5 17ZM11.0303 14.4697C10.7374 14.1768 10.2626 14.1768 9.96967 14.4697C9.67678 14.7626 9.67678 15.2374 9.96967 15.5303L11.0303 14.4697ZM15.0303 15.5303C15.3232 15.2374 15.3232 14.7626 15.0303 14.4697C14.7374 14.1768 14.2626 14.1768 13.9697 14.4697L15.0303 15.5303ZM17.5 20.25H7.5V21.75H17.5V20.25ZM6.25 19V5H4.75V19H6.25ZM7.5 3.75H13.5V2.25H7.5V3.75ZM12.75 3V7H14.25V3H12.75ZM15.5 9.75H19.5V8.25H15.5V9.75ZM20.0303 8.46967L14.0303 2.46967L12.9697 3.53033L18.9697 9.53033L20.0303 8.46967ZM18.75 9V19H20.25V9H18.75ZM12.75 7C12.75 8.51878 13.9812 9.75 15.5 9.75V8.25C14.8096 8.25 14.25 7.69036 14.25 7H12.75ZM6.25 5C6.25 4.30964 6.80964 3.75 7.5 3.75V2.25C5.98122 2.25 4.75 3.48122 4.75 5H6.25ZM7.5 20.25C6.80964 20.25 6.25 19.6904 6.25 19H4.75C4.75 20.5188 5.98122 21.75 7.5 21.75V20.25ZM17.5 21.75C19.0188 21.75 20.25 20.5188 20.25 19H18.75C18.75 19.6904 18.1904 20.25 17.5 20.25V21.75ZM11.7499 12L11.75 17L13.25 17L13.2499 12L11.7499 12ZM13.0303 16.4697L11.0303 14.4697L9.96967 15.5303L11.9697 17.5303L13.0303 16.4697ZM13.0303 17.5303L15.0303 15.5303L13.9697 14.4697L11.9697 16.4697L13.0303 17.5303Z" fill="currentColor"/>
</svg>
