<svg width="25" height="24" viewBox="0 0 25 24" fill="none" xmlns="http://www.w3.org/2000/svg">
<path d="M19.5 12.75C19.9142 12.75 20.25 12.4142 20.25 12C20.25 11.5858 19.9142 11.25 19.5 11.25V12.75ZM5.5 11.25C5.08579 11.25 4.75 11.5858 4.75 12C4.75 12.4142 5.08579 12.75 5.5 12.75V11.25ZM19.5 8.75C19.9142 8.75 20.25 8.41421 20.25 8C20.25 7.58579 19.9142 7.25 19.5 7.25V8.75ZM5.5 7.25C5.08579 7.25 4.75 7.58579 4.75 8C4.75 8.41421 5.08579 8.75 5.5 8.75V7.25ZM19.5 16.75C19.9142 16.75 20.25 16.4142 20.25 16C20.25 15.5858 19.9142 15.25 19.5 15.25V16.75ZM5.5 15.25C5.08579 15.25 4.75 15.5858 4.75 16C4.75 16.4142 5.08579 16.75 5.5 16.75V15.25ZM19.5 11.25H5.5V12.75H19.5V11.25ZM19.5 7.25H5.5V8.75H19.5V7.25ZM19.5 15.25H5.5V16.75H19.5V15.25Z" fill="currentColor"/>
</svg>
