<svg width="25" height="24" viewBox="0 0 25 24" fill="none" xmlns="http://www.w3.org/2000/svg">
<path d="M18.5001 3.00012L19.0304 2.46979C18.7375 2.1769 18.2626 2.1769 17.9697 2.46979L18.5001 3.00012ZM21.5 6.00005L22.0303 6.53037C22.3232 6.23748 22.3232 5.76261 22.0303 5.46972L21.5 6.00005ZM17.5 10.0002V10.7502C17.6989 10.7502 17.8897 10.6711 18.0303 10.5305L17.5 10.0002ZM14.5 7.00016L13.9697 6.46983C13.829 6.61048 13.75 6.80124 13.75 7.00016L14.5 7.00016ZM14.5 10.0002L13.75 10.0002C13.75 10.1991 13.829 10.3898 13.9697 10.5305C14.1103 10.6711 14.3011 10.7502 14.5 10.7502V10.0002ZM11.5 5.75005C11.9142 5.75005 12.25 5.41427 12.25 5.00005C12.25 4.58584 11.9142 4.25005 11.5 4.25005V5.75005ZM18.5 21.0001V21.7501C18.6989 21.7501 18.8897 21.671 19.0303 21.5304L18.5 21.0001ZM18.9142 20.5858L19.4445 21.1162L18.9142 20.5858ZM6.22001 12.2787L6.75047 12.8089H6.75047L6.22001 12.2787ZM8.90122 12.1448L9.37622 11.5644L8.90122 12.1448ZM13.1578 14.0751L13.7871 14.483L13.7871 14.483L13.1578 14.0751ZM20.25 13.0001C20.25 12.5858 19.9142 12.2501 19.5 12.2501C19.0858 12.2501 18.75 12.5858 18.75 13.0001H20.25ZM16.2507 13.749L16.7811 13.2188L16.2507 13.749ZM17.9697 3.53045L20.9697 6.53038L22.0303 5.46972L19.0304 2.46979L17.9697 3.53045ZM20.9697 5.46973L16.9697 9.46984L18.0303 10.5305L22.0303 6.53037L20.9697 5.46973ZM17.9697 2.46979L13.9697 6.46983L15.0303 7.53049L19.0304 3.53045L17.9697 2.46979ZM13.75 7.00016L13.75 10.0002L15.25 10.0002L15.25 7.00016L13.75 7.00016ZM14.5 10.7502L17.5 10.7502V9.25017L14.5 9.25017V10.7502ZM11.5 4.25005H5.5V5.75005H11.5V4.25005ZM2.75 7.00005V15.0001H4.25V7.00005H2.75ZM2.75 15.0001V19.0001H4.25V15.0001H2.75ZM5.5 21.7501H18.5V20.2501H5.5V21.7501ZM19.0303 21.5304L19.4445 21.1162L18.3839 20.0555L17.9697 20.4697L19.0303 21.5304ZM5.68955 11.7485L2.96954 14.4699L4.03046 15.5302L6.75047 12.8089L5.68955 11.7485ZM19.0263 20.4657L13.0263 14.5556L11.9737 15.6242L17.9737 21.5344L19.0263 20.4657ZM12.975 14.5095L9.37622 11.5644L8.42623 12.7252L12.025 15.6703L12.975 14.5095ZM13.1294 15.4978L13.7871 14.483L12.5284 13.6671L11.8706 14.682L13.1294 15.4978ZM20.25 19.1716V17.0001H18.75V19.1716H20.25ZM20.25 17.0001V13.0001H18.75V17.0001H20.25ZM15.7202 14.2792L18.9695 17.5302L20.0305 16.4699L16.7811 13.2188L15.7202 14.2792ZM13.7871 14.483C14.2198 13.8154 15.1578 13.7165 15.7202 14.2792L16.7811 13.2188C15.5439 11.9809 13.4803 12.1984 12.5284 13.6671L13.7871 14.483ZM19.4445 21.1162C19.9603 20.6004 20.25 19.901 20.25 19.1716H18.75C18.75 19.5031 18.6183 19.8211 18.3839 20.0555L19.4445 21.1162ZM2.75 19.0001C2.75 20.5188 3.98122 21.7501 5.5 21.7501V20.2501C4.80964 20.2501 4.25 19.6904 4.25 19.0001H2.75ZM6.75047 12.8089C7.20458 12.3546 7.92911 12.3184 8.42623 12.7252L9.37622 11.5644C8.28256 10.6694 6.68858 10.749 5.68955 11.7485L6.75047 12.8089ZM5.5 4.25005C3.98122 4.25005 2.75 5.48127 2.75 7.00005H4.25C4.25 6.3097 4.80964 5.75005 5.5 5.75005V4.25005Z" fill="#111111"/>
</svg>
