<svg width="25" height="24" viewBox="0 0 25 24" fill="none" xmlns="http://www.w3.org/2000/svg">
<path d="M11.5 21.75C11.9142 21.75 12.25 21.4142 12.25 21C12.25 20.5858 11.9142 20.25 11.5 20.25V21.75ZM13.5 3L14.0303 2.46967C13.8897 2.32902 13.6989 2.25 13.5 2.25V3ZM19.5 9H20.25C20.25 8.80109 20.171 8.61032 20.0303 8.46967L19.5 9ZM18.75 10C18.75 10.4142 19.0858 10.75 19.5 10.75C19.9142 10.75 20.25 10.4142 20.25 10H18.75ZM9.5 8.25C9.08579 8.25 8.75 8.58579 8.75 9C8.75 9.41421 9.08579 9.75 9.5 9.75V8.25ZM10.5 9.75C10.9142 9.75 11.25 9.41421 11.25 9C11.25 8.58579 10.9142 8.25 10.5 8.25V9.75ZM9.5 16.25C9.08579 16.25 8.75 16.5858 8.75 17C8.75 17.4142 9.08579 17.75 9.5 17.75V16.25ZM11.5 17.75C11.9142 17.75 12.25 17.4142 12.25 17C12.25 16.5858 11.9142 16.25 11.5 16.25V17.75ZM9.5 12.25C9.08579 12.25 8.75 12.5858 8.75 13C8.75 13.4142 9.08579 13.75 9.5 13.75V12.25ZM15.5 13.75C15.9142 13.75 16.25 13.4142 16.25 13C16.25 12.5858 15.9142 12.25 15.5 12.25V13.75ZM19.5001 14.0001L20.0304 13.4698C19.7375 13.1769 19.2626 13.1769 18.9698 13.4698L19.5001 14.0001ZM22.5 17.0001L23.0303 17.5304C23.3232 17.2375 23.3232 16.7626 23.0303 16.4697L22.5 17.0001ZM18.5 21.0002V21.7502C18.6989 21.7502 18.8897 21.6711 19.0303 21.5305L18.5 21.0002ZM15.5 18.0002L14.9697 17.4698C14.829 17.6105 14.75 17.8012 14.75 18.0002L15.5 18.0002ZM15.5 21.0002L14.75 21.0002C14.75 21.1991 14.829 21.3898 14.9697 21.5305C15.1103 21.6712 15.3011 21.7502 15.5 21.7502V21.0002ZM11.5 20.25H7.5V21.75H11.5V20.25ZM6.25 19V5H4.75V19H6.25ZM7.5 3.75H13.5V2.25H7.5V3.75ZM12.75 3V7H14.25V3H12.75ZM15.5 9.75H19.5V8.25H15.5V9.75ZM20.0303 8.46967L14.0303 2.46967L12.9697 3.53033L18.9697 9.53033L20.0303 8.46967ZM18.75 9V10H20.25V9H18.75ZM12.75 7C12.75 8.51878 13.9812 9.75 15.5 9.75V8.25C14.8096 8.25 14.25 7.69036 14.25 7H12.75ZM6.25 5C6.25 4.30964 6.80964 3.75 7.5 3.75V2.25C5.98122 2.25 4.75 3.48122 4.75 5H6.25ZM7.5 20.25C6.80964 20.25 6.25 19.6904 6.25 19H4.75C4.75 20.5188 5.98122 21.75 7.5 21.75V20.25ZM9.5 9.75H10.5V8.25H9.5V9.75ZM9.5 17.75H11.5V16.25H9.5V17.75ZM9.5 13.75H15.5V12.25H9.5V13.75ZM18.9698 14.5305L21.9697 17.5304L23.0303 16.4697L20.0304 13.4698L18.9698 14.5305ZM21.9697 16.4697L17.9697 20.4698L19.0303 21.5305L23.0303 17.5304L21.9697 16.4697ZM18.9698 13.4698L14.9697 17.4698L16.0303 18.5305L20.0304 14.5305L18.9698 13.4698ZM14.75 18.0002L14.75 21.0002L16.25 21.0002L16.25 18.0002L14.75 18.0002ZM15.5 21.7502H18.5V20.2502H15.5V21.7502Z" fill="#111111"/>
</svg>
