<svg width="25" height="24" viewBox="0 0 25 24" fill="none" xmlns="http://www.w3.org/2000/svg">
<path d="M20.5 9.01532H21.5C21.5 8.75054 21.395 8.49658 21.208 8.30911L20.5 9.01532ZM15.4974 9.00255L15.5 8.00255H15.5L15.4974 9.00255ZM14.5 3L15.208 2.29379C15.0204 2.10571 14.7657 2 14.5 2V3ZM4.5 9H5.5H4.5ZM4.5 19H3.5H4.5ZM21.5 15.0029V9.01532H19.5V15.0029H21.5ZM20.5026 8.01532L15.5 8.00255L15.4949 10.0025L20.4975 10.0153L20.5026 8.01532ZM15.5 8.00255V3H13.5V8.00255H15.5ZM14.5 2H10.5V4H14.5V2ZM13.792 3.70621L19.792 9.72152L21.208 8.30911L15.208 2.29379L13.792 3.70621ZM7.5 5V7H9.5V5H7.5ZM7.5 7V15.0029H9.5V7H7.5ZM8.5 6H6.5V8H8.5V6ZM3.5 9L3.5 19H5.5L5.5 9H3.5ZM6.5 22H13.5V20H6.5V22ZM10.5 18.0029H15.5V16.0029H10.5V18.0029ZM15.5 18.0029H18.5V16.0029H15.5V18.0029ZM16.5 19V17.0029H14.5V19H16.5ZM13.5 22C15.1569 22 16.5 20.6569 16.5 19H14.5C14.5 19.5523 14.0523 20 13.5 20V22ZM3.5 19C3.5 20.6569 4.84315 22 6.5 22V20C5.94771 20 5.5 19.5523 5.5 19H3.5ZM15.5 8.00255H15.5H13.5C13.5 9.10512 14.3923 9.99973 15.4949 10.0025L15.5 8.00255ZM6.5 6C4.84315 6 3.5 7.34315 3.5 9H5.5C5.5 8.44771 5.94772 8 6.5 8V6ZM19.5 15.0029C19.5 15.5552 19.0523 16.0029 18.5 16.0029V18.0029C20.1569 18.0029 21.5 16.6598 21.5 15.0029H19.5ZM7.5 15.0029C7.5 16.6598 8.84315 18.0029 10.5 18.0029V16.0029C9.94772 16.0029 9.5 15.5552 9.5 15.0029H7.5ZM10.5 2C8.84315 2 7.5 3.34315 7.5 5H9.5C9.5 4.44771 9.94772 4 10.5 4V2Z" fill="#111111"/>
</svg>
