<svg width="24" height="24" viewBox="0 0 24 24" fill="none" xmlns="http://www.w3.org/2000/svg">
<path d="M8 6.25C7.58579 6.25 7.25 6.58579 7.25 7C7.25 7.41421 7.58579 7.75 8 7.75V6.25ZM17 7H17.75V6.25H17V7ZM16.25 16C16.25 16.4142 16.5858 16.75 17 16.75C17.4142 16.75 17.75 16.4142 17.75 16H16.25ZM6.46967 16.4697C6.17678 16.7626 6.17678 17.2374 6.46967 17.5303C6.76256 17.8232 7.23744 17.8232 7.53033 17.5303L6.46967 16.4697ZM8 7.75H17V6.25H8V7.75ZM16.25 7V16H17.75V7H16.25ZM16.4697 6.46967L6.46967 16.4697L7.53033 17.5303L17.5303 7.53033L16.4697 6.46967Z" fill="currentColor"/>
</svg>
