<svg width="24" height="24" viewBox="0 0 24 24" fill="none" xmlns="http://www.w3.org/2000/svg">
<path d="M3 12.0008L2.29599 11.7422C2.23466 11.9091 2.23467 12.0924 2.29601 12.2594L3 12.0008ZM21 12.0008L21.704 12.2594C21.7653 12.0924 21.7653 11.9091 21.704 11.7422L21 12.0008ZM14.25 12C14.25 13.2426 13.2426 14.25 12 14.25V15.75C14.0711 15.75 15.75 14.0711 15.75 12H14.25ZM12 14.25C10.7574 14.25 9.75 13.2426 9.75 12H8.25C8.25 14.0711 9.92893 15.75 12 15.75V14.25ZM9.75 12C9.75 10.7574 10.7574 9.75 12 9.75V8.25C9.92893 8.25 8.25 9.92893 8.25 12H9.75ZM12 9.75C13.2426 9.75 14.25 10.7574 14.25 12H15.75C15.75 9.92893 14.0711 8.25 12 8.25V9.75ZM12 4.25C8.48089 4.25 6.03871 6.17426 4.51117 8.0226C3.746 8.94846 3.19589 9.87082 2.83692 10.5607C2.65697 10.9065 2.52384 11.1962 2.43477 11.402C2.39021 11.5049 2.35659 11.587 2.33359 11.6448C2.32209 11.6738 2.31323 11.6966 2.30698 11.713C2.30385 11.7211 2.30138 11.7277 2.29955 11.7326C2.29863 11.735 2.29788 11.7371 2.29729 11.7387C2.29699 11.7395 2.29673 11.7401 2.29652 11.7407C2.29641 11.741 2.29628 11.7414 2.29622 11.7415C2.2961 11.7419 2.29599 11.7422 3 12.0008C3.70401 12.2593 3.70392 12.2596 3.70384 12.2598C3.70382 12.2599 3.70375 12.2601 3.70372 12.2601C3.70366 12.2603 3.70364 12.2604 3.70366 12.2603C3.70369 12.2602 3.70388 12.2597 3.70423 12.2588C3.70492 12.2569 3.70623 12.2535 3.70817 12.2484C3.71204 12.2383 3.71841 12.2218 3.7273 12.1994C3.74511 12.1547 3.77302 12.0864 3.81132 11.9979C3.88799 11.8208 4.00597 11.5636 4.16755 11.2531C4.49161 10.6303 4.98615 9.80249 5.66741 8.97816C7.03272 7.32612 9.09054 5.75 12 5.75V4.25ZM3 12.0008C2.29601 12.2594 2.29612 12.2597 2.29624 12.26C2.2963 12.2602 2.29643 12.2605 2.29654 12.2608C2.29675 12.2614 2.29701 12.2621 2.2973 12.2629C2.2979 12.2645 2.29865 12.2665 2.29957 12.269C2.3014 12.2739 2.30387 12.2804 2.307 12.2886C2.31325 12.305 2.32211 12.3278 2.33361 12.3567C2.35661 12.4145 2.39023 12.4966 2.43479 12.5995C2.52387 12.8052 2.657 13.0949 2.83695 13.4406C3.19593 14.1304 3.74604 15.0526 4.51122 15.9782C6.03878 17.8262 8.48095 19.75 12 19.75V18.25C9.09047 18.25 7.03265 16.6742 5.66736 15.0225C4.9861 14.1984 4.49157 13.3708 4.16752 12.7481C4.00594 12.4377 3.88796 12.1806 3.8113 12.0035C3.77299 11.915 3.74509 11.8468 3.72728 11.802C3.71839 11.7797 3.71202 11.7632 3.70815 11.7531C3.70621 11.748 3.7049 11.7445 3.70421 11.7427C3.70386 11.7418 3.70367 11.7413 3.70364 11.7412C3.70362 11.7411 3.70364 11.7412 3.7037 11.7413C3.70373 11.7414 3.7038 11.7416 3.70382 11.7416C3.7039 11.7419 3.70399 11.7421 3 12.0008ZM12 19.75C15.519 19.75 17.9612 17.8262 19.4888 15.9782C20.254 15.0526 20.8041 14.1304 21.1631 13.4406C21.343 13.0949 21.4761 12.8052 21.5652 12.5995C21.6098 12.4966 21.6434 12.4145 21.6664 12.3567C21.6779 12.3278 21.6868 12.305 21.693 12.2886C21.6961 12.2804 21.6986 12.2739 21.7004 12.269C21.7013 12.2665 21.7021 12.2645 21.7027 12.2629C21.703 12.2621 21.7032 12.2614 21.7035 12.2608C21.7036 12.2605 21.7037 12.2602 21.7038 12.26C21.7039 12.2597 21.704 12.2594 21 12.0008C20.296 11.7421 20.2961 11.7419 20.2962 11.7416C20.2962 11.7416 20.2963 11.7414 20.2963 11.7413C20.2964 11.7412 20.2964 11.7411 20.2964 11.7412C20.2963 11.7413 20.2961 11.7418 20.2958 11.7427C20.2951 11.7445 20.2938 11.748 20.2919 11.7531C20.288 11.7632 20.2816 11.7797 20.2727 11.802C20.2549 11.8468 20.227 11.915 20.1887 12.0035C20.112 12.1806 19.9941 12.4377 19.8325 12.7481C19.5084 13.3708 19.0139 14.1984 18.3326 15.0225C16.9674 16.6742 14.9095 18.25 12 18.25V19.75ZM21 12.0008C21.704 11.7422 21.7039 11.7419 21.7038 11.7415C21.7037 11.7414 21.7036 11.741 21.7035 11.7407C21.7033 11.7401 21.703 11.7395 21.7027 11.7387C21.7021 11.7371 21.7014 11.735 21.7005 11.7326C21.6986 11.7277 21.6961 11.7211 21.693 11.713C21.6868 11.6966 21.6779 11.6738 21.6664 11.6448C21.6434 11.587 21.6098 11.5049 21.5652 11.402C21.4762 11.1962 21.343 10.9065 21.1631 10.5607C20.8041 9.87082 20.254 8.94846 19.4888 8.0226C17.9613 6.17426 15.5191 4.25 12 4.25V5.75C14.9095 5.75 16.9673 7.32612 18.3326 8.97816C19.0139 9.80249 19.5084 10.6303 19.8325 11.2531C19.994 11.5636 20.112 11.8208 20.1887 11.9979C20.227 12.0864 20.2549 12.1547 20.2727 12.1994C20.2816 12.2218 20.288 12.2383 20.2918 12.2484C20.2938 12.2535 20.2951 12.2569 20.2958 12.2588C20.2961 12.2597 20.2963 12.2602 20.2963 12.2603C20.2964 12.2604 20.2963 12.2603 20.2963 12.2601C20.2963 12.2601 20.2962 12.2599 20.2962 12.2598C20.2961 12.2596 20.296 12.2593 21 12.0008Z" fill="#111111"/>
</svg>
