<svg width="24" height="24" viewBox="0 0 24 24" fill="none" xmlns="http://www.w3.org/2000/svg">
<path d="M2.99991 12.0008L2.2959 11.7422C2.23457 11.9091 2.23458 12.0924 2.29592 12.2594L2.99991 12.0008ZM20.9999 12.0008L21.723 12.1998C21.7645 12.049 21.7578 11.889 21.7039 11.7422L20.9999 12.0008ZM16.8187 18.3606C17.1696 18.1405 17.2756 17.6776 17.0555 17.3267C16.8354 16.9758 16.3726 16.8698 16.0217 17.0899L16.8187 18.3606ZM19.3688 13.5948C19.145 13.9434 19.2462 14.4074 19.5948 14.6311C19.9433 14.8549 20.4073 14.7537 20.6311 14.4052L19.3688 13.5948ZM7.19486 7.46602C7.51911 7.20827 7.57302 6.73647 7.31527 6.41222C7.05752 6.08797 6.58571 6.03406 6.26146 6.29182L7.19486 7.46602ZM10.9999 4.25C10.5857 4.25 10.2499 4.58579 10.2499 5C10.2499 5.41421 10.5857 5.75 10.9999 5.75V4.25ZM3.5296 2.46967C3.2367 2.17678 2.76183 2.17678 2.46894 2.46967C2.17604 2.76256 2.17604 3.23744 2.46894 3.53033L3.5296 2.46967ZM20.4687 21.5301C20.7616 21.823 21.2365 21.823 21.5294 21.5301C21.8222 21.2372 21.8222 20.7623 21.5294 20.4694L20.4687 21.5301ZM2.99991 12.0008C2.29592 12.2594 2.29603 12.2597 2.29615 12.26C2.2962 12.2602 2.29634 12.2605 2.29645 12.2608C2.29666 12.2614 2.29692 12.2621 2.29721 12.2629C2.29781 12.2645 2.29856 12.2665 2.29948 12.269C2.30131 12.2739 2.30378 12.2804 2.30691 12.2886C2.31316 12.305 2.32202 12.3278 2.33352 12.3567C2.35652 12.4145 2.39014 12.4966 2.4347 12.5995C2.52378 12.8052 2.65691 13.0949 2.83686 13.4406C3.19584 14.1304 3.74595 15.0526 4.51113 15.9782C6.03869 17.8262 8.48086 19.75 11.9999 19.75V18.25C9.09038 18.25 7.03256 16.6742 5.66727 15.0225C4.98601 14.1984 4.49148 13.3708 4.16743 12.7481C4.00585 12.4377 3.88787 12.1806 3.81121 12.0035C3.7729 11.915 3.745 11.8468 3.72719 11.802C3.7183 11.7797 3.71193 11.7632 3.70806 11.7531C3.70612 11.748 3.70481 11.7445 3.70412 11.7427C3.70377 11.7418 3.70358 11.7413 3.70355 11.7412C3.70353 11.7411 3.70355 11.7412 3.70361 11.7413C3.70364 11.7414 3.70371 11.7416 3.70373 11.7416C3.70381 11.7419 3.7039 11.7421 2.99991 12.0008ZM20.9999 12.0008C21.7039 11.7422 21.7038 11.7419 21.7037 11.7415C21.7036 11.7414 21.7035 11.741 21.7034 11.7407C21.7032 11.7401 21.7029 11.7395 21.7026 11.7387C21.702 11.7371 21.7013 11.735 21.7004 11.7326C21.6985 11.7277 21.6961 11.7211 21.6929 11.713C21.6867 11.6966 21.6778 11.6738 21.6663 11.6448C21.6433 11.587 21.6097 11.5049 21.5651 11.402C21.4761 11.1962 21.3429 10.9065 21.163 10.5607C20.804 9.87082 20.2539 8.94846 19.4887 8.0226C17.9612 6.17426 15.519 4.25 11.9999 4.25V5.75C14.9094 5.75 16.9672 7.32612 18.3325 8.97816C19.0138 9.80249 19.5083 10.6303 19.8324 11.2531C19.9939 11.5636 20.1119 11.8208 20.1886 11.9979C20.2269 12.0864 20.2548 12.1547 20.2726 12.1994C20.2815 12.2218 20.2879 12.2383 20.2917 12.2484C20.2937 12.2535 20.295 12.2569 20.2957 12.2588C20.296 12.2597 20.2962 12.2602 20.2963 12.2603C20.2963 12.2604 20.2963 12.2603 20.2962 12.2601C20.2962 12.2601 20.2961 12.2599 20.2961 12.2598C20.296 12.2596 20.2959 12.2593 20.9999 12.0008ZM11.9999 19.75C13.9077 19.75 15.509 19.1821 16.8187 18.3606L16.0217 17.0899C14.9222 17.7795 13.5938 18.25 11.9999 18.25V19.75ZM20.6311 14.4052C21.0469 13.7574 21.3154 13.2225 21.4823 12.8411C21.5657 12.6504 21.6236 12.4982 21.6618 12.3897C21.681 12.3354 21.6951 12.292 21.7051 12.2601C21.7101 12.2442 21.714 12.2311 21.7169 12.2211C21.7184 12.216 21.7197 12.2117 21.7207 12.2082C21.7212 12.2064 21.7216 12.2048 21.722 12.2034C21.7222 12.2027 21.7224 12.2021 21.7226 12.2014C21.7226 12.2011 21.7227 12.2009 21.7228 12.2006C21.7228 12.2004 21.7229 12.2002 21.7229 12.2002C21.723 12.2 21.723 12.1998 20.9999 12.0008C20.2768 11.8017 20.2768 11.8016 20.2769 11.8014C20.2769 11.8013 20.277 11.8011 20.277 11.801C20.2771 11.8008 20.2771 11.8006 20.2772 11.8004C20.2773 11.7999 20.2774 11.7996 20.2775 11.7992C20.2777 11.7986 20.2778 11.7981 20.2779 11.7979C20.278 11.7973 20.278 11.7975 20.2777 11.7984C20.2772 11.8003 20.2758 11.805 20.2734 11.8126C20.2686 11.8278 20.26 11.8544 20.2469 11.8917C20.2206 11.9663 20.1762 12.084 20.108 12.2399C19.9717 12.5515 19.7402 13.0162 19.3688 13.5948L20.6311 14.4052ZM6.26146 6.29182C4.86239 7.40397 3.87512 8.76574 3.2408 9.83474C2.92214 10.3718 2.6886 10.8416 2.53373 11.1798C2.45621 11.349 2.39817 11.4858 2.35883 11.5821C2.33915 11.6302 2.32414 11.6683 2.31369 11.6953C2.30846 11.7088 2.30437 11.7195 2.30141 11.7274C2.29993 11.7313 2.29873 11.7345 2.29781 11.737C2.29736 11.7382 2.29697 11.7393 2.29665 11.7401C2.29649 11.7406 2.29635 11.741 2.29622 11.7413C2.29616 11.7415 2.29608 11.7417 2.29605 11.7418C2.29597 11.742 2.2959 11.7422 2.99991 12.0008C3.70392 12.2593 3.70386 12.2595 3.7038 12.2597C3.70379 12.2597 3.70373 12.2599 3.7037 12.2599C3.70365 12.2601 3.70361 12.2602 3.70358 12.2603C3.70354 12.2604 3.70356 12.2603 3.70365 12.2601C3.70383 12.2596 3.70427 12.2584 3.70499 12.2565C3.70643 12.2527 3.70895 12.2461 3.71256 12.2367C3.71978 12.2181 3.73136 12.1886 3.7474 12.1494C3.77948 12.0709 3.82929 11.9533 3.89749 11.8044C4.03407 11.5062 4.24347 11.0844 4.5308 10.6002C5.10845 9.62668 5.98531 8.42752 7.19486 7.46602L6.26146 6.29182ZM11.9999 4.25H10.9999V5.75H11.9999V4.25ZM2.46894 3.53033L20.4687 21.5301L21.5294 20.4694L3.5296 2.46967L2.46894 3.53033ZM11.9999 14.25C10.7573 14.25 9.74991 13.2426 9.74991 12H8.24991C8.24991 14.0711 9.92884 15.75 11.9999 15.75V14.25ZM9.74991 12C9.74991 11.2612 9.94047 10.7822 10.3533 10.4127L9.35293 9.295C8.53826 10.0241 8.24991 10.9618 8.24991 12H9.74991ZM13.5853 13.6447C13.2148 14.0587 12.7368 14.25 11.9999 14.25V15.75C13.0401 15.75 13.9749 15.4586 14.703 14.6451L13.5853 13.6447Z" fill="#111111"/>
</svg>
