<svg width="25" height="24" viewBox="0 0 25 24" fill="none" xmlns="http://www.w3.org/2000/svg">
<path d="M7.23626 6.39016L7.73288 5.5222L7.73288 5.5222L7.23626 6.39016ZM5.27098 6.40882L4.40691 5.90544H4.40691L5.27098 6.40882ZM6.63167 6.04423L6.13504 6.9122L6.13504 6.9122L6.63167 6.04423ZM4.37486 9.94909L3.87823 10.8171L3.87823 10.8171L4.37486 9.94909ZM4.00742 8.57775L4.87149 9.08113L4.00742 8.57775ZM4.92528 13.7359L4.42865 12.8679H4.42865L4.92528 13.7359ZM4.92528 10.264L5.42191 9.39607V9.39607L4.92528 10.264ZM4.0072 15.4223L3.14313 15.9257H3.14313L4.0072 15.4223ZM4.37464 14.0509L4.87126 14.9189H4.87126L4.37464 14.0509ZM6.63145 17.9558L6.13482 17.0878H6.13482L6.63145 17.9558ZM5.27076 17.5912L6.13482 17.0878L5.27076 17.5912ZM7.23625 17.6098L7.73288 18.4777H7.73288L7.23625 17.6098ZM17.7635 17.6097L18.2601 16.7418H18.2601L17.7635 17.6097ZM19.729 17.5912L20.5931 18.0946L19.729 17.5912ZM18.3683 17.9558L17.8717 18.8238H17.8717L18.3683 17.9558ZM20.6251 14.0509L21.1218 13.183L20.6251 14.0509ZM20.9926 15.4223L20.1285 14.9189L20.9926 15.4223ZM20.0745 10.264L19.5779 9.39607L20.0745 10.264ZM20.0745 13.7359L19.5779 14.6038H19.5779L20.0745 13.7359ZM20.9923 8.57775L20.1283 9.08113L20.9923 8.57775ZM20.6249 9.94909L21.1215 10.8171L20.6249 9.94909ZM18.3681 6.04424L18.8647 6.9122L18.3681 6.04424ZM19.7288 6.40882L20.5928 5.90544L19.7288 6.40882ZM17.7635 6.39019L17.2668 5.52223L17.7635 6.39019ZM13.7702 2H11.2295V4H13.7702V2ZM15.7702 4.65426V4H13.7702V4.65426H15.7702ZM17.8715 5.17627L17.2668 5.52223L18.2601 7.25815L18.8647 6.9122L17.8715 5.17627ZM21.8564 8.07437L20.5928 5.90544L18.8647 6.9122L20.1283 9.08113L21.8564 8.07437ZM20.5711 11.132L21.1215 10.8171L20.1283 9.08113L19.5779 9.39607L20.5711 11.132ZM19.5779 14.6038L20.1285 14.9189L21.1218 13.183L20.5711 12.8679L19.5779 14.6038ZM20.1285 14.9189L18.8649 17.0878L20.5931 18.0946L21.8566 15.9257L20.1285 14.9189ZM18.8649 17.0878L18.2601 16.7418L17.2668 18.4777L17.8717 18.8238L18.8649 17.0878ZM15.7702 20V19.3457H13.7702V20H15.7702ZM11.2295 22H13.7702V20H11.2295V22ZM9.22951 19.3457V20H11.2295V19.3457H9.22951ZM7.12808 18.8238L7.73288 18.4777L6.73963 16.7418L6.13482 17.0878L7.12808 18.8238ZM3.14313 15.9257L4.40669 18.0946L6.13482 17.0878L4.87126 14.9189L3.14313 15.9257ZM4.42865 12.8679L3.87801 13.183L4.87126 14.9189L5.42191 14.6038L4.42865 12.8679ZM5.42191 9.39607L4.87149 9.08113L3.87823 10.8171L4.42865 11.132L5.42191 9.39607ZM4.87149 9.08113L6.13504 6.9122L4.40691 5.90544L3.14336 8.07437L4.87149 9.08113ZM6.13504 6.9122L6.73963 7.25813L7.73288 5.5222L7.1283 5.17627L6.13504 6.9122ZM9.22951 4V4.65423H11.2295V4H9.22951ZM6.73963 7.25813C8.73961 8.40247 11.2295 6.95845 11.2295 4.65423H9.22951C9.22951 5.42231 8.39954 5.90364 7.73288 5.5222L6.73963 7.25813ZM6.13504 6.9122V6.9122L7.1283 5.17627C6.17485 4.63073 4.95987 4.95628 4.40691 5.90544L6.13504 6.9122ZM4.87149 9.08113L4.87149 9.08113L3.14336 8.07437C2.58427 9.03406 2.91422 10.2655 3.87823 10.8171L4.87149 9.08113ZM5.42191 14.6038C7.4354 13.4518 7.4354 10.5481 5.42191 9.39607L4.42865 11.132C5.09981 11.516 5.09981 12.4839 4.42865 12.8679L5.42191 14.6038ZM4.87126 14.9189H4.87126L3.87801 13.183C2.91399 13.7346 2.58405 14.966 3.14313 15.9257L4.87126 14.9189ZM6.13482 17.0878H6.13482L4.40669 18.0946C4.95965 19.0438 6.17463 19.3693 7.12808 18.8238L6.13482 17.0878ZM11.2295 19.3457C11.2295 17.0415 8.7396 15.5975 6.73963 16.7418L7.73288 18.4777C8.39954 18.0963 9.22951 18.5776 9.22951 19.3457H11.2295ZM11.2295 20H9.22951C9.22951 21.1046 10.1249 22 11.2295 22V20ZM13.7702 20V22C14.8748 22 15.7702 21.1046 15.7702 20H13.7702ZM18.2601 16.7418C16.2601 15.5974 13.7702 17.0414 13.7702 19.3457H15.7702C15.7702 18.5776 16.6002 18.0962 17.2668 18.4777L18.2601 16.7418ZM18.8649 17.0878H18.8649L17.8717 18.8238C18.8251 19.3693 20.0401 19.0438 20.5931 18.0946L18.8649 17.0878ZM20.1285 14.9189H20.1285L21.8566 15.9257C22.4157 14.966 22.0858 13.7346 21.1218 13.183L20.1285 14.9189ZM19.5779 9.39607C17.5644 10.5481 17.5644 13.4518 19.5779 14.6038L20.5711 12.8679C19.8999 12.4839 19.8999 11.516 20.5711 11.132L19.5779 9.39607ZM20.1283 9.08113L21.1215 10.8171C22.0855 10.2655 22.4155 9.03406 21.8564 8.07437L20.1283 9.08113ZM18.8647 6.9122L20.5928 5.90544C20.0399 4.95628 18.8249 4.63073 17.8715 5.17627L18.8647 6.9122ZM13.7702 4.65426C13.7702 6.95848 16.2601 8.40249 18.2601 7.25815L17.2668 5.52223C16.6002 5.90367 15.7702 5.42234 15.7702 4.65426H13.7702ZM11.2295 2C10.1249 2 9.22951 2.89543 9.22951 4H11.2295V2ZM13.7702 4V4H15.7702C15.7702 2.89543 14.8748 2 13.7702 2V4ZM14.4999 12C14.4999 13.1046 13.6045 14 12.4999 14V16C14.709 16 16.4999 14.2091 16.4999 12H14.4999ZM12.4999 14C11.3953 14 10.4999 13.1046 10.4999 12H8.49988C8.49988 14.2091 10.2907 16 12.4999 16V14ZM10.4999 12C10.4999 10.8954 11.3953 10 12.4999 10V8C10.2907 8 8.49988 9.79086 8.49988 12H10.4999ZM12.4999 10C13.6045 10 14.4999 10.8954 14.4999 12H16.4999C16.4999 9.79086 14.709 8 12.4999 8V10Z" fill="currentColor"/>
</svg>
