<svg width="25" height="24" viewBox="0 0 25 24" fill="none" xmlns="http://www.w3.org/2000/svg">
<circle cx="12.5" cy="16" r="1" fill="currentColor"/>
<path d="M9.64441 8.48753C9.36138 8.96178 9.51639 9.57567 9.99063 9.85871C10.4649 10.1417 11.0788 9.98673 11.3618 9.51249L9.64441 8.48753ZM15.366 11.4971C15.6422 11.0189 15.4783 10.4073 15 10.1311C14.5217 9.85498 13.9101 10.0189 13.634 10.4971L15.366 11.4971ZM12.4855 11.0001C11.9333 11.0081 11.4921 11.4622 11.5001 12.0145C11.5081 12.5667 11.9623 13.0079 12.5145 12.9999L12.4855 11.0001ZM15.3677 8.4843C15.0915 8.00601 14.48 7.84213 14.0017 8.11827C13.5234 8.39442 13.3595 9.00601 13.6356 9.4843L15.3677 8.4843ZM13.6285 10.5126C13.3593 10.9948 13.532 11.604 14.0142 11.8732C14.4965 12.1423 15.1056 11.9696 15.3748 11.4874L13.6285 10.5126ZM13.6413 9.51248C13.9243 9.98673 14.5382 10.1417 15.0125 9.85871C15.4867 9.57568 15.6417 8.96178 15.3587 8.48753L13.6413 9.51248ZM20.5 12C20.5 16.4183 16.9183 20 12.5 20V22C18.0228 22 22.5 17.5228 22.5 12H20.5ZM12.5 20C8.08172 20 4.5 16.4183 4.5 12H2.5C2.5 17.5228 6.97715 22 12.5 22V20ZM4.5 12C4.5 7.58172 8.08172 4 12.5 4V2C6.97715 2 2.5 6.47715 2.5 12H4.5ZM12.5 4C16.9183 4 20.5 7.58172 20.5 12H22.5C22.5 6.47715 18.0228 2 12.5 2V4ZM11.3618 9.51249C11.548 9.20044 11.9873 9 12.5 9V7C11.6119 7 10.333 7.33367 9.64441 8.48753L11.3618 9.51249ZM13.634 10.4971C13.5104 10.7111 13.1015 10.9912 12.4855 11.0001L12.5145 12.9999C13.6054 12.9841 14.7892 12.4963 15.366 11.4971L13.634 10.4971ZM13.6356 9.4843C13.7445 9.67281 13.7859 9.82845 13.7893 9.96468C13.7926 10.0977 13.7612 10.2748 13.6285 10.5126L15.3748 11.4874C15.6581 10.9799 15.8019 10.4524 15.7887 9.91554C15.7756 9.38189 15.609 8.90234 15.3677 8.4843L13.6356 9.4843ZM12.5 9C13.0141 9 13.4556 9.20131 13.6413 9.51248L15.3587 8.48753C14.6695 7.3328 13.3866 7 12.5 7V9Z" fill="currentColor"/>
<path d="M11.5 13C11.5 13.5523 11.9477 14 12.5 14C13.0523 14 13.5 13.5523 13.5 13H11.5ZM13.5 12C13.5 11.4477 13.0523 11 12.5 11C11.9477 11 11.5 11.4477 11.5 12H13.5ZM13.5 13V12H11.5V13H13.5Z" fill="currentColor"/>
</svg>
