<svg width="25" height="24" viewBox="0 0 25 24" fill="none" xmlns="http://www.w3.org/2000/svg">
<path d="M3.94736 2.10558C3.45339 1.85858 2.85271 2.0588 2.60572 2.55277C2.35872 3.04675 2.55894 3.64742 3.05291 3.89442L3.94736 2.10558ZM7.5 5L7.05277 5.89442C7.37375 6.05491 7.75611 6.03111 8.0547 5.83205L7.5 5ZM10.5 3L11.0547 2.16795C10.7188 1.94402 10.2812 1.94402 9.9453 2.16795L10.5 3ZM13.5 5L12.9453 5.83205C13.2439 6.03111 13.6262 6.05491 13.9472 5.89443L13.5 5ZM17.5 3H18.5C18.5 2.65342 18.3205 2.33156 18.0257 2.14935C17.7309 1.96714 17.3628 1.95058 17.0528 2.10557L17.5 3ZM21.4985 13H22.4985V12H21.4985V13ZM4.49854 2.99991C4.49848 2.44762 4.05073 1.99995 3.49844 2C2.94616 2.00005 2.49848 2.44781 2.49854 3.00009L4.49854 2.99991ZM3.5 19L2.5 19.0001L2.5 19.0018L3.5 19ZM12.5 11C13.0523 11 13.5 10.5523 13.5 10C13.5 9.44772 13.0523 9 12.5 9V11ZM11.5 9C11.5 8.44772 11.0523 8 10.5 8C9.94772 8 9.5 8.44772 9.5 9H11.5ZM8.5 15C7.94772 15 7.5 15.4477 7.5 16C7.5 16.5523 7.94772 17 8.5 17V15ZM9.5 17C9.5 17.5523 9.94772 18 10.5 18C11.0523 18 11.5 17.5523 11.5 17H9.5ZM3.05291 3.89442L7.05277 5.89442L7.94723 4.10558L3.94736 2.10558L3.05291 3.89442ZM8.0547 5.83205L11.0547 3.83205L9.9453 2.16795L6.9453 4.16795L8.0547 5.83205ZM9.9453 3.83205L12.9453 5.83205L14.0547 4.16795L11.0547 2.16795L9.9453 3.83205ZM13.9472 5.89443L17.9472 3.89443L17.0528 2.10557L13.0528 4.10557L13.9472 5.89443ZM16.5 3V13H18.5V3H16.5ZM17.5 14H21.4985V12H17.5V14ZM20.4985 13V19H22.4985V13H20.4985ZM18.5 19V13H16.5V19H18.5ZM19.5 20C19.1354 20 18.9034 19.8739 18.7596 19.7228C18.6086 19.5641 18.5 19.3189 18.5 19H16.5C16.5 19.7801 16.7717 20.5349 17.3108 21.1015C17.8572 21.6756 18.6252 22 19.5 22V20ZM20.4985 19C20.4985 19.3194 20.3899 19.5647 20.2393 19.7232C20.0959 19.8739 19.8645 20 19.5 20V22C20.3749 22 21.1428 21.6756 21.6888 21.1011C22.2276 20.5343 22.4985 19.7796 22.4985 19H20.4985ZM2.49854 3.00009L2.5 19.0001L4.5 18.9999L4.49854 2.99991L2.49854 3.00009ZM6.5 22H19.5V20H6.5V22ZM2.5 19.0018C2.502 20.0918 3.33416 20.8523 4.01452 21.2669C4.74526 21.7123 5.6727 22 6.5 22V20C6.08516 20 5.51361 19.8384 5.05539 19.5591C4.54679 19.2492 4.50002 19.0096 4.5 18.9982L2.5 19.0018ZM10 14H11V12H10V14ZM12.5 9H10.5V11H12.5V9ZM10.5 9H10V11H10.5V9ZM11.5 10V9H9.5V10H11.5ZM11 15H10.5V17H11V15ZM10.5 15H8.5V17H10.5V15ZM9.5 16V17H11.5V16H9.5ZM11.5 14.5C11.5 14.7761 11.2761 15 11 15V17C12.3807 17 13.5 15.8807 13.5 14.5H11.5ZM11 14C11.2761 14 11.5 14.2239 11.5 14.5H13.5C13.5 13.1193 12.3807 12 11 12V14ZM7.5 11.5C7.5 12.8807 8.61929 14 10 14V12C9.72386 12 9.5 11.7761 9.5 11.5H7.5ZM9.5 11.5C9.5 11.2239 9.72386 11 10 11V9C8.61929 9 7.5 10.1193 7.5 11.5H9.5Z" fill="#111111"/>
</svg>
