<svg width="25" height="24" viewBox="0 0 25 24" fill="none" xmlns="http://www.w3.org/2000/svg">
<path d="M10.0151 13.0707C9.62459 13.4612 9.62459 14.0944 10.0151 14.4849C10.4056 14.8754 11.0388 14.8754 11.4293 14.4849L10.0151 13.0707ZM21.2071 4.70711C21.5976 4.31658 21.5976 3.68342 21.2071 3.29289C20.8166 2.90237 20.1834 2.90237 19.7929 3.29289L21.2071 4.70711ZM19.4293 5.07067C19.0388 4.68015 18.4056 4.68015 18.0151 5.07067C17.6246 5.4612 17.6246 6.09436 18.0151 6.48489L19.4293 5.07067ZM19.7929 8.26266C20.1834 8.65319 20.8166 8.65319 21.2071 8.26266C21.5976 7.87214 21.5976 7.23897 21.2071 6.84845L19.7929 8.26266ZM16.7627 7.73734C16.3721 7.34681 15.739 7.34681 15.3484 7.73734C14.9579 8.12786 14.9579 8.76103 15.3484 9.15155L16.7627 7.73734ZM17.1262 10.9293C17.5168 11.3199 18.1499 11.3199 18.5404 10.9293C18.931 10.5388 18.931 9.90564 18.5404 9.51512L17.1262 10.9293ZM10.6111 16.4444C10.6111 17.8558 9.46695 19 8.05556 19V21C10.5715 21 12.6111 18.9604 12.6111 16.4444H10.6111ZM8.05556 19C6.64416 19 5.5 17.8558 5.5 16.4444H3.5C3.5 18.9604 5.53959 21 8.05556 21V19ZM5.5 16.4444C5.5 15.0331 6.64416 13.8889 8.05556 13.8889V11.8889C5.53959 11.8889 3.5 13.9285 3.5 16.4444H5.5ZM8.05556 13.8889C9.46695 13.8889 10.6111 15.0331 10.6111 16.4444H12.6111C12.6111 13.9285 10.5715 11.8889 8.05556 11.8889V13.8889ZM11.4293 14.4849L21.2071 4.70711L19.7929 3.29289L10.0151 13.0707L11.4293 14.4849ZM18.0151 6.48489L19.7929 8.26266L21.2071 6.84845L19.4293 5.07067L18.0151 6.48489ZM15.3484 9.15155L17.1262 10.9293L18.5404 9.51512L16.7627 7.73734L15.3484 9.15155Z" fill="#111111"/>
</svg>
