<svg width="25" height="24" viewBox="0 0 25 24" fill="none" xmlns="http://www.w3.org/2000/svg">
<circle cx="12.4989" cy="14.5" r="1.5" fill="currentColor"/>
<path d="M13.5 14C13.5 13.4477 13.0523 13 12.5 13C11.9477 13 11.5 13.4477 11.5 14H13.5ZM11.5 17C11.5 17.5523 11.9477 18 12.5 18C13.0523 18 13.5 17.5523 13.5 17H11.5ZM5.4978 18.9995L4.4978 18.9993L5.4978 18.9995ZM19.5 19H18.5H19.5ZM19.5 12H20.5H19.5ZM5.49951 11.9995L4.49951 11.9993L5.49951 11.9995ZM7.5 10C7.50002 10.5523 7.94774 11 8.50003 11C9.05231 11 9.50002 10.5523 9.5 9.99997L7.5 10ZM8.49992 7.50439H7.49992V7.50442L8.49992 7.50439ZM12.5119 3V2V3ZM15.4537 6.12882C15.5248 6.67651 16.0265 7.06281 16.5742 6.99167C17.1219 6.92052 17.5082 6.41886 17.437 5.87118L15.4537 6.12882ZM11.5 14V17H13.5V14H11.5ZM7.49951 11H17.5V9H7.49951V11ZM18.5 12L18.5 19H20.5L20.5 12H18.5ZM17.5 20H7.4978V22H17.5V20ZM6.4978 18.9998L6.49951 11.9998L4.49951 11.9993L4.4978 18.9993L6.4978 18.9998ZM7.4978 20C6.94542 20 6.49767 19.5521 6.4978 18.9998L4.4978 18.9993C4.4974 20.6564 5.84066 22 7.4978 22V20ZM18.5 19C18.5 19.5523 18.0523 20 17.5 20V22C19.1568 22 20.5 20.6569 20.5 19H18.5ZM17.5 11C18.0523 11 18.5 11.4477 18.5 12H20.5C20.5 10.3431 19.1568 9 17.5 9V11ZM7.49951 9C5.84294 9 4.49991 10.3427 4.49951 11.9993L6.49951 11.9998C6.49964 11.4476 6.94732 11 7.49951 11V9ZM9.5 9.99997L9.49992 7.50435L7.49992 7.50442L7.5 10L9.5 9.99997ZM9.49992 7.50439C9.49992 6.94318 9.5375 6.3635 9.65747 5.84761C9.77872 5.32621 9.96619 4.94795 10.207 4.70711L8.79282 3.29289C8.18974 3.89597 7.87722 4.67316 7.70944 5.3946C7.54039 6.12156 7.49992 6.87212 7.49992 7.50439H9.49992ZM10.207 4.70711C10.7659 4.1482 11.4034 4 12.5119 4V2C11.2335 2 9.92174 2.16397 8.79282 3.29289L10.207 4.70711ZM12.5119 4C13.6146 4 14.2315 4.14577 14.7928 4.70711L16.207 3.29289C15.0805 2.1664 13.7962 2 12.5119 2V4ZM14.7928 4.70711C15.2001 5.11438 15.3782 5.54757 15.4537 6.12882L17.437 5.87118C17.3172 4.9489 16.9891 4.07492 16.207 3.29289L14.7928 4.70711Z" fill="currentColor"/>
</svg>
