<svg width="25" height="24" viewBox="0 0 25 24" fill="none" xmlns="http://www.w3.org/2000/svg">
<path d="M3.83843 6.99928C3.56189 7.47734 3.72525 8.08906 4.20331 8.36561C4.68137 8.64215 5.2931 8.47879 5.56964 8.00073L3.83843 6.99928ZM5.56964 15.9993C5.2931 15.5212 4.68137 15.3579 4.20331 15.6344C3.72525 15.9109 3.56189 16.5227 3.83843 17.0007L5.56964 15.9993ZM3.5 11C2.94772 11 2.5 11.4477 2.5 12C2.5 12.5523 2.94772 13 3.5 13V11ZM15.875 12L16.5821 12.7071C16.9726 12.3166 16.9726 11.6834 16.5821 11.2929L15.875 12ZM12.0821 6.7929C11.6916 6.40237 11.0584 6.40237 10.6679 6.7929C10.2774 7.18342 10.2774 7.81659 10.6679 8.20711L12.0821 6.7929ZM10.6679 15.7929C10.2774 16.1834 10.2774 16.8166 10.6679 17.2071C11.0584 17.5976 11.6916 17.5976 12.0821 17.2071L10.6679 15.7929ZM20.5 12C20.5 16.4183 16.9183 20 12.5 20V22C18.0228 22 22.5 17.5229 22.5 12H20.5ZM12.5 4C16.9183 4 20.5 7.58172 20.5 12H22.5C22.5 6.47715 18.0228 2 12.5 2V4ZM5.56964 8.00073C6.95439 5.60691 9.54013 4 12.5 4V2C8.79733 2 5.56597 4.01288 3.83843 6.99928L5.56964 8.00073ZM12.5 20C9.54013 20 6.95439 18.3931 5.56964 15.9993L3.83843 17.0007C5.56597 19.9871 8.79733 22 12.5 22V20ZM3.5 13H15.875V11H3.5V13ZM16.5821 11.2929L12.0821 6.7929L10.6679 8.20711L15.1679 12.7071L16.5821 11.2929ZM15.1679 11.2929L10.6679 15.7929L12.0821 17.2071L16.5821 12.7071L15.1679 11.2929Z" fill="currentColor"/>
</svg>
