<svg width="18" height="14" viewBox="0 0 18 14" fill="none" xmlns="http://www.w3.org/2000/svg">
  <path
    d="M14.8333 0.333374H3.16663C2.50358 0.333374 1.8677 0.596766 1.39886 1.06561C0.930018 1.53445 0.666626 2.17033 0.666626 2.83337V11.1667C0.666626 11.8297 0.930018 12.4656 1.39886 12.9345C1.8677 13.4033 2.50358 13.6667 3.16663 13.6667H14.8333C15.4963 13.6667 16.1322 13.4033 16.6011 12.9345C17.0699 12.4656 17.3333 11.8297 17.3333 11.1667V2.83337C17.3333 2.17033 17.0699 1.53445 16.6011 1.06561C16.1322 0.596766 15.4963 0.333374 14.8333 0.333374ZM3.16663 2.00004H14.8333C15.0543 2.00004 15.2663 2.08784 15.4225 2.24412C15.5788 2.4004 15.6666 2.61236 15.6666 2.83337L8.99996 6.90004L2.33329 2.83337C2.33329 2.61236 2.42109 2.4004 2.57737 2.24412C2.73365 2.08784 2.94561 2.00004 3.16663 2.00004ZM15.6666 11.1667C15.6666 11.3877 15.5788 11.5997 15.4225 11.756C15.2663 11.9122 15.0543 12 14.8333 12H3.16663C2.94561 12 2.73365 11.9122 2.57737 11.756C2.42109 11.5997 2.33329 11.3877 2.33329 11.1667V4.73337L8.56663 8.54171C8.69331 8.61485 8.83701 8.65335 8.98329 8.65335C9.12957 8.65335 9.27328 8.61485 9.39996 8.54171L15.6666 4.73337V11.1667Z"
    fill="currentColor"/>
</svg>
