<svg width="25" height="24" viewBox="0 0 25 24" fill="none" xmlns="http://www.w3.org/2000/svg">
<path d="M12.5 21L11.7506 21.6621C11.9429 21.8797 12.2202 22.003 12.5106 21.9999C12.801 21.9969 13.0757 21.8677 13.2633 21.646L12.5 21ZM15.5 18L16.1733 18.7393L15.5 18ZM9.5 18L8.81866 18.732L9.5 18ZM16.5 4L16.9713 3.11805V3.11805L16.5 4ZM8.5 4L8.03338 3.11554V3.11554L8.5 4ZM14.5 11C14.5 12.1046 13.6046 13 12.5 13V15C14.7091 15 16.5 13.2091 16.5 11H14.5ZM12.5 13C11.3954 13 10.5 12.1046 10.5 11H8.5C8.5 13.2091 10.2909 15 12.5 15V13ZM10.5 11C10.5 9.89543 11.3954 9 12.5 9V7C10.2909 7 8.5 8.79086 8.5 11H10.5ZM12.5 9C13.6046 9 14.5 9.89543 14.5 11H16.5C16.5 8.79086 14.7091 7 12.5 7V9ZM19.5 10.5C19.5 11.8358 18.9046 13.0307 17.9849 14.1668C17.051 15.3204 15.8859 16.296 14.8267 17.2607L16.1733 18.7393C17.1463 17.8532 18.4813 16.7322 19.5393 15.4252C20.6115 14.1009 21.5 12.4712 21.5 10.5H19.5ZM14.8267 17.2607C13.8031 18.1928 13.0367 18.9589 12.5233 19.4955C12.2665 19.7638 12.073 19.9748 11.942 20.1205C11.8766 20.1934 11.8268 20.2499 11.7926 20.2891C11.7755 20.3088 11.7623 20.3241 11.753 20.3349C11.7483 20.3403 11.7446 20.3447 11.7419 20.3478C11.7405 20.3494 11.7394 20.3507 11.7386 20.3518C11.7381 20.3523 11.7377 20.3527 11.7374 20.3531C11.7373 20.3533 11.7371 20.3534 11.737 20.3536C11.7369 20.3537 11.7369 20.3538 11.7368 20.3538C11.7367 20.3539 11.7367 20.354 12.5 21C13.2633 21.646 13.2633 21.6461 13.2632 21.6462C13.2632 21.6462 13.2631 21.6463 13.2631 21.6463C13.263 21.6464 13.263 21.6464 13.2629 21.6465C13.2629 21.6466 13.2628 21.6466 13.2629 21.6465C13.263 21.6464 13.2633 21.646 13.2639 21.6454C13.265 21.644 13.2672 21.6415 13.2702 21.638C13.2764 21.6308 13.2864 21.6192 13.3002 21.6033C13.328 21.5715 13.3711 21.5225 13.4298 21.4572C13.5471 21.3266 13.7264 21.131 13.9683 20.8783C14.452 20.3728 15.1856 19.6389 16.1733 18.7393L14.8267 17.2607ZM12.5 21C13.2494 20.3379 13.2494 20.3378 13.2493 20.3378C13.2493 20.3377 13.2492 20.3377 13.2492 20.3376C13.249 20.3375 13.2489 20.3374 13.2488 20.3372C13.2485 20.3369 13.2482 20.3365 13.2478 20.3361C13.247 20.3352 13.2459 20.334 13.2446 20.3325C13.242 20.3296 13.2384 20.3255 13.2338 20.3204C13.2246 20.31 13.2114 20.2953 13.1941 20.2762C13.1596 20.2379 13.1091 20.1824 13.0428 20.1106C12.9102 19.9669 12.7143 19.758 12.4567 19.4916C11.9415 18.959 11.179 18.1967 10.1813 17.268L8.81866 18.732C9.78886 19.6351 10.5264 20.3727 11.0192 20.8822C11.2656 21.1369 11.4507 21.3345 11.5732 21.4671C11.6344 21.5334 11.6799 21.5835 11.7095 21.6163C11.7243 21.6327 11.7352 21.6448 11.742 21.6525C11.7455 21.6563 11.7479 21.6591 11.7493 21.6607C11.75 21.6615 11.7505 21.662 11.7507 21.6622C11.7508 21.6623 11.7508 21.6624 11.7508 21.6624C11.7508 21.6624 11.7508 21.6623 11.7508 21.6623C11.7507 21.6623 11.7507 21.6622 11.7507 21.6622C11.7506 21.6622 11.7506 21.6621 12.5 21ZM10.1813 17.268C9.13487 16.2939 7.97359 15.3241 7.02991 14.1647C6.10259 13.0255 5.5 11.8317 5.5 10.5H3.5C3.5 12.4752 4.40322 14.106 5.47882 15.4273C6.53805 16.7286 7.87677 17.8552 8.81866 18.732L10.1813 17.268ZM12.5 4C13.7648 4 14.9566 4.309 16.0287 4.88195L16.9713 3.11805C15.6134 2.39237 14.0985 2 12.5 2V4ZM16.0287 4.88195C18.1074 5.99286 19.5 8.17006 19.5 10.5H21.5C21.5 7.37632 19.6503 4.54972 16.9713 3.11805L16.0287 4.88195ZM8.96662 4.88446C10.0355 4.32052 11.2538 4 12.5 4V2C10.9133 2 9.37609 2.40715 8.03338 3.11554L8.96662 4.88446ZM5.5 10.5C5.5 8.14984 6.87529 5.9878 8.96662 4.88446L8.03338 3.11554C5.32618 4.54381 3.5 7.36355 3.5 10.5H5.5Z" fill="currentColor"/>
</svg>
