<svg width="18" height="18" viewBox="0 0 18 18" fill="none" xmlns="http://www.w3.org/2000/svg">
<path d="M9.00008 0.666687C7.35191 0.666687 5.74074 1.15543 4.37033 2.07111C2.99992 2.98679 1.93182 4.28827 1.30109 5.81099C0.670359 7.33371 0.505331 9.00926 0.826874 10.6258C1.14842 12.2423 1.94209 13.7271 3.10753 14.8926C4.27297 16.058 5.75782 16.8517 7.37433 17.1732C8.99084 17.4948 10.6664 17.3297 12.1891 16.699C13.7118 16.0683 15.0133 15.0002 15.929 13.6298C16.8447 12.2594 17.3334 10.6482 17.3334 9.00002C17.3334 7.90567 17.1179 6.82204 16.6991 5.81099C16.2803 4.79994 15.6665 3.88129 14.8926 3.10746C14.1188 2.33364 13.2002 1.71981 12.1891 1.30102C11.1781 0.882235 10.0944 0.666687 9.00008 0.666687ZM9.00008 15.6667C7.68154 15.6667 6.39261 15.2757 5.29628 14.5432C4.19996 13.8106 3.34547 12.7694 2.84089 11.5512C2.3363 10.3331 2.20428 8.99263 2.46152 7.69942C2.71875 6.40621 3.35369 5.21833 4.28604 4.28598C5.21839 3.35363 6.40628 2.71869 7.69948 2.46145C8.99269 2.20422 10.3331 2.33624 11.5513 2.84082C12.7695 3.34541 13.8107 4.19989 14.5432 5.29622C15.2758 6.39255 15.6668 7.68148 15.6668 9.00002C15.6668 10.7681 14.9644 12.4638 13.7141 13.7141C12.4639 14.9643 10.7682 15.6667 9.00008 15.6667ZM12.3334 8.16669H9.83342V5.66669C9.83342 5.44567 9.74562 5.23371 9.58934 5.07743C9.43306 4.92115 9.2211 4.83335 9.00008 4.83335C8.77907 4.83335 8.56711 4.92115 8.41083 5.07743C8.25455 5.23371 8.16675 5.44567 8.16675 5.66669V8.16669H5.66675C5.44574 8.16669 5.23378 8.25449 5.0775 8.41077C4.92122 8.56705 4.83342 8.77901 4.83342 9.00002C4.83342 9.22103 4.92122 9.433 5.0775 9.58928C5.23378 9.74556 5.44574 9.83335 5.66675 9.83335H8.16675V12.3334C8.16675 12.5544 8.25455 12.7663 8.41083 12.9226C8.56711 13.0789 8.77907 13.1667 9.00008 13.1667C9.2211 13.1667 9.43306 13.0789 9.58934 12.9226C9.74562 12.7663 9.83342 12.5544 9.83342 12.3334V9.83335H12.3334C12.5544 9.83335 12.7664 9.74556 12.9227 9.58928C13.079 9.433 13.1668 9.22103 13.1668 9.00002C13.1668 8.77901 13.079 8.56705 12.9227 8.41077C12.7664 8.25449 12.5544 8.16669 12.3334 8.16669Z" fill="#246FFF"/>
</svg>
