<svg width="25" height="24" viewBox="0 0 25 24" fill="none" xmlns="http://www.w3.org/2000/svg">
<path d="M4.5 7L4.05279 6.10557C3.714 6.27497 3.5 6.62123 3.5 7H4.5ZM12.5 3L12.9472 2.10557C12.6657 1.96481 12.3343 1.96481 12.0528 2.10557L12.5 3ZM20.5 7H21.5C21.5 6.62123 21.286 6.27497 20.9472 6.10557L20.5 7ZM20.5 16L21.03 16.848C21.3224 16.6653 21.5 16.3448 21.5 16H20.5ZM12.5 21L11.97 21.848C12.2943 22.0507 12.7057 22.0507 13.03 21.848L12.5 21ZM4.5 16H3.5C3.5 16.3448 3.67762 16.6653 3.97 16.848L4.5 16ZM4.94721 7.89443L12.9472 3.89443L12.0528 2.10557L4.05279 6.10557L4.94721 7.89443ZM19.5 7V16H21.5V7H19.5ZM19.97 15.152L11.97 20.152L13.03 21.848L21.03 16.848L19.97 15.152ZM13.03 20.152L5.03 15.152L3.97 16.848L11.97 21.848L13.03 20.152ZM5.5 16V7H3.5V16H5.5ZM20.0528 6.10557L12.0528 10.1056L12.9472 11.8944L20.9472 7.89443L20.0528 6.10557ZM11.5 11L11.5 21H13.5L13.5 11L11.5 11ZM4.05279 7.89443L8.05279 9.89443L8.94721 8.10557L4.94721 6.10557L4.05279 7.89443ZM8.05279 9.89443L12.0528 11.8944L12.9472 10.1056L8.94721 8.10557L8.05279 9.89443ZM12.0528 3.89443L16.0528 5.89443L16.9472 4.10557L12.9472 2.10557L12.0528 3.89443ZM16.0528 5.89443L20.0528 7.89443L20.9472 6.10557L16.9472 4.10557L16.0528 5.89443ZM16.0528 4.10557L8.05279 8.10557L8.94721 9.89443L16.9472 5.89443L16.0528 4.10557Z" fill="#111111"/>
</svg>
