<svg width="25" height="24" viewBox="0 0 25 24" fill="none" xmlns="http://www.w3.org/2000/svg">
<path d="M14.5 10C14.5 11.1046 13.6045 12.0001 12.4999 12.0001V14.0001C14.7091 14.0001 16.5 12.2092 16.5 10H14.5ZM12.4999 12.0001C11.3953 12.0001 10.4998 11.1046 10.4998 10H8.49984C8.49984 12.2092 10.2907 14.0001 12.4999 14.0001V12.0001ZM10.4998 10C10.4998 8.8954 11.3953 7.99994 12.4999 7.99994V5.99994C10.2907 5.99994 8.49984 7.79083 8.49984 10H10.4998ZM12.4999 7.99994C13.6045 7.99994 14.5 8.8954 14.5 10H16.5C16.5 7.79083 14.7091 5.99994 12.4999 5.99994V7.99994ZM20.5 11.9999C20.5 16.4182 16.9183 19.9999 12.5 19.9999V21.9999C18.0228 21.9999 22.5 17.5227 22.5 11.9999H20.5ZM12.5 19.9999C8.08172 19.9999 4.5 16.4182 4.5 11.9999H2.5C2.5 17.5227 6.97715 21.9999 12.5 21.9999V19.9999ZM4.5 11.9999C4.5 7.5816 8.08172 3.99988 12.5 3.99988V1.99988C6.97715 1.99988 2.5 6.47703 2.5 11.9999H4.5ZM12.5 3.99988C16.9183 3.99988 20.5 7.5816 20.5 11.9999H22.5C22.5 6.47703 18.0228 1.99988 12.5 1.99988V3.99988ZM12.4999 14.0001C15.2164 14.0001 17.5137 15.8062 18.2516 18.2852L20.1685 17.7147C19.1851 14.411 16.1253 12.0001 12.4999 12.0001V14.0001ZM6.7484 18.2852C7.4863 15.8062 9.78348 14.0001 12.4999 14.0001V12.0001C8.87447 12.0001 5.81486 14.411 4.83151 17.7147L6.7484 18.2852Z" fill="currentColor"/>
</svg>
