<svg width="20" height="20" fill="none" xmlns="http://www.w3.org/2000/svg"><path d="M8.406 11.742c-.036.04-.07.081-.1.125a.632.632 0 0 0-.075.15.533.533 0 0 0-.05.15 1.134 1.134 0 0 0 0 .167.7.7 0 0 0 .066.316.75.75 0 0 0 .45.45.783.783 0 0 0 .634 0 .75.75 0 0 0 .45-.45.833.833 0 0 0 .05-.316.834.834 0 0 0-1.425-.592ZM8.997.667a8.333 8.333 0 1 0 0 16.667 8.333 8.333 0 0 0 0-16.667Zm0 15a6.667 6.667 0 1 1 0-13.334 6.667 6.667 0 0 1 0 13.334Zm0-10.833a2.5 2.5 0 0 0-2.166 1.25.833.833 0 1 0 1.441.833.833.833 0 0 1 1.315-.173.833.833 0 0 1-.59 1.423.833.833 0 0 0-.833.833v.834a.833.833 0 1 0 1.667 0v-.15a2.5 2.5 0 0 0-.834-4.85Z" fill="#B8B8B8"/></svg>
