<svg width="24" height="24" viewBox="0 0 24 24" fill="none" xmlns="http://www.w3.org/2000/svg">
<path d="M7 12C7 11.4477 6.55228 11 6 11C5.44771 11 5 11.4477 5 12L7 12ZM5 19C5 19.5523 5.44771 20 6 20C6.55228 20 7 19.5523 7 19L5 19ZM11 19C11 19.5523 11.4477 20 12 20C12.5523 20 13 19.5523 13 19L11 19ZM13 8C13 7.44772 12.5523 7 12 7C11.4477 7 11 7.44772 11 8L13 8ZM17 19C17 19.5523 17.4477 20 18 20C18.5523 20 19 19.5523 19 19L17 19ZM19 5C19 4.44772 18.5523 4 18 4C17.4477 4 17 4.44772 17 5L19 5ZM5 12L5 19L7 19L7 12L5 12ZM13 19L13 8L11 8L11 19L13 19ZM19 19L19 5L17 5L17 19L19 19Z" fill="currentColor"/>
</svg>
