<svg width="25" height="24" viewBox="0 0 25 24" fill="none" xmlns="http://www.w3.org/2000/svg">
<path d="M2.75 19C2.75 19.4142 3.08579 19.75 3.5 19.75C3.91421 19.75 4.25 19.4142 4.25 19H2.75ZM14.75 19C14.75 19.4142 15.0858 19.75 15.5 19.75C15.9142 19.75 16.25 19.4142 16.25 19H14.75ZM20.75 19C20.75 19.4142 21.0858 19.75 21.5 19.75C21.9142 19.75 22.25 19.4142 22.25 19H20.75ZM16.5 11.25C16.0858 11.25 15.75 11.5858 15.75 12C15.75 12.4142 16.0858 12.75 16.5 12.75V11.25ZM4.25 19V18H2.75V19H4.25ZM14.75 18V19H16.25V18H14.75ZM9.5 12.75C12.3995 12.75 14.75 15.1005 14.75 18H16.25C16.25 14.2721 13.2279 11.25 9.5 11.25V12.75ZM4.25 18C4.25 15.1005 6.60051 12.75 9.5 12.75V11.25C5.77208 11.25 2.75 14.2721 2.75 18H4.25ZM11.75 8C11.75 9.24264 10.7426 10.25 9.5 10.25V11.75C11.5711 11.75 13.25 10.0711 13.25 8H11.75ZM9.5 10.25C8.25736 10.25 7.25 9.24264 7.25 8H5.75C5.75 10.0711 7.42893 11.75 9.5 11.75V10.25ZM7.25 8C7.25 6.75736 8.25736 5.75 9.5 5.75V4.25C7.42893 4.25 5.75 5.92893 5.75 8H7.25ZM9.5 5.75C10.7426 5.75 11.75 6.75736 11.75 8H13.25C13.25 5.92893 11.5711 4.25 9.5 4.25V5.75ZM20.75 18V19H22.25V18H20.75ZM16.5 12.75C17.9292 12.75 18.9576 13.3175 19.6483 14.2148C20.3569 15.1354 20.75 16.4597 20.75 18H22.25C22.25 16.2266 21.8 14.5509 20.837 13.2999C19.8561 12.0256 18.3845 11.25 16.5 11.25V12.75Z" fill="#111111"/>
<path d="M14.3793 4.25995C13.9706 4.32713 13.6937 4.71294 13.7609 5.12166C13.8281 5.53039 14.2139 5.80727 14.6226 5.74009L14.3793 4.25995ZM18.5208 8.00002L19.2609 7.87838L18.5208 8.00002ZM16.2464 11.2942C15.8566 11.4342 15.6541 11.8638 15.7942 12.2536C15.9342 12.6434 16.3638 12.8459 16.7536 12.7059L16.2464 11.2942ZM14.6226 5.74009C16.09 5.49891 17.5278 6.58276 17.7808 8.12166L19.2609 7.87838C18.8855 5.59449 16.7348 3.87279 14.3793 4.25995L14.6226 5.74009ZM17.7808 8.12166C18.0194 9.57344 17.3704 10.8904 16.2464 11.2942L16.7536 12.7059C18.7531 11.9875 19.5798 9.81885 19.2609 7.87838L17.7808 8.12166Z" fill="#111111"/>
</svg>
