<svg width="16" height="18" viewBox="0 0 16 18" fill="none" xmlns="http://www.w3.org/2000/svg">
<path d="M6.33333 14C6.55435 14 6.76631 13.9122 6.92259 13.7559C7.07887 13.5997 7.16667 13.3877 7.16667 13.1667V8.16669C7.16667 7.94567 7.07887 7.73371 6.92259 7.57743C6.76631 7.42115 6.55435 7.33335 6.33333 7.33335C6.11232 7.33335 5.90036 7.42115 5.74408 7.57743C5.5878 7.73371 5.5 7.94567 5.5 8.16669V13.1667C5.5 13.3877 5.5878 13.5997 5.74408 13.7559C5.90036 13.9122 6.11232 14 6.33333 14ZM14.6667 4.00002H11.3333V3.16669C11.3333 2.50365 11.0699 1.86776 10.6011 1.39892C10.1323 0.930079 9.49637 0.666687 8.83333 0.666687H7.16667C6.50363 0.666687 5.86774 0.930079 5.3989 1.39892C4.93006 1.86776 4.66667 2.50365 4.66667 3.16669V4.00002H1.33333C1.11232 4.00002 0.900358 4.08782 0.744078 4.2441C0.587797 4.40038 0.5 4.61234 0.5 4.83335C0.5 5.05437 0.587797 5.26633 0.744078 5.42261C0.900358 5.57889 1.11232 5.66669 1.33333 5.66669H2.16667V14.8334C2.16667 15.4964 2.43006 16.1323 2.8989 16.6011C3.36774 17.07 4.00363 17.3334 4.66667 17.3334H11.3333C11.9964 17.3334 12.6323 17.07 13.1011 16.6011C13.5699 16.1323 13.8333 15.4964 13.8333 14.8334V5.66669H14.6667C14.8877 5.66669 15.0996 5.57889 15.2559 5.42261C15.4122 5.26633 15.5 5.05437 15.5 4.83335C15.5 4.61234 15.4122 4.40038 15.2559 4.2441C15.0996 4.08782 14.8877 4.00002 14.6667 4.00002ZM6.33333 3.16669C6.33333 2.94567 6.42113 2.73371 6.57741 2.57743C6.73369 2.42115 6.94565 2.33335 7.16667 2.33335H8.83333C9.05435 2.33335 9.26631 2.42115 9.42259 2.57743C9.57887 2.73371 9.66667 2.94567 9.66667 3.16669V4.00002H6.33333V3.16669ZM12.1667 14.8334C12.1667 15.0544 12.0789 15.2663 11.9226 15.4226C11.7663 15.5789 11.5543 15.6667 11.3333 15.6667H4.66667C4.44565 15.6667 4.23369 15.5789 4.07741 15.4226C3.92113 15.2663 3.83333 15.0544 3.83333 14.8334V5.66669H12.1667V14.8334ZM9.66667 14C9.88768 14 10.0996 13.9122 10.2559 13.7559C10.4122 13.5997 10.5 13.3877 10.5 13.1667V8.16669C10.5 7.94567 10.4122 7.73371 10.2559 7.57743C10.0996 7.42115 9.88768 7.33335 9.66667 7.33335C9.44565 7.33335 9.23369 7.42115 9.07741 7.57743C8.92113 7.73371 8.83333 7.94567 8.83333 8.16669V13.1667C8.83333 13.3877 8.92113 13.5997 9.07741 13.7559C9.23369 13.9122 9.44565 14 9.66667 14Z" fill="#246FFF"/>
</svg>
