<svg width="25" height="24" viewBox="0 0 25 24" fill="none" xmlns="http://www.w3.org/2000/svg">
<path d="M11.5 18C11.5 18.5523 11.9477 19 12.5 19C13.0523 19 13.5 18.5523 13.5 18H11.5ZM12.5 6L13.2071 5.29289C13.0196 5.10536 12.7652 5 12.5 5C12.2348 5 11.9804 5.10536 11.7929 5.29289L12.5 6ZM5.79289 11.2929C5.40237 11.6834 5.40237 12.3166 5.79289 12.7071C6.18342 13.0976 6.81658 13.0976 7.20711 12.7071L5.79289 11.2929ZM17.7929 12.7071C18.1834 13.0976 18.8166 13.0976 19.2071 12.7071C19.5976 12.3166 19.5976 11.6834 19.2071 11.2929L17.7929 12.7071ZM13.5 18L13.5 6L11.5 6L11.5 18H13.5ZM11.7929 5.29289L5.79289 11.2929L7.20711 12.7071L13.2071 6.70711L11.7929 5.29289ZM11.7929 6.70711L17.7929 12.7071L19.2071 11.2929L13.2071 5.29289L11.7929 6.70711Z" fill="currentColor"/>
</svg>
