<svg width="24" height="24" viewBox="0 0 24 24" fill="none" xmlns="http://www.w3.org/2000/svg">
<path d="M5.77778 12C5.77778 11.5705 5.42955 11.2223 5 11.2223C4.57045 11.2223 4.22222 11.5705 4.22222 12H5.77778ZM18 15H18.7778V14.2222H18V15ZM12 5V4.22222V5ZM18.2222 12C18.2222 12.4296 18.5704 12.7778 19 12.7778C19.4296 12.7778 19.7778 12.4296 19.7778 12H18.2222ZM6 9H5.22222V9.77778H6V9ZM14 14.2222C13.5704 14.2222 13.2222 14.5704 13.2222 15C13.2222 15.4296 13.5704 15.7778 14 15.7778V14.2222ZM10 9.77778C10.4296 9.77778 10.7778 9.42955 10.7778 9C10.7778 8.57045 10.4296 8.22222 10 8.22222V9.77778ZM17.2222 19.0001C17.2222 19.4296 17.5704 19.7779 18 19.7779C18.4296 19.7779 18.7778 19.4296 18.7778 19.0001H17.2222ZM6.77778 5C6.77778 4.57045 6.42955 4.22222 6 4.22222C5.57045 4.22222 5.22222 4.57045 5.22222 5H6.77778ZM12 18.2223C8.56357 18.2223 5.77778 15.4365 5.77778 12H4.22222C4.22222 16.2956 7.70445 19.7779 12 19.7779V18.2223ZM17.3144 14.6326C16.2222 16.671 14.2963 18.2223 12 18.2223V19.7779C15.048 19.7779 17.4187 17.7317 18.6856 15.3674L17.3144 14.6326ZM12 5.77778C15.4364 5.77778 18.2222 8.5636 18.2222 12H19.7778C19.7778 7.7045 16.2956 4.22222 12 4.22222V5.77778ZM6.68556 9.36735C7.77777 7.32906 9.70373 5.77778 12 5.77778V4.22222C8.95204 4.22222 6.58136 6.26833 5.31444 8.63265L6.68556 9.36735ZM18 14.2222H14V15.7778H18V14.2222ZM6 9.77778H10V8.22222H6V9.77778ZM17.2222 15V19.0001H18.7778V15H17.2222ZM6.77778 9V5H5.22222V9H6.77778Z" fill="currentColor"/>
</svg>
