<svg width="40" height="40" viewBox="0 0 40 40" fill="none" xmlns="http://www.w3.org/2000/svg">
  <path d="M26.3001 10.9777L27.0199 10.2835V10.2835L26.3001 10.9777ZM26.78 12.916C27.1634 13.3136 27.7964 13.3251 28.194 12.9417C28.5916 12.5584 28.6031 11.9253 28.2197 11.5278L26.78 12.916ZM20.0605 7.3347C19.5092 7.30258 19.0362 7.7235 19.0041 8.27485C18.972 8.8262 19.3929 9.2992 19.9442 9.33132L20.0605 7.3347ZM20.687 8.37289L20.7452 7.37458L20.687 8.37289ZM24.8183 9.74743L24.2691 10.5831L24.8183 9.74743ZM19 31.6663C19 32.2186 19.4477 32.6663 20 32.6663C20.5523 32.6663 21 32.2186 21 31.6663H19ZM20 18.0552L20.7198 17.3611C20.5314 17.1656 20.2715 17.0552 20 17.0552C19.7285 17.0552 19.4686 17.1656 19.2802 17.3611L20 18.0552ZM24.9052 24.5827C25.2885 24.9803 25.9216 24.9918 26.3191 24.6084C26.7167 24.225 26.7282 23.592 26.3448 23.1944L24.9052 24.5827ZM13.6552 23.1944C13.2718 23.592 13.2833 24.225 13.6809 24.6084C14.0784 24.9918 14.7115 24.9803 15.0948 24.5827L13.6552 23.1944ZM10.625 28.7775C11.1773 28.7775 11.625 28.3297 11.625 27.7775C11.625 27.2252 11.1773 26.7775 10.625 26.7775V28.7775ZM10.625 19.0552C11.1773 19.0552 11.625 18.6075 11.625 18.0552C11.625 17.5029 11.1773 17.0552 10.625 17.0552V19.0552ZM29.3 26.7775C28.7477 26.7775 28.3 27.2252 28.3 27.7775C28.3 28.3297 28.7477 28.7775 29.3 28.7775V26.7775ZM29.3782 15.1108C28.8259 15.1108 28.3782 15.5585 28.3782 16.1108C28.3782 16.6631 28.8259 17.1108 29.3782 17.1108V15.1108ZM9.62491 18.0322C9.62491 18.5844 10.0726 19.0322 10.6249 19.0322C11.1772 19.0322 11.6249 18.5844 11.6249 18.0321L9.62491 18.0322ZM20 9.33301C20.5523 9.33301 21 8.88529 21 8.33301C21 7.78072 20.5523 7.33301 20 7.33301V9.33301ZM26.1442 9.41948C25.6703 9.13577 25.0562 9.28991 24.7725 9.76376C24.4888 10.2376 24.643 10.8517 25.1168 11.1354L26.1442 9.41948ZM28.3753 16.1248C28.383 16.677 28.8369 17.1184 29.3892 17.1107C29.9414 17.103 30.3828 16.6491 30.3751 16.0969L28.3753 16.1248ZM25.5802 11.6718L26.78 12.916L28.2197 11.5278L27.0199 10.2835L25.5802 11.6718ZM19.9442 9.33132L20.6288 9.3712L20.7452 7.37458L20.0605 7.3347L19.9442 9.33132ZM20.6288 9.3712C21.9194 9.44638 23.1725 9.8625 24.2691 10.5831L25.3675 8.91172C23.9809 8.00059 22.3898 7.47039 20.7452 7.37458L20.6288 9.3712ZM27.0199 10.2835C26.5201 9.76519 25.966 9.30503 25.3675 8.91172L24.2691 10.5831C24.7428 10.8944 25.1825 11.2594 25.5802 11.6718L27.0199 10.2835ZM21 31.6663V18.0552H19V31.6663H21ZM19.2802 18.7494L24.9052 24.5827L26.3448 23.1944L20.7198 17.3611L19.2802 18.7494ZM19.2802 17.3611L13.6552 23.1944L15.0948 24.5827L20.7198 18.7494L19.2802 17.3611ZM10.625 26.7775H9.6875V28.7775H10.625V26.7775ZM9.6875 19.0552H10.625V17.0552H9.6875V19.0552ZM6 22.9163C6 20.7493 7.68492 19.0552 9.6875 19.0552V17.0552C6.51241 17.0552 4 19.7139 4 22.9163H6ZM9.6875 26.7775C7.68492 26.7775 6 25.0834 6 22.9163H4C4 26.1188 6.51241 28.7775 9.6875 28.7775V26.7775ZM29.375 26.7775H29.3V28.7775H29.375V26.7775ZM34 21.9425C34 24.6468 31.895 26.7775 29.375 26.7775V28.7775C33.0682 28.7775 36 25.6814 36 21.9425H34ZM29.3782 17.1108C31.8964 17.1108 34 19.24 34 21.9425H36C36 18.2053 33.0697 15.1108 29.3782 15.1108V17.1108ZM11.6249 18.0321C11.6249 13.1963 15.4178 9.33301 20 9.33301V7.33301C14.2514 7.33301 9.6249 12.1546 9.62491 18.0322L11.6249 18.0321ZM25.1168 11.1354C25.2666 11.2251 25.5593 11.4772 25.9475 11.9102C26.3172 12.3228 26.7203 12.8392 27.0932 13.3887C27.4671 13.9396 27.7976 14.5047 28.032 15.0135C28.278 15.5473 28.3725 15.9226 28.3753 16.1248L30.3751 16.0969C30.3664 15.4693 30.1292 14.7857 29.8485 14.1765C29.5563 13.5424 29.1654 12.8805 28.7481 12.2656C28.3299 11.6494 27.8722 11.0611 27.4368 10.5754C27.0198 10.1102 26.563 9.67025 26.1442 9.41948L25.1168 11.1354Z" fill="currentColor"/>
</svg>
