<svg width="25" height="24" viewBox="0 0 25 24" fill="none" xmlns="http://www.w3.org/2000/svg">
<path d="M16.28 6.58679L16.9999 5.89265V5.89265L16.28 6.58679ZM16.2801 8.02747C16.6634 8.42503 17.2965 8.43654 17.6941 8.05318C18.0916 7.66982 18.1031 7.03676 17.7198 6.6392L16.2801 8.02747ZM12.5596 4.00169C12.0082 3.96957 11.5352 4.39049 11.5031 4.94184C11.471 5.49319 11.8919 5.96619 12.4433 5.99831L12.5596 4.00169ZM12.9122 5.02393L12.9704 4.02562L12.9704 4.02562L12.9122 5.02393ZM15.391 5.84866L14.8418 6.68437L14.8418 6.68437L15.391 5.84866ZM11.5 19C11.5 19.5523 11.9477 20 12.5 20C13.0523 20 13.5 19.5523 13.5 19H11.5ZM12.5 10.8333L13.2198 10.1392C13.0314 9.94374 12.7715 9.83333 12.5 9.83333C12.2285 9.83333 11.9686 9.94374 11.7802 10.1392L12.5 10.8333ZM15.1552 15.0275C15.5385 15.425 16.1716 15.4365 16.5691 15.0532C16.9667 14.6698 16.9782 14.0368 16.5948 13.6392L15.1552 15.0275ZM8.40516 13.6392C8.0218 14.0368 8.03331 14.6698 8.43086 15.0532C8.82842 15.4365 9.46148 15.425 9.84484 15.0275L8.40516 13.6392ZM6.875 17.6667C7.42728 17.6667 7.875 17.219 7.875 16.6667C7.875 16.1144 7.42728 15.6667 6.875 15.6667V17.6667ZM6.875 11.8333C7.42728 11.8333 7.875 11.3856 7.875 10.8333C7.875 10.281 7.42728 9.83333 6.875 9.83333V11.8333ZM18.08 15.6667C17.5277 15.6667 17.08 16.1144 17.08 16.6667C17.08 17.219 17.5277 17.6667 18.08 17.6667V15.6667ZM18.1269 8.66667C17.5746 8.66667 17.1269 9.11438 17.1269 9.66667C17.1269 10.219 17.5746 10.6667 18.1269 10.6667V8.66667ZM5.87495 10.8195C5.87495 11.3718 6.32266 11.8195 6.87495 11.8195C7.42723 11.8195 7.87495 11.3718 7.87495 10.8195L5.87495 10.8195ZM12.5 6C13.0523 6 13.5 5.55228 13.5 5C13.5 4.44772 13.0523 4 12.5 4V6ZM16.392 5.30869C15.9181 5.02499 15.304 5.17913 15.0203 5.65297C14.7366 6.12681 14.8908 6.74093 15.3646 7.02464L16.392 5.30869ZM17.1252 9.68065C17.1329 10.2329 17.5869 10.6743 18.1391 10.6666C18.6913 10.6589 19.1327 10.205 19.125 9.65275L17.1252 9.68065ZM15.5602 7.28092L16.2801 8.02747L17.7198 6.6392L16.9999 5.89265L15.5602 7.28092ZM12.4433 5.99831L12.854 6.02224L12.9704 4.02562L12.5596 4.00169L12.4433 5.99831ZM12.854 6.02224C13.5575 6.06322 14.2418 6.29008 14.8418 6.68437L15.9401 5.01294C15.0502 4.42816 14.0279 4.08723 12.9704 4.02562L12.854 6.02224ZM16.9999 5.89265C16.6796 5.56047 16.3242 5.26534 15.9401 5.01294L14.8418 6.68437C15.101 6.85469 15.342 7.05465 15.5602 7.28092L16.9999 5.89265ZM13.5 19V10.8333H11.5V19H13.5ZM11.7802 11.5275L15.1552 15.0275L16.5948 13.6392L13.2198 10.1392L11.7802 11.5275ZM11.7802 10.1392L8.40516 13.6392L9.84484 15.0275L13.2198 11.5275L11.7802 10.1392ZM6.875 15.6667H6.3125V17.6667H6.875V15.6667ZM6.3125 11.8333H6.875V9.83333H6.3125V11.8333ZM4.5 13.75C4.5 12.6569 5.34545 11.8333 6.3125 11.8333V9.83333C4.17295 9.83333 2.5 11.6215 2.5 13.75H4.5ZM6.3125 15.6667C5.34545 15.6667 4.5 14.8431 4.5 13.75H2.5C2.5 15.8785 4.17295 17.6667 6.3125 17.6667V15.6667ZM18.125 15.6667H18.08V17.6667H18.125V15.6667ZM20.5 13.1657C20.5 14.5813 19.4023 15.6667 18.125 15.6667V17.6667C20.5756 17.6667 22.5 15.616 22.5 13.1657H20.5ZM18.1269 10.6667C19.4032 10.6667 20.5 11.7511 20.5 13.1657H22.5C22.5 10.7165 20.5764 8.66667 18.1269 8.66667V10.6667ZM7.87495 10.8195C7.87494 8.12633 9.98397 6 12.5 6V4C8.81757 4 5.87494 7.08462 5.87495 10.8195L7.87495 10.8195ZM15.3646 7.02464C15.3641 7.02431 15.3761 7.03164 15.4014 7.05135C15.4259 7.07045 15.4575 7.09696 15.496 7.13204C15.5734 7.20276 15.6664 7.29703 15.7706 7.41332C15.9793 7.64618 16.2102 7.94165 16.4249 8.25802C16.6406 8.57578 16.8268 8.89544 16.9559 9.17567C17.0202 9.31522 17.0652 9.4338 17.0931 9.52903C17.1069 9.57595 17.1153 9.61288 17.1201 9.64032C17.125 9.66816 17.1252 9.68092 17.1252 9.68065L19.125 9.65275C19.1186 9.19114 18.9477 8.71927 18.7724 8.33874C18.5855 7.9332 18.3389 7.51668 18.0798 7.13497C17.8199 6.75187 17.5343 6.38456 17.2599 6.07844C17.004 5.7929 16.6971 5.49137 16.392 5.30869L15.3646 7.02464Z" fill="currentColor"/>
</svg>
