<svg width="200" height="37" viewBox="0 0 200 37" fill="none" xmlns="http://www.w3.org/2000/svg">
<path fill-rule="evenodd" clip-rule="evenodd" d="M20.4267 28.9862C21.3783 28.2557 22.1519 26.8241 22.1519 25.7873V18.2271V10.6632C22.1519 9.62641 21.3783 8.19481 20.4267 7.46425L10.9652 0H0L19.6058 15.0281C20.5574 15.7587 21.3311 17.1903 21.3311 18.2271C21.3311 19.2639 20.5574 20.6955 19.6058 21.426L0 36.4505H10.9652L20.4267 28.9862Z" fill="#246FFF"/>
<path fill-rule="evenodd" clip-rule="evenodd" d="M36.7015 28.9862C37.6531 28.2557 38.4267 26.8241 38.4267 25.7873V18.2271V10.6632C38.4267 9.62641 37.6531 8.19481 36.7015 7.46425L27.24 0H16.2748L35.8806 15.0281C36.8322 15.7587 37.6058 17.1903 37.6058 18.2271C37.6058 19.2639 36.8322 20.6955 35.8806 21.426L16.2748 36.4505H27.24L36.7015 28.9862Z" fill="#246FFF"/>
<path fill-rule="evenodd" clip-rule="evenodd" d="M56.537 3.88894C55.4768 0.72318 53.5308 0 52.6049 0H45.8409V36.4505H51.2543V5.52716L52.7865 9.89207L62.593 36.4505H69.2336L78.9893 9.89207L80.5722 5.77806V36.4505H85.9856V0H79.1998C78.2849 0 76.5313 0.649386 75.4421 3.41297L68.9286 21.9721L65.9151 31.6576L62.9016 21.9721L56.5515 3.87418L56.537 3.88894Z" fill="#111111"/>
<path fill-rule="evenodd" clip-rule="evenodd" d="M102.913 10.8985C95.7718 10.8985 89.9639 16.0145 89.9639 23.9492C89.9639 31.884 95.7718 37 102.913 37C110.105 37 115.913 31.884 115.913 23.9492C115.913 16.0145 110.105 10.8985 102.913 10.8985ZM102.913 32.1466C97.7224 32.1466 95.2567 29.535 95.2567 23.9492C95.2567 18.3635 97.7224 15.7518 102.913 15.7518C108.155 15.7518 110.62 18.3635 110.62 23.9492C110.62 29.535 108.155 32.1466 102.913 32.1466Z" fill="#111111"/>
<path fill-rule="evenodd" clip-rule="evenodd" d="M133.844 10.8985C129.019 10.8985 126.398 13.4552 125.219 17.4675V11.4194H119.982V36.4468H125.219V24.6646C125.219 18.8752 127.887 15.7495 132.048 15.7495C135.384 15.7495 137.439 17.6781 137.439 21.4318V36.4505H142.676V21.0661C142.676 14.4416 139.647 10.8985 133.844 10.8985Z" fill="#111111"/>
<path fill-rule="evenodd" clip-rule="evenodd" d="M153.706 3.67642C153.756 5.9454 152.481 7.23517 150.136 7.23517C147.892 7.23517 146.616 5.9454 146.566 3.67642C146.515 1.4586 147.841 0.274789 150.136 0.274789C152.383 0.271135 153.655 1.4586 153.706 3.67642Z" fill="#111111"/>
<path d="M152.712 11.3564H147.468V36.4505H152.712V11.3564Z" fill="#111111"/>
<path fill-rule="evenodd" clip-rule="evenodd" d="M174.322 16.2227V11.4918H166.833V3.8465H161.601V11.4918H156.42V16.2227H161.601V29.5347C161.601 33.6945 164.321 36.4504 168.423 36.4504H173.553V31.7196H166.833V16.2227H174.322Z" fill="#111111"/>
<path fill-rule="evenodd" clip-rule="evenodd" d="M188.342 10.8985C181.256 10.8985 176.221 16.1698 176.221 24.001C176.221 31.884 181.099 37 188.598 37C193.633 37 198.569 33.2786 199.336 28.7508H194.71C193.582 31.7804 192.092 32.6645 188.649 32.6645C184.027 32.6645 181.92 30.6818 181.562 25.6176H199.949C200 24.6262 200 24.2082 200 23.4239C200.004 15.7518 195.224 10.8985 188.342 10.8985ZM181.617 21.7038C182.081 17.1612 184.286 15.0749 188.397 15.0749C192.661 15.0749 194.56 16.9023 194.764 21.7038H181.617Z" fill="#111111"/>
</svg>
