<svg width="1080" height="1080" viewBox="0 0 1080 1080" fill="none" xmlns="http://www.w3.org/2000/svg">
  <rect width="1080" height="1080" fill="#3C37FF"/>
  <path fill-rule="evenodd" clip-rule="evenodd"
        d="M813.361 681.592C827.498 670.869 838.966 649.903 838.966 634.715V445.282C838.966 430.094 827.454 409.128 813.361 398.405L650.977 272.962H488.242L779.264 493.165C793.402 503.889 804.869 524.854 804.869 540.042C804.869 555.23 793.358 576.196 779.264 586.919L488.242 807.035H650.977L813.361 681.549V681.592Z"
        fill="white"/>
  <path fill-rule="evenodd" clip-rule="evenodd"
        d="M561.737 685.969C575.874 675.246 587.342 654.28 587.342 639.092V440.905C587.342 425.717 575.831 404.751 561.737 394.028L403.773 272.962H241.039L532.017 493.165C546.155 503.889 557.623 524.854 557.623 540.042C557.623 555.23 546.111 576.196 532.017 586.919L241.039 807.035H403.773L561.781 685.925L561.737 685.969Z"
        fill="white"/>
</svg>
