<svg width="1119" height="552" viewBox="0 0 1119 552" fill="none" xmlns="http://www.w3.org/2000/svg">
<g filter="url(#filter0_d_879_41028)">
<rect width="1063" height="552" rx="16" transform="matrix(1 0 0 -1 24 560)" fill="white" shape-rendering="crispEdges"/>
</g>
<path d="M59.1335 216.2H60.1835V226H59.0775V216.97L56.6975 218.72L56.1515 217.754L59.1335 216.2ZM66.0917 216.06C68.3317 216.06 69.9837 217.88 69.9837 221.114C69.9837 224.334 68.3317 226.14 66.0917 226.14C63.8657 226.14 62.2137 224.334 62.2137 221.114C62.2137 217.88 63.8657 216.06 66.0917 216.06ZM66.0917 225.174C67.9537 225.174 68.8217 223.872 68.8217 221.114C68.8217 218.328 67.9537 217.026 66.0917 217.026C64.2437 217.026 63.3757 218.328 63.3757 221.114C63.3757 223.872 64.2437 225.174 66.0917 225.174ZM75.2655 216.06C77.5055 216.06 79.1575 217.88 79.1575 221.114C79.1575 224.334 77.5055 226.14 75.2655 226.14C73.0395 226.14 71.3875 224.334 71.3875 221.114C71.3875 217.88 73.0395 216.06 75.2655 216.06ZM75.2655 225.174C77.1275 225.174 77.9955 223.872 77.9955 221.114C77.9955 218.328 77.1275 217.026 75.2655 217.026C73.4175 217.026 72.5495 218.328 72.5495 221.114C72.5495 223.872 73.4175 225.174 75.2655 225.174ZM91.282 226L88.286 220.582L85.976 222.976V226H84.828V216.2H85.976V221.996L87.558 219.924L90.988 216.2H92.514L89.084 219.742L92.724 226H91.282Z" fill="black" fill-opacity="0.56"/>
<path d="M65.3161 252.2H71.9801V253.18C69.4321 256.12 68.1581 258.36 68.1301 262H66.7581C66.9121 258.388 68.4521 256.064 71.0561 253.18H65.3161V252.2ZM76.2753 255.49C78.1373 255.49 79.3693 256.806 79.3693 258.78C79.3693 260.796 77.9413 262.14 75.8133 262.14C74.1753 262.14 72.6353 261.37 72.2293 259.466L73.3493 259.102C73.5733 260.474 74.4553 261.118 75.7853 261.118C77.4373 261.118 78.2213 260.362 78.2213 258.766C78.2213 257.24 77.5213 256.512 76.0233 256.512C74.9313 256.512 74.0913 257.002 73.6292 258.052L72.5793 257.772L73.0693 252.2H78.8933V253.18H76.3873L74.1053 252.998L73.6713 257.184C74.0353 255.938 75.1553 255.49 76.2753 255.49ZM91.282 262L88.286 256.582L85.976 258.976V262H84.828V252.2H85.976V257.996L87.558 255.924L90.988 252.2H92.514L89.084 255.742L92.724 262H91.282Z" fill="black" fill-opacity="0.56"/>
<rect width="987" height="1" transform="translate(101 221)" fill="black" fill-opacity="0.05"/>
<rect width="987" height="1" transform="translate(101 257)" fill="black" fill-opacity="0.05"/>
<g opacity="0.2" clip-path="url(#clip0_879_41028)">
<path d="M660 265C660 260.582 663.582 257 668 257H688C692.418 257 696 260.582 696 265V365H660V265Z" fill="#1FBCA0"/>
<path d="M804 234C804 229.582 807.582 226 812 226H832C836.418 226 840 229.582 840 234V365H804V234Z" fill="#1FBCA0"/>
</g>
<path d="M1062 373L1014.66 336.508C1014.28 336.213 1013.74 336.233 1013.38 336.555L966.892 378.201C966.427 378.617 965.699 378.512 965.373 377.981L918.208 301.338C918.074 301.121 917.863 300.963 917.617 300.896L870.223 288.06C870.076 288.021 869.941 287.948 869.826 287.848L822.91 246.797C822.438 246.383 821.706 246.502 821.389 247.044L774 328L727.062 436.544C726.695 437.393 725.471 437.331 725.191 436.45L680.61 295.922C680.36 295.134 679.315 294.972 678.839 295.649L630.767 363.911C630.383 364.456 629.584 364.48 629.168 363.96L582.806 306.008C582.398 305.498 581.618 305.51 581.226 306.033L534.187 368.75C534.065 368.913 533.897 369.034 533.704 369.099L486.359 384.88C486.128 384.957 485.876 384.947 485.652 384.852L439.286 365.121C439.1 365.042 438.942 364.909 438.833 364.738L390.751 289.18C390.383 288.601 389.555 288.557 389.126 289.092L342.573 347.284C342.249 347.689 341.669 347.779 341.237 347.491L294.994 316.662C294.476 316.317 293.771 316.524 293.522 317.095L246.873 423.999C246.531 424.783 245.426 424.803 245.055 424.032L198.684 327.425C198.366 326.763 197.461 326.665 196.999 327.236C178.975 349.477 168.827 361.472 150.65 383.914C150.371 384.258 149.894 384.384 149.485 384.215L103 365" stroke="black" stroke-opacity="0.28" stroke-width="2"/>
<circle cx="822" cy="246" r="2" fill="#3B3B3B"/>
<rect x="48" y="96" width="322.333" height="91" rx="16" fill="#F4F4FE"/>
<g opacity="0.2">
<rect x="72" y="121.5" width="40" height="40" rx="12" fill="#3737FF"/>
</g>
<path d="M101.138 143.019C101.134 142.97 101.126 142.921 101.114 142.874L99.1934 137.759C99.543 137.533 99.8304 137.223 100.03 136.858C100.229 136.492 100.333 136.083 100.334 135.667C100.334 135.446 100.246 135.234 100.09 135.077C99.9336 134.921 99.7217 134.833 99.5006 134.833C99.2796 134.833 99.0677 134.921 98.9114 135.077C98.7551 135.234 98.6673 135.446 98.6673 135.667C98.6672 135.852 98.6052 136.033 98.4909 136.179C98.3767 136.326 98.2169 136.43 98.0368 136.475C97.8566 136.52 97.6666 136.504 97.4967 136.429C97.3269 136.354 97.1869 136.224 97.0991 136.061C96.8853 135.681 96.5726 135.366 96.1943 135.15C95.816 134.934 95.3862 134.825 94.9507 134.833H92.834V134C92.834 133.779 92.7462 133.567 92.5899 133.411C92.4336 133.254 92.2217 133.167 92.0007 133.167C91.7796 133.167 91.5677 133.254 91.4114 133.411C91.2551 133.567 91.1673 133.779 91.1673 134V134.833H89.0507C88.6151 134.825 88.1853 134.934 87.807 135.15C87.4287 135.366 87.116 135.681 86.9022 136.061C86.8144 136.224 86.6744 136.354 86.5046 136.429C86.3347 136.504 86.1447 136.52 85.9645 136.475C85.7844 136.43 85.6246 136.326 85.5104 136.179C85.3961 136.033 85.3341 135.852 85.334 135.667C85.334 135.446 85.2462 135.234 85.0899 135.077C84.9336 134.921 84.7217 134.833 84.5007 134.833C84.2796 134.833 84.0677 134.921 83.9114 135.077C83.7551 135.234 83.6673 135.446 83.6673 135.667C83.6679 136.083 83.7725 136.492 83.9717 136.858C84.1709 137.223 84.4583 137.533 84.8079 137.759L82.8873 142.874C82.875 142.921 82.8671 142.97 82.8638 143.019C82.8492 143.067 82.8392 143.117 82.834 143.167C82.834 143.174 82.8362 143.181 82.8363 143.189C82.8365 143.2 82.8388 143.21 82.8395 143.221C82.8525 144.095 83.2088 144.929 83.8315 145.543C84.4542 146.156 85.2932 146.5 86.1673 146.5C87.0414 146.5 87.8805 146.156 88.5031 145.543C89.1258 144.929 89.4821 144.095 89.4951 143.221C89.4958 143.21 89.4981 143.2 89.4984 143.189C89.4984 143.181 89.5007 143.174 89.5007 143.167C89.4954 143.117 89.4855 143.067 89.4708 143.019C89.4675 142.97 89.4597 142.921 89.4474 142.874L87.5245 137.753C87.8777 137.528 88.1683 137.217 88.3695 136.85C88.4422 136.737 88.5435 136.645 88.6631 136.583C88.7827 136.522 88.9164 136.493 89.0507 136.5H91.1673V148.167H88.6673C88.4463 148.167 88.2343 148.254 88.0781 148.411C87.9218 148.567 87.834 148.779 87.834 149C87.834 149.221 87.9218 149.433 88.0781 149.589C88.2343 149.745 88.4463 149.833 88.6673 149.833H95.334C95.555 149.833 95.767 149.745 95.9232 149.589C96.0795 149.433 96.1673 149.221 96.1673 149C96.1673 148.779 96.0795 148.567 95.9232 148.411C95.767 148.254 95.555 148.167 95.334 148.167H92.834V136.5H94.9507C95.0849 136.493 95.2186 136.522 95.3382 136.583C95.4578 136.645 95.5591 136.737 95.6318 136.85C95.833 137.217 96.1236 137.528 96.4767 137.753L94.554 142.874C94.5417 142.921 94.5338 142.97 94.5305 143.019C94.5159 143.067 94.5059 143.117 94.5007 143.167C94.5007 143.174 94.5029 143.181 94.5029 143.189C94.5032 143.2 94.5054 143.21 94.5062 143.221C94.5192 144.095 94.8755 144.929 95.4982 145.543C96.1208 146.156 96.9599 146.5 97.834 146.5C98.7081 146.5 99.5471 146.156 100.17 145.543C100.792 144.929 101.149 144.095 101.162 143.221C101.162 143.21 101.165 143.2 101.165 143.189C101.165 143.181 101.167 143.174 101.167 143.167C101.162 143.117 101.152 143.067 101.138 143.019ZM86.1673 138.88L87.4643 142.333H84.8703L86.1673 138.88ZM87.6029 144C87.4558 144.251 87.2463 144.46 86.9948 144.606C86.7432 144.752 86.4582 144.83 86.1673 144.833C85.8748 144.833 85.5875 144.756 85.3343 144.61C85.081 144.464 84.8707 144.253 84.7244 144H87.6029ZM97.834 138.88L99.131 142.333H96.537L97.834 138.88ZM97.834 144.833C97.5415 144.833 97.2542 144.756 97.0009 144.61C96.7477 144.464 96.5374 144.253 96.3911 144H99.2695C99.1225 144.251 98.913 144.46 98.6614 144.606C98.4099 144.752 98.1248 144.83 97.834 144.833Z" fill="#3737FF"/>
<path d="M137.472 122.8H139.184V134H136.768L132.096 126.336L131.152 124.56V134H129.44V122.8H131.872L136.48 130.416L137.472 132.272V122.8ZM148.689 130C148.689 130.24 148.689 130.368 148.673 130.672H142.945C143.057 132.224 143.713 132.832 145.153 132.832C146.225 132.832 146.689 132.56 147.041 131.632L148.513 132.176C147.969 133.52 146.705 134.16 145.137 134.16C142.801 134.16 141.281 132.592 141.281 130.176C141.281 127.776 142.849 126.16 145.057 126.16C147.201 126.16 148.689 127.648 148.689 130ZM145.073 127.44C143.793 127.44 143.105 128.08 142.961 129.472H147.057C146.993 128 146.401 127.44 145.073 127.44ZM155.168 127.776H152.832V132.544H154.928V134H153.328C152.048 134 151.2 133.152 151.2 131.872V127.776H149.584V126.32H151.2V123.968H152.832V126.32H155.168V127.776ZM164.187 132.688C165.419 132.688 166.059 132.224 166.347 130.736L167.963 131.136C167.467 133.248 166.011 134.16 164.203 134.16C161.819 134.16 160.203 132.56 160.203 130.16C160.203 127.76 161.819 126.16 164.203 126.16C166.059 126.16 167.483 127.12 167.963 129.184L166.347 129.584C166.059 128.096 165.419 127.632 164.187 127.632C162.603 127.632 161.851 128.432 161.851 130.16C161.851 131.888 162.603 132.688 164.187 132.688ZM175.633 126.32H177.265V134H175.633V132.416C175.105 133.52 174.145 134.16 172.865 134.16C170.657 134.16 169.281 132.56 169.281 130.16C169.281 127.76 170.641 126.16 172.801 126.16C174.113 126.16 175.105 126.8 175.633 127.936V126.32ZM173.313 132.672C174.945 132.672 175.713 131.872 175.713 130.16C175.713 128.448 174.945 127.648 173.313 127.648C171.681 127.648 170.929 128.448 170.929 130.16C170.929 131.872 171.681 132.672 173.313 132.672ZM182.403 134.16C180.579 134.16 179.363 133.248 179.075 131.84L180.643 131.376C180.819 132.496 181.379 132.848 182.515 132.848C183.475 132.848 183.987 132.544 183.987 131.936C183.987 131.36 183.763 131.136 182.851 130.976L181.459 130.72C180.211 130.512 179.299 129.856 179.299 128.48C179.299 127.056 180.435 126.16 182.243 126.16C184.019 126.16 185.139 126.88 185.427 128.48L183.923 128.864C183.795 127.664 183.299 127.44 182.307 127.44C181.379 127.44 180.931 127.744 180.931 128.384C180.931 128.912 181.155 129.184 181.891 129.296L183.619 129.6C184.819 129.808 185.603 130.48 185.603 131.712C185.603 133.216 184.387 134.16 182.403 134.16ZM191.756 126.16C193.564 126.16 194.508 127.248 194.508 129.28V134H192.876V129.392C192.876 128.24 192.236 127.648 191.196 127.648C189.9 127.648 189.068 128.608 189.068 130.384V134H187.436V122.8H189.068V128.176C189.436 126.944 190.252 126.16 191.756 126.16ZM201.592 126.32V127.776H199.224V134H197.592V127.776H195.96V126.32H197.592V124.72C197.592 123.44 198.44 122.592 199.72 122.592H201.496V124.048H199.224V126.32H201.592ZM203.186 134V122.8H204.818V134H203.186ZM210.766 126.16C213.006 126.16 214.814 127.728 214.814 130.16C214.814 132.592 213.006 134.16 210.766 134.16C208.542 134.16 206.734 132.592 206.734 130.16C206.734 127.728 208.542 126.16 210.766 126.16ZM210.766 132.672C212.398 132.672 213.166 131.872 213.166 130.16C213.166 128.448 212.398 127.648 210.766 127.648C209.15 127.648 208.382 128.448 208.382 130.16C208.382 131.872 209.15 132.672 210.766 132.672ZM225.699 126.32H227.475L225.267 134H223.427L221.891 129.6L221.475 128.16L221.043 129.616L219.491 134H217.667L215.443 126.32H217.235L218.371 130.992L218.675 132.56L219.123 130.992L220.627 126.32H222.291L223.795 130.976L224.243 132.592L224.563 130.992L225.699 126.32Z" fill="black" fill-opacity="0.56"/>
<path d="M133.2 162.9V161.24C130.42 161.04 128.64 159.42 128.58 156.98H131.14C131.16 158.12 131.9 158.84 133.2 159V154.74L132.56 154.6C130.04 154.06 128.78 152.66 128.78 150.46C128.78 148.12 130.54 146.44 133.2 146.16V144.46H134.74V146.16C137.26 146.42 138.82 148 138.9 150.4H136.42C136.38 149.32 135.78 148.62 134.74 148.4V152.7L135.42 152.86C137.98 153.42 139.14 154.66 139.14 156.78C139.14 159.22 137.42 160.9 134.74 161.2V162.9H133.2ZM133.12 152.34L133.2 152.36V148.38C132 148.58 131.28 149.3 131.28 150.38C131.28 151.44 131.84 152.06 133.12 152.34ZM134.88 155.1L134.74 155.06V158.96C135.94 158.72 136.66 158.02 136.66 157C136.66 155.98 136.08 155.36 134.88 155.1ZM147.627 153.24H151.607V149.26H153.647V153.24H157.627V155.28H153.647V159.28H151.607V155.28H147.627V153.24ZM163.51 148.68H160.31V146.38H165.97V161H163.51V148.68ZM171.605 148.68H168.405V146.38H174.065V161H171.605V148.68ZM180.614 160.12C180.614 161.78 179.414 163.1 177.794 163.3V162.32C178.694 162.16 179.374 161.62 179.374 160.92C179.214 161 179.034 161.04 178.794 161.04C178.014 161.04 177.374 160.46 177.374 159.66C177.374 158.7 177.994 158.06 178.894 158.06C179.894 158.06 180.614 158.88 180.614 160.12ZM183.037 156.86C183.037 155.12 184.017 153.72 185.537 153.14C184.257 152.56 183.557 151.46 183.557 150.04C183.557 147.72 185.617 146.12 188.637 146.12C191.637 146.12 193.657 147.7 193.657 150.08C193.657 151.5 192.937 152.6 191.637 153.14C193.177 153.68 194.177 155.1 194.177 156.86C194.177 159.5 191.997 161.24 188.597 161.24C185.217 161.24 183.037 159.52 183.037 156.86ZM185.877 150.26C185.877 151.48 186.937 152.26 188.597 152.26C190.237 152.26 191.277 151.5 191.277 150.28C191.277 149.06 190.237 148.3 188.597 148.3C186.937 148.3 185.877 149.06 185.877 150.26ZM185.537 156.68C185.537 158.1 186.717 158.98 188.617 158.98C190.477 158.98 191.657 158.1 191.657 156.68C191.657 155.26 190.477 154.38 188.597 154.38C186.717 154.38 185.537 155.26 185.537 156.68ZM198.918 148.68H195.718V146.38H201.378V161H198.918V148.68ZM203.723 146.38H214.223V148.74L208.923 161H206.263L211.663 148.74H203.723V146.38ZM215.574 161.24C214.694 161.24 213.954 160.52 213.954 159.66C213.954 158.78 214.694 158.06 215.574 158.06C216.454 158.06 217.194 158.78 217.194 159.66C217.194 160.52 216.454 161.24 215.574 161.24ZM230.899 158.22H229.119V161H226.699V158.22H219.279V155.98L225.899 146.38H229.119V155.98H230.899V158.22ZM221.999 155.98H226.699V149.14L221.999 155.98ZM232.908 153.72C232.908 149.18 235.348 146.1 239.088 146.1C242.828 146.1 245.288 149.18 245.288 153.72C245.288 158.24 242.968 161.26 239.088 161.26C235.208 161.26 232.908 158.24 232.908 153.72ZM235.428 153.72C235.428 157.1 236.788 159 239.088 159C241.408 159 242.768 157.1 242.768 153.72C242.768 150.26 241.408 148.36 239.088 148.36C236.788 148.36 235.428 150.26 235.428 153.72Z" fill="black"/>
<rect x="394.334" y="96" width="322.333" height="91" rx="16" fill="#EEFBF9"/>
<g opacity="0.2">
<rect x="418.334" y="121.5" width="40" height="40" rx="12" fill="#1FBCA0"/>
</g>
<path d="M438.335 141.5C437.84 141.5 437.357 141.647 436.946 141.921C436.535 142.196 436.214 142.586 436.025 143.043C435.836 143.5 435.786 144.003 435.883 144.488C435.979 144.973 436.217 145.418 436.567 145.768C436.916 146.117 437.362 146.355 437.847 146.452C438.332 146.548 438.835 146.499 439.291 146.31C439.748 146.12 440.139 145.8 440.413 145.389C440.688 144.978 440.835 144.494 440.835 144C440.835 143.337 440.571 142.701 440.102 142.232C439.634 141.763 438.998 141.5 438.335 141.5ZM438.335 144.833C438.17 144.833 438.009 144.784 437.872 144.693C437.735 144.601 437.628 144.471 437.565 144.319C437.502 144.167 437.485 143.999 437.517 143.837C437.549 143.676 437.629 143.527 437.745 143.411C437.862 143.294 438.01 143.215 438.172 143.183C438.334 143.15 438.501 143.167 438.654 143.23C438.806 143.293 438.936 143.4 439.028 143.537C439.119 143.674 439.168 143.835 439.168 144C439.168 144.221 439.08 144.433 438.924 144.589C438.768 144.745 438.556 144.833 438.335 144.833ZM437.743 139.592C437.822 139.667 437.916 139.727 438.018 139.767C438.118 139.811 438.226 139.833 438.335 139.833C438.444 139.833 438.552 139.811 438.651 139.767C438.754 139.727 438.847 139.667 438.926 139.592L440.835 137.717C440.996 137.555 441.087 137.336 441.087 137.108C441.087 136.88 440.996 136.661 440.835 136.5C440.673 136.339 440.454 136.248 440.226 136.248C439.998 136.248 439.779 136.339 439.618 136.5L439.168 136.992V134C439.168 133.779 439.08 133.567 438.924 133.411C438.768 133.254 438.556 133.167 438.335 133.167C438.114 133.167 437.902 133.254 437.745 133.411C437.589 133.567 437.501 133.779 437.501 134V136.992L437.051 136.5C436.89 136.339 436.671 136.248 436.443 136.248C436.215 136.248 435.996 136.339 435.835 136.5C435.673 136.661 435.583 136.88 435.583 137.108C435.583 137.336 435.673 137.555 435.835 137.717L437.743 139.592ZM444.168 144C444.168 143.835 444.119 143.674 444.028 143.537C443.936 143.4 443.806 143.293 443.654 143.23C443.501 143.167 443.334 143.15 443.172 143.183C443.01 143.215 442.862 143.294 442.745 143.411C442.629 143.527 442.549 143.676 442.517 143.837C442.485 143.999 442.502 144.167 442.565 144.319C442.628 144.471 442.735 144.601 442.872 144.693C443.009 144.784 443.17 144.833 443.335 144.833C443.556 144.833 443.768 144.745 443.924 144.589C444.08 144.433 444.168 144.221 444.168 144ZM445.001 138.167H442.501C442.28 138.167 442.068 138.254 441.912 138.411C441.756 138.567 441.668 138.779 441.668 139C441.668 139.221 441.756 139.433 441.912 139.589C442.068 139.745 442.28 139.833 442.501 139.833H445.001C445.222 139.833 445.434 139.921 445.591 140.077C445.747 140.234 445.835 140.446 445.835 140.667V147.333C445.835 147.554 445.747 147.766 445.591 147.923C445.434 148.079 445.222 148.167 445.001 148.167H431.668C431.447 148.167 431.235 148.079 431.079 147.923C430.922 147.766 430.835 147.554 430.835 147.333V140.667C430.835 140.446 430.922 140.234 431.079 140.077C431.235 139.921 431.447 139.833 431.668 139.833H434.168C434.389 139.833 434.601 139.745 434.757 139.589C434.914 139.433 435.001 139.221 435.001 139C435.001 138.779 434.914 138.567 434.757 138.411C434.601 138.254 434.389 138.167 434.168 138.167H431.668C431.005 138.167 430.369 138.43 429.9 138.899C429.431 139.368 429.168 140.004 429.168 140.667V147.333C429.168 147.996 429.431 148.632 429.9 149.101C430.369 149.57 431.005 149.833 431.668 149.833H445.001C445.664 149.833 446.3 149.57 446.769 149.101C447.238 148.632 447.501 147.996 447.501 147.333V140.667C447.501 140.004 447.238 139.368 446.769 138.899C446.3 138.43 445.664 138.167 445.001 138.167ZM432.501 144C432.501 144.165 432.55 144.326 432.642 144.463C432.733 144.6 432.863 144.707 433.016 144.77C433.168 144.833 433.336 144.849 433.497 144.817C433.659 144.785 433.807 144.706 433.924 144.589C434.04 144.473 434.12 144.324 434.152 144.163C434.184 144.001 434.168 143.833 434.105 143.681C434.041 143.529 433.935 143.399 433.798 143.307C433.661 143.216 433.499 143.167 433.335 143.167C433.114 143.167 432.902 143.254 432.745 143.411C432.589 143.567 432.501 143.779 432.501 144Z" fill="#0DAA8E"/>
<path d="M475.774 134V122.8H477.486V134H475.774ZM484.496 126.16C486.304 126.16 487.248 127.248 487.248 129.28V134H485.616V129.392C485.616 128.24 484.976 127.648 483.936 127.648C482.64 127.648 481.808 128.608 481.808 130.384V134H480.176V126.32H481.808V128.176C482.176 126.944 482.992 126.16 484.496 126.16ZM493.068 132.688C494.3 132.688 494.94 132.224 495.228 130.736L496.844 131.136C496.348 133.248 494.892 134.16 493.084 134.16C490.7 134.16 489.084 132.56 489.084 130.16C489.084 127.76 490.7 126.16 493.084 126.16C494.94 126.16 496.364 127.12 496.844 129.184L495.228 129.584C494.94 128.096 494.3 127.632 493.068 127.632C491.484 127.632 490.732 128.432 490.732 130.16C490.732 131.888 491.484 132.688 493.068 132.688ZM502.194 126.16C504.434 126.16 506.242 127.728 506.242 130.16C506.242 132.592 504.434 134.16 502.194 134.16C499.97 134.16 498.162 132.592 498.162 130.16C498.162 127.728 499.97 126.16 502.194 126.16ZM502.194 132.672C503.826 132.672 504.594 131.872 504.594 130.16C504.594 128.448 503.826 127.648 502.194 127.648C500.578 127.648 499.81 128.448 499.81 130.16C499.81 131.872 500.578 132.672 502.194 132.672ZM517.904 126.16C519.712 126.16 520.656 127.28 520.656 129.36V134H519.024V129.456C519.024 128.256 518.4 127.648 517.36 127.648C515.904 127.648 515.216 128.736 515.216 130.784V134H513.584V129.392C513.584 128.24 512.944 127.648 511.904 127.648C510.608 127.648 509.776 128.608 509.776 130.384V134H508.144V126.32H509.776V128.176C510.144 126.944 510.96 126.16 512.464 126.16C513.936 126.16 514.832 126.88 515.12 128.224C515.568 126.88 516.496 126.16 517.904 126.16ZM529.898 130C529.898 130.24 529.898 130.368 529.882 130.672H524.154C524.266 132.224 524.922 132.832 526.362 132.832C527.434 132.832 527.898 132.56 528.25 131.632L529.722 132.176C529.178 133.52 527.914 134.16 526.346 134.16C524.01 134.16 522.49 132.592 522.49 130.176C522.49 127.776 524.058 126.16 526.266 126.16C528.41 126.16 529.898 127.648 529.898 130ZM526.282 127.44C525.002 127.44 524.314 128.08 524.17 129.472H528.266C528.202 128 527.61 127.44 526.282 127.44Z" fill="black" fill-opacity="0.56"/>
<path d="M479.534 162.9V161.24C476.754 161.04 474.974 159.42 474.914 156.98H477.474C477.494 158.12 478.234 158.84 479.534 159V154.74L478.894 154.6C476.374 154.06 475.114 152.66 475.114 150.46C475.114 148.12 476.874 146.44 479.534 146.16V144.46H481.074V146.16C483.594 146.42 485.154 148 485.234 150.4H482.754C482.714 149.32 482.114 148.62 481.074 148.4V152.7L481.754 152.86C484.314 153.42 485.474 154.66 485.474 156.78C485.474 159.22 483.754 160.9 481.074 161.2V162.9H479.534ZM479.454 152.34L479.534 152.36V148.38C478.334 148.58 477.614 149.3 477.614 150.38C477.614 151.44 478.174 152.06 479.454 152.34ZM481.214 155.1L481.074 155.06V158.96C482.274 158.72 482.994 158.02 482.994 157C482.994 155.98 482.414 155.36 481.214 155.1ZM503.421 160.98L493.281 161V159.08L498.061 155.04C500.041 153.36 500.701 152.4 500.701 151C500.701 149.34 499.801 148.4 498.261 148.4C496.661 148.4 495.661 149.52 495.641 151.4H493.101C493.121 148.2 495.161 146.12 498.261 146.12C501.381 146.12 503.321 147.9 503.321 150.86C503.321 152.9 502.201 154.44 499.981 156.34L497.341 158.6H503.421V160.98ZM516.503 158.22H514.723V161H512.303V158.22H504.883V155.98L511.503 146.38H514.723V155.98H516.503V158.22ZM507.603 155.98H512.303V149.14L507.603 155.98ZM521.86 160.12C521.86 161.78 520.66 163.1 519.04 163.3V162.32C519.94 162.16 520.62 161.62 520.62 160.92C520.46 161 520.28 161.04 520.04 161.04C519.26 161.04 518.62 160.46 518.62 159.66C518.62 158.7 519.24 158.06 520.14 158.06C521.14 158.06 521.86 158.88 521.86 160.12ZM529.148 161.24C526.088 161.24 524.068 159.28 524.068 156.32H526.608C526.608 157.98 527.588 158.96 529.208 158.96C530.928 158.96 532.028 157.84 532.028 156.06C532.028 154.36 531.008 153.2 529.248 153.2C528.128 153.2 527.108 153.76 526.588 154.52L524.328 154.04L526.128 146.38H533.748V148.74H527.968L527.188 151.78C527.888 151.32 528.768 151.06 529.768 151.06C532.688 151.06 534.628 153.04 534.628 155.92C534.628 159.08 532.408 161.24 529.148 161.24ZM538.58 150.68L541.74 146.38H544.66L541.16 151.04C541.52 150.94 541.9 150.88 542.26 150.88C545.28 150.88 547.32 153 547.32 155.96C547.32 159.08 545 161.26 541.88 161.26C538.72 161.26 536.36 158.94 536.36 155.94C536.36 154.18 536.94 152.9 538.58 150.68ZM538.98 155.96C538.98 157.74 540.16 158.98 541.88 158.98C543.54 158.98 544.74 157.74 544.74 155.96C544.74 154.2 543.56 152.98 541.88 152.98C540.14 152.98 538.98 154.2 538.98 155.96ZM547.528 146.38H558.028V148.74L552.728 161H550.068L555.468 148.74H547.528V146.38ZM559.379 161.24C558.499 161.24 557.759 160.52 557.759 159.66C557.759 158.78 558.499 158.06 559.379 158.06C560.259 158.06 560.999 158.78 560.999 159.66C560.999 160.52 560.259 161.24 559.379 161.24ZM574.704 158.22H572.924V161H570.504V158.22H563.084V155.98L569.704 146.38H572.924V155.98H574.704V158.22ZM565.804 155.98H570.504V149.14L565.804 155.98ZM581.636 161.24C578.576 161.24 576.556 159.28 576.556 156.32H579.096C579.096 157.98 580.076 158.96 581.696 158.96C583.416 158.96 584.516 157.84 584.516 156.06C584.516 154.36 583.496 153.2 581.736 153.2C580.616 153.2 579.596 153.76 579.076 154.52L576.816 154.04L578.616 146.38H586.236V148.74H580.456L579.676 151.78C580.376 151.32 581.256 151.06 582.256 151.06C585.176 151.06 587.116 153.04 587.116 155.92C587.116 159.08 584.896 161.24 581.636 161.24Z" fill="black"/>
<rect x="740.666" y="96" width="322.333" height="91" rx="16" fill="#FBF1FC"/>
<g opacity="0.2">
<rect x="764.666" y="121.5" width="40" height="40" rx="12" fill="#A06DC8"/>
</g>
<path d="M783.383 136.5L783.833 136.008V139C783.833 139.221 783.921 139.433 784.077 139.589C784.234 139.745 784.446 139.833 784.667 139.833C784.888 139.833 785.1 139.745 785.256 139.589C785.412 139.433 785.5 139.221 785.5 139V136.008L785.95 136.467C786.026 136.552 786.118 136.621 786.221 136.669C786.325 136.718 786.437 136.744 786.551 136.747C786.665 136.75 786.779 136.73 786.885 136.687C786.99 136.645 787.086 136.581 787.167 136.5C787.245 136.422 787.307 136.33 787.349 136.229C787.391 136.127 787.413 136.018 787.413 135.908C787.413 135.798 787.391 135.689 787.349 135.588C787.307 135.486 787.245 135.394 787.167 135.317L785.258 133.408C785.179 133.332 785.086 133.273 784.983 133.233C784.78 133.15 784.553 133.15 784.35 133.233C784.248 133.273 784.154 133.332 784.075 133.408L782.167 135.283C782.005 135.445 781.915 135.663 781.915 135.892C781.915 136.12 782.005 136.339 782.167 136.5C782.328 136.661 782.547 136.752 782.775 136.752C783.003 136.752 783.222 136.661 783.383 136.5ZM784.667 141.5C784.172 141.5 783.689 141.647 783.278 141.921C782.867 142.196 782.546 142.586 782.357 143.043C782.168 143.5 782.118 144.003 782.215 144.488C782.311 144.973 782.549 145.418 782.899 145.768C783.249 146.117 783.694 146.355 784.179 146.452C784.664 146.548 785.167 146.499 785.623 146.31C786.08 146.12 786.471 145.8 786.745 145.389C787.02 144.978 787.167 144.494 787.167 144C787.167 143.337 786.903 142.701 786.434 142.232C785.966 141.763 785.33 141.5 784.667 141.5ZM784.667 144.833C784.502 144.833 784.341 144.784 784.204 144.693C784.067 144.601 783.96 144.471 783.897 144.319C783.834 144.167 783.817 143.999 783.849 143.837C783.881 143.676 783.961 143.527 784.077 143.411C784.194 143.294 784.342 143.215 784.504 143.183C784.666 143.15 784.833 143.167 784.986 143.23C785.138 143.293 785.268 143.4 785.36 143.537C785.451 143.674 785.5 143.835 785.5 144C785.5 144.221 785.412 144.433 785.256 144.589C785.1 144.745 784.888 144.833 784.667 144.833ZM778.833 144C778.833 144.165 778.882 144.326 778.974 144.463C779.065 144.6 779.195 144.707 779.348 144.77C779.5 144.833 779.668 144.849 779.829 144.817C779.991 144.785 780.139 144.706 780.256 144.589C780.372 144.473 780.452 144.324 780.484 144.163C780.516 144.001 780.5 143.833 780.437 143.681C780.373 143.529 780.267 143.399 780.13 143.307C779.993 143.215 779.831 143.167 779.667 143.167C779.446 143.167 779.234 143.254 779.077 143.411C778.921 143.567 778.833 143.779 778.833 144ZM790.5 144C790.5 143.835 790.451 143.674 790.36 143.537C790.268 143.4 790.138 143.293 789.986 143.23C789.833 143.167 789.666 143.15 789.504 143.183C789.342 143.215 789.194 143.294 789.077 143.411C788.961 143.527 788.881 143.676 788.849 143.837C788.817 143.999 788.834 144.167 788.897 144.319C788.96 144.471 789.067 144.601 789.204 144.693C789.341 144.784 789.502 144.833 789.667 144.833C789.888 144.833 790.1 144.745 790.256 144.589C790.412 144.433 790.5 144.221 790.5 144ZM791.333 138.167H788C787.779 138.167 787.567 138.254 787.411 138.411C787.254 138.567 787.167 138.779 787.167 139C787.167 139.221 787.254 139.433 787.411 139.589C787.567 139.745 787.779 139.833 788 139.833H791.333C791.554 139.833 791.766 139.921 791.923 140.077C792.079 140.234 792.167 140.446 792.167 140.667V147.333C792.167 147.554 792.079 147.766 791.923 147.923C791.766 148.079 791.554 148.167 791.333 148.167H778C777.779 148.167 777.567 148.079 777.411 147.923C777.254 147.766 777.167 147.554 777.167 147.333V140.667C777.167 140.446 777.254 140.234 777.411 140.077C777.567 139.921 777.779 139.833 778 139.833H781.333C781.554 139.833 781.766 139.745 781.923 139.589C782.079 139.433 782.167 139.221 782.167 139C782.167 138.779 782.079 138.567 781.923 138.411C781.766 138.254 781.554 138.167 781.333 138.167H778C777.337 138.167 776.701 138.43 776.232 138.899C775.763 139.368 775.5 140.004 775.5 140.667V147.333C775.5 147.996 775.763 148.632 776.232 149.101C776.701 149.57 777.337 149.833 778 149.833H791.333C791.996 149.833 792.632 149.57 793.101 149.101C793.57 148.632 793.833 147.996 793.833 147.333V140.667C793.833 140.004 793.57 139.368 793.101 138.899C792.632 138.43 791.996 138.167 791.333 138.167Z" fill="#A06DC8"/>
<path d="M829.194 124.352H823.786V127.184H828.89V128.72H823.786V132.448H829.194V134H822.106V122.8H829.194V124.352ZM835.253 130.176L837.973 134H835.989L834.725 131.936L834.229 130.976L833.749 131.92L832.485 134H830.517L833.221 130.176L830.565 126.32H832.549L833.749 128.352L834.261 129.344L834.725 128.4L835.957 126.32H837.941L835.253 130.176ZM843.987 126.16C846.163 126.16 847.523 127.76 847.523 130.16C847.523 132.56 846.147 134.16 843.939 134.16C842.643 134.16 841.683 133.504 841.155 132.384V136.72H839.523V126.32H841.155V127.952C841.683 126.816 842.675 126.16 843.987 126.16ZM843.491 132.672C845.107 132.672 845.875 131.872 845.875 130.16C845.875 128.448 845.107 127.648 843.491 127.648C841.859 127.648 841.091 128.448 841.091 130.16C841.091 131.872 841.859 132.672 843.491 132.672ZM856.246 130C856.246 130.24 856.246 130.368 856.23 130.672H850.502C850.614 132.224 851.27 132.832 852.71 132.832C853.782 132.832 854.246 132.56 854.598 131.632L856.07 132.176C855.526 133.52 854.262 134.16 852.694 134.16C850.358 134.16 848.838 132.592 848.838 130.176C848.838 127.776 850.406 126.16 852.614 126.16C854.758 126.16 856.246 127.648 856.246 130ZM852.63 127.44C851.35 127.44 850.662 128.08 850.518 129.472H854.614C854.55 128 853.958 127.44 852.63 127.44ZM862.453 126.16C864.261 126.16 865.205 127.248 865.205 129.28V134H863.573V129.392C863.573 128.24 862.933 127.648 861.893 127.648C860.597 127.648 859.765 128.608 859.765 130.384V134H858.133V126.32H859.765V128.176C860.133 126.944 860.949 126.16 862.453 126.16ZM870.257 134.16C868.433 134.16 867.217 133.248 866.929 131.84L868.497 131.376C868.673 132.496 869.233 132.848 870.369 132.848C871.329 132.848 871.841 132.544 871.841 131.936C871.841 131.36 871.617 131.136 870.705 130.976L869.313 130.72C868.065 130.512 867.153 129.856 867.153 128.48C867.153 127.056 868.289 126.16 870.097 126.16C871.873 126.16 872.993 126.88 873.281 128.48L871.777 128.864C871.649 127.664 871.153 127.44 870.161 127.44C869.233 127.44 868.785 127.744 868.785 128.384C868.785 128.912 869.009 129.184 869.745 129.296L871.473 129.6C872.673 129.808 873.457 130.48 873.457 131.712C873.457 133.216 872.241 134.16 870.257 134.16ZM882.105 130C882.105 130.24 882.105 130.368 882.089 130.672H876.361C876.473 132.224 877.129 132.832 878.569 132.832C879.641 132.832 880.105 132.56 880.457 131.632L881.929 132.176C881.385 133.52 880.121 134.16 878.553 134.16C876.217 134.16 874.697 132.592 874.697 130.176C874.697 127.776 876.265 126.16 878.473 126.16C880.617 126.16 882.105 127.648 882.105 130ZM878.489 127.44C877.209 127.44 876.521 128.08 876.377 129.472H880.473C880.409 128 879.817 127.44 878.489 127.44ZM886.616 134.16C884.792 134.16 883.576 133.248 883.288 131.84L884.856 131.376C885.032 132.496 885.592 132.848 886.728 132.848C887.688 132.848 888.2 132.544 888.2 131.936C888.2 131.36 887.976 131.136 887.064 130.976L885.672 130.72C884.424 130.512 883.512 129.856 883.512 128.48C883.512 127.056 884.648 126.16 886.456 126.16C888.232 126.16 889.352 126.88 889.64 128.48L888.136 128.864C888.008 127.664 887.512 127.44 886.52 127.44C885.592 127.44 885.144 127.744 885.144 128.384C885.144 128.912 885.368 129.184 886.104 129.296L887.832 129.6C889.032 129.808 889.816 130.48 889.816 131.712C889.816 133.216 888.6 134.16 886.616 134.16Z" fill="black" fill-opacity="0.56"/>
<path d="M825.866 162.9V161.24C823.086 161.04 821.306 159.42 821.246 156.98H823.806C823.826 158.12 824.566 158.84 825.866 159V154.74L825.226 154.6C822.706 154.06 821.446 152.66 821.446 150.46C821.446 148.12 823.206 146.44 825.866 146.16V144.46H827.406V146.16C829.926 146.42 831.486 148 831.566 150.4H829.086C829.046 149.32 828.446 148.62 827.406 148.4V152.7L828.086 152.86C830.646 153.42 831.806 154.66 831.806 156.78C831.806 159.22 830.086 160.9 827.406 161.2V162.9H825.866ZM825.786 152.34L825.866 152.36V148.38C824.666 148.58 823.946 149.3 823.946 150.38C823.946 151.44 824.506 152.06 825.786 152.34ZM827.546 155.1L827.406 155.06V158.96C828.606 158.72 829.326 158.02 829.326 157C829.326 155.98 828.746 155.36 827.546 155.1ZM842.573 148.68H839.373V146.38H845.033V161H842.573V148.68ZM858.121 160.98L847.981 161V159.08L852.761 155.04C854.741 153.36 855.401 152.4 855.401 151C855.401 149.34 854.501 148.4 852.961 148.4C851.361 148.4 850.361 149.52 850.341 151.4H847.801C847.821 148.2 849.861 146.12 852.961 146.12C856.081 146.12 858.021 147.9 858.021 150.86C858.021 152.9 856.901 154.44 854.681 156.34L852.041 158.6H858.121V160.98ZM864.032 160.12C864.032 161.78 862.832 163.1 861.212 163.3V162.32C862.112 162.16 862.792 161.62 862.792 160.92C862.632 161 862.452 161.04 862.212 161.04C861.432 161.04 860.792 160.46 860.792 159.66C860.792 158.7 861.412 158.06 862.312 158.06C863.312 158.06 864.032 158.88 864.032 160.12ZM865.267 146.38H875.767V148.74L870.467 161H867.807L873.207 148.74H865.267V146.38ZM881.935 161.24C878.875 161.24 876.855 159.28 876.855 156.32H879.395C879.395 157.98 880.375 158.96 881.995 158.96C883.715 158.96 884.815 157.84 884.815 156.06C884.815 154.36 883.795 153.2 882.035 153.2C880.915 153.2 879.895 153.76 879.375 154.52L877.115 154.04L878.915 146.38H886.535V148.74H880.755L879.975 151.78C880.675 151.32 881.555 151.06 882.555 151.06C885.475 151.06 887.415 153.04 887.415 155.92C887.415 159.08 885.195 161.24 881.935 161.24ZM889.287 153.72C889.287 149.18 891.727 146.1 895.467 146.1C899.207 146.1 901.667 149.18 901.667 153.72C901.667 158.24 899.347 161.26 895.467 161.26C891.587 161.26 889.287 158.24 889.287 153.72ZM891.807 153.72C891.807 157.1 893.167 159 895.467 159C897.787 159 899.147 157.1 899.147 153.72C899.147 150.26 897.787 148.36 895.467 148.36C893.167 148.36 891.807 150.26 891.807 153.72ZM905.106 161.24C904.226 161.24 903.486 160.52 903.486 159.66C903.486 158.78 904.226 158.06 905.106 158.06C905.986 158.06 906.726 158.78 906.726 159.66C906.726 160.52 905.986 161.24 905.106 161.24ZM908.564 153.72C908.564 149.18 911.004 146.1 914.744 146.1C918.484 146.1 920.944 149.18 920.944 153.72C920.944 158.24 918.624 161.26 914.744 161.26C910.864 161.26 908.564 158.24 908.564 153.72ZM911.084 153.72C911.084 157.1 912.444 159 914.744 159C917.064 159 918.424 157.1 918.424 153.72C918.424 150.26 917.064 148.36 914.744 148.36C912.444 148.36 911.084 150.26 911.084 153.72ZM928.105 161.24C925.045 161.24 923.025 159.28 923.025 156.32H925.565C925.565 157.98 926.545 158.96 928.165 158.96C929.885 158.96 930.985 157.84 930.985 156.06C930.985 154.36 929.965 153.2 928.205 153.2C927.085 153.2 926.065 153.76 925.545 154.52L923.285 154.04L925.085 146.38H932.705V148.74H926.925L926.145 151.78C926.845 151.32 927.725 151.06 928.725 151.06C931.645 151.06 933.585 153.04 933.585 155.92C933.585 159.08 931.365 161.24 928.105 161.24Z" fill="black"/>
<rect x="48" y="32" width="40" height="40" rx="10" fill="#F4F4FE"/>
<path d="M63.8333 55.3333C64.1649 55.3333 64.4828 55.2016 64.7172 54.9672C64.9516 54.7328 65.0833 54.4148 65.0833 54.0833C65.0874 54.0417 65.0874 53.9999 65.0833 53.9583L67.4083 51.6333H67.6H67.7917L69.1333 52.975C69.1333 52.975 69.1333 53.0166 69.1333 53.0416C69.1333 53.3731 69.265 53.6911 69.4994 53.9255C69.7339 54.1599 70.0518 54.2916 70.3833 54.2916C70.7149 54.2916 71.0328 54.1599 71.2672 53.9255C71.5016 53.6911 71.6333 53.3731 71.6333 53.0416V52.975L74.6667 49.9166C74.9139 49.9166 75.1556 49.8433 75.3611 49.706C75.5667 49.5686 75.7269 49.3734 75.8215 49.145C75.9161 48.9166 75.9409 48.6652 75.8926 48.4228C75.8444 48.1803 75.7254 47.9576 75.5505 47.7827C75.3757 47.6079 75.153 47.4889 74.9105 47.4406C74.6681 47.3924 74.4167 47.4172 74.1883 47.5118C73.9599 47.6064 73.7647 47.7666 73.6273 47.9722C73.49 48.1777 73.4167 48.4194 73.4167 48.6666C73.4126 48.7082 73.4126 48.7501 73.4167 48.7916L70.4083 51.8H70.275L68.8333 50.3333C68.8333 50.0018 68.7016 49.6838 68.4672 49.4494C68.2328 49.215 67.9149 49.0833 67.5833 49.0833C67.2518 49.0833 66.9339 49.215 66.6994 49.4494C66.465 49.6838 66.3333 50.0018 66.3333 50.3333L63.8333 52.8333C63.5018 52.8333 63.1839 52.965 62.9494 53.1994C62.715 53.4338 62.5833 53.7518 62.5833 54.0833C62.5833 54.4148 62.715 54.7328 62.9494 54.9672C63.1839 55.2016 63.5018 55.3333 63.8333 55.3333ZM75.0833 58.6666H60.9167V44.5C60.9167 44.2789 60.8289 44.067 60.6726 43.9107C60.5163 43.7544 60.3043 43.6666 60.0833 43.6666C59.8623 43.6666 59.6504 43.7544 59.4941 43.9107C59.3378 44.067 59.25 44.2789 59.25 44.5V59.5C59.25 59.721 59.3378 59.9329 59.4941 60.0892C59.6504 60.2455 59.8623 60.3333 60.0833 60.3333H75.0833C75.3043 60.3333 75.5163 60.2455 75.6726 60.0892C75.8289 59.9329 75.9167 59.721 75.9167 59.5C75.9167 59.2789 75.8289 59.067 75.6726 58.9107C75.5163 58.7544 75.3043 58.6666 75.0833 58.6666Z" fill="#3737FF"/>
<path d="M112.04 56.8C114.58 56.8 115.88 55.7 116.32 52.92L118.96 53.48C118.32 57.18 115.58 59.2 112.04 59.2C108.04 59.2 104.8 56.26 104.8 52C104.8 47.7 108.04 44.8 112.04 44.8C115.58 44.8 118.32 46.82 118.96 50.52L116.32 51.08C115.88 48.3 114.58 47.2 112.04 47.2C109.06 47.2 107.54 48.8 107.54 51.98C107.54 55.18 109.06 56.8 112.04 56.8ZM128.205 49.2H130.745V59H128.205V56.86C127.605 58.36 126.425 59.2 124.805 59.2C122.005 59.2 120.345 57.16 120.345 54.12C120.345 51.04 121.945 49 124.685 49C126.365 49 127.585 49.86 128.205 51.4V49.2ZM125.565 56.9C127.425 56.9 128.285 56 128.285 54.12C128.285 52.2 127.425 51.3 125.565 51.3C123.765 51.3 122.905 52.2 122.905 54.12C122.905 56 123.765 56.9 125.565 56.9ZM136.984 59.2C134.464 59.2 132.944 57.9 132.684 56.3L135.064 55.64C135.224 56.92 135.904 57.26 137.144 57.26C138.124 57.26 138.744 56.92 138.744 56.26C138.744 55.66 138.464 55.36 137.304 55.18L135.664 54.92C133.944 54.64 132.884 53.66 132.884 51.98C132.884 50.1 134.344 49 136.804 49C139.464 49 140.664 50.1 140.984 51.84L138.744 52.38C138.604 51.14 138.124 50.84 136.884 50.84C135.924 50.84 135.444 51.2 135.444 51.86C135.444 52.4 135.704 52.74 136.664 52.88L138.664 53.18C140.284 53.4 141.284 54.38 141.284 55.98C141.284 58 139.684 59.2 136.984 59.2ZM149.111 49C151.431 49 152.611 50.38 152.611 53.14V59H150.071V53.28C150.071 51.96 149.391 51.3 148.171 51.3C146.751 51.3 145.871 52.3 145.871 54.32V59H143.331V45H145.871V51.48C146.351 49.9 147.351 49 149.111 49ZM169.247 47.44H163.067V50.7H168.927V53.12H163.067V59H160.427V45H169.247V47.44ZM171.319 59V45H173.859V59H171.319ZM181.25 49C184.11 49 186.49 50.98 186.49 54.12C186.49 57.24 184.11 59.2 181.25 59.2C178.37 59.2 175.99 57.24 175.99 54.12C175.99 50.98 178.37 49 181.25 49ZM181.25 56.9C183.07 56.9 183.93 56 183.93 54.12C183.93 52.2 183.07 51.3 181.25 51.3C179.41 51.3 178.55 52.2 178.55 54.12C178.55 56 179.41 56.9 181.25 56.9ZM200.269 49.2H202.989L200.149 59H197.409L195.629 53.94L195.109 52.1L194.569 53.96L192.789 59H190.109L187.209 49.2H189.969L191.289 54.84L191.609 56.52L192.049 54.82L193.849 49.2H196.349L198.129 54.82L198.609 56.62L198.949 54.82L200.269 49.2Z" fill="black" fill-opacity="0.84"/>
<path d="M632.46 57.168C629.478 57.168 627.546 55.096 627.546 51.89C627.546 48.712 629.548 46.598 632.544 46.598C634.966 46.598 636.772 48.012 637.122 50.21H635.232C634.882 49.02 633.86 48.32 632.502 48.32C630.612 48.32 629.422 49.692 629.422 51.876C629.422 54.046 630.626 55.446 632.502 55.446C633.888 55.446 634.952 54.718 635.288 53.584H637.15C636.758 55.74 634.882 57.168 632.46 57.168ZM640.425 57H638.717V46.584H640.439V50.98C640.873 50.308 641.685 49.874 642.679 49.874C644.387 49.874 645.283 50.952 645.283 52.744V57H643.575V53.15C643.575 51.988 643.001 51.428 642.133 51.428C641.055 51.428 640.425 52.184 640.425 53.22V57ZM649.299 57.182C647.829 57.182 646.933 56.328 646.933 55.026C646.933 53.752 647.857 52.954 649.495 52.828L651.567 52.674V52.52C651.567 51.582 651.007 51.204 650.139 51.204C649.131 51.204 648.571 51.624 648.571 52.352H647.115C647.115 50.854 648.347 49.874 650.223 49.874C652.085 49.874 653.233 50.882 653.233 52.8V57H651.735L651.609 55.978C651.315 56.692 650.377 57.182 649.299 57.182ZM649.859 55.894C650.909 55.894 651.581 55.264 651.581 54.2V53.836L650.139 53.948C649.075 54.046 648.669 54.396 648.669 54.956C648.669 55.586 649.089 55.894 649.859 55.894ZM659.531 50.056V51.638H658.901C657.669 51.638 656.899 52.296 656.899 53.64V57H655.191V50.098H656.801L656.899 51.106C657.193 50.42 657.851 49.958 658.775 49.958C659.013 49.958 659.251 49.986 659.531 50.056ZM663.592 57H661.884V51.512H660.554V50.084H661.884V47.928H663.592V50.084H664.936V51.512H663.592V57Z" fill="#3737FF"/>
<g clip-path="url(#clip1_879_41028)">
<path d="M679.001 52.8334H675.667C675.446 52.8334 675.234 52.9212 675.078 53.0775C674.922 53.2337 674.834 53.4457 674.834 53.6667V60.3334C674.834 60.5544 674.922 60.7663 675.078 60.9226C675.234 61.0789 675.446 61.1667 675.667 61.1667H679.001C679.222 61.1667 679.434 61.0789 679.59 60.9226C679.746 60.7663 679.834 60.5544 679.834 60.3334V53.6667C679.834 53.4457 679.746 53.2337 679.59 53.0775C679.434 52.9212 679.222 52.8334 679.001 52.8334ZM678.167 59.5H676.501V54.5H678.167V59.5ZM692.334 49.5H689.001C688.78 49.5 688.568 49.5878 688.411 49.7441C688.255 49.9004 688.167 50.1124 688.167 50.3334V60.3334C688.167 60.5544 688.255 60.7663 688.411 60.9226C688.568 61.0789 688.78 61.1667 689.001 61.1667H692.334C692.555 61.1667 692.767 61.0789 692.923 60.9226C693.08 60.7663 693.167 60.5544 693.167 60.3334V50.3334C693.167 50.1124 693.08 49.9004 692.923 49.7441C692.767 49.5878 692.555 49.5 692.334 49.5ZM691.501 59.5H689.834V51.1667H691.501V59.5ZM685.667 42.8334H682.334C682.113 42.8334 681.901 42.9212 681.745 43.0775C681.588 43.2337 681.501 43.4457 681.501 43.6667V60.3334C681.501 60.5544 681.588 60.7663 681.745 60.9226C681.901 61.0789 682.113 61.1667 682.334 61.1667H685.667C685.888 61.1667 686.1 61.0789 686.257 60.9226C686.413 60.7663 686.501 60.5544 686.501 60.3334V43.6667C686.501 43.4457 686.413 43.2337 686.257 43.0775C686.1 42.9212 685.888 42.8334 685.667 42.8334ZM684.834 59.5H683.167V44.5H684.834V59.5Z" fill="#3737FF"/>
</g>
<path d="M740.734 52.814H736.926V57H735.134V46.766H741.462V48.418H736.926V51.204H740.734V52.814ZM743.959 48.698C743.371 48.698 742.909 48.236 742.909 47.662C742.909 47.088 743.371 46.64 743.959 46.64C744.519 46.64 744.981 47.088 744.981 47.662C744.981 48.236 744.519 48.698 743.959 48.698ZM743.105 57V50.084H744.813V57H743.105ZM748.58 57H746.886V46.584H748.58V57ZM753.004 57H751.296V51.512H749.966V50.084H751.296V47.928H753.004V50.084H754.348V51.512H753.004V57ZM758.715 57.182C756.657 57.182 755.215 55.684 755.215 53.542C755.215 51.372 756.629 49.874 758.659 49.874C760.731 49.874 762.047 51.26 762.047 53.416V53.934L756.839 53.948C756.965 55.166 757.609 55.782 758.743 55.782C759.681 55.782 760.297 55.418 760.493 54.76H762.075C761.781 56.272 760.521 57.182 758.715 57.182ZM758.673 51.274C757.665 51.274 757.049 51.82 756.881 52.856H760.353C760.353 51.904 759.695 51.274 758.673 51.274ZM768.034 50.056V51.638H767.404C766.172 51.638 765.402 52.296 765.402 53.64V57H763.694V50.098H765.304L765.402 51.106C765.696 50.42 766.354 49.958 767.278 49.958C767.516 49.958 767.754 49.986 768.034 50.056ZM768.938 54.9H770.562C770.576 55.502 771.024 55.88 771.808 55.88C772.606 55.88 773.04 55.558 773.04 55.054C773.04 54.704 772.858 54.452 772.242 54.312L770.996 54.018C769.75 53.738 769.148 53.15 769.148 52.044C769.148 50.686 770.296 49.874 771.892 49.874C773.446 49.874 774.496 50.77 774.51 52.114H772.886C772.872 51.526 772.48 51.148 771.822 51.148C771.15 51.148 770.758 51.456 770.758 51.974C770.758 52.366 771.066 52.618 771.654 52.758L772.9 53.052C774.062 53.318 774.65 53.85 774.65 54.914C774.65 56.314 773.46 57.182 771.752 57.182C770.03 57.182 768.938 56.258 768.938 54.9ZM782.342 57.182C780.872 57.182 779.976 56.328 779.976 55.026C779.976 53.752 780.9 52.954 782.538 52.828L784.61 52.674V52.52C784.61 51.582 784.05 51.204 783.182 51.204C782.174 51.204 781.614 51.624 781.614 52.352H780.158C780.158 50.854 781.39 49.874 783.266 49.874C785.128 49.874 786.276 50.882 786.276 52.8V57H784.778L784.652 55.978C784.358 56.692 783.42 57.182 782.342 57.182ZM782.902 55.894C783.952 55.894 784.624 55.264 784.624 54.2V53.836L783.182 53.948C782.118 54.046 781.712 54.396 781.712 54.956C781.712 55.586 782.132 55.894 782.902 55.894ZM789.942 57H788.234V50.084H789.816L789.956 50.98C790.39 50.28 791.23 49.874 792.168 49.874C793.904 49.874 794.8 50.952 794.8 52.744V57H793.092V53.15C793.092 51.988 792.518 51.428 791.636 51.428C790.586 51.428 789.942 52.156 789.942 53.276V57ZM799.6 57.182C797.598 57.182 796.352 55.712 796.352 53.57C796.352 51.414 797.612 49.874 799.698 49.874C800.664 49.874 801.518 50.28 801.952 50.966V46.584H803.646V57H802.078L801.966 55.922C801.546 56.72 800.65 57.182 799.6 57.182ZM799.978 55.614C801.168 55.614 801.938 54.76 801.938 53.514C801.938 52.268 801.168 51.4 799.978 51.4C798.788 51.4 798.06 52.282 798.06 53.514C798.06 54.746 798.788 55.614 799.978 55.614ZM811.72 57L808.976 50.084H810.796L812 53.262C812.294 54.088 812.532 54.802 812.616 55.18C812.714 54.746 812.966 54.018 813.26 53.262L814.52 50.084H816.284L813.4 57H811.72ZM818.399 48.698C817.811 48.698 817.349 48.236 817.349 47.662C817.349 47.088 817.811 46.64 818.399 46.64C818.959 46.64 819.421 47.088 819.421 47.662C819.421 48.236 818.959 48.698 818.399 48.698ZM817.545 57V50.084H819.253V57H817.545ZM824.392 57.182C822.334 57.182 820.892 55.684 820.892 53.542C820.892 51.372 822.306 49.874 824.336 49.874C826.408 49.874 827.724 51.26 827.724 53.416V53.934L822.516 53.948C822.642 55.166 823.286 55.782 824.42 55.782C825.358 55.782 825.974 55.418 826.17 54.76H827.752C827.458 56.272 826.198 57.182 824.392 57.182ZM824.35 51.274C823.342 51.274 822.726 51.82 822.558 52.856H826.03C826.03 51.904 825.372 51.274 824.35 51.274ZM830.596 57L828.356 50.084H830.134L831.044 53.052C831.198 53.598 831.338 54.2 831.464 54.844C831.59 54.172 831.716 53.738 831.94 53.052L832.892 50.084H834.628L835.552 53.052C835.636 53.332 835.916 54.368 836 54.83C836.112 54.312 836.336 53.486 836.462 53.052L837.386 50.084H839.192L836.798 57H835.202L834.25 54.004C833.97 53.094 833.816 52.436 833.76 52.086C833.69 52.408 833.564 52.898 833.214 54.032L832.262 57H830.596Z" fill="#3737FF"/>
<path d="M865.766 49.9583L864.191 49.4333L864.933 47.95C865.008 47.7947 865.033 47.6199 865.005 47.4498C864.976 47.2796 864.896 47.1224 864.774 47L862.999 45.225C862.876 45.1017 862.718 45.0201 862.546 44.9917C862.374 44.9633 862.197 44.9895 862.041 45.0666L860.558 45.8083L860.033 44.2333C859.977 44.0691 859.872 43.9263 859.732 43.8248C859.591 43.7232 859.423 43.6679 859.249 43.6666H856.749C856.575 43.6662 856.404 43.7206 856.262 43.8223C856.12 43.924 856.014 44.0678 855.958 44.2333L855.433 45.8083L853.949 45.0666C853.794 44.9914 853.619 44.9663 853.449 44.9947C853.279 45.023 853.122 45.1035 852.999 45.225L851.224 47C851.101 47.1231 851.02 47.2818 850.991 47.4537C850.963 47.6256 850.989 47.8021 851.066 47.9583L851.808 49.4416L850.233 49.9666C850.069 50.0221 849.926 50.1273 849.824 50.2677C849.723 50.4081 849.667 50.5767 849.666 50.75V53.25C849.666 53.4247 849.72 53.5951 849.822 53.7372C849.923 53.8792 850.067 53.9857 850.233 54.0416L851.808 54.5666L851.066 56.05C850.991 56.2052 850.966 56.38 850.994 56.5502C851.022 56.7203 851.103 56.8775 851.224 57L852.999 58.775C853.122 58.8982 853.281 58.9798 853.453 59.0082C853.625 59.0366 853.801 59.0104 853.958 58.9333L855.441 58.1916L855.966 59.7666C856.022 59.9321 856.128 60.0759 856.27 60.1776C856.413 60.2793 856.583 60.3337 856.758 60.3333H859.258C859.432 60.3337 859.603 60.2793 859.745 60.1776C859.887 60.0759 859.993 59.9321 860.049 59.7666L860.574 58.1916L862.058 58.9333C862.212 59.0066 862.385 59.0307 862.553 59.0024C862.722 58.9741 862.878 58.8947 862.999 58.775L864.774 57C864.898 56.8768 864.979 56.7182 865.008 56.5463C865.036 56.3743 865.01 56.1979 864.933 56.0416L864.191 54.5583L865.766 54.0333C865.93 53.9778 866.073 53.8726 866.175 53.7322C866.276 53.5918 866.331 53.4232 866.333 53.25V50.75C866.333 50.5753 866.279 50.4048 866.177 50.2628C866.075 50.1207 865.932 50.0142 865.766 49.9583ZM864.666 52.65L863.666 52.9833C863.436 53.0579 863.225 53.1816 863.048 53.3459C862.87 53.5102 862.731 53.711 862.639 53.9346C862.547 54.1582 862.505 54.3991 862.515 54.6406C862.526 54.8821 862.588 55.1185 862.699 55.3333L863.174 56.2833L862.258 57.2L861.333 56.7C861.119 56.5935 860.885 56.5342 860.646 56.526C860.408 56.5179 860.17 56.5611 859.95 56.6528C859.729 56.7445 859.531 56.8824 859.368 57.0573C859.206 57.2322 859.083 57.44 859.008 57.6666L858.674 58.6666H857.349L857.016 57.6666C856.941 57.4367 856.818 57.2257 856.653 57.0483C856.489 56.871 856.288 56.7315 856.065 56.6395C855.841 56.5475 855.6 56.5053 855.359 56.5158C855.117 56.5262 854.881 56.5891 854.666 56.7L853.716 57.175L852.799 56.2583L853.299 55.3333C853.41 55.1185 853.473 54.8821 853.484 54.6406C853.494 54.3991 853.452 54.1582 853.36 53.9346C853.268 53.711 853.128 53.5102 852.951 53.3459C852.774 53.1816 852.563 53.0579 852.333 52.9833L851.333 52.65V51.35L852.333 51.0166C852.563 50.942 852.774 50.8183 852.951 50.654C853.128 50.4898 853.268 50.2889 853.36 50.0653C853.452 49.8417 853.494 49.6008 853.484 49.3593C853.473 49.1178 853.41 48.8814 853.299 48.6666L852.824 47.7416L853.741 46.825L854.666 47.3C854.881 47.4109 855.117 47.4737 855.359 47.4842C855.6 47.4946 855.841 47.4524 856.065 47.3604C856.288 47.2684 856.489 47.1289 856.653 46.9516C856.818 46.7742 856.941 46.5632 857.016 46.3333L857.349 45.3333H858.649L858.983 46.3333C859.057 46.5632 859.181 46.7742 859.345 46.9516C859.51 47.1289 859.71 47.2684 859.934 47.3604C860.158 47.4524 860.398 47.4946 860.64 47.4842C860.882 47.4737 861.118 47.4109 861.333 47.3L862.283 46.825L863.199 47.7416L862.699 48.6666C862.593 48.8803 862.534 49.1144 862.525 49.353C862.517 49.5917 862.561 49.8292 862.652 50.0497C862.744 50.2702 862.882 50.4684 863.057 50.6309C863.232 50.7934 863.439 50.9164 863.666 50.9916L864.666 51.325V52.65ZM857.999 48.6666C857.34 48.6666 856.696 48.8621 856.147 49.2284C855.599 49.5947 855.172 50.1153 854.92 50.7244C854.667 51.3334 854.601 52.0037 854.73 52.6503C854.859 53.2969 855.176 53.8908 855.642 54.357C856.109 54.8232 856.702 55.1406 857.349 55.2692C857.996 55.3979 858.666 55.3319 859.275 55.0796C859.884 54.8273 860.405 54.4 860.771 53.8519C861.137 53.3037 861.333 52.6592 861.333 52C861.333 51.1159 860.981 50.2681 860.356 49.6429C859.731 49.0178 858.883 48.6666 857.999 48.6666ZM857.999 53.6666C857.67 53.6666 857.347 53.5689 857.073 53.3857C856.799 53.2026 856.586 52.9423 856.46 52.6378C856.333 52.3332 856.3 51.9981 856.365 51.6748C856.429 51.3515 856.588 51.0545 856.821 50.8215C857.054 50.5884 857.351 50.4296 857.674 50.3653C857.998 50.301 858.333 50.334 858.637 50.4602C858.942 50.5863 859.202 50.7999 859.385 51.074C859.568 51.3481 859.666 51.6703 859.666 52C859.666 52.442 859.49 52.8659 859.178 53.1785C858.865 53.491 858.441 53.6666 857.999 53.6666Z" fill="#3737FF"/>
<rect x="892" y="34" width="171" height="36" rx="18" fill="#F4F4FE"/>
<path d="M910.016 57H908.154L911.85 46.766H913.684L917.38 57H915.49L914.664 54.634H910.842L910.016 57ZM912.536 49.818L911.374 53.122H914.146L912.97 49.818C912.886 49.552 912.788 49.244 912.76 49.034C912.718 49.23 912.634 49.538 912.536 49.818ZM918.691 60.206V50.084H920.273L920.385 51.134C920.805 50.336 921.715 49.874 922.765 49.874C924.711 49.874 925.999 51.288 925.999 53.458C925.999 55.614 924.823 57.182 922.765 57.182C921.729 57.182 920.833 56.776 920.399 56.076V60.206H918.691ZM920.413 53.542C920.413 54.788 921.183 55.642 922.359 55.642C923.563 55.642 924.277 54.774 924.277 53.542C924.277 52.31 923.563 51.428 922.359 51.428C921.183 51.428 920.413 52.296 920.413 53.542ZM931.979 50.056V51.638H931.349C930.117 51.638 929.347 52.296 929.347 53.64V57H927.639V50.098H929.249L929.347 51.106C929.641 50.42 930.299 49.958 931.223 49.958C931.461 49.958 931.699 49.986 931.979 50.056ZM939.303 48.376H937.063V46.766H941.025V57H939.303V48.376ZM943.411 54.032V52.52H955.171V54.032H943.411ZM960.119 51.932H958.873V50.77L961.505 48.348H957.249V46.766H963.745V48.194L961.253 50.49C962.821 50.798 964.039 51.946 964.039 53.752C964.039 55.852 962.401 57.182 960.329 57.182C958.327 57.182 956.773 55.95 956.773 53.738H958.537C958.537 54.914 959.265 55.586 960.357 55.586C961.477 55.586 962.219 54.858 962.219 53.724C962.219 52.688 961.547 51.932 960.119 51.932ZM965.345 51.904C965.345 48.726 967.053 46.57 969.671 46.57C972.289 46.57 974.011 48.726 974.011 51.904C974.011 55.068 972.387 57.182 969.671 57.182C966.955 57.182 965.345 55.068 965.345 51.904ZM967.109 51.904C967.109 54.27 968.061 55.6 969.671 55.6C971.295 55.6 972.247 54.27 972.247 51.904C972.247 49.482 971.295 48.152 969.671 48.152C968.061 48.152 967.109 49.482 967.109 51.904ZM977.552 56.384C977.552 57.546 976.712 58.47 975.578 58.61V57.924C976.208 57.812 976.684 57.434 976.684 56.944C976.572 57 976.446 57.028 976.278 57.028C975.732 57.028 975.284 56.622 975.284 56.062C975.284 55.39 975.718 54.942 976.348 54.942C977.048 54.942 977.552 55.516 977.552 56.384ZM990.538 56.986L983.44 57V55.656L986.786 52.828C988.172 51.652 988.634 50.98 988.634 50C988.634 48.838 988.004 48.18 986.926 48.18C985.806 48.18 985.106 48.964 985.092 50.28H983.314C983.328 48.04 984.756 46.584 986.926 46.584C989.11 46.584 990.468 47.83 990.468 49.902C990.468 51.33 989.684 52.408 988.13 53.738L986.282 55.32H990.538V56.986ZM991.922 51.904C991.922 48.726 993.63 46.57 996.248 46.57C998.866 46.57 1000.59 48.726 1000.59 51.904C1000.59 55.068 998.964 57.182 996.248 57.182C993.532 57.182 991.922 55.068 991.922 51.904ZM993.686 51.904C993.686 54.27 994.638 55.6 996.248 55.6C997.872 55.6 998.824 54.27 998.824 51.904C998.824 49.482 997.872 48.152 996.248 48.152C994.638 48.152 993.686 49.482 993.686 51.904ZM1009.21 56.986L1002.12 57V55.656L1005.46 52.828C1006.85 51.652 1007.31 50.98 1007.31 50C1007.31 48.838 1006.68 48.18 1005.6 48.18C1004.48 48.18 1003.78 48.964 1003.77 50.28H1001.99C1002 48.04 1003.43 46.584 1005.6 46.584C1007.79 46.584 1009.14 47.83 1009.14 49.902C1009.14 51.33 1008.36 52.408 1006.81 53.738L1004.96 55.32H1009.21V56.986ZM1018.37 55.054H1017.13V57H1015.43V55.054H1010.24V53.486L1014.87 46.766H1017.13V53.486H1018.37V55.054ZM1012.14 53.486H1015.43V48.698L1012.14 53.486Z" fill="#3737FF"/>
<path d="M1041.17 49.6416C1041.01 49.4864 1040.8 49.3993 1040.58 49.3993C1040.36 49.3993 1040.15 49.4864 1039.99 49.6416L1037 52.5916L1034.05 49.6416C1033.89 49.4864 1033.68 49.3993 1033.46 49.3993C1033.24 49.3993 1033.03 49.4864 1032.88 49.6416C1032.8 49.7191 1032.74 49.8113 1032.69 49.9128C1032.65 50.0144 1032.63 50.1233 1032.63 50.2333C1032.63 50.3433 1032.65 50.4522 1032.69 50.5538C1032.74 50.6553 1032.8 50.7475 1032.88 50.825L1036.41 54.3583C1036.49 54.4364 1036.58 54.4984 1036.68 54.5407C1036.78 54.583 1036.89 54.6048 1037 54.6048C1037.11 54.6048 1037.22 54.583 1037.32 54.5407C1037.42 54.4984 1037.51 54.4364 1037.59 54.3583L1041.17 50.825C1041.25 50.7475 1041.31 50.6553 1041.35 50.5538C1041.39 50.4522 1041.41 50.3433 1041.41 50.2333C1041.41 50.1233 1041.39 50.0144 1041.35 49.9128C1041.31 49.8113 1041.25 49.7191 1041.17 49.6416Z" fill="#3737FF"/>
<defs>
<filter id="filter0_d_879_41028" x="0" y="0" width="1111" height="600" filterUnits="userSpaceOnUse" color-interpolation-filters="sRGB">
<feFlood flood-opacity="0" result="BackgroundImageFix"/>
<feColorMatrix in="SourceAlpha" type="matrix" values="0 0 0 0 0 0 0 0 0 0 0 0 0 0 0 0 0 0 127 0" result="hardAlpha"/>
<feOffset dy="16"/>
<feGaussianBlur stdDeviation="12"/>
<feComposite in2="hardAlpha" operator="out"/>
<feColorMatrix type="matrix" values="0 0 0 0 0 0 0 0 0 0 0 0 0 0 0 0 0 0 0.02 0"/>
<feBlend mode="normal" in2="BackgroundImageFix" result="effect1_dropShadow_879_41028"/>
<feBlend mode="normal" in="SourceGraphic" in2="effect1_dropShadow_879_41028" result="shape"/>
</filter>
<clipPath id="clip0_879_41028">
<rect width="988" height="139" fill="white" transform="translate(104 226)"/>
</clipPath>
<clipPath id="clip1_879_41028">
<rect width="20" height="20" fill="white" transform="translate(674 42)"/>
</clipPath>
</defs>
</svg>
