<svg width="1127" height="172" viewBox="0 0 1127 172" fill="none" xmlns="http://www.w3.org/2000/svg">
<path d="M34.72 67V44.6H43.296C50.688 44.6 55.2 49.08 55.2 55.8C55.2 62.52 50.688 67 43.296 67H34.72ZM38.944 63.16H43.232C48.768 63.16 50.816 61.176 50.816 55.8C50.816 50.424 48.768 48.44 43.232 48.44H38.944V63.16ZM70.1968 51.32H74.2608V67H70.1968V63.576C69.2368 65.976 67.3488 67.32 64.7568 67.32C60.2768 67.32 57.6208 64.056 57.6208 59.192C57.6208 54.264 60.1808 51 64.5648 51C67.2528 51 69.2048 52.376 70.1968 54.84V51.32ZM65.9728 63.64C68.9488 63.64 70.3248 62.2 70.3248 59.192C70.3248 56.12 68.9488 54.68 65.9728 54.68C63.0928 54.68 61.7168 56.12 61.7168 59.192C61.7168 62.2 63.0928 63.64 65.9728 63.64ZM84.2433 67.32C80.2113 67.32 77.7793 65.24 77.3633 62.68L81.1713 61.624C81.4273 63.672 82.5153 64.216 84.4993 64.216C86.0673 64.216 87.0593 63.672 87.0593 62.616C87.0593 61.656 86.6113 61.176 84.7552 60.888L82.1313 60.472C79.3793 60.024 77.6833 58.456 77.6833 55.768C77.6833 52.76 80.0193 51 83.9553 51C88.2113 51 90.1313 52.76 90.6433 55.544L87.0593 56.408C86.8353 54.424 86.0673 53.944 84.0833 53.944C82.5473 53.944 81.7793 54.52 81.7793 55.576C81.7793 56.44 82.1953 56.984 83.7313 57.208L86.9313 57.688C89.5233 58.04 91.1233 59.608 91.1233 62.168C91.1233 65.4 88.5633 67.32 84.2433 67.32ZM103.646 51C107.358 51 109.246 53.208 109.246 57.624V67H105.182V57.848C105.182 55.736 104.094 54.68 102.142 54.68C99.8698 54.68 98.4618 56.28 98.4618 59.512V67H94.3978V44.6H98.4618V54.968C99.2298 52.44 100.83 51 103.646 51ZM123.344 51C127.696 51 130.256 54.264 130.256 59.192C130.256 64.056 127.6 67.32 123.12 67.32C120.56 67.32 118.704 66.008 117.712 63.64V67H113.648V44.6H117.712V54.776C118.704 52.344 120.688 51 123.344 51ZM121.904 63.64C124.816 63.64 126.16 62.2 126.16 59.192C126.16 56.12 124.816 54.68 121.904 54.68C118.928 54.68 117.552 56.12 117.552 59.192C117.552 62.2 118.928 63.64 121.904 63.64ZM140.974 51C145.55 51 149.358 54.168 149.358 59.192C149.358 64.184 145.55 67.32 140.974 67.32C136.366 67.32 132.558 64.184 132.558 59.192C132.558 54.168 136.366 51 140.974 51ZM140.974 63.64C143.886 63.64 145.262 62.2 145.262 59.192C145.262 56.12 143.886 54.68 140.974 54.68C138.03 54.68 136.654 56.12 136.654 59.192C136.654 62.2 138.03 63.64 140.974 63.64ZM164.228 51.32H168.292V67H164.228V63.576C163.268 65.976 161.38 67.32 158.788 67.32C154.308 67.32 151.652 64.056 151.652 59.192C151.652 54.264 154.212 51 158.596 51C161.284 51 163.236 52.376 164.228 54.84V51.32ZM160.004 63.64C162.98 63.64 164.356 62.2 164.356 59.192C164.356 56.12 162.98 54.68 160.004 54.68C157.124 54.68 155.748 56.12 155.748 59.192C155.748 62.2 157.124 63.64 160.004 63.64ZM181.507 51.064C182.083 51.064 182.819 51.064 183.395 51.288V55.128C182.819 54.904 182.307 54.808 181.283 54.808C178.723 54.808 176.931 56.536 176.931 60.504V67H172.867V51.32H176.931V55.768C177.347 53.4 178.499 51.064 181.507 51.064ZM197.353 44.6H201.417V67H197.353V63.576C196.393 65.976 194.505 67.32 191.913 67.32C187.433 67.32 184.777 64.056 184.777 59.192C184.777 54.264 187.337 51 191.721 51C194.409 51 196.361 52.376 197.353 54.84V44.6ZM193.129 63.64C196.105 63.64 197.481 62.2 197.481 59.192C197.481 56.12 196.105 54.68 193.129 54.68C190.249 54.68 188.873 56.12 188.873 59.192C188.873 62.2 190.249 63.64 193.129 63.64Z" fill="black" fill-opacity="0.84"/>
<path d="M950 44C950 39.5817 953.582 36 958 36H1087C1091.42 36 1095 39.5817 1095 44V68C1095 72.4183 1091.42 76 1087 76H958C953.582 76 950 72.4183 950 68V44Z" fill="#3737FF"/>
<path d="M976.672 61.484L981.808 62.668L982.384 62.876L981.744 64.412L974.64 61.276C972.592 60.364 971.056 58.46 971.056 55.868C971.056 52.46 973.632 50.14 976.784 50.14C979.952 50.14 982.464 52.46 982.464 55.868C982.464 58.94 980.16 61.516 977.04 61.516C976.944 61.516 976.864 61.5 976.672 61.484ZM972.816 55.868C972.816 58.636 974.208 60.108 976.784 60.108C979.376 60.108 980.704 58.636 980.704 55.868C980.704 53.148 979.376 51.692 976.784 51.692C974.208 51.692 972.816 53.148 972.816 55.868ZM989.835 53.82H991.467V61.5H989.835V59.644C989.467 60.876 988.651 61.66 987.147 61.66C985.339 61.66 984.395 60.572 984.395 58.54V53.82H986.027V58.428C986.027 59.58 986.667 60.172 987.707 60.172C989.003 60.172 989.835 59.212 989.835 57.436V53.82ZM994.791 52.236C994.087 52.236 993.687 51.836 993.671 51.132C993.655 50.444 994.071 50.076 994.791 50.076C995.495 50.076 995.895 50.444 995.911 51.132C995.927 51.836 995.527 52.236 994.791 52.236ZM993.959 61.5V53.82H995.591V61.5H993.959ZM1001.49 60.188C1002.72 60.188 1003.36 59.724 1003.65 58.236L1005.27 58.636C1004.77 60.748 1003.32 61.66 1001.51 61.66C999.124 61.66 997.508 60.06 997.508 57.66C997.508 55.26 999.124 53.66 1001.51 53.66C1003.36 53.66 1004.79 54.62 1005.27 56.684L1003.65 57.084C1003.36 55.596 1002.72 55.132 1001.49 55.132C999.908 55.132 999.156 55.932 999.156 57.66C999.156 59.388 999.908 60.188 1001.49 60.188ZM1012.49 61.5L1010.28 58.028L1008.81 59.596V61.5H1007.18V50.3H1008.81V58.156L1009.96 56.476L1012.2 53.82H1014.27L1011.31 56.94L1014.46 61.5H1012.49ZM1025.78 53.82H1027.41V61.5H1025.78V59.916C1025.25 61.02 1024.29 61.66 1023.01 61.66C1020.81 61.66 1019.43 60.06 1019.43 57.66C1019.43 55.26 1020.79 53.66 1022.95 53.66C1024.26 53.66 1025.25 54.3 1025.78 55.436V53.82ZM1023.46 60.172C1025.09 60.172 1025.86 59.372 1025.86 57.66C1025.86 55.948 1025.09 55.148 1023.46 55.148C1021.83 55.148 1021.08 55.948 1021.08 57.66C1021.08 59.372 1021.83 60.172 1023.46 60.172ZM1033.32 60.188C1034.55 60.188 1035.19 59.724 1035.48 58.236L1037.1 58.636C1036.6 60.748 1035.14 61.66 1033.34 61.66C1030.95 61.66 1029.34 60.06 1029.34 57.66C1029.34 55.26 1030.95 53.66 1033.34 53.66C1035.19 53.66 1036.62 54.62 1037.1 56.684L1035.48 57.084C1035.19 55.596 1034.55 55.132 1033.32 55.132C1031.74 55.132 1030.98 55.932 1030.98 57.66C1030.98 59.388 1031.74 60.188 1033.32 60.188ZM1043.6 55.276H1041.26V60.044H1043.36V61.5H1041.76C1040.48 61.5 1039.63 60.652 1039.63 59.372V55.276H1038.01V53.82H1039.63V51.468H1041.26V53.82H1043.6V55.276ZM1046.06 52.236C1045.35 52.236 1044.95 51.836 1044.94 51.132C1044.92 50.444 1045.34 50.076 1046.06 50.076C1046.76 50.076 1047.16 50.444 1047.18 51.132C1047.19 51.836 1046.79 52.236 1046.06 52.236ZM1045.22 61.5V53.82H1046.86V61.5H1045.22ZM1052.81 53.66C1055.05 53.66 1056.85 55.228 1056.85 57.66C1056.85 60.092 1055.05 61.66 1052.81 61.66C1050.58 61.66 1048.77 60.092 1048.77 57.66C1048.77 55.228 1050.58 53.66 1052.81 53.66ZM1052.81 60.172C1054.44 60.172 1055.21 59.372 1055.21 57.66C1055.21 55.948 1054.44 55.148 1052.81 55.148C1051.19 55.148 1050.42 55.948 1050.42 57.66C1050.42 59.372 1051.19 60.172 1052.81 60.172ZM1063.08 53.66C1064.88 53.66 1065.83 54.748 1065.83 56.78V61.5H1064.2V56.892C1064.2 55.74 1063.56 55.148 1062.52 55.148C1061.22 55.148 1060.39 56.108 1060.39 57.884V61.5H1058.76V53.82H1060.39V55.676C1060.76 54.444 1061.57 53.66 1063.08 53.66ZM1070.88 61.66C1069.06 61.66 1067.84 60.748 1067.55 59.34L1069.12 58.876C1069.3 59.996 1069.86 60.348 1070.99 60.348C1071.95 60.348 1072.46 60.044 1072.46 59.436C1072.46 58.86 1072.24 58.636 1071.33 58.476L1069.94 58.22C1068.69 58.012 1067.78 57.356 1067.78 55.98C1067.78 54.556 1068.91 53.66 1070.72 53.66C1072.5 53.66 1073.62 54.38 1073.9 55.98L1072.4 56.364C1072.27 55.164 1071.78 54.94 1070.78 54.94C1069.86 54.94 1069.41 55.244 1069.41 55.884C1069.41 56.412 1069.63 56.684 1070.37 56.796L1072.1 57.1C1073.3 57.308 1074.08 57.98 1074.08 59.212C1074.08 60.716 1072.86 61.66 1070.88 61.66Z" fill="white"/>
<g clip-path="url(#clip0_879_40913)">
<rect x="32" y="104" width="88" height="44" rx="10" fill="#F4F4FE"/>
<path d="M54.472 125.876C54.472 128.984 52.428 131.168 49.488 131.168C46.562 131.168 44.546 128.998 44.546 125.876C44.546 122.768 46.576 120.584 49.502 120.584C52.428 120.584 54.472 122.754 54.472 125.876ZM52.582 125.876C52.582 123.692 51.378 122.306 49.502 122.306C47.626 122.306 46.422 123.692 46.422 125.876C46.422 128.06 47.626 129.446 49.502 129.446C51.378 129.446 52.582 128.032 52.582 125.876ZM58.1279 131L55.3839 124.084H57.2039L58.4079 127.262C58.7019 128.088 58.9399 128.802 59.0239 129.18C59.1219 128.746 59.3739 128.018 59.6679 127.262L60.9279 124.084H62.6919L59.8079 131H58.1279ZM66.7059 131.182C64.6479 131.182 63.2059 129.684 63.2059 127.542C63.2059 125.372 64.6199 123.874 66.6499 123.874C68.7219 123.874 70.0379 125.26 70.0379 127.416V127.934L64.8299 127.948C64.9559 129.166 65.5999 129.782 66.7339 129.782C67.6719 129.782 68.2879 129.418 68.4839 128.76H70.0659C69.7719 130.272 68.5119 131.182 66.7059 131.182ZM66.6639 125.274C65.6559 125.274 65.0399 125.82 64.8719 126.856H68.3439C68.3439 125.904 67.6859 125.274 66.6639 125.274ZM76.0249 124.056V125.638H75.3949C74.1629 125.638 73.3929 126.296 73.3929 127.64V131H71.6849V124.098H73.2949L73.3929 125.106C73.6869 124.42 74.3449 123.958 75.2689 123.958C75.5069 123.958 75.7449 123.986 76.0249 124.056ZM79.6261 131L76.8821 124.084H78.7021L79.9061 127.262C80.2001 128.088 80.4381 128.802 80.5221 129.18C80.6201 128.746 80.8721 128.018 81.1661 127.262L82.4261 124.084H84.1901L81.3061 131H79.6261ZM86.3059 122.698C85.7179 122.698 85.2559 122.236 85.2559 121.662C85.2559 121.088 85.7179 120.64 86.3059 120.64C86.8659 120.64 87.3279 121.088 87.3279 121.662C87.3279 122.236 86.8659 122.698 86.3059 122.698ZM85.4519 131V124.084H87.1599V131H85.4519ZM92.2986 131.182C90.2406 131.182 88.7986 129.684 88.7986 127.542C88.7986 125.372 90.2126 123.874 92.2426 123.874C94.3146 123.874 95.6306 125.26 95.6306 127.416V127.934L90.4226 127.948C90.5486 129.166 91.1926 129.782 92.3266 129.782C93.2646 129.782 93.8806 129.418 94.0766 128.76H95.6586C95.3646 130.272 94.1046 131.182 92.2986 131.182ZM92.2566 125.274C91.2486 125.274 90.6326 125.82 90.4646 126.856H93.9366C93.9366 125.904 93.2786 125.274 92.2566 125.274ZM98.5028 131L96.2628 124.084H98.0408L98.9508 127.052C99.1048 127.598 99.2448 128.2 99.3708 128.844C99.4968 128.172 99.6228 127.738 99.8468 127.052L100.799 124.084H102.535L103.459 127.052C103.543 127.332 103.823 128.368 103.907 128.83C104.019 128.312 104.243 127.486 104.369 127.052L105.293 124.084H107.099L104.705 131H103.109L102.157 128.004C101.877 127.094 101.723 126.436 101.667 126.086C101.597 126.408 101.471 126.898 101.121 128.032L100.169 131H98.5028Z" fill="#3737FF"/>
<rect x="32" y="144" width="88" height="4" rx="2" fill="#3737FF"/>
<path d="M160.24 126.16L156.352 120.304H158.784L160.208 122.4C160.688 123.12 161.088 123.792 161.52 124.592L164.24 120.304H166.624L162.8 126.144L166.64 132H164.224L162.912 130.064C162.4 129.28 161.984 128.576 161.52 127.728L158.672 132H156.272L160.24 126.16ZM173.219 124.096H175.171V132H173.363L173.219 130.944C172.739 131.696 171.715 132.208 170.659 132.208C168.835 132.208 167.763 130.976 167.763 129.04V124.096H169.715V128.352C169.715 129.856 170.307 130.464 171.395 130.464C172.627 130.464 173.219 129.744 173.219 128.24V124.096ZM180.887 132.208C178.535 132.208 176.887 130.496 176.887 128.048C176.887 125.568 178.503 123.856 180.823 123.856C183.191 123.856 184.695 125.44 184.695 127.904V128.496L178.743 128.512C178.887 129.904 179.623 130.608 180.919 130.608C181.991 130.608 182.695 130.192 182.919 129.44H184.727C184.391 131.168 182.951 132.208 180.887 132.208ZM180.839 125.456C179.687 125.456 178.983 126.08 178.791 127.264H182.759C182.759 126.176 182.007 125.456 180.839 125.456ZM188.479 121.648C188.479 122.992 187.583 124.032 186.303 124.192V123.424C186.991 123.296 187.487 122.864 187.487 122.304C187.359 122.352 187.215 122.384 187.039 122.384C186.463 122.384 185.999 121.984 185.999 121.28C185.999 120.576 186.479 120.08 187.183 120.08C187.935 120.08 188.479 120.688 188.479 121.648ZM189.352 129.6H191.208C191.224 130.288 191.736 130.72 192.632 130.72C193.544 130.72 194.04 130.352 194.04 129.776C194.04 129.376 193.832 129.088 193.128 128.928L191.704 128.592C190.28 128.272 189.592 127.6 189.592 126.336C189.592 124.784 190.904 123.856 192.728 123.856C194.504 123.856 195.704 124.88 195.72 126.416H193.864C193.848 125.744 193.4 125.312 192.648 125.312C191.88 125.312 191.432 125.664 191.432 126.256C191.432 126.704 191.784 126.992 192.456 127.152L193.88 127.488C195.208 127.792 195.88 128.4 195.88 129.616C195.88 131.216 194.52 132.208 192.568 132.208C190.6 132.208 189.352 131.152 189.352 129.6ZM204.559 132L201.423 124.096H203.503L204.879 127.728C205.215 128.672 205.487 129.488 205.583 129.92C205.695 129.424 205.983 128.592 206.319 127.728L207.759 124.096H209.775L206.479 132H204.559ZM212.193 122.512C211.521 122.512 210.993 121.984 210.993 121.328C210.993 120.672 211.521 120.16 212.193 120.16C212.833 120.16 213.361 120.672 213.361 121.328C213.361 121.984 212.833 122.512 212.193 122.512ZM211.217 132V124.096H213.169V132H211.217ZM219.042 132.208C216.69 132.208 215.042 130.496 215.042 128.048C215.042 125.568 216.658 123.856 218.978 123.856C221.346 123.856 222.85 125.44 222.85 127.904V128.496L216.898 128.512C217.042 129.904 217.778 130.608 219.074 130.608C220.146 130.608 220.85 130.192 221.074 129.44H222.882C222.546 131.168 221.106 132.208 219.042 132.208ZM218.994 125.456C217.842 125.456 217.138 126.08 216.946 127.264H220.914C220.914 126.176 220.162 125.456 218.994 125.456ZM226.132 132L223.572 124.096H225.604L226.644 127.488C226.82 128.112 226.98 128.8 227.124 129.536C227.268 128.768 227.412 128.272 227.668 127.488L228.756 124.096H230.74L231.796 127.488C231.892 127.808 232.212 128.992 232.308 129.52C232.436 128.928 232.692 127.984 232.836 127.488L233.892 124.096H235.956L233.22 132H231.396L230.308 128.576C229.988 127.536 229.812 126.784 229.748 126.384C229.668 126.752 229.524 127.312 229.124 128.608L228.036 132H226.132Z" fill="black" fill-opacity="0.56"/>
<path d="M290.18 127.472H287.926V131H286.134V120.766H290.18C292.238 120.766 293.568 122.11 293.568 124.112C293.568 126.086 292.224 127.472 290.18 127.472ZM289.83 122.362H287.926V125.876H289.802C291.034 125.876 291.692 125.218 291.692 124.098C291.692 122.978 291.02 122.362 289.83 122.362ZM299.443 124.056V125.638H298.813C297.581 125.638 296.811 126.296 296.811 127.64V131H295.103V124.098H296.713L296.811 125.106C297.105 124.42 297.763 123.958 298.687 123.958C298.925 123.958 299.163 123.986 299.443 124.056ZM300.241 127.528C300.241 125.372 301.795 123.888 303.937 123.888C306.079 123.888 307.633 125.372 307.633 127.528C307.633 129.684 306.079 131.168 303.937 131.168C301.795 131.168 300.241 129.684 300.241 127.528ZM301.949 127.528C301.949 128.788 302.761 129.642 303.937 129.642C305.113 129.642 305.925 128.788 305.925 127.528C305.925 126.268 305.113 125.414 303.937 125.414C302.761 125.414 301.949 126.268 301.949 127.528ZM310.121 122.698C309.547 122.698 309.085 122.236 309.085 121.662C309.085 121.088 309.547 120.64 310.121 120.64C310.681 120.64 311.157 121.088 311.157 121.662C311.157 122.236 310.681 122.698 310.121 122.698ZM307.615 134.248L307.895 132.736C308.133 132.806 308.273 132.82 308.483 132.82C309.071 132.82 309.267 132.484 309.267 131.784V124.084H310.975V131.98C310.975 133.45 310.135 134.402 308.637 134.402C308.315 134.402 308.063 134.374 307.615 134.248ZM316.114 131.182C314.056 131.182 312.614 129.684 312.614 127.542C312.614 125.372 314.028 123.874 316.058 123.874C318.13 123.874 319.446 125.26 319.446 127.416V127.934L314.238 127.948C314.364 129.166 315.008 129.782 316.142 129.782C317.08 129.782 317.696 129.418 317.892 128.76H319.474C319.18 130.272 317.92 131.182 316.114 131.182ZM316.072 125.274C315.064 125.274 314.448 125.82 314.28 126.856H317.752C317.752 125.904 317.094 125.274 316.072 125.274ZM320.687 127.528C320.687 125.386 322.101 123.874 324.145 123.874C326.035 123.874 327.323 124.924 327.505 126.59H325.797C325.601 125.806 325.027 125.4 324.215 125.4C323.123 125.4 322.395 126.226 322.395 127.528C322.395 128.83 323.067 129.642 324.159 129.642C325.013 129.642 325.615 129.222 325.797 128.466H327.519C327.309 130.076 325.965 131.182 324.159 131.182C322.059 131.182 320.687 129.726 320.687 127.528ZM331.422 131H329.714V125.512H328.384V124.084H329.714V121.928H331.422V124.084H332.766V125.512H331.422V131ZM340.331 123.118C340.331 123.734 339.911 124.168 339.295 124.168C338.637 124.168 338.161 123.636 338.161 122.796C338.161 121.62 338.945 120.71 340.065 120.57V121.242C339.463 121.354 339.043 121.732 339.043 122.222C339.155 122.18 339.281 122.152 339.435 122.152C339.939 122.152 340.331 122.516 340.331 123.118ZM343.103 123.118C343.103 123.734 342.683 124.168 342.067 124.168C341.409 124.168 340.933 123.636 340.933 122.796C340.933 121.62 341.717 120.71 342.837 120.57V121.242C342.235 121.354 341.801 121.732 341.801 122.236C341.913 122.18 342.039 122.152 342.193 122.152C342.697 122.152 343.103 122.516 343.103 123.118ZM347.184 131H345.392V120.766H349.298C351.622 120.766 352.98 121.942 352.98 123.958C352.98 125.33 352.336 126.31 351.132 126.8L353.078 131H351.118L349.382 127.178H347.184V131ZM347.184 122.362V125.596H349.298C350.432 125.596 351.104 124.994 351.104 123.958C351.104 122.936 350.432 122.362 349.298 122.362H347.184ZM357.401 131.182C355.343 131.182 353.901 129.684 353.901 127.542C353.901 125.372 355.315 123.874 357.345 123.874C359.417 123.874 360.733 125.26 360.733 127.416V127.934L355.525 127.948C355.651 129.166 356.295 129.782 357.429 129.782C358.367 129.782 358.983 129.418 359.179 128.76H360.761C360.467 130.272 359.207 131.182 357.401 131.182ZM357.359 125.274C356.351 125.274 355.735 125.82 355.567 126.856H359.039C359.039 125.904 358.381 125.274 357.359 125.274ZM363.962 131H362.38V120.584H364.088V125.092C364.536 124.322 365.46 123.86 366.51 123.86C368.484 123.86 369.688 125.4 369.688 127.584C369.688 129.712 368.386 131.182 366.398 131.182C365.362 131.182 364.48 130.72 364.074 129.922L363.962 131ZM364.102 127.514C364.102 128.76 364.872 129.614 366.048 129.614C367.252 129.614 367.966 128.746 367.966 127.514C367.966 126.282 367.252 125.4 366.048 125.4C364.872 125.4 364.102 126.268 364.102 127.514ZM375.668 124.056V125.638H375.038C373.806 125.638 373.036 126.296 373.036 127.64V131H371.328V124.098H372.938L373.036 125.106C373.33 124.42 373.988 123.958 374.912 123.958C375.15 123.958 375.388 123.986 375.668 124.056ZM378.889 131.182C377.419 131.182 376.523 130.328 376.523 129.026C376.523 127.752 377.447 126.954 379.085 126.828L381.157 126.674V126.52C381.157 125.582 380.597 125.204 379.729 125.204C378.721 125.204 378.161 125.624 378.161 126.352H376.705C376.705 124.854 377.937 123.874 379.813 123.874C381.675 123.874 382.823 124.882 382.823 126.8V131H381.325L381.199 129.978C380.905 130.692 379.967 131.182 378.889 131.182ZM379.449 129.894C380.499 129.894 381.171 129.264 381.171 128.2V127.836L379.729 127.948C378.665 128.046 378.259 128.396 378.259 128.956C378.259 129.586 378.679 129.894 379.449 129.894ZM386.489 131H384.781V124.084H386.363L386.503 124.98C386.937 124.28 387.777 123.874 388.715 123.874C390.451 123.874 391.347 124.952 391.347 126.744V131H389.639V127.15C389.639 125.988 389.065 125.428 388.183 125.428C387.133 125.428 386.489 126.156 386.489 127.276V131ZM396.147 131.182C394.145 131.182 392.899 129.712 392.899 127.57C392.899 125.414 394.159 123.874 396.245 123.874C397.211 123.874 398.065 124.28 398.499 124.966V120.584H400.193V131H398.625L398.513 129.922C398.093 130.72 397.197 131.182 396.147 131.182ZM396.525 129.614C397.715 129.614 398.485 128.76 398.485 127.514C398.485 126.268 397.715 125.4 396.525 125.4C395.335 125.4 394.607 126.282 394.607 127.514C394.607 128.746 395.335 129.614 396.525 129.614ZM403.107 122.698C402.519 122.698 402.057 122.236 402.057 121.662C402.057 121.088 402.519 120.64 403.107 120.64C403.667 120.64 404.129 121.088 404.129 121.662C404.129 122.236 403.667 122.698 403.107 122.698ZM402.253 131V124.084H403.961V131H402.253ZM407.713 131H406.005V124.084H407.587L407.727 124.98C408.161 124.28 409.001 123.874 409.939 123.874C411.675 123.874 412.571 124.952 412.571 126.744V131H410.863V127.15C410.863 125.988 410.289 125.428 409.407 125.428C408.357 125.428 407.713 126.156 407.713 127.276V131ZM414.137 127.388C414.137 125.372 415.453 123.86 417.427 123.86C418.463 123.86 419.275 124.294 419.681 125.036L419.779 124.084H421.361V130.65C421.361 132.96 419.975 134.402 417.735 134.402C415.747 134.402 414.389 133.268 414.179 131.42H415.887C415.999 132.316 416.685 132.848 417.735 132.848C418.911 132.848 419.667 132.106 419.667 130.958V129.81C419.233 130.454 418.379 130.86 417.385 130.86C415.425 130.86 414.137 129.39 414.137 127.388ZM415.859 127.346C415.859 128.508 416.601 129.376 417.721 129.376C418.897 129.376 419.625 128.55 419.625 127.346C419.625 126.17 418.911 125.358 417.721 125.358C416.587 125.358 415.859 126.212 415.859 127.346ZM425.579 121.942C425.579 123.118 424.795 124.028 423.675 124.168V123.496C424.277 123.384 424.711 123.006 424.711 122.516C424.599 122.558 424.473 122.586 424.319 122.586C423.815 122.586 423.409 122.236 423.409 121.62C423.409 121.004 423.829 120.57 424.445 120.57C425.103 120.57 425.579 121.102 425.579 121.942ZM428.351 121.942C428.351 123.118 427.567 124.028 426.447 124.168V123.496C427.049 123.384 427.469 123.006 427.469 122.516C427.357 122.558 427.231 122.586 427.077 122.586C426.573 122.586 426.181 122.236 426.181 121.62C426.181 121.004 426.601 120.57 427.217 120.57C427.875 120.57 428.351 121.102 428.351 121.942Z" fill="black" fill-opacity="0.56"/>
<path d="M994.834 125.167H989.834V120.167C989.834 119.946 989.746 119.734 989.59 119.577C989.434 119.421 989.222 119.333 989.001 119.333C988.78 119.333 988.568 119.421 988.411 119.577C988.255 119.734 988.167 119.946 988.167 120.167V125.167H983.167C982.946 125.167 982.734 125.254 982.578 125.411C982.422 125.567 982.334 125.779 982.334 126C982.334 126.221 982.422 126.433 982.578 126.589C982.734 126.746 982.946 126.833 983.167 126.833H988.167V131.833C988.167 132.054 988.255 132.266 988.411 132.423C988.568 132.579 988.78 132.667 989.001 132.667C989.222 132.667 989.434 132.579 989.59 132.423C989.746 132.266 989.834 132.054 989.834 131.833V126.833H994.834C995.055 126.833 995.267 126.746 995.423 126.589C995.58 126.433 995.667 126.221 995.667 126C995.667 125.779 995.58 125.567 995.423 125.411C995.267 125.254 995.055 125.167 994.834 125.167Z" fill="#3737FF"/>
<path d="M1014.89 120.3H1016.61V131.5H1014.19L1009.52 123.836L1008.57 122.06V131.5H1006.86V120.3H1009.29L1013.9 127.916L1014.89 129.772V120.3ZM1026.11 127.5C1026.11 127.74 1026.11 127.868 1026.09 128.172H1020.37C1020.48 129.724 1021.13 130.332 1022.57 130.332C1023.65 130.332 1024.11 130.06 1024.46 129.132L1025.93 129.676C1025.39 131.02 1024.13 131.66 1022.56 131.66C1020.22 131.66 1018.7 130.092 1018.7 127.676C1018.7 125.276 1020.27 123.66 1022.48 123.66C1024.62 123.66 1026.11 125.148 1026.11 127.5ZM1022.49 124.94C1021.21 124.94 1020.53 125.58 1020.38 126.972H1024.48C1024.41 125.5 1023.82 124.94 1022.49 124.94ZM1036.98 123.82H1038.76L1036.55 131.5H1034.71L1033.17 127.1L1032.76 125.66L1032.32 127.116L1030.77 131.5H1028.95L1026.72 123.82H1028.52L1029.65 128.492L1029.96 130.06L1030.4 128.492L1031.91 123.82H1033.57L1035.08 128.476L1035.52 130.092L1035.84 128.492L1036.98 123.82ZM1049.48 123.82H1051.27L1048.26 131.5H1046.23L1043.21 123.82H1045.02L1047.26 130.316L1049.48 123.82ZM1053.56 122.236C1052.86 122.236 1052.46 121.836 1052.44 121.132C1052.43 120.444 1052.84 120.076 1053.56 120.076C1054.27 120.076 1054.67 120.444 1054.68 121.132C1054.7 121.836 1054.3 122.236 1053.56 122.236ZM1052.73 131.5V123.82H1054.36V131.5H1052.73ZM1063.69 127.5C1063.69 127.74 1063.69 127.868 1063.67 128.172H1057.95C1058.06 129.724 1058.71 130.332 1060.15 130.332C1061.23 130.332 1061.69 130.06 1062.04 129.132L1063.51 129.676C1062.97 131.02 1061.71 131.66 1060.14 131.66C1057.8 131.66 1056.28 130.092 1056.28 127.676C1056.28 125.276 1057.85 123.66 1060.06 123.66C1062.2 123.66 1063.69 125.148 1063.69 127.5ZM1060.07 124.94C1058.79 124.94 1058.11 125.58 1057.96 126.972H1062.06C1061.99 125.5 1061.4 124.94 1060.07 124.94ZM1074.56 123.82H1076.33L1074.13 131.5H1072.29L1070.75 127.1L1070.33 125.66L1069.9 127.116L1068.35 131.5H1066.53L1064.3 123.82H1066.09L1067.23 128.492L1067.53 130.06L1067.98 128.492L1069.49 123.82H1071.15L1072.65 128.476L1073.1 130.092L1073.42 128.492L1074.56 123.82Z" fill="#3737FF"/>
</g>
<defs>
<clipPath id="clip0_879_40913">
<rect width="1063" height="44" fill="white" transform="translate(32 104)"/>
</clipPath>
</defs>
</svg>
