<svg width="24" height="24" viewBox="0 0 24 24" fill="none" xmlns="http://www.w3.org/2000/svg">
<path d="M13 15.9999H7.00001C6.73479 15.9999 6.48044 16.1053 6.2929 16.2928C6.10537 16.4804 6.00001 16.7347 6.00001 16.9999C6.00001 17.2652 6.10537 17.5195 6.2929 17.7071C6.48044 17.8946 6.73479 17.9999 7.00001 17.9999H13C13.2652 17.9999 13.5196 17.8946 13.7071 17.7071C13.8947 17.5195 14 17.2652 14 16.9999C14 16.7347 13.8947 16.4804 13.7071 16.2928C13.5196 16.1053 13.2652 15.9999 13 15.9999ZM9.00001 9.99995H11C11.2652 9.99995 11.5196 9.89459 11.7071 9.70705C11.8947 9.51952 12 9.26516 12 8.99995C12 8.73473 11.8947 8.48038 11.7071 8.29284C11.5196 8.1053 11.2652 7.99995 11 7.99995H9.00001C8.73479 7.99995 8.48044 8.1053 8.2929 8.29284C8.10537 8.48038 8.00001 8.73473 8.00001 8.99995C8.00001 9.26516 8.10537 9.51952 8.2929 9.70705C8.48044 9.89459 8.73479 9.99995 9.00001 9.99995V9.99995ZM21 11.9999H18V2.99995C18.0007 2.82374 17.9548 2.65047 17.867 2.49769C17.7792 2.34491 17.6526 2.21805 17.5 2.12995C17.348 2.04218 17.1755 1.99597 17 1.99597C16.8245 1.99597 16.652 2.04218 16.5 2.12995L13.5 3.84995L10.5 2.12995C10.348 2.04218 10.1755 1.99597 10 1.99597C9.82447 1.99597 9.65203 2.04218 9.50001 2.12995L6.50001 3.84995L3.50001 2.12995C3.34799 2.04218 3.17554 1.99597 3.00001 1.99597C2.82447 1.99597 2.65203 2.04218 2.50001 2.12995C2.3474 2.21805 2.22079 2.34491 2.13299 2.49769C2.04518 2.65047 1.99931 2.82374 2.00001 2.99995V18.9999C2.00001 19.7956 2.31608 20.5587 2.87869 21.1213C3.4413 21.6839 4.20436 21.9999 5.00001 21.9999H19C19.7957 21.9999 20.5587 21.6839 21.1213 21.1213C21.6839 20.5587 22 19.7956 22 18.9999V12.9999C22 12.7347 21.8947 12.4804 21.7071 12.2928C21.5196 12.1053 21.2652 11.9999 21 11.9999ZM5.00001 19.9999C4.73479 19.9999 4.48044 19.8946 4.2929 19.7071C4.10536 19.5195 4.00001 19.2652 4.00001 18.9999V4.72995L6.00001 5.86995C6.15435 5.95056 6.32589 5.99266 6.50001 5.99266C6.67413 5.99266 6.84567 5.95056 7.00001 5.86995L10 4.14995L13 5.86995C13.1543 5.95056 13.3259 5.99266 13.5 5.99266C13.6741 5.99266 13.8457 5.95056 14 5.86995L16 4.72995V18.9999C16.0027 19.3411 16.0636 19.6793 16.18 19.9999H5.00001ZM20 18.9999C20 19.2652 19.8947 19.5195 19.7071 19.7071C19.5196 19.8946 19.2652 19.9999 19 19.9999C18.7348 19.9999 18.4804 19.8946 18.2929 19.7071C18.1054 19.5195 18 19.2652 18 18.9999V13.9999H20V18.9999ZM13 11.9999H7.00001C6.73479 11.9999 6.48044 12.1053 6.2929 12.2928C6.10537 12.4804 6.00001 12.7347 6.00001 12.9999C6.00001 13.2652 6.10537 13.5195 6.2929 13.7071C6.48044 13.8946 6.73479 13.9999 7.00001 13.9999H13C13.2652 13.9999 13.5196 13.8946 13.7071 13.7071C13.8947 13.5195 14 13.2652 14 12.9999C14 12.7347 13.8947 12.4804 13.7071 12.2928C13.5196 12.1053 13.2652 11.9999 13 11.9999Z" fill="#246FFF"/>
</svg>
