<svg width="20" height="20" viewBox="0 0 20 20" fill="none" xmlns="http://www.w3.org/2000/svg">
<path d="M14.1667 7.64174C14.0105 7.48653 13.7993 7.39941 13.5792 7.39941C13.359 7.39941 13.1478 7.48653 12.9917 7.64174L10 10.5917L7.05001 7.64174C6.89387 7.48653 6.68266 7.39941 6.46251 7.39941C6.24235 7.39941 6.03114 7.48653 5.87501 7.64174C5.7969 7.71921 5.73491 7.81138 5.6926 7.91293C5.65029 8.01448 5.62851 8.1234 5.62851 8.23341C5.62851 8.34342 5.65029 8.45234 5.6926 8.55389C5.73491 8.65544 5.7969 8.74761 5.87501 8.82507L9.40834 12.3584C9.48581 12.4365 9.57798 12.4985 9.67953 12.5408C9.78108 12.5831 9.89 12.6049 10 12.6049C10.11 12.6049 10.2189 12.5831 10.3205 12.5408C10.422 12.4985 10.5142 12.4365 10.5917 12.3584L14.1667 8.82507C14.2448 8.74761 14.3068 8.65544 14.3491 8.55389C14.3914 8.45234 14.4132 8.34342 14.4132 8.23341C14.4132 8.1234 14.3914 8.01448 14.3491 7.91293C14.3068 7.81138 14.2448 7.71921 14.1667 7.64174Z" fill="black"/>
</svg>
