<svg width="24" height="24" viewBox="0 0 24 24" fill="none" xmlns="http://www.w3.org/2000/svg">
<path d="M12 2C10.0605 2.00369 8.16393 2.57131 6.54128 3.63374C4.91862 4.69617 3.63994 6.20754 2.86099 7.98377C2.08204 9.76 1.83643 11.7244 2.15408 13.6378C2.47173 15.5511 3.33893 17.3308 4.65005 18.76V18.76C5.58647 19.775 6.72299 20.5851 7.98799 21.1392C9.25298 21.6933 10.619 21.9793 12 21.9793C13.3811 21.9793 14.7471 21.6933 16.0121 21.1392C17.2771 20.5851 18.4136 19.775 19.35 18.76V18.76C20.6612 17.3308 21.5284 15.5511 21.846 13.6378C22.1637 11.7244 21.9181 9.76 21.1391 7.98377C20.3602 6.20754 19.0815 4.69617 17.4588 3.63374C15.8362 2.57131 13.9396 2.00369 12 2V2ZM12 20C9.92851 19.9969 7.93896 19.1903 6.45005 17.75C6.90209 16.6495 7.67108 15.7083 8.6593 15.0459C9.64752 14.3835 10.8104 14.0298 12 14.0298C13.1897 14.0298 14.3526 14.3835 15.3408 15.0459C16.329 15.7083 17.098 16.6495 17.55 17.75C16.0611 19.1903 14.0716 19.9969 12 20ZM10 10C10 9.60444 10.1173 9.21776 10.3371 8.88886C10.5569 8.55996 10.8692 8.30362 11.2347 8.15224C11.6001 8.00087 12.0023 7.96126 12.3902 8.03843C12.7782 8.1156 13.1346 8.30608 13.4143 8.58579C13.694 8.86549 13.8844 9.22186 13.9616 9.60982C14.0388 9.99778 13.9992 10.3999 13.8478 10.7654C13.6964 11.1308 13.4401 11.4432 13.1112 11.6629C12.7823 11.8827 12.3956 12 12 12C11.4696 12 10.9609 11.7893 10.5858 11.4142C10.2108 11.0391 10 10.5304 10 10ZM18.91 16C18.0166 14.4718 16.6415 13.283 15 12.62C15.5092 12.0427 15.841 11.3307 15.9555 10.5694C16.0701 9.80822 15.9625 9.03011 15.6458 8.3285C15.3291 7.62688 14.8166 7.03156 14.17 6.61397C13.5233 6.19637 12.7698 5.97425 12 5.97425C11.2303 5.97425 10.4768 6.19637 9.83014 6.61397C9.18346 7.03156 8.67102 7.62688 8.3543 8.3285C8.03758 9.03011 7.93004 9.80822 8.04458 10.5694C8.15912 11.3307 8.49088 12.0427 9.00005 12.62C7.35865 13.283 5.98352 14.4718 5.09005 16C4.37799 14.7871 4.00177 13.4065 4.00005 12C4.00005 9.87827 4.8429 7.84344 6.34319 6.34315C7.84349 4.84285 9.87832 4 12 4C14.1218 4 16.1566 4.84285 17.6569 6.34315C19.1572 7.84344 20 9.87827 20 12C19.9983 13.4065 19.6221 14.7871 18.91 16V16Z" fill="#246FFF"/>
</svg>
