<svg width="20" height="20" viewBox="0 0 20 20" fill="none" xmlns="http://www.w3.org/2000/svg">
<path d="M2.50054 10.0006L1.79652 9.74204C1.7352 9.909 1.73521 10.0923 1.79654 10.2593L2.50054 10.0006ZM17.5005 10.0006L18.2236 10.1997C18.2652 10.0489 18.2585 9.88886 18.2045 9.74204L17.5005 10.0006ZM14.0826 15.4064C14.4335 15.1863 14.5395 14.7234 14.3194 14.3725C14.0993 14.0216 13.6365 13.9156 13.2856 14.1356L14.0826 15.4064ZM16.0361 11.2615C15.8123 11.6101 15.9135 12.0741 16.262 12.2978C16.6106 12.5216 17.0746 12.4204 17.2983 12.0718L16.0361 11.2615ZM6.07411 6.31954C6.39836 6.06179 6.45227 5.58998 6.19452 5.26573C5.93677 4.94148 5.46496 4.88758 5.14071 5.14533L6.07411 6.31954ZM9.1672 3.41667C8.75299 3.41667 8.4172 3.75245 8.4172 4.16667C8.4172 4.58088 8.75299 4.91667 9.1672 4.91667V3.41667ZM3.03033 1.96967C2.73744 1.67678 2.26256 1.67678 1.96967 1.96967C1.67678 2.26256 1.67678 2.73744 1.96967 3.03033L3.03033 1.96967ZM16.9695 18.0301C17.2624 18.323 17.7372 18.323 18.0301 18.0301C18.323 17.7372 18.323 17.2624 18.0301 16.9695L16.9695 18.0301ZM2.50054 10.0006C1.79654 10.2593 1.79665 10.2596 1.79677 10.2599C1.79682 10.26 1.79695 10.2604 1.79705 10.2607C1.79725 10.2612 1.79749 10.2618 1.79776 10.2626C1.7983 10.264 1.79898 10.2658 1.79979 10.268C1.80141 10.2723 1.80357 10.278 1.80627 10.2851C1.81168 10.2993 1.81927 10.3188 1.82907 10.3435C1.84867 10.3927 1.87716 10.4623 1.91482 10.5493C1.99008 10.7231 2.10229 10.9672 2.25378 11.2583C2.55584 11.8386 3.0189 12.615 3.66354 13.3948C4.95003 14.9512 7.0172 16.5833 10.0005 16.5833V15.0833C7.62672 15.0833 5.9439 13.7992 4.81968 12.4391C4.25896 11.7608 3.85148 11.079 3.58435 10.5657C3.45123 10.31 3.35418 10.0984 3.29133 9.95325C3.25993 9.88073 3.23715 9.82498 3.22274 9.78879C3.21555 9.77071 3.21045 9.75753 3.20742 9.7496C3.20591 9.74564 3.20491 9.743 3.20443 9.74172C3.20419 9.74108 3.20408 9.74077 3.20409 9.74082C3.2041 9.74084 3.20414 9.74095 3.20422 9.74114C3.20425 9.74124 3.20433 9.74146 3.20435 9.7415C3.20443 9.74174 3.20453 9.74199 2.50054 10.0006ZM17.5005 10.0006C18.2045 9.74204 18.2044 9.74174 18.2043 9.74142C18.2043 9.74128 18.2041 9.74094 18.204 9.74066C18.2038 9.74011 18.2036 9.73947 18.2033 9.73874C18.2028 9.73729 18.2021 9.73547 18.2013 9.73331C18.1997 9.72899 18.1975 9.72326 18.1948 9.71619C18.1894 9.70204 18.1818 9.68246 18.172 9.65782C18.1524 9.60856 18.1239 9.53899 18.0863 9.452C18.011 9.27815 17.8988 9.03399 17.7473 8.74288C17.4453 8.16239 16.9822 7.38588 16.3376 6.60587C15.0511 5.04923 12.9839 3.41667 10.0005 3.41667V4.91667C12.3743 4.91667 14.0571 6.20109 15.1813 7.56143C15.7421 8.23991 16.1496 8.92189 16.4167 9.43527C16.5498 9.69109 16.6469 9.90271 16.7097 10.0479C16.7411 10.1204 16.7639 10.1762 16.7783 10.2124C16.7855 10.2305 16.7906 10.2437 16.7936 10.2516C16.7951 10.2556 16.7961 10.2582 16.7966 10.2595C16.7969 10.2601 16.797 10.2604 16.797 10.2604C16.7969 10.2604 16.7969 10.2603 16.7968 10.2601C16.7968 10.26 16.7967 10.2598 16.7967 10.2597C16.7966 10.2595 16.7965 10.2592 17.5005 10.0006ZM10.0005 16.5833C11.6166 16.5833 12.9736 16.102 14.0826 15.4064L13.2856 14.1356C12.3868 14.6994 11.3027 15.0833 10.0005 15.0833V16.5833ZM17.2983 12.0718C17.6486 11.5262 17.8754 11.0746 18.017 10.751C18.0878 10.5892 18.1372 10.4595 18.1701 10.3662C18.1865 10.3195 18.1988 10.282 18.2075 10.254C18.2119 10.2401 18.2153 10.2285 18.218 10.2194C18.2193 10.2149 18.2205 10.211 18.2214 10.2077C18.2219 10.206 18.2223 10.2045 18.2227 10.2032C18.2229 10.2025 18.223 10.2019 18.2232 10.2013C18.2233 10.201 18.2234 10.2007 18.2234 10.2004C18.2235 10.2003 18.2235 10.2001 18.2235 10.2C18.2236 10.1998 18.2236 10.1997 17.5005 10.0006C16.7774 9.80161 16.7775 9.80143 16.7775 9.80124C16.7775 9.80118 16.7776 9.801 16.7776 9.80088C16.7777 9.80064 16.7778 9.80042 16.7778 9.8002C16.7779 9.79977 16.778 9.79938 16.7781 9.79902C16.7783 9.79832 16.7785 9.79776 16.7786 9.79736C16.7788 9.79656 16.7789 9.79638 16.7788 9.7968C16.7785 9.79764 16.7776 9.80092 16.7758 9.80655C16.7723 9.81782 16.7656 9.83856 16.7551 9.86824C16.7342 9.92761 16.6983 10.0228 16.6428 10.1498C16.5317 10.4036 16.3419 10.785 16.0361 11.2615L17.2983 12.0718ZM5.14071 5.14533C3.95902 6.08468 3.1271 7.23304 2.59378 8.13183C2.32562 8.58375 2.12899 8.9793 1.9984 9.26442C1.93303 9.40716 1.88398 9.52272 1.85059 9.60444C1.83389 9.64531 1.82109 9.67776 1.81211 9.70096C1.80762 9.71256 1.80408 9.72186 1.80149 9.72874C1.80019 9.73218 1.79913 9.73501 1.7983 9.73724C1.79789 9.73835 1.79753 9.7393 1.79724 9.74011C1.79709 9.74051 1.79696 9.74087 1.79684 9.74119C1.79678 9.74135 1.7967 9.74157 1.79667 9.74165C1.79659 9.74185 1.79652 9.74204 2.50054 10.0006C3.20455 10.2592 3.20448 10.2594 3.20442 10.2596C3.20441 10.2596 3.20435 10.2598 3.20432 10.2598C3.20426 10.26 3.20421 10.2601 3.20417 10.2602C3.20411 10.2604 3.20409 10.2604 3.20414 10.2603C3.20422 10.2601 3.20453 10.2593 3.20507 10.2578C3.20614 10.255 3.20811 10.2498 3.21098 10.2424C3.21673 10.2276 3.2261 10.2037 3.23916 10.1718C3.26528 10.1078 3.30611 10.0114 3.36217 9.88904C3.47445 9.64388 3.64695 9.2964 3.88377 8.89727C4.36043 8.09397 5.08194 7.10823 6.07411 6.31954L5.14071 5.14533ZM10.0005 3.41667H9.1672V4.91667H10.0005V3.41667ZM1.96967 3.03033L16.9695 18.0301L18.0301 16.9695L3.03033 1.96967L1.96967 3.03033ZM10.0005 11.75C9.03404 11.75 8.25054 10.9665 8.25054 10H6.75054C6.75054 11.7949 8.20561 13.25 10.0005 13.25V11.75ZM8.25054 10C8.25054 9.40926 8.40119 9.04833 8.71173 8.77039L7.71135 7.65269C6.99898 8.29028 6.75054 9.10991 6.75054 10H8.25054ZM11.2286 11.2872C10.9496 11.5989 10.5893 11.75 10.0005 11.75V13.25C10.8926 13.25 11.7097 12.9988 12.3463 12.2876L11.2286 11.2872Z" fill="#B8B8B8"/>
</svg>
