<svg width="20" height="20" viewBox="0 0 20 20" fill="none" xmlns="http://www.w3.org/2000/svg">
<path d="M2.5 10.001L1.79599 9.74237C1.73466 9.90933 1.73467 10.0926 1.79601 10.2596L2.5 10.001ZM17.5 10.001L18.204 10.2596C18.2653 10.0926 18.2653 9.90933 18.204 9.74237L17.5 10.001ZM11.75 10.0003C11.75 10.9668 10.9665 11.7503 10 11.7503V13.2503C11.7949 13.2503 13.25 11.7953 13.25 10.0003H11.75ZM10 11.7503C9.0335 11.7503 8.25 10.9668 8.25 10.0003H6.75C6.75 11.7953 8.20507 13.2503 10 13.2503V11.7503ZM8.25 10.0003C8.25 9.03383 9.0335 8.25033 10 8.25033V6.75033C8.20507 6.75033 6.75 8.2054 6.75 10.0003H8.25ZM10 8.25033C10.9665 8.25033 11.75 9.03383 11.75 10.0003H13.25C13.25 8.2054 11.7949 6.75033 10 6.75033V8.25033ZM10 3.41699C7.0166 3.41699 4.94942 5.04956 3.66295 6.60619C3.01832 7.3862 2.55527 8.16271 2.25321 8.7432C2.10173 9.03432 1.98952 9.27848 1.91426 9.45233C1.87661 9.53932 1.84812 9.60889 1.82852 9.65815C1.81871 9.68279 1.81112 9.70236 1.80572 9.71651C1.80301 9.72359 1.80085 9.72931 1.79923 9.73364C1.79842 9.7358 1.79775 9.73761 1.79721 9.73907C1.79694 9.7398 1.7967 9.74044 1.7965 9.74099C1.7964 9.74126 1.79627 9.74161 1.79622 9.74175C1.7961 9.74207 1.79599 9.74237 2.5 10.001C3.20401 10.2595 3.20392 10.2598 3.20383 10.26C3.20381 10.2601 3.20373 10.2603 3.2037 10.2604C3.20363 10.2606 3.20359 10.2607 3.20358 10.2607C3.20356 10.2608 3.20367 10.2605 3.20391 10.2598C3.2044 10.2585 3.20539 10.2559 3.2069 10.2519C3.20993 10.244 3.21503 10.2308 3.22223 10.2127C3.23663 10.1765 3.25941 10.1208 3.29082 10.0482C3.35367 9.90304 3.45073 9.69142 3.58384 9.4356C3.85098 8.92222 4.25847 8.24024 4.81919 7.56176C5.94344 6.20141 7.62626 4.91699 10 4.91699V3.41699ZM2.5 10.001C1.79601 10.2596 1.79612 10.2599 1.79624 10.2602C1.79629 10.2604 1.79641 10.2607 1.79652 10.261C1.79672 10.2615 1.79696 10.2622 1.79723 10.2629C1.79777 10.2644 1.79844 10.2662 1.79925 10.2683C1.80087 10.2727 1.80303 10.2784 1.80574 10.2855C1.81114 10.2996 1.81873 10.3192 1.82854 10.3438C1.84814 10.3931 1.87663 10.4626 1.91429 10.5496C1.98955 10.7234 2.10176 10.9675 2.25324 11.2586C2.5553 11.839 3.01836 12.6153 3.663 13.3952C4.9495 14.9515 7.01667 16.5837 10 16.5837V15.0837C7.62619 15.0837 5.94336 13.7995 4.81914 12.4395C4.25842 11.7611 3.85095 11.0793 3.58381 10.5661C3.4507 10.3103 3.35365 10.0987 3.29079 9.95358C3.25939 9.88106 3.23661 9.82531 3.22221 9.78912C3.21501 9.77103 3.20991 9.75785 3.20689 9.74993C3.20537 9.74597 3.20438 9.74333 3.2039 9.74204C3.20365 9.7414 3.20354 9.7411 3.20356 9.74114C3.20357 9.74117 3.20361 9.74128 3.20368 9.74147C3.20372 9.74157 3.20379 9.74178 3.20381 9.74183C3.2039 9.74206 3.20399 9.74232 2.5 10.001ZM10 16.5837C12.9833 16.5837 15.0505 14.9515 16.337 13.3952C16.9816 12.6153 17.4447 11.839 17.7468 11.2586C17.8982 10.9675 18.0105 10.7234 18.0857 10.5496C18.1234 10.4626 18.1519 10.3931 18.1715 10.3438C18.1813 10.3192 18.1889 10.2996 18.1943 10.2855C18.197 10.2784 18.1991 10.2727 18.2007 10.2683C18.2016 10.2662 18.2022 10.2644 18.2028 10.2629C18.203 10.2622 18.2033 10.2615 18.2035 10.261C18.2036 10.2607 18.2037 10.2604 18.2038 10.2602C18.2039 10.2599 18.204 10.2596 17.5 10.001C16.796 9.74232 16.7961 9.74206 16.7962 9.74183C16.7962 9.74178 16.7963 9.74157 16.7963 9.74147C16.7964 9.74128 16.7964 9.74117 16.7964 9.74114C16.7965 9.7411 16.7963 9.7414 16.7961 9.74204C16.7956 9.74333 16.7946 9.74597 16.7931 9.74993C16.7901 9.75785 16.785 9.77103 16.7778 9.78912C16.7634 9.82531 16.7406 9.88106 16.7092 9.95358C16.6464 10.0987 16.5493 10.3103 16.4162 10.5661C16.1491 11.0793 15.7416 11.7611 15.1809 12.4395C14.0566 13.7995 12.3738 15.0837 10 15.0837V16.5837ZM17.5 10.001C18.204 9.74237 18.2039 9.74207 18.2038 9.74175C18.2037 9.74161 18.2036 9.74126 18.2035 9.74099C18.2033 9.74044 18.2031 9.7398 18.2028 9.73907C18.2023 9.73761 18.2016 9.7358 18.2008 9.73364C18.1991 9.72931 18.197 9.72359 18.1943 9.71651C18.1889 9.70236 18.1813 9.68279 18.1715 9.65815C18.1519 9.60889 18.1234 9.53932 18.0857 9.45233C18.0105 9.27848 17.8983 9.03432 17.7468 8.7432C17.4447 8.16271 16.9817 7.3862 16.337 6.60619C15.0506 5.04956 12.9834 3.41699 10 3.41699V4.91699C12.3737 4.91699 14.0566 6.20141 15.1808 7.56176C15.7415 8.24024 16.149 8.92222 16.4162 9.4356C16.5493 9.69142 16.6463 9.90304 16.7092 10.0482C16.7406 10.1208 16.7634 10.1765 16.7778 10.2127C16.785 10.2308 16.7901 10.244 16.7931 10.2519C16.7946 10.2559 16.7956 10.2585 16.7961 10.2598C16.7963 10.2605 16.7964 10.2608 16.7964 10.2607C16.7964 10.2607 16.7964 10.2606 16.7963 10.2604C16.7963 10.2603 16.7962 10.2601 16.7962 10.26C16.7961 10.2598 16.796 10.2595 17.5 10.001Z" fill="#B8B8B8"/>
</svg>
